{"height": 720, "width": 1280, "layers": [{"id": "L0", "lock": false, "y": 0, "label": "", "number": 0}, {"id": "L1", "lock": false, "y": 0, "label": "", "number": 1}, {"id": "L2", "lock": false, "y": 0, "label": "", "number": 2}, {"id": "L3", "lock": false, "y": 0, "label": "", "number": 3}, {"id": "L4", "lock": false, "y": 0, "label": "", "number": 4}], "effects": [{"id": "VHF5BZISRM", "contrast": {"Points": [{"interpolation": 2, "co": {"X": 1.0, "Y": 3.0}}]}, "replace_image": false, "end": 0.9107812499999994, "layer": 4, "start": 0, "type": "Mask", "brightness": {"Points": [{"handle_left": {"X": 0.5, "Y": 1.0}, "interpolation": 0, "handle_type": 0, "handle_right": {"X": 0.5, "Y": 0.0}, "co": {"X": 1.0, "Y": 1.0}}, {"handle_left": {"X": 0.5, "Y": 1.0}, "interpolation": 0, "handle_type": 0, "handle_right": {"X": 0.5, "Y": 0.0}, "co": {"X": 23.0, "Y": -1.0}}]}, "reader": {"height": 576, "width": 720, "video_length": "2592000", "audio_bit_rate": 0, "top_field_first": true, "display_ratio": {"den": 4, "num": 5}, "type": "QtImageReader", "video_bit_rate": 0, "vcodec": "", "acodec": "", "channel_layout": 4, "duration": 86400.0, "has_audio": false, "pixel_ratio": {"den": 1, "num": 1}, "file_size": "1658880", "fps": {"den": 1, "num": 30}, "path": "@transitions\\common\\fade.svg", "pixel_format": -1, "audio_stream_index": -1, "video_timebase": {"den": 30, "num": 1}, "audio_timebase": {"den": 1, "num": 1}, "video_stream_index": -1, "interlaced_frame": false, "channels": 0, "has_single_image": true, "has_video": true, "sample_rate": 0}, "title": "Transition", "position": 8.368281249999999}, {"id": "NEPPV31YOA", "contrast": {"Points": [{"interpolation": 2, "co": {"X": 1.0, "Y": 3.0}}]}, "replace_image": false, "end": 0.9809374999999996, "layer": 4, "start": 0, "type": "Mask", "brightness": {"Points": [{"handle_left": {"X": 0.5, "Y": 1.0}, "interpolation": 0, "handle_type": 0, "handle_right": {"X": 0.5, "Y": 0.0}, "co": {"X": 1.0, "Y": 1.0}}, {"handle_left": {"X": 0.5, "Y": 1.0}, "interpolation": 0, "handle_type": 0, "handle_right": {"X": 0.5, "Y": 0.0}, "co": {"X": 25.0, "Y": -1.0}}]}, "reader": {"height": 576, "width": 720, "video_length": "2592000", "audio_bit_rate": 0, "top_field_first": true, "display_ratio": {"den": 4, "num": 5}, "type": "QtImageReader", "video_bit_rate": 0, "vcodec": "", "acodec": "", "channel_layout": 4, "duration": 86400.0, "has_audio": false, "pixel_ratio": {"den": 1, "num": 1}, "file_size": "1658880", "fps": {"den": 1, "num": 30}, "path": "@transitions\\common\\fade.svg", "pixel_format": -1, "audio_stream_index": -1, "video_timebase": {"den": 30, "num": 1}, "audio_timebase": {"den": 1, "num": 1}, "video_stream_index": -1, "interlaced_frame": false, "channels": 0, "has_single_image": true, "has_video": true, "sample_rate": 0}, "title": "Transition", "position": 11.85734375}, {"id": "W530ZPN6L0", "contrast": {"Points": [{"interpolation": 2, "co": {"X": 1.0, "Y": 3.0}}]}, "replace_image": false, "end": 0.9804687499999858, "layer": 4, "start": 0, "type": "Mask", "brightness": {"Points": [{"handle_left": {"X": 0.5, "Y": 1.0}, "interpolation": 0, "handle_type": 0, "handle_right": {"X": 0.5, "Y": 0.0}, "co": {"X": 1.0, "Y": 1.0}}, {"handle_left": {"X": 0.5, "Y": 1.0}, "interpolation": 0, "handle_type": 0, "handle_right": {"X": 0.5, "Y": 0.0}, "co": {"X": 25.0, "Y": -1.0}}]}, "reader": {"height": 576, "width": 720, "video_length": "2592000", "audio_bit_rate": 0, "top_field_first": true, "display_ratio": {"den": 4, "num": 5}, "type": "QtImageReader", "video_bit_rate": 0, "vcodec": "", "acodec": "", "channel_layout": 4, "duration": 86400.0, "has_audio": false, "pixel_ratio": {"den": 1, "num": 1}, "file_size": "1658880", "fps": {"den": 1, "num": 30}, "path": "@transitions\\common\\fade.svg", "pixel_format": -1, "audio_stream_index": -1, "video_timebase": {"den": 30, "num": 1}, "audio_timebase": {"den": 1, "num": 1}, "video_stream_index": -1, "interlaced_frame": false, "channels": 0, "has_single_image": true, "has_video": true, "sample_rate": 0}, "title": "Transition", "position": 19.516875}, {"id": "MEZSPK54U2", "contrast": {"Points": [{"interpolation": 2, "co": {"X": 1.0, "Y": 3.0}}]}, "replace_image": false, "end": 1.1209375000000001, "layer": 4, "start": 0, "type": "Mask", "brightness": {"Points": [{"handle_left": {"X": 0.5, "Y": 1.0}, "interpolation": 0, "handle_type": 0, "handle_right": {"X": 0.5, "Y": 0.0}, "co": {"X": 1.0, "Y": 1.0}}, {"handle_left": {"X": 0.5, "Y": 1.0}, "interpolation": 0, "handle_type": 0, "handle_right": {"X": 0.5, "Y": 0.0}, "co": {"X": 28.0, "Y": -1.0}}]}, "reader": {"height": 576, "width": 720, "video_length": "2592000", "audio_bit_rate": 0, "top_field_first": true, "display_ratio": {"den": 4, "num": 5}, "type": "QtImageReader", "video_bit_rate": 0, "vcodec": "", "acodec": "", "channel_layout": 4, "duration": 86400.0, "has_audio": false, "pixel_ratio": {"den": 1, "num": 1}, "file_size": "1658880", "fps": {"den": 1, "num": 30}, "path": "@transitions\\common\\fade.svg", "pixel_format": -1, "audio_stream_index": -1, "video_timebase": {"den": 30, "num": 1}, "audio_timebase": {"den": 1, "num": 1}, "video_stream_index": -1, "interlaced_frame": false, "channels": 0, "has_single_image": true, "has_video": true, "sample_rate": 0}, "title": "Transition", "position": 23.9159375}, {"id": "EZSS7664M9", "contrast": {"Points": [{"interpolation": 2, "co": {"X": 1.0, "Y": 3.0}}]}, "replace_image": false, "end": 1.0509374999999963, "layer": 4, "start": 0, "type": "Mask", "brightness": {"Points": [{"handle_left": {"X": 0.5, "Y": 1.0}, "interpolation": 0, "handle_type": 0, "handle_right": {"X": 0.5, "Y": 0.0}, "co": {"X": 1.0, "Y": 1.0}}, {"handle_left": {"X": 0.5, "Y": 1.0}, "interpolation": 0, "handle_type": 0, "handle_right": {"X": 0.5, "Y": 0.0}, "co": {"X": 26.0, "Y": -1.0}}]}, "reader": {"height": 576, "width": 720, "video_length": "2592000", "audio_bit_rate": 0, "top_field_first": true, "display_ratio": {"den": 4, "num": 5}, "type": "QtImageReader", "video_bit_rate": 0, "vcodec": "", "acodec": "", "channel_layout": 4, "duration": 86400.0, "has_audio": false, "pixel_ratio": {"den": 1, "num": 1}, "file_size": "1658880", "fps": {"den": 1, "num": 30}, "path": "@transitions\\common\\fade.svg", "pixel_format": -1, "audio_stream_index": -1, "video_timebase": {"den": 30, "num": 1}, "audio_timebase": {"den": 1, "num": 1}, "video_stream_index": -1, "interlaced_frame": false, "channels": 0, "has_single_image": true, "has_video": true, "sample_rate": 0}, "title": "Transition", "position": 34.03421875}, {"id": "00SHXEYG7E", "contrast": {"Points": [{"interpolation": 2, "co": {"X": 1.0, "Y": 3.0}}]}, "replace_image": false, "end": 1.1242187500000043, "layer": 4, "start": 0, "type": "Mask", "brightness": {"Points": [{"handle_left": {"X": 0.5, "Y": 1.0}, "interpolation": 0, "handle_type": 0, "handle_right": {"X": 0.5, "Y": 0.0}, "co": {"X": 1.0, "Y": 1.0}}, {"handle_left": {"X": 0.5, "Y": 1.0}, "interpolation": 0, "handle_type": 0, "handle_right": {"X": 0.5, "Y": 0.0}, "co": {"X": 28.0, "Y": -1.0}}]}, "reader": {"height": 576, "width": 720, "video_length": "2592000", "audio_bit_rate": 0, "top_field_first": true, "display_ratio": {"den": 4, "num": 5}, "type": "QtImageReader", "video_bit_rate": 0, "vcodec": "", "acodec": "", "channel_layout": 4, "duration": 86400.0, "has_audio": false, "pixel_ratio": {"den": 1, "num": 1}, "file_size": "1658880", "fps": {"den": 1, "num": 30}, "path": "@transitions\\common\\fade.svg", "pixel_format": -1, "audio_stream_index": -1, "video_timebase": {"den": 30, "num": 1}, "audio_timebase": {"den": 1, "num": 1}, "video_stream_index": -1, "interlaced_frame": false, "channels": 0, "has_single_image": true, "has_video": true, "sample_rate": 0}, "title": "Transition", "position": 37.87}, {"id": "TUINYIA581", "contrast": {"Points": [{"interpolation": 2, "co": {"X": 1.0, "Y": 3.0}}]}, "replace_image": false, "end": 1.0499999999999972, "layer": 4, "start": 0, "type": "Mask", "brightness": {"Points": [{"handle_left": {"X": 0.5, "Y": 1.0}, "interpolation": 0, "handle_type": 0, "handle_right": {"X": 0.5, "Y": 0.0}, "co": {"X": 1.0, "Y": 1.0}}, {"handle_left": {"X": 0.5, "Y": 1.0}, "interpolation": 0, "handle_type": 0, "handle_right": {"X": 0.5, "Y": 0.0}, "co": {"X": 26.0, "Y": -1.0}}]}, "reader": {"height": 576, "width": 720, "video_length": "2592000", "audio_bit_rate": 0, "top_field_first": true, "display_ratio": {"den": 4, "num": 5}, "type": "QtImageReader", "video_bit_rate": 0, "vcodec": "", "acodec": "", "channel_layout": 4, "duration": 86400.0, "has_audio": false, "pixel_ratio": {"den": 1, "num": 1}, "file_size": "1658880", "fps": {"den": 1, "num": 30}, "path": "@transitions\\common\\fade.svg", "pixel_format": -1, "audio_stream_index": -1, "video_timebase": {"den": 30, "num": 1}, "audio_timebase": {"den": 1, "num": 1}, "video_stream_index": -1, "interlaced_frame": false, "channels": 0, "has_single_image": true, "has_video": true, "sample_rate": 0}, "title": "Transition", "position": 42.699999999999996}, {"id": "ALPXWN5KRP", "contrast": {"Points": [{"interpolation": 2, "co": {"X": 1.0, "Y": 3.0}}]}, "replace_image": false, "end": 1.1123437500000009, "layer": 4, "start": 0, "type": "Mask", "brightness": {"Points": [{"handle_left": {"X": 0.5, "Y": 1.0}, "interpolation": 0, "handle_type": 0, "handle_right": {"X": 0.5, "Y": 0.0}, "co": {"X": 1.0, "Y": 1.0}}, {"handle_left": {"X": 0.5, "Y": 1.0}, "interpolation": 0, "handle_type": 0, "handle_right": {"X": 0.5, "Y": 0.0}, "co": {"X": 28.0, "Y": -1.0}}]}, "reader": {"height": 576, "width": 720, "video_length": "2592000", "audio_bit_rate": 0, "top_field_first": true, "display_ratio": {"den": 4, "num": 5}, "type": "QtImageReader", "video_bit_rate": 0, "vcodec": "", "acodec": "", "channel_layout": 4, "duration": 86400.0, "has_audio": false, "pixel_ratio": {"den": 1, "num": 1}, "file_size": "1658880", "fps": {"den": 1, "num": 30}, "path": "@transitions\\common\\fade.svg", "pixel_format": -1, "audio_stream_index": -1, "video_timebase": {"den": 30, "num": 1}, "audio_timebase": {"den": 1, "num": 1}, "video_stream_index": -1, "interlaced_frame": false, "channels": 0, "has_single_image": true, "has_video": true, "sample_rate": 0}, "title": "Transition", "position": 47.739999999999995}, {"id": "XVRR2MCGC8", "brightness": {"Points": [{"handle_left": {"X": 0.5, "Y": 1.0}, "interpolation": 0, "handle_type": 0, "handle_right": {"X": 0.5, "Y": 0.0}, "co": {"X": 1.0, "Y": 1.0}}, {"handle_left": {"X": 0.5, "Y": 1.0}, "interpolation": 0, "handle_type": 0, "handle_right": {"X": 0.5, "Y": 0.0}, "co": {"X": 18.0, "Y": -1.0}}]}, "replace_image": false, "position": 3.74828125, "layer": 4, "start": 0, "type": "Mask", "reader": {"height": 576, "width": 720, "video_length": "2592000", "audio_bit_rate": 0, "top_field_first": true, "display_ratio": {"den": 4, "num": 5}, "type": "QtImageReader", "video_bit_rate": 0, "channel_layout": 4, "acodec": "", "vcodec": "", "duration": 86400.0, "has_audio": false, "pixel_ratio": {"den": 1, "num": 1}, "file_size": "1658880", "fps": {"den": 1, "num": 30}, "path": "@transitions\\common\\fade.svg", "pixel_format": -1, "audio_stream_index": -1, "video_timebase": {"den": 30, "num": 1}, "audio_timebase": {"den": 1, "num": 1}, "video_stream_index": -1, "interlaced_frame": false, "channels": 0, "has_single_image": true, "has_video": true, "sample_rate": 0}, "title": "Transition", "end": 0.7217187500000009, "contrast": {"Points": [{"interpolation": 2, "co": {"X": 1.0, "Y": 3.0}}]}}, {"id": "TVMV1QDW4Y", "brightness": {"Points": [{"handle_left": {"X": 0.5, "Y": 1.0}, "interpolation": 0, "handle_type": 0, "handle_right": {"X": 0.5, "Y": 0.0}, "co": {"X": 1.0, "Y": 1.0}}, {"handle_left": {"X": 0.5, "Y": 1.0}, "interpolation": 0, "handle_type": 0, "handle_right": {"X": 0.5, "Y": 0.0}, "co": {"X": 31.0, "Y": -1.0}}]}, "replace_image": false, "position": 54.04, "layer": 4, "start": 0, "type": "Mask", "reader": {"height": 576, "width": 720, "video_length": "2592000", "audio_bit_rate": 0, "top_field_first": true, "display_ratio": {"den": 4, "num": 5}, "type": "QtImageReader", "video_bit_rate": 0, "channel_layout": 4, "acodec": "", "vcodec": "", "duration": 86400.0, "has_audio": false, "pixel_ratio": {"den": 1, "num": 1}, "file_size": "1658880", "fps": {"den": 1, "num": 30}, "path": "@transitions\\common\\fade.svg", "pixel_format": -1, "audio_stream_index": -1, "video_timebase": {"den": 30, "num": 1}, "audio_timebase": {"den": 1, "num": 1}, "video_stream_index": -1, "interlaced_frame": false, "channels": 0, "has_single_image": true, "has_video": true, "sample_rate": 0}, "title": "Transition", "end": 1.259999999999998, "contrast": {"Points": [{"interpolation": 2, "co": {"X": 1.0, "Y": 3.0}}]}}, {"id": "9S8NSG1376", "brightness": {"Points": [{"handle_left": {"X": 0.5, "Y": 1.0}, "interpolation": 0, "handle_type": 0, "handle_right": {"X": 0.5, "Y": 0.0}, "co": {"X": 1.0, "Y": 1.0}}, {"handle_left": {"X": 0.5, "Y": 1.0}, "interpolation": 0, "handle_type": 0, "handle_right": {"X": 0.5, "Y": 0.0}, "co": {"X": 35.0, "Y": -1.0}}]}, "replace_image": false, "position": 56.059062499999996, "layer": 4, "start": 0, "type": "Mask", "reader": {"height": 576, "width": 720, "video_length": "2592000", "audio_bit_rate": 0, "top_field_first": true, "display_ratio": {"den": 4, "num": 5}, "type": "QtImageReader", "video_bit_rate": 0, "channel_layout": 4, "acodec": "", "vcodec": "", "duration": 86400.0, "has_audio": false, "pixel_ratio": {"den": 1, "num": 1}, "file_size": "1658880", "fps": {"den": 1, "num": 30}, "path": "@transitions\\common\\fade.svg", "pixel_format": -1, "audio_stream_index": -1, "video_timebase": {"den": 30, "num": 1}, "audio_timebase": {"den": 1, "num": 1}, "video_stream_index": -1, "interlaced_frame": false, "channels": 0, "has_single_image": true, "has_video": true, "sample_rate": 0}, "title": "Transition", "end": 1.4009375000000048, "contrast": {"Points": [{"interpolation": 2, "co": {"X": 1.0, "Y": 3.0}}]}}, {"id": "DE5U7SUIS0", "brightness": {"Points": [{"handle_left": {"X": 0.5, "Y": 1.0}, "interpolation": 0, "handle_type": 0, "handle_right": {"X": 0.5, "Y": 0.0}, "co": {"X": 1.0, "Y": 1.0}}, {"handle_left": {"X": 0.5, "Y": 1.0}, "interpolation": 0, "handle_type": 0, "handle_right": {"X": 0.5, "Y": 0.0}, "co": {"X": 33.0, "Y": -1.0}}]}, "replace_image": false, "position": 57.459062499999995, "layer": 4, "start": 0, "type": "Mask", "reader": {"height": 576, "width": 720, "video_length": "2592000", "audio_bit_rate": 0, "top_field_first": true, "display_ratio": {"den": 4, "num": 5}, "type": "QtImageReader", "video_bit_rate": 0, "channel_layout": 4, "acodec": "", "vcodec": "", "duration": 86400.0, "has_audio": false, "pixel_ratio": {"den": 1, "num": 1}, "file_size": "1658880", "fps": {"den": 1, "num": 30}, "path": "@transitions\\common\\fade.svg", "pixel_format": -1, "audio_stream_index": -1, "video_timebase": {"den": 30, "num": 1}, "audio_timebase": {"den": 1, "num": 1}, "video_stream_index": -1, "interlaced_frame": false, "channels": 0, "has_single_image": true, "has_video": true, "sample_rate": 0}, "title": "Transition", "end": 1.3200000000000003, "contrast": {"Points": [{"interpolation": 2, "co": {"X": 1.0, "Y": 3.0}}]}}], "clips": [{"crop_width": {"Points": [{"interpolation": 2, "co": {"X": 1.0, "Y": -1.0}}]}, "display": 0, "waveform": false, "channel_filter": {"Points": [{"interpolation": 2, "co": {"X": 1.0, "Y": -1.0}}]}, "effects": [], "layer": 4, "scale_y": {"Points": [{"interpolation": 2, "co": {"X": 1.0, "Y": 1.0}}]}, "shear_y": {"Points": [{"interpolation": 2, "co": {"X": 1.0, "Y": 0.0}}]}, "rotation": {"Points": [{"interpolation": 2, "co": {"X": 1.0, "Y": 0.0}}]}, "end": 6.239999999999999, "time": {"Points": [{"interpolation": 2, "co": {"X": 1.0, "Y": 1.0}}]}, "crop_x": {"Points": [{"interpolation": 2, "co": {"X": 1.0, "Y": 0.0}}]}, "shear_x": {"Points": [{"interpolation": 2, "co": {"X": 1.0, "Y": 0.0}}]}, "duration": 857.8773193359375, "perspective_c1_x": {"Points": [{"interpolation": 2, "co": {"X": 1.0, "Y": -1.0}}]}, "has_audio": {"Points": [{"interpolation": 2, "co": {"X": 1.0, "Y": -1.0}}]}, "perspective_c4_y": {"Points": [{"interpolation": 2, "co": {"X": 1.0, "Y": -1.0}}]}, "perspective_c3_y": {"Points": [{"interpolation": 2, "co": {"X": 1.0, "Y": -1.0}}]}, "channel_mapping": {"Points": [{"interpolation": 2, "co": {"X": 1.0, "Y": -1.0}}]}, "perspective_c4_x": {"Points": [{"interpolation": 2, "co": {"X": 1.0, "Y": -1.0}}]}, "position": 3.74828125, "scale": 1, "wave_color": {"blue": {"Points": [{"handle_left": {"X": 0.5, "Y": 1.0}, "interpolation": 0, "handle_type": 0, "handle_right": {"X": 0.5, "Y": 0.0}, "co": {"X": 1.0, "Y": 255.0}}]}, "green": {"Points": [{"handle_left": {"X": 0.5, "Y": 1.0}, "interpolation": 0, "handle_type": 0, "handle_right": {"X": 0.5, "Y": 0.0}, "co": {"X": 1.0, "Y": 123.0}}]}, "red": {"Points": [{"handle_left": {"X": 0.5, "Y": 1.0}, "interpolation": 0, "handle_type": 0, "handle_right": {"X": 0.5, "Y": 0.0}, "co": {"X": 1.0, "Y": 0.0}}]}, "alpha": {"Points": [{"handle_left": {"X": 0.5, "Y": 1.0}, "interpolation": 0, "handle_type": 0, "handle_right": {"X": 0.5, "Y": 0.0}, "co": {"X": 1.0, "Y": 255.0}}]}}, "perspective_c1_y": {"Points": [{"interpolation": 2, "co": {"X": 1.0, "Y": -1.0}}]}, "file_id": "KMO2K20KW3", "location_y": {"Points": [{"interpolation": 2, "co": {"X": 1.0, "Y": 0.0}}]}, "anchor": 0, "gravity": 4, "volume": {"Points": [{"interpolation": 2, "co": {"X": 1.0, "Y": 1.0}}, {"handle_left": {"X": 0.5, "Y": 1.0}, "interpolation": 0, "handle_type": 0, "handle_right": {"X": 0.5, "Y": 0.0}, "co": {"X": 17.0, "Y": 0.0}}]}, "perspective_c2_y": {"Points": [{"interpolation": 2, "co": {"X": 1.0, "Y": -1.0}}]}, "title": "index.html - Google Chrome 11_27_2017 4_25_11 PM.mp4", "perspective_c3_x": {"Points": [{"interpolation": 2, "co": {"X": 1.0, "Y": -1.0}}]}, "id": "D7NUNOPHFR", "crop_y": {"Points": [{"interpolation": 2, "co": {"X": 1.0, "Y": 0.0}}]}, "perspective_c2_x": {"Points": [{"interpolation": 2, "co": {"X": 1.0, "Y": -1.0}}]}, "start": 0.6599999999999999, "image": "..\\..\\..\\..\\..\\.openshot_qt\\thumbnail\\D7NUNOPHFR-21.png", "alpha": {"Points": [{"interpolation": 2, "co": {"X": 1.0, "Y": 1.0}}]}, "crop_height": {"Points": [{"interpolation": 2, "co": {"X": 1.0, "Y": -1.0}}]}, "reader": {"height": 776, "width": 1376, "video_length": "25729", "audio_bit_rate": 131760, "top_field_first": true, "display_ratio": {"den": 97, "num": 172}, "type": "FFmpegReader", "video_bit_rate": 5473610, "vcodec": "h264", "acodec": "aac", "channel_layout": 3, "duration": 857.8773193359375, "has_audio": true, "pixel_ratio": {"den": 1, "num": 1}, "file_size": "586964452", "fps": {"den": 12866759, "num": 385935000}, "path": "..\\..\\..\\..\\..\\Videos\\Captures\\index.html - Google Chrome 11_27_2017 4_25_11 PM.mp4", "pixel_format": 0, "audio_stream_index": 1, "video_timebase": {"den": 30000, "num": 1}, "audio_timebase": {"den": 48000, "num": 1}, "video_stream_index": 0, "interlaced_frame": false, "channels": 2, "has_single_image": false, "has_video": true, "sample_rate": 48000}, "location_x": {"Points": [{"interpolation": 2, "co": {"X": 1.0, "Y": 0.0}}]}, "has_video": {"Points": [{"interpolation": 2, "co": {"X": 1.0, "Y": -1.0}}]}, "scale_x": {"Points": [{"interpolation": 2, "co": {"X": 1.0, "Y": 1.0}}]}}, {"crop_width": {"Points": [{"interpolation": 2, "co": {"X": 1.0, "Y": -1.0}}]}, "display": 0, "waveform": false, "channel_filter": {"Points": [{"interpolation": 2, "co": {"X": 1.0, "Y": -1.0}}]}, "effects": [], "layer": 4, "scale_y": {"Points": [{"interpolation": 2, "co": {"X": 1.0, "Y": 1.0}}]}, "shear_y": {"Points": [{"interpolation": 2, "co": {"X": 1.0, "Y": 0.0}}]}, "rotation": {"Points": [{"interpolation": 2, "co": {"X": 1.0, "Y": 0.0}}]}, "end": 92.27999999999999, "time": {"Points": [{"interpolation": 1, "co": {"X": 1.0, "Y": 0.0}}]}, "crop_x": {"Points": [{"interpolation": 2, "co": {"X": 1.0, "Y": 0.0}}]}, "shear_x": {"Points": [{"interpolation": 2, "co": {"X": 1.0, "Y": 0.0}}]}, "duration": 857.8773193359375, "perspective_c1_x": {"Points": [{"interpolation": 2, "co": {"X": 1.0, "Y": -1.0}}]}, "has_audio": {"Points": [{"interpolation": 2, "co": {"X": 1.0, "Y": -1.0}}]}, "perspective_c4_y": {"Points": [{"interpolation": 2, "co": {"X": 1.0, "Y": -1.0}}]}, "perspective_c3_y": {"Points": [{"interpolation": 2, "co": {"X": 1.0, "Y": -1.0}}]}, "channel_mapping": {"Points": [{"interpolation": 2, "co": {"X": 1.0, "Y": -1.0}}]}, "perspective_c4_x": {"Points": [{"interpolation": 2, "co": {"X": 1.0, "Y": -1.0}}]}, "position": 37.87, "scale": 1, "wave_color": {"blue": {"Points": [{"handle_left": {"X": 0.5, "Y": 1.0}, "interpolation": 0, "handle_type": 0, "handle_right": {"X": 0.5, "Y": 0.0}, "co": {"X": 1.0, "Y": 255.0}}]}, "green": {"Points": [{"handle_left": {"X": 0.5, "Y": 1.0}, "interpolation": 0, "handle_type": 0, "handle_right": {"X": 0.5, "Y": 0.0}, "co": {"X": 1.0, "Y": 123.0}}]}, "red": {"Points": [{"handle_left": {"X": 0.5, "Y": 1.0}, "interpolation": 0, "handle_type": 0, "handle_right": {"X": 0.5, "Y": 0.0}, "co": {"X": 1.0, "Y": 0.0}}]}, "alpha": {"Points": [{"handle_left": {"X": 0.5, "Y": 1.0}, "interpolation": 0, "handle_type": 0, "handle_right": {"X": 0.5, "Y": 0.0}, "co": {"X": 1.0, "Y": 255.0}}]}}, "perspective_c1_y": {"Points": [{"interpolation": 2, "co": {"X": 1.0, "Y": -1.0}}]}, "file_id": "KMO2K20KW3", "location_y": {"Points": [{"interpolation": 2, "co": {"X": 1.0, "Y": 0.0}}]}, "anchor": 0, "gravity": 4, "volume": {"Points": [{"interpolation": 2, "co": {"X": 1.0, "Y": 1.0}}, {"handle_left": {"X": 0.5, "Y": 1.0}, "interpolation": 0, "handle_type": 0, "handle_right": {"X": 0.5, "Y": 0.0}, "co": {"X": 2075.0, "Y": 0.0}}, {"handle_left": {"X": 0.5, "Y": 1.0}, "interpolation": 0, "handle_type": 0, "handle_right": {"X": 0.5, "Y": 0.0}, "co": {"X": 2075.0, "Y": 0.0}}]}, "perspective_c2_y": {"Points": [{"interpolation": 2, "co": {"X": 1.0, "Y": -1.0}}]}, "title": "index.html - Google Chrome 11_27_2017 4_25_11 PM.mp4", "perspective_c3_x": {"Points": [{"interpolation": 2, "co": {"X": 1.0, "Y": -1.0}}]}, "id": "FVONGYF9VS", "crop_y": {"Points": [{"interpolation": 2, "co": {"X": 1.0, "Y": 0.0}}]}, "perspective_c2_x": {"Points": [{"interpolation": 2, "co": {"X": 1.0, "Y": -1.0}}]}, "start": 86.39999999999999, "image": "..\\..\\..\\..\\..\\.openshot_qt\\thumbnail\\FVONGYF9VS-2593.png", "alpha": {"Points": [{"interpolation": 2, "co": {"X": 1.0, "Y": 1.0}}]}, "crop_height": {"Points": [{"interpolation": 2, "co": {"X": 1.0, "Y": -1.0}}]}, "reader": {"height": 776, "width": 1376, "video_length": "25729", "audio_bit_rate": 131760, "top_field_first": true, "display_ratio": {"den": 97, "num": 172}, "type": "FFmpegReader", "video_bit_rate": 5473610, "vcodec": "h264", "acodec": "aac", "channel_layout": 3, "duration": 857.8773193359375, "has_audio": true, "pixel_ratio": {"den": 1, "num": 1}, "file_size": "586964452", "fps": {"den": 12866759, "num": 385935000}, "path": "..\\..\\..\\..\\..\\Videos\\Captures\\index.html - Google Chrome 11_27_2017 4_25_11 PM.mp4", "pixel_format": 0, "audio_stream_index": 1, "video_timebase": {"den": 30000, "num": 1}, "audio_timebase": {"den": 48000, "num": 1}, "video_stream_index": 0, "interlaced_frame": false, "channels": 2, "has_single_image": false, "has_video": true, "sample_rate": 48000}, "location_x": {"Points": [{"interpolation": 2, "co": {"X": 1.0, "Y": 0.0}}]}, "has_video": {"Points": [{"interpolation": 2, "co": {"X": 1.0, "Y": -1.0}}]}, "scale_x": {"Points": [{"interpolation": 2, "co": {"X": 1.0, "Y": 1.0}}]}}, {"crop_width": {"Points": [{"interpolation": 2, "co": {"X": 1.0, "Y": -1.0}}]}, "display": 0, "waveform": false, "channel_filter": {"Points": [{"interpolation": 2, "co": {"X": 1.0, "Y": -1.0}}]}, "effects": [], "layer": 4, "scale_y": {"Points": [{"interpolation": 2, "co": {"X": 1.0, "Y": 1.0}}]}, "shear_y": {"Points": [{"interpolation": 2, "co": {"X": 1.0, "Y": 0.0}}]}, "rotation": {"Points": [{"interpolation": 2, "co": {"X": 1.0, "Y": 0.0}}]}, "end": 416.72999999999996, "time": {"Points": [{"interpolation": 2, "co": {"X": 1.0, "Y": 1.0}}]}, "crop_x": {"Points": [{"interpolation": 2, "co": {"X": 1.0, "Y": 0.0}}]}, "shear_x": {"Points": [{"interpolation": 2, "co": {"X": 1.0, "Y": 0.0}}]}, "duration": 857.8773193359375, "perspective_c1_x": {"Points": [{"interpolation": 2, "co": {"X": 1.0, "Y": -1.0}}]}, "has_audio": {"Points": [{"interpolation": 2, "co": {"X": 1.0, "Y": -1.0}}]}, "perspective_c4_y": {"Points": [{"interpolation": 2, "co": {"X": 1.0, "Y": -1.0}}]}, "perspective_c3_y": {"Points": [{"interpolation": 2, "co": {"X": 1.0, "Y": -1.0}}]}, "channel_mapping": {"Points": [{"interpolation": 2, "co": {"X": 1.0, "Y": -1.0}}]}, "perspective_c4_x": {"Points": [{"interpolation": 2, "co": {"X": 1.0, "Y": -1.0}}]}, "position": 11.85734375, "scale": 1, "wave_color": {"blue": {"Points": [{"handle_left": {"X": 0.5, "Y": 1.0}, "interpolation": 0, "handle_type": 0, "handle_right": {"X": 0.5, "Y": 0.0}, "co": {"X": 1.0, "Y": 255.0}}]}, "green": {"Points": [{"handle_left": {"X": 0.5, "Y": 1.0}, "interpolation": 0, "handle_type": 0, "handle_right": {"X": 0.5, "Y": 0.0}, "co": {"X": 1.0, "Y": 123.0}}]}, "red": {"Points": [{"handle_left": {"X": 0.5, "Y": 1.0}, "interpolation": 0, "handle_type": 0, "handle_right": {"X": 0.5, "Y": 0.0}, "co": {"X": 1.0, "Y": 0.0}}]}, "alpha": {"Points": [{"handle_left": {"X": 0.5, "Y": 1.0}, "interpolation": 0, "handle_type": 0, "handle_right": {"X": 0.5, "Y": 0.0}, "co": {"X": 1.0, "Y": 255.0}}]}}, "perspective_c1_y": {"Points": [{"interpolation": 2, "co": {"X": 1.0, "Y": -1.0}}]}, "file_id": "KMO2K20KW3", "location_y": {"Points": [{"interpolation": 2, "co": {"X": 1.0, "Y": 0.0}}]}, "anchor": 0, "gravity": 4, "volume": {"Points": [{"interpolation": 2, "co": {"X": 1.0, "Y": 1.0}}, {"handle_left": {"X": 0.5, "Y": 1.0}, "interpolation": 0, "handle_type": 0, "handle_right": {"X": 0.5, "Y": 0.0}, "co": {"X": 9795.0, "Y": 0.0}}, {"handle_left": {"X": 0.5, "Y": 1.0}, "interpolation": 0, "handle_type": 0, "handle_right": {"X": 0.5, "Y": 0.0}, "co": {"X": 9795.0, "Y": 0.0}}, {"handle_left": {"X": 0.5, "Y": 1.0}, "interpolation": 0, "handle_type": 0, "handle_right": {"X": 0.5, "Y": 0.0}, "co": {"X": 9795.0, "Y": 0.0}}, {"handle_left": {"X": 0.5, "Y": 1.0}, "interpolation": 0, "handle_type": 0, "handle_right": {"X": 0.5, "Y": 0.0}, "co": {"X": 9795.0, "Y": 0.0}}]}, "perspective_c2_y": {"Points": [{"interpolation": 2, "co": {"X": 1.0, "Y": -1.0}}]}, "title": "index.html - Google Chrome 11_27_2017 4_25_11 PM.mp4", "perspective_c3_x": {"Points": [{"interpolation": 2, "co": {"X": 1.0, "Y": -1.0}}]}, "id": "AD57EI7486", "crop_y": {"Points": [{"interpolation": 2, "co": {"X": 1.0, "Y": 0.0}}]}, "perspective_c2_x": {"Points": [{"interpolation": 2, "co": {"X": 1.0, "Y": -1.0}}]}, "start": 408.09, "image": "..\\..\\..\\..\\..\\.openshot_qt\\thumbnail\\AD57EI7486-12242.png", "alpha": {"Points": [{"interpolation": 2, "co": {"X": 1.0, "Y": 1.0}}]}, "crop_height": {"Points": [{"interpolation": 2, "co": {"X": 1.0, "Y": -1.0}}]}, "reader": {"height": 776, "width": 1376, "video_length": "25729", "audio_bit_rate": 131760, "top_field_first": true, "display_ratio": {"den": 97, "num": 172}, "type": "FFmpegReader", "video_bit_rate": 5473610, "vcodec": "h264", "acodec": "aac", "channel_layout": 3, "duration": 857.8773193359375, "has_audio": true, "pixel_ratio": {"den": 1, "num": 1}, "file_size": "586964452", "fps": {"den": 12866759, "num": 385935000}, "path": "..\\..\\..\\..\\..\\Videos\\Captures\\index.html - Google Chrome 11_27_2017 4_25_11 PM.mp4", "pixel_format": 0, "audio_stream_index": 1, "video_timebase": {"den": 30000, "num": 1}, "audio_timebase": {"den": 48000, "num": 1}, "video_stream_index": 0, "interlaced_frame": false, "channels": 2, "has_single_image": false, "has_video": true, "sample_rate": 48000}, "location_x": {"Points": [{"interpolation": 2, "co": {"X": 1.0, "Y": 0.0}}]}, "has_video": {"Points": [{"interpolation": 2, "co": {"X": 1.0, "Y": -1.0}}]}, "scale_x": {"Points": [{"interpolation": 2, "co": {"X": 1.0, "Y": 1.0}}]}}, {"crop_width": {"Points": [{"interpolation": 2, "co": {"X": 1.0, "Y": -1.0}}]}, "display": 0, "waveform": false, "channel_filter": {"Points": [{"interpolation": 2, "co": {"X": 1.0, "Y": -1.0}}]}, "effects": [], "layer": 4, "scale_y": {"Points": [{"interpolation": 2, "co": {"X": 1.0, "Y": 1.0}}]}, "shear_y": {"Points": [{"interpolation": 2, "co": {"X": 1.0, "Y": 0.0}}]}, "rotation": {"Points": [{"interpolation": 2, "co": {"X": 1.0, "Y": 0.0}}]}, "end": 321.36234375, "time": {"Points": [{"interpolation": 1, "co": {"X": 1.0, "Y": 0.0}}]}, "crop_x": {"Points": [{"interpolation": 2, "co": {"X": 1.0, "Y": 0.0}}]}, "shear_x": {"Points": [{"interpolation": 2, "co": {"X": 1.0, "Y": 0.0}}]}, "duration": 857.8773193359375, "perspective_c1_x": {"Points": [{"interpolation": 2, "co": {"X": 1.0, "Y": -1.0}}]}, "has_audio": {"Points": [{"interpolation": 2, "co": {"X": 1.0, "Y": -1.0}}]}, "perspective_c4_y": {"Points": [{"interpolation": 2, "co": {"X": 1.0, "Y": -1.0}}]}, "perspective_c3_y": {"Points": [{"interpolation": 2, "co": {"X": 1.0, "Y": -1.0}}]}, "channel_mapping": {"Points": [{"interpolation": 2, "co": {"X": 1.0, "Y": -1.0}}]}, "perspective_c4_x": {"Points": [{"interpolation": 2, "co": {"X": 1.0, "Y": -1.0}}]}, "position": 42.699999999999996, "scale": 1, "wave_color": {"blue": {"Points": [{"handle_left": {"X": 0.5, "Y": 1.0}, "interpolation": 0, "handle_type": 0, "handle_right": {"X": 0.5, "Y": 0.0}, "co": {"X": 1.0, "Y": 255.0}}]}, "green": {"Points": [{"handle_left": {"X": 0.5, "Y": 1.0}, "interpolation": 0, "handle_type": 0, "handle_right": {"X": 0.5, "Y": 0.0}, "co": {"X": 1.0, "Y": 123.0}}]}, "red": {"Points": [{"handle_left": {"X": 0.5, "Y": 1.0}, "interpolation": 0, "handle_type": 0, "handle_right": {"X": 0.5, "Y": 0.0}, "co": {"X": 1.0, "Y": 0.0}}]}, "alpha": {"Points": [{"handle_left": {"X": 0.5, "Y": 1.0}, "interpolation": 0, "handle_type": 0, "handle_right": {"X": 0.5, "Y": 0.0}, "co": {"X": 1.0, "Y": 255.0}}]}}, "perspective_c1_y": {"Points": [{"interpolation": 2, "co": {"X": 1.0, "Y": -1.0}}]}, "file_id": "KMO2K20KW3", "location_y": {"Points": [{"interpolation": 2, "co": {"X": 1.0, "Y": 0.0}}]}, "anchor": 0, "gravity": 4, "volume": {"Points": [{"interpolation": 2, "co": {"X": 1.0, "Y": 1.0}}, {"handle_left": {"X": 0.5, "Y": 1.0}, "interpolation": 0, "handle_type": 0, "handle_right": {"X": 0.5, "Y": 0.0}, "co": {"X": 7566.0, "Y": 0.0}}]}, "perspective_c2_y": {"Points": [{"interpolation": 2, "co": {"X": 1.0, "Y": -1.0}}]}, "title": "index.html - Google Chrome 11_27_2017 4_25_11 PM.mp4", "perspective_c3_x": {"Points": [{"interpolation": 2, "co": {"X": 1.0, "Y": -1.0}}]}, "id": "6W74PKD2H3", "crop_y": {"Points": [{"interpolation": 2, "co": {"X": 1.0, "Y": 0.0}}]}, "perspective_c2_x": {"Points": [{"interpolation": 2, "co": {"X": 1.0, "Y": -1.0}}]}, "start": 315.21, "image": "..\\..\\..\\..\\..\\.openshot_qt\\thumbnail\\6W74PKD2H3-9456.png", "alpha": {"Points": [{"interpolation": 2, "co": {"X": 1.0, "Y": 1.0}}]}, "crop_height": {"Points": [{"interpolation": 2, "co": {"X": 1.0, "Y": -1.0}}]}, "reader": {"height": 776, "width": 1376, "video_length": "25729", "audio_bit_rate": 131760, "top_field_first": true, "display_ratio": {"den": 97, "num": 172}, "type": "FFmpegReader", "video_bit_rate": 5473610, "vcodec": "h264", "acodec": "aac", "channel_layout": 3, "duration": 857.8773193359375, "has_audio": true, "pixel_ratio": {"den": 1, "num": 1}, "file_size": "586964452", "fps": {"den": 12866759, "num": 385935000}, "path": "..\\..\\..\\..\\..\\Videos\\Captures\\index.html - Google Chrome 11_27_2017 4_25_11 PM.mp4", "pixel_format": 0, "audio_stream_index": 1, "video_timebase": {"den": 30000, "num": 1}, "audio_timebase": {"den": 48000, "num": 1}, "video_stream_index": 0, "interlaced_frame": false, "channels": 2, "has_single_image": false, "has_video": true, "sample_rate": 48000}, "location_x": {"Points": [{"interpolation": 2, "co": {"X": 1.0, "Y": 0.0}}]}, "has_video": {"Points": [{"interpolation": 2, "co": {"X": 1.0, "Y": -1.0}}]}, "scale_x": {"Points": [{"interpolation": 2, "co": {"X": 1.0, "Y": 1.0}}]}}, {"crop_width": {"Points": [{"interpolation": 2, "co": {"X": 1.0, "Y": -1.0}}]}, "display": 0, "waveform": false, "channel_filter": {"Points": [{"interpolation": 2, "co": {"X": 1.0, "Y": -1.0}}]}, "effects": [], "layer": 4, "scale_y": {"Points": [{"interpolation": 2, "co": {"X": 1.0, "Y": 1.0}}]}, "shear_y": {"Points": [{"interpolation": 2, "co": {"X": 1.0, "Y": 0.0}}]}, "rotation": {"Points": [{"interpolation": 2, "co": {"X": 1.0, "Y": 0.0}}]}, "end": 156.24, "time": {"Points": [{"interpolation": 2, "co": {"X": 1.0, "Y": 1.0}}]}, "crop_x": {"Points": [{"interpolation": 2, "co": {"X": 1.0, "Y": 0.0}}]}, "shear_x": {"Points": [{"interpolation": 2, "co": {"X": 1.0, "Y": 0.0}}]}, "duration": 857.8773193359375, "perspective_c1_x": {"Points": [{"interpolation": 2, "co": {"X": 1.0, "Y": -1.0}}]}, "has_audio": {"Points": [{"interpolation": 2, "co": {"X": 1.0, "Y": -1.0}}]}, "perspective_c4_y": {"Points": [{"interpolation": 2, "co": {"X": 1.0, "Y": -1.0}}]}, "perspective_c3_y": {"Points": [{"interpolation": 2, "co": {"X": 1.0, "Y": -1.0}}]}, "channel_mapping": {"Points": [{"interpolation": 2, "co": {"X": 1.0, "Y": -1.0}}]}, "perspective_c4_x": {"Points": [{"interpolation": 2, "co": {"X": 1.0, "Y": -1.0}}]}, "position": 23.9159375, "scale": 1, "wave_color": {"blue": {"Points": [{"handle_left": {"X": 0.5, "Y": 1.0}, "interpolation": 0, "handle_type": 0, "handle_right": {"X": 0.5, "Y": 0.0}, "co": {"X": 1.0, "Y": 255.0}}]}, "green": {"Points": [{"handle_left": {"X": 0.5, "Y": 1.0}, "interpolation": 0, "handle_type": 0, "handle_right": {"X": 0.5, "Y": 0.0}, "co": {"X": 1.0, "Y": 123.0}}]}, "red": {"Points": [{"handle_left": {"X": 0.5, "Y": 1.0}, "interpolation": 0, "handle_type": 0, "handle_right": {"X": 0.5, "Y": 0.0}, "co": {"X": 1.0, "Y": 0.0}}]}, "alpha": {"Points": [{"handle_left": {"X": 0.5, "Y": 1.0}, "interpolation": 0, "handle_type": 0, "handle_right": {"X": 0.5, "Y": 0.0}, "co": {"X": 1.0, "Y": 255.0}}]}}, "perspective_c1_y": {"Points": [{"interpolation": 2, "co": {"X": 1.0, "Y": -1.0}}]}, "file_id": "KMO2K20KW3", "location_y": {"Points": [{"interpolation": 2, "co": {"X": 1.0, "Y": 0.0}}]}, "anchor": 0, "gravity": 4, "volume": {"Points": [{"interpolation": 2, "co": {"X": 1.0, "Y": 1.0}}, {"handle_left": {"X": 0.5, "Y": 1.0}, "interpolation": 0, "handle_type": 0, "handle_right": {"X": 0.5, "Y": 0.0}, "co": {"X": 3483.0, "Y": 0.0}}, {"handle_left": {"X": 0.5, "Y": 1.0}, "interpolation": 0, "handle_type": 0, "handle_right": {"X": 0.5, "Y": 0.0}, "co": {"X": 3483.0, "Y": 0.0}}, {"handle_left": {"X": 0.5, "Y": 1.0}, "interpolation": 0, "handle_type": 0, "handle_right": {"X": 0.5, "Y": 0.0}, "co": {"X": 3483.0, "Y": 0.0}}]}, "perspective_c2_y": {"Points": [{"interpolation": 2, "co": {"X": 1.0, "Y": -1.0}}]}, "title": "index.html - Google Chrome 11_27_2017 4_25_11 PM.mp4", "perspective_c3_x": {"Points": [{"interpolation": 2, "co": {"X": 1.0, "Y": -1.0}}]}, "id": "QUIH57SWSC", "crop_y": {"Points": [{"interpolation": 2, "co": {"X": 1.0, "Y": 0.0}}]}, "perspective_c2_x": {"Points": [{"interpolation": 2, "co": {"X": 1.0, "Y": -1.0}}]}, "start": 145.07078125, "image": "..\\..\\..\\..\\..\\.openshot_qt\\thumbnail\\QUIH57SWSC-4352.png", "alpha": {"Points": [{"interpolation": 2, "co": {"X": 1.0, "Y": 1.0}}]}, "crop_height": {"Points": [{"interpolation": 2, "co": {"X": 1.0, "Y": -1.0}}]}, "reader": {"height": 776, "width": 1376, "video_length": "25729", "audio_bit_rate": 131760, "top_field_first": true, "display_ratio": {"den": 97, "num": 172}, "type": "FFmpegReader", "video_bit_rate": 5473610, "vcodec": "h264", "acodec": "aac", "channel_layout": 3, "duration": 857.8773193359375, "has_audio": true, "pixel_ratio": {"den": 1, "num": 1}, "file_size": "586964452", "fps": {"den": 12866759, "num": 385935000}, "path": "..\\..\\..\\..\\..\\Videos\\Captures\\index.html - Google Chrome 11_27_2017 4_25_11 PM.mp4", "pixel_format": 0, "audio_stream_index": 1, "video_timebase": {"den": 30000, "num": 1}, "audio_timebase": {"den": 48000, "num": 1}, "video_stream_index": 0, "interlaced_frame": false, "channels": 2, "has_single_image": false, "has_video": true, "sample_rate": 48000}, "location_x": {"Points": [{"interpolation": 2, "co": {"X": 1.0, "Y": 0.0}}]}, "has_video": {"Points": [{"interpolation": 2, "co": {"X": 1.0, "Y": -1.0}}]}, "scale_x": {"Points": [{"interpolation": 2, "co": {"X": 1.0, "Y": 1.0}}]}}, {"waveform": false, "layer": 4, "title": "index.html - Google Chrome 11_27_2017 5_33_03 PM.mp4", "crop_x": {"Points": [{"interpolation": 2, "co": {"X": 1.0, "Y": 0.0}}]}, "scale_x": {"Points": [{"interpolation": 2, "co": {"X": 1.0, "Y": 1.0}}]}, "has_audio": {"Points": [{"interpolation": 2, "co": {"X": 1.0, "Y": -1.0}}]}, "perspective_c4_y": {"Points": [{"interpolation": 2, "co": {"X": 1.0, "Y": -1.0}}]}, "perspective_c4_x": {"Points": [{"interpolation": 2, "co": {"X": 1.0, "Y": -1.0}}]}, "file_id": "8GACR95UFW", "perspective_c2_y": {"Points": [{"interpolation": 2, "co": {"X": 1.0, "Y": -1.0}}]}, "id": "AQ0LTW4H45", "perspective_c2_x": {"Points": [{"interpolation": 2, "co": {"X": 1.0, "Y": -1.0}}]}, "start": 11.32, "image": "..\\..\\..\\..\\..\\.openshot_qt\\thumbnail\\AQ0LTW4H45-327.png", "alpha": {"Points": [{"interpolation": 2, "co": {"X": 1.0, "Y": 1.0}}]}, "crop_y": {"Points": [{"interpolation": 2, "co": {"X": 1.0, "Y": 0.0}}]}, "has_video": {"Points": [{"interpolation": 2, "co": {"X": 1.0, "Y": -1.0}}]}, "crop_width": {"Points": [{"interpolation": 2, "co": {"X": 1.0, "Y": -1.0}}]}, "display": 0, "perspective_c3_y": {"Points": [{"interpolation": 2, "co": {"X": 1.0, "Y": -1.0}}]}, "channel_filter": {"Points": [{"interpolation": 2, "co": {"X": 1.0, "Y": -1.0}}]}, "effects": [], "scale_y": {"Points": [{"interpolation": 2, "co": {"X": 1.0, "Y": 1.0}}]}, "shear_y": {"Points": [{"interpolation": 2, "co": {"X": 1.0, "Y": 0.0}}]}, "rotation": {"Points": [{"interpolation": 2, "co": {"X": 1.0, "Y": 0.0}}]}, "end": 18.880000000000003, "time": {"Points": [{"interpolation": 2, "co": {"X": 1.0, "Y": 1.0}}]}, "shear_x": {"Points": [{"interpolation": 2, "co": {"X": 1.0, "Y": 0.0}}]}, "duration": 32.23466491699219, "perspective_c1_x": {"Points": [{"interpolation": 2, "co": {"X": 1.0, "Y": -1.0}}]}, "channel_mapping": {"Points": [{"interpolation": 2, "co": {"X": 1.0, "Y": -1.0}}]}, "volume": {"Points": [{"interpolation": 2, "co": {"X": 1.0, "Y": 1.0}}, {"handle_left": {"X": 0.5, "Y": 1.0}, "interpolation": 0, "handle_type": 0, "handle_right": {"X": 0.5, "Y": 0.0}, "co": {"X": 273.0, "Y": 0.0}}]}, "position": 47.739999999999995, "scale": 1, "wave_color": {"blue": {"Points": [{"handle_left": {"X": 0.5, "Y": 1.0}, "interpolation": 0, "handle_type": 0, "handle_right": {"X": 0.5, "Y": 0.0}, "co": {"X": 1.0, "Y": 255.0}}]}, "green": {"Points": [{"handle_left": {"X": 0.5, "Y": 1.0}, "interpolation": 0, "handle_type": 0, "handle_right": {"X": 0.5, "Y": 0.0}, "co": {"X": 1.0, "Y": 123.0}}]}, "red": {"Points": [{"handle_left": {"X": 0.5, "Y": 1.0}, "interpolation": 0, "handle_type": 0, "handle_right": {"X": 0.5, "Y": 0.0}, "co": {"X": 1.0, "Y": 0.0}}]}, "alpha": {"Points": [{"handle_left": {"X": 0.5, "Y": 1.0}, "interpolation": 0, "handle_type": 0, "handle_right": {"X": 0.5, "Y": 0.0}, "co": {"X": 1.0, "Y": 255.0}}]}}, "crop_height": {"Points": [{"interpolation": 2, "co": {"X": 1.0, "Y": -1.0}}]}, "location_y": {"Points": [{"interpolation": 2, "co": {"X": 1.0, "Y": 0.0}}]}, "anchor": 0, "gravity": 4, "perspective_c1_y": {"Points": [{"interpolation": 2, "co": {"X": 1.0, "Y": -1.0}}]}, "reader": {"height": 744, "width": 1376, "video_length": "931", "audio_bit_rate": 120508, "top_field_first": true, "display_ratio": {"den": 93, "num": 172}, "type": "FFmpegReader", "video_bit_rate": 4884482, "vcodec": "h264", "acodec": "aac", "channel_layout": 3, "duration": 32.23466491699219, "has_audio": true, "pixel_ratio": {"den": 1, "num": 1}, "file_size": "19737442", "fps": {"den": 4253, "num": 122500}, "path": "..\\..\\..\\..\\..\\Videos\\Captures\\index.html - Google Chrome 11_27_2017 5_33_03 PM.mp4", "pixel_format": 0, "audio_stream_index": 1, "video_timebase": {"den": 30000, "num": 1}, "audio_timebase": {"den": 48000, "num": 1}, "video_stream_index": 0, "interlaced_frame": false, "channels": 2, "has_single_image": false, "has_video": true, "sample_rate": 48000}, "location_x": {"Points": [{"interpolation": 2, "co": {"X": 1.0, "Y": 0.0}}]}, "perspective_c3_x": {"Points": [{"interpolation": 2, "co": {"X": 1.0, "Y": -1.0}}]}}, {"crop_width": {"Points": [{"interpolation": 2, "co": {"X": 1.0, "Y": -1.0}}]}, "display": 0, "waveform": false, "channel_filter": {"Points": [{"interpolation": 2, "co": {"X": 1.0, "Y": -1.0}}]}, "effects": [], "layer": 4, "scale_y": {"Points": [{"interpolation": 2, "co": {"X": 1.0, "Y": 1.0}}]}, "shear_y": {"Points": [{"interpolation": 2, "co": {"X": 1.0, "Y": 0.0}}]}, "rotation": {"Points": [{"interpolation": 2, "co": {"X": 1.0, "Y": 0.0}}]}, "end": 4.470000000000001, "gravity": 4, "crop_height": {"Points": [{"interpolation": 2, "co": {"X": 1.0, "Y": -1.0}}]}, "crop_x": {"Points": [{"interpolation": 2, "co": {"X": 1.0, "Y": 0.0}}]}, "shear_x": {"Points": [{"interpolation": 2, "co": {"X": 1.0, "Y": 0.0}}]}, "duration": 86400.0, "scale_x": {"Points": [{"interpolation": 2, "co": {"X": 1.0, "Y": 1.0}}]}, "has_audio": {"Points": [{"interpolation": 2, "co": {"X": 1.0, "Y": -1.0}}]}, "perspective_c4_y": {"Points": [{"interpolation": 2, "co": {"X": 1.0, "Y": -1.0}}]}, "perspective_c3_y": {"Points": [{"interpolation": 2, "co": {"X": 1.0, "Y": -1.0}}]}, "channel_mapping": {"Points": [{"interpolation": 2, "co": {"X": 1.0, "Y": -1.0}}]}, "perspective_c4_x": {"Points": [{"interpolation": 2, "co": {"X": 1.0, "Y": -1.0}}]}, "position": 8.368281249999999, "scale": 1, "wave_color": {"blue": {"Points": [{"handle_left": {"X": 0.5, "Y": 1.0}, "interpolation": 0, "handle_type": 0, "handle_right": {"X": 0.5, "Y": 0.0}, "co": {"X": 1.0, "Y": 255.0}}]}, "green": {"Points": [{"handle_left": {"X": 0.5, "Y": 1.0}, "interpolation": 0, "handle_type": 0, "handle_right": {"X": 0.5, "Y": 0.0}, "co": {"X": 1.0, "Y": 123.0}}]}, "red": {"Points": [{"handle_left": {"X": 0.5, "Y": 1.0}, "interpolation": 0, "handle_type": 0, "handle_right": {"X": 0.5, "Y": 0.0}, "co": {"X": 1.0, "Y": 0.0}}]}, "alpha": {"Points": [{"handle_left": {"X": 0.5, "Y": 1.0}, "interpolation": 0, "handle_type": 0, "handle_right": {"X": 0.5, "Y": 0.0}, "co": {"X": 1.0, "Y": 255.0}}]}}, "perspective_c1_y": {"Points": [{"interpolation": 2, "co": {"X": 1.0, "Y": -1.0}}]}, "file_id": "023CIOM5V8", "location_y": {"Points": [{"interpolation": 2, "co": {"X": 1.0, "Y": 0.0}}]}, "anchor": 0, "volume": {"Points": [{"interpolation": 2, "co": {"X": 1.0, "Y": 1.0}}]}, "perspective_c2_y": {"Points": [{"interpolation": 2, "co": {"X": 1.0, "Y": -1.0}}]}, "title": "collect_items.JPG", "time": {"Points": [{"interpolation": 2, "co": {"X": 1.0, "Y": 1.0}}]}, "id": "XWM2I1BD6C", "perspective_c3_x": {"Points": [{"interpolation": 2, "co": {"X": 1.0, "Y": -1.0}}]}, "perspective_c2_x": {"Points": [{"interpolation": 2, "co": {"X": 1.0, "Y": -1.0}}]}, "start": 0, "image": "..\\..\\..\\..\\..\\.openshot_qt\\thumbnail\\023CIOM5V8.png", "alpha": {"Points": [{"interpolation": 2, "co": {"X": 1.0, "Y": 1.0}}]}, "crop_y": {"Points": [{"interpolation": 2, "co": {"X": 1.0, "Y": 0.0}}]}, "reader": {"height": 773, "width": 1375, "video_length": "2592000", "audio_bit_rate": 0, "top_field_first": true, "display_ratio": {"den": 773, "num": 1375}, "type": "QtImageReader", "video_bit_rate": 0, "vcodec": "", "acodec": "", "channel_layout": 4, "duration": 86400.0, "has_audio": false, "pixel_ratio": {"den": 1, "num": 1}, "file_size": "4251500", "fps": {"den": 1, "num": 30}, "path": "Trailer Clips\\collect_items.JPG", "pixel_format": -1, "audio_stream_index": -1, "video_timebase": {"den": 30, "num": 1}, "audio_timebase": {"den": 1, "num": 1}, "video_stream_index": -1, "interlaced_frame": false, "channels": 0, "has_single_image": true, "has_video": true, "sample_rate": 0}, "location_x": {"Points": [{"interpolation": 2, "co": {"X": 1.0, "Y": 0.0}}]}, "has_video": {"Points": [{"interpolation": 2, "co": {"X": 1.0, "Y": -1.0}}]}, "perspective_c1_x": {"Points": [{"interpolation": 2, "co": {"X": 1.0, "Y": -1.0}}]}}, {"crop_width": {"Points": [{"interpolation": 2, "co": {"X": 1.0, "Y": -1.0}}]}, "display": 0, "waveform": false, "channel_filter": {"Points": [{"interpolation": 2, "co": {"X": 1.0, "Y": -1.0}}]}, "effects": [], "layer": 4, "scale_y": {"Points": [{"interpolation": 2, "co": {"X": 1.0, "Y": 1.0}}]}, "shear_y": {"Points": [{"interpolation": 2, "co": {"X": 1.0, "Y": 0.0}}]}, "rotation": {"Points": [{"interpolation": 2, "co": {"X": 1.0, "Y": 0.0}}]}, "end": 5.5200000000000005, "gravity": 4, "crop_height": {"Points": [{"interpolation": 2, "co": {"X": 1.0, "Y": -1.0}}]}, "crop_x": {"Points": [{"interpolation": 2, "co": {"X": 1.0, "Y": 0.0}}]}, "shear_x": {"Points": [{"interpolation": 2, "co": {"X": 1.0, "Y": 0.0}}]}, "duration": 86400.0, "scale_x": {"Points": [{"interpolation": 2, "co": {"X": 1.0, "Y": 1.0}}]}, "has_audio": {"Points": [{"interpolation": 2, "co": {"X": 1.0, "Y": -1.0}}]}, "perspective_c4_y": {"Points": [{"interpolation": 2, "co": {"X": 1.0, "Y": -1.0}}]}, "perspective_c3_y": {"Points": [{"interpolation": 2, "co": {"X": 1.0, "Y": -1.0}}]}, "channel_mapping": {"Points": [{"interpolation": 2, "co": {"X": 1.0, "Y": -1.0}}]}, "perspective_c4_x": {"Points": [{"interpolation": 2, "co": {"X": 1.0, "Y": -1.0}}]}, "position": 19.516875, "scale": 1, "wave_color": {"blue": {"Points": [{"handle_left": {"X": 0.5, "Y": 1.0}, "interpolation": 0, "handle_type": 0, "handle_right": {"X": 0.5, "Y": 0.0}, "co": {"X": 1.0, "Y": 255.0}}]}, "green": {"Points": [{"handle_left": {"X": 0.5, "Y": 1.0}, "interpolation": 0, "handle_type": 0, "handle_right": {"X": 0.5, "Y": 0.0}, "co": {"X": 1.0, "Y": 123.0}}]}, "red": {"Points": [{"handle_left": {"X": 0.5, "Y": 1.0}, "interpolation": 0, "handle_type": 0, "handle_right": {"X": 0.5, "Y": 0.0}, "co": {"X": 1.0, "Y": 0.0}}]}, "alpha": {"Points": [{"handle_left": {"X": 0.5, "Y": 1.0}, "interpolation": 0, "handle_type": 0, "handle_right": {"X": 0.5, "Y": 0.0}, "co": {"X": 1.0, "Y": 255.0}}]}}, "perspective_c1_y": {"Points": [{"interpolation": 2, "co": {"X": 1.0, "Y": -1.0}}]}, "file_id": "XB0WY1UP4P", "location_y": {"Points": [{"interpolation": 2, "co": {"X": 1.0, "Y": 0.0}}]}, "anchor": 0, "volume": {"Points": [{"interpolation": 2, "co": {"X": 1.0, "Y": 1.0}}]}, "perspective_c2_y": {"Points": [{"interpolation": 2, "co": {"X": 1.0, "Y": -1.0}}]}, "title": "change_colors.JPG", "time": {"Points": [{"interpolation": 2, "co": {"X": 1.0, "Y": 1.0}}]}, "id": "YSMTB5UGRE", "perspective_c3_x": {"Points": [{"interpolation": 2, "co": {"X": 1.0, "Y": -1.0}}]}, "perspective_c2_x": {"Points": [{"interpolation": 2, "co": {"X": 1.0, "Y": -1.0}}]}, "start": 0, "image": "..\\..\\..\\..\\..\\.openshot_qt\\thumbnail\\XB0WY1UP4P.png", "alpha": {"Points": [{"interpolation": 2, "co": {"X": 1.0, "Y": 1.0}}]}, "crop_y": {"Points": [{"interpolation": 2, "co": {"X": 1.0, "Y": 0.0}}]}, "reader": {"height": 775, "width": 1374, "video_length": "2592000", "audio_bit_rate": 0, "top_field_first": true, "display_ratio": {"den": 775, "num": 1374}, "type": "QtImageReader", "video_bit_rate": 0, "vcodec": "", "acodec": "", "channel_layout": 4, "duration": 86400.0, "has_audio": false, "pixel_ratio": {"den": 1, "num": 1}, "file_size": "4259400", "fps": {"den": 1, "num": 30}, "path": "Trailer Clips\\change_colors.JPG", "pixel_format": -1, "audio_stream_index": -1, "video_timebase": {"den": 30, "num": 1}, "audio_timebase": {"den": 1, "num": 1}, "video_stream_index": -1, "interlaced_frame": false, "channels": 0, "has_single_image": true, "has_video": true, "sample_rate": 0}, "location_x": {"Points": [{"interpolation": 2, "co": {"X": 1.0, "Y": 0.0}}]}, "has_video": {"Points": [{"interpolation": 2, "co": {"X": 1.0, "Y": -1.0}}]}, "perspective_c1_x": {"Points": [{"interpolation": 2, "co": {"X": 1.0, "Y": -1.0}}]}}, {"crop_width": {"Points": [{"interpolation": 2, "co": {"X": 1.0, "Y": -1.0}}]}, "display": 0, "waveform": false, "channel_filter": {"Points": [{"interpolation": 2, "co": {"X": 1.0, "Y": -1.0}}]}, "effects": [], "layer": 4, "scale_y": {"Points": [{"interpolation": 2, "co": {"X": 1.0, "Y": 1.0}}]}, "shear_y": {"Points": [{"interpolation": 2, "co": {"X": 1.0, "Y": 0.0}}]}, "rotation": {"Points": [{"interpolation": 2, "co": {"X": 1.0, "Y": 0.0}}]}, "end": 4.96, "gravity": 4, "crop_height": {"Points": [{"interpolation": 2, "co": {"X": 1.0, "Y": -1.0}}]}, "crop_x": {"Points": [{"interpolation": 2, "co": {"X": 1.0, "Y": 0.0}}]}, "shear_x": {"Points": [{"interpolation": 2, "co": {"X": 1.0, "Y": 0.0}}]}, "duration": 86400.0, "scale_x": {"Points": [{"interpolation": 2, "co": {"X": 1.0, "Y": 1.0}}]}, "has_audio": {"Points": [{"interpolation": 2, "co": {"X": 1.0, "Y": -1.0}}]}, "perspective_c4_y": {"Points": [{"interpolation": 2, "co": {"X": 1.0, "Y": -1.0}}]}, "perspective_c3_y": {"Points": [{"interpolation": 2, "co": {"X": 1.0, "Y": -1.0}}]}, "channel_mapping": {"Points": [{"interpolation": 2, "co": {"X": 1.0, "Y": -1.0}}]}, "perspective_c4_x": {"Points": [{"interpolation": 2, "co": {"X": 1.0, "Y": -1.0}}]}, "position": 34.03421875, "scale": 1, "wave_color": {"blue": {"Points": [{"handle_left": {"X": 0.5, "Y": 1.0}, "interpolation": 0, "handle_type": 0, "handle_right": {"X": 0.5, "Y": 0.0}, "co": {"X": 1.0, "Y": 255.0}}]}, "green": {"Points": [{"handle_left": {"X": 0.5, "Y": 1.0}, "interpolation": 0, "handle_type": 0, "handle_right": {"X": 0.5, "Y": 0.0}, "co": {"X": 1.0, "Y": 123.0}}]}, "red": {"Points": [{"handle_left": {"X": 0.5, "Y": 1.0}, "interpolation": 0, "handle_type": 0, "handle_right": {"X": 0.5, "Y": 0.0}, "co": {"X": 1.0, "Y": 0.0}}]}, "alpha": {"Points": [{"handle_left": {"X": 0.5, "Y": 1.0}, "interpolation": 0, "handle_type": 0, "handle_right": {"X": 0.5, "Y": 0.0}, "co": {"X": 1.0, "Y": 255.0}}]}}, "perspective_c1_y": {"Points": [{"interpolation": 2, "co": {"X": 1.0, "Y": -1.0}}]}, "file_id": "4ZHGHLSG3V", "location_y": {"Points": [{"interpolation": 2, "co": {"X": 1.0, "Y": 0.0}}]}, "anchor": 0, "volume": {"Points": [{"interpolation": 2, "co": {"X": 1.0, "Y": 1.0}}]}, "perspective_c2_y": {"Points": [{"interpolation": 2, "co": {"X": 1.0, "Y": -1.0}}]}, "title": "battle_bosses.JPG", "time": {"Points": [{"interpolation": 2, "co": {"X": 1.0, "Y": 1.0}}]}, "id": "YSB4RH0R7O", "perspective_c3_x": {"Points": [{"interpolation": 2, "co": {"X": 1.0, "Y": -1.0}}]}, "perspective_c2_x": {"Points": [{"interpolation": 2, "co": {"X": 1.0, "Y": -1.0}}]}, "start": 0, "image": "..\\..\\..\\..\\..\\.openshot_qt\\thumbnail\\4ZHGHLSG3V.png", "alpha": {"Points": [{"interpolation": 2, "co": {"X": 1.0, "Y": 1.0}}]}, "crop_y": {"Points": [{"interpolation": 2, "co": {"X": 1.0, "Y": 0.0}}]}, "reader": {"height": 774, "width": 1375, "video_length": "2592000", "audio_bit_rate": 0, "top_field_first": true, "display_ratio": {"den": 774, "num": 1375}, "type": "QtImageReader", "video_bit_rate": 0, "vcodec": "", "acodec": "", "channel_layout": 4, "duration": 86400.0, "has_audio": false, "pixel_ratio": {"den": 1, "num": 1}, "file_size": "4257000", "fps": {"den": 1, "num": 30}, "path": "Trailer Clips\\battle_bosses.JPG", "pixel_format": -1, "audio_stream_index": -1, "video_timebase": {"den": 30, "num": 1}, "audio_timebase": {"den": 1, "num": 1}, "video_stream_index": -1, "interlaced_frame": false, "channels": 0, "has_single_image": true, "has_video": true, "sample_rate": 0}, "location_x": {"Points": [{"interpolation": 2, "co": {"X": 1.0, "Y": 0.0}}]}, "has_video": {"Points": [{"interpolation": 2, "co": {"X": 1.0, "Y": -1.0}}]}, "perspective_c1_x": {"Points": [{"interpolation": 2, "co": {"X": 1.0, "Y": -1.0}}]}}, {"waveform": false, "layer": 3, "title": "bossMusic.mp3", "crop_x": {"Points": [{"interpolation": 2, "co": {"X": 1.0, "Y": 0.0}}]}, "scale_x": {"Points": [{"interpolation": 2, "co": {"X": 1.0, "Y": 1.0}}]}, "has_audio": {"Points": [{"interpolation": 2, "co": {"X": 1.0, "Y": -1.0}}]}, "perspective_c4_y": {"Points": [{"interpolation": 2, "co": {"X": 1.0, "Y": -1.0}}]}, "perspective_c4_x": {"Points": [{"interpolation": 2, "co": {"X": 1.0, "Y": -1.0}}]}, "file_id": "U6H5YEYQC1", "perspective_c2_y": {"Points": [{"interpolation": 2, "co": {"X": 1.0, "Y": -1.0}}]}, "time": {"Points": [{"interpolation": 2, "co": {"X": 1.0, "Y": 1.0}}]}, "id": "BW2FX9SZ9D", "perspective_c2_x": {"Points": [{"interpolation": 2, "co": {"X": 1.0, "Y": -1.0}}]}, "start": 0, "image": "..\\..\\..\\..\\..\\..\\..\\Program Files\\OpenShot Video Editor\\images\\AudioThumbnail.png", "crop_height": {"Points": [{"interpolation": 2, "co": {"X": 1.0, "Y": -1.0}}]}, "has_video": {"Points": [{"interpolation": 2, "co": {"X": 1.0, "Y": -1.0}}]}, "crop_width": {"Points": [{"interpolation": 2, "co": {"X": 1.0, "Y": -1.0}}]}, "display": 0, "perspective_c3_y": {"Points": [{"interpolation": 2, "co": {"X": 1.0, "Y": -1.0}}]}, "channel_filter": {"Points": [{"interpolation": 2, "co": {"X": 1.0, "Y": -1.0}}]}, "effects": [], "scale_y": {"Points": [{"interpolation": 2, "co": {"X": 1.0, "Y": 1.0}}]}, "shear_y": {"Points": [{"interpolation": 2, "co": {"X": 1.0, "Y": 0.0}}]}, "rotation": {"Points": [{"interpolation": 2, "co": {"X": 1.0, "Y": 0.0}}]}, "end": 22.75, "anchor": 0, "shear_x": {"Points": [{"interpolation": 2, "co": {"X": 1.0, "Y": 0.0}}]}, "duration": 77.87101745605469, "perspective_c1_x": {"Points": [{"interpolation": 2, "co": {"X": 1.0, "Y": -1.0}}]}, "channel_mapping": {"Points": [{"interpolation": 2, "co": {"X": 1.0, "Y": -1.0}}]}, "volume": {"Points": [{"interpolation": 2, "co": {"X": 1.0, "Y": 1.0}}, {"handle_left": {"X": 0.5, "Y": 1.0}, "interpolation": 0, "handle_type": 0, "handle_right": {"X": 0.5, "Y": 0.0}, "co": {"X": 1.0, "Y": 0.0}}, {"handle_left": {"X": 0.5, "Y": 1.0}, "interpolation": 0, "handle_type": 0, "handle_right": {"X": 0.5, "Y": 0.0}, "co": {"X": 73.0, "Y": 1.0}}, {"handle_left": {"X": 0.5, "Y": 1.0}, "interpolation": 0, "handle_type": 0, "handle_right": {"X": 0.5, "Y": 0.0}, "co": {"X": 1798.0, "Y": 1.0}}, {"handle_left": {"X": 0.5, "Y": 1.0}, "interpolation": 0, "handle_type": 0, "handle_right": {"X": 0.5, "Y": 0.0}, "co": {"X": 1870.0, "Y": 0.0}}, {"handle_left": {"X": 0.5, "Y": 1.0}, "interpolation": 0, "handle_type": 0, "handle_right": {"X": 0.5, "Y": 0.0}, "co": {"X": 1.0, "Y": 0.0}}, {"handle_left": {"X": 0.5, "Y": 1.0}, "interpolation": 0, "handle_type": 0, "handle_right": {"X": 0.5, "Y": 0.0}, "co": {"X": 73.0, "Y": 1.0}}, {"handle_left": {"X": 0.5, "Y": 1.0}, "interpolation": 0, "handle_type": 0, "handle_right": {"X": 0.5, "Y": 0.0}, "co": {"X": 475.0, "Y": 1.0}}, {"handle_left": {"X": 0.5, "Y": 1.0}, "interpolation": 0, "handle_type": 0, "handle_right": {"X": 0.5, "Y": 0.0}, "co": {"X": 547.0, "Y": 0.0}}]}, "position": 52.919999999999995, "scale": 1, "wave_color": {"blue": {"Points": [{"handle_left": {"X": 0.5, "Y": 1.0}, "interpolation": 0, "handle_type": 0, "handle_right": {"X": 0.5, "Y": 0.0}, "co": {"X": 1.0, "Y": 255.0}}]}, "green": {"Points": [{"handle_left": {"X": 0.5, "Y": 1.0}, "interpolation": 0, "handle_type": 0, "handle_right": {"X": 0.5, "Y": 0.0}, "co": {"X": 1.0, "Y": 123.0}}]}, "red": {"Points": [{"handle_left": {"X": 0.5, "Y": 1.0}, "interpolation": 0, "handle_type": 0, "handle_right": {"X": 0.5, "Y": 0.0}, "co": {"X": 1.0, "Y": 0.0}}]}, "alpha": {"Points": [{"handle_left": {"X": 0.5, "Y": 1.0}, "interpolation": 0, "handle_type": 0, "handle_right": {"X": 0.5, "Y": 0.0}, "co": {"X": 1.0, "Y": 255.0}}]}}, "crop_y": {"Points": [{"interpolation": 2, "co": {"X": 1.0, "Y": 0.0}}]}, "location_y": {"Points": [{"interpolation": 2, "co": {"X": 1.0, "Y": 0.0}}]}, "alpha": {"Points": [{"interpolation": 2, "co": {"X": 1.0, "Y": 1.0}}]}, "gravity": 4, "perspective_c1_y": {"Points": [{"interpolation": 2, "co": {"X": 1.0, "Y": -1.0}}]}, "reader": {"height": 480, "width": 720, "video_length": "1868", "audio_bit_rate": 128000, "top_field_first": true, "display_ratio": {"den": 1, "num": 1}, "type": "FFmpegReader", "video_bit_rate": 0, "vcodec": "", "acodec": "mp3", "channel_layout": 3, "duration": 77.87101745605469, "has_audio": true, "pixel_ratio": {"den": 1, "num": 1}, "file_size": "1246189", "fps": {"den": 1, "num": 24}, "path": "Game\\assets\\sounds\\bossMusic.mp3", "pixel_format": -1, "audio_stream_index": 0, "video_timebase": {"den": 24, "num": 1}, "audio_timebase": {"den": 14112000, "num": 1}, "video_stream_index": -1, "interlaced_frame": false, "channels": 2, "has_single_image": false, "has_video": false, "sample_rate": 44100}, "location_x": {"Points": [{"interpolation": 2, "co": {"X": 1.0, "Y": 0.0}}]}, "perspective_c3_x": {"Points": [{"interpolation": 2, "co": {"X": 1.0, "Y": -1.0}}]}}, {"waveform": false, "layer": 4, "title": "gammaprogram_logo.JPG", "crop_x": {"Points": [{"interpolation": 2, "co": {"X": 1.0, "Y": 0.0}}]}, "scale_x": {"Points": [{"interpolation": 2, "co": {"X": 1.0, "Y": 1.0}}]}, "has_audio": {"Points": [{"interpolation": 2, "co": {"X": 1.0, "Y": -1.0}}]}, "perspective_c4_y": {"Points": [{"interpolation": 2, "co": {"X": 1.0, "Y": -1.0}}]}, "perspective_c4_x": {"Points": [{"interpolation": 2, "co": {"X": 1.0, "Y": -1.0}}]}, "file_id": "LGNIWH4F8R", "perspective_c2_y": {"Points": [{"interpolation": 2, "co": {"X": 1.0, "Y": -1.0}}]}, "id": "APFYA4VY39", "perspective_c2_x": {"Points": [{"interpolation": 2, "co": {"X": 1.0, "Y": -1.0}}]}, "start": 0, "image": "..\\..\\..\\..\\..\\.openshot_qt\\thumbnail\\LGNIWH4F8R.png", "alpha": {"Points": [{"interpolation": 2, "co": {"X": 1.0, "Y": 1.0}}]}, "crop_height": {"Points": [{"interpolation": 2, "co": {"X": 1.0, "Y": -1.0}}]}, "has_video": {"Points": [{"interpolation": 2, "co": {"X": 1.0, "Y": -1.0}}]}, "crop_width": {"Points": [{"interpolation": 2, "co": {"X": 1.0, "Y": -1.0}}]}, "display": 0, "shear_y": {"Points": [{"interpolation": 2, "co": {"X": 1.0, "Y": 0.0}}]}, "channel_filter": {"Points": [{"interpolation": 2, "co": {"X": 1.0, "Y": -1.0}}]}, "effects": [], "scale_y": {"Points": [{"interpolation": 2, "co": {"X": 1.0, "Y": 1.0}}]}, "perspective_c3_y": {"Points": [{"interpolation": 2, "co": {"X": 1.0, "Y": -1.0}}]}, "rotation": {"Points": [{"interpolation": 2, "co": {"X": 1.0, "Y": 0.0}}]}, "end": 4.470000000000001, "time": {"Points": [{"interpolation": 2, "co": {"X": 1.0, "Y": 1.0}}]}, "shear_x": {"Points": [{"interpolation": 2, "co": {"X": 1.0, "Y": 0.0}}]}, "duration": 86400.0, "perspective_c1_x": {"Points": [{"interpolation": 2, "co": {"X": 1.0, "Y": -1.0}}]}, "channel_mapping": {"Points": [{"interpolation": 2, "co": {"X": 1.0, "Y": -1.0}}]}, "volume": {"Points": [{"interpolation": 2, "co": {"X": 1.0, "Y": 1.0}}]}, "position": 0, "scale": 1, "wave_color": {"blue": {"Points": [{"handle_left": {"X": 0.5, "Y": 1.0}, "interpolation": 0, "handle_type": 0, "handle_right": {"X": 0.5, "Y": 0.0}, "co": {"X": 1.0, "Y": 255.0}}]}, "green": {"Points": [{"handle_left": {"X": 0.5, "Y": 1.0}, "interpolation": 0, "handle_type": 0, "handle_right": {"X": 0.5, "Y": 0.0}, "co": {"X": 1.0, "Y": 123.0}}]}, "red": {"Points": [{"handle_left": {"X": 0.5, "Y": 1.0}, "interpolation": 0, "handle_type": 0, "handle_right": {"X": 0.5, "Y": 0.0}, "co": {"X": 1.0, "Y": 0.0}}]}, "alpha": {"Points": [{"handle_left": {"X": 0.5, "Y": 1.0}, "interpolation": 0, "handle_type": 0, "handle_right": {"X": 0.5, "Y": 0.0}, "co": {"X": 1.0, "Y": 255.0}}]}}, "crop_y": {"Points": [{"interpolation": 2, "co": {"X": 1.0, "Y": 0.0}}]}, "location_y": {"Points": [{"interpolation": 2, "co": {"X": 1.0, "Y": 0.0}}]}, "anchor": 0, "gravity": 4, "perspective_c1_y": {"Points": [{"interpolation": 2, "co": {"X": 1.0, "Y": -1.0}}]}, "reader": {"height": 747, "width": 1324, "video_length": "2592000", "audio_bit_rate": 0, "top_field_first": true, "display_ratio": {"den": 747, "num": 1324}, "type": "QtImageReader", "video_bit_rate": 0, "channel_layout": 4, "acodec": "", "vcodec": "", "duration": 86400.0, "has_audio": false, "pixel_ratio": {"den": 1, "num": 1}, "file_size": "3956112", "fps": {"den": 1, "num": 30}, "path": "Trailer Clips\\gammaprogram_logo.JPG", "pixel_format": -1, "audio_stream_index": -1, "video_timebase": {"den": 30, "num": 1}, "audio_timebase": {"den": 1, "num": 1}, "video_stream_index": -1, "interlaced_frame": false, "channels": 0, "has_single_image": true, "has_video": true, "sample_rate": 0}, "location_x": {"Points": [{"interpolation": 2, "co": {"X": 1.0, "Y": 0.0}}]}, "perspective_c3_x": {"Points": [{"interpolation": 2, "co": {"X": 1.0, "Y": -1.0}}]}}, {"waveform": false, "layer": 4, "title": "title_blue.JPG", "crop_x": {"Points": [{"interpolation": 2, "co": {"X": 1.0, "Y": 0.0}}]}, "scale_x": {"Points": [{"interpolation": 2, "co": {"X": 1.0, "Y": 1.0}}]}, "has_audio": {"Points": [{"interpolation": 2, "co": {"X": 1.0, "Y": -1.0}}]}, "perspective_c4_y": {"Points": [{"interpolation": 2, "co": {"X": 1.0, "Y": -1.0}}]}, "perspective_c4_x": {"Points": [{"interpolation": 2, "co": {"X": 1.0, "Y": -1.0}}]}, "file_id": "78F44BZZJZ", "perspective_c2_y": {"Points": [{"interpolation": 2, "co": {"X": 1.0, "Y": -1.0}}]}, "id": "9BTV42VL9R", "perspective_c2_x": {"Points": [{"interpolation": 2, "co": {"X": 1.0, "Y": -1.0}}]}, "start": 0, "image": "..\\..\\..\\..\\..\\.openshot_qt\\thumbnail\\78F44BZZJZ.png", "alpha": {"Points": [{"interpolation": 2, "co": {"X": 1.0, "Y": 1.0}}]}, "crop_height": {"Points": [{"interpolation": 2, "co": {"X": 1.0, "Y": -1.0}}]}, "has_video": {"Points": [{"interpolation": 2, "co": {"X": 1.0, "Y": -1.0}}]}, "crop_width": {"Points": [{"interpolation": 2, "co": {"X": 1.0, "Y": -1.0}}]}, "display": 0, "shear_y": {"Points": [{"interpolation": 2, "co": {"X": 1.0, "Y": 0.0}}]}, "channel_filter": {"Points": [{"interpolation": 2, "co": {"X": 1.0, "Y": -1.0}}]}, "effects": [], "scale_y": {"Points": [{"interpolation": 2, "co": {"X": 1.0, "Y": 1.0}}]}, "perspective_c3_y": {"Points": [{"interpolation": 2, "co": {"X": 1.0, "Y": -1.0}}]}, "rotation": {"Points": [{"interpolation": 2, "co": {"X": 1.0, "Y": 0.0}}]}, "end": 2.720000000000001, "time": {"Points": [{"interpolation": 2, "co": {"X": 1.0, "Y": 1.0}}]}, "shear_x": {"Points": [{"interpolation": 2, "co": {"X": 1.0, "Y": 0.0}}]}, "duration": 86400.0, "perspective_c1_x": {"Points": [{"interpolation": 2, "co": {"X": 1.0, "Y": -1.0}}]}, "channel_mapping": {"Points": [{"interpolation": 2, "co": {"X": 1.0, "Y": -1.0}}]}, "volume": {"Points": [{"interpolation": 2, "co": {"X": 1.0, "Y": 1.0}}]}, "position": 56.059062499999996, "scale": 1, "wave_color": {"blue": {"Points": [{"handle_left": {"X": 0.5, "Y": 1.0}, "interpolation": 0, "handle_type": 0, "handle_right": {"X": 0.5, "Y": 0.0}, "co": {"X": 1.0, "Y": 255.0}}]}, "green": {"Points": [{"handle_left": {"X": 0.5, "Y": 1.0}, "interpolation": 0, "handle_type": 0, "handle_right": {"X": 0.5, "Y": 0.0}, "co": {"X": 1.0, "Y": 123.0}}]}, "red": {"Points": [{"handle_left": {"X": 0.5, "Y": 1.0}, "interpolation": 0, "handle_type": 0, "handle_right": {"X": 0.5, "Y": 0.0}, "co": {"X": 1.0, "Y": 0.0}}]}, "alpha": {"Points": [{"handle_left": {"X": 0.5, "Y": 1.0}, "interpolation": 0, "handle_type": 0, "handle_right": {"X": 0.5, "Y": 0.0}, "co": {"X": 1.0, "Y": 255.0}}]}}, "crop_y": {"Points": [{"interpolation": 2, "co": {"X": 1.0, "Y": 0.0}}]}, "location_y": {"Points": [{"interpolation": 2, "co": {"X": 1.0, "Y": 0.0}}]}, "anchor": 0, "gravity": 4, "perspective_c1_y": {"Points": [{"interpolation": 2, "co": {"X": 1.0, "Y": -1.0}}]}, "reader": {"height": 743, "width": 1322, "video_length": "2592000", "audio_bit_rate": 0, "top_field_first": true, "display_ratio": {"den": 743, "num": 1322}, "type": "QtImageReader", "video_bit_rate": 0, "channel_layout": 4, "acodec": "", "vcodec": "", "duration": 86400.0, "has_audio": false, "pixel_ratio": {"den": 1, "num": 1}, "file_size": "3928984", "fps": {"den": 1, "num": 30}, "path": "Trailer Clips\\title_blue.JPG", "pixel_format": -1, "audio_stream_index": -1, "video_timebase": {"den": 30, "num": 1}, "audio_timebase": {"den": 1, "num": 1}, "video_stream_index": -1, "interlaced_frame": false, "channels": 0, "has_single_image": true, "has_video": true, "sample_rate": 0}, "location_x": {"Points": [{"interpolation": 2, "co": {"X": 1.0, "Y": 0.0}}]}, "perspective_c3_x": {"Points": [{"interpolation": 2, "co": {"X": 1.0, "Y": -1.0}}]}}, {"waveform": false, "layer": 4, "title": "title_green.JPG", "crop_x": {"Points": [{"interpolation": 2, "co": {"X": 1.0, "Y": 0.0}}]}, "scale_x": {"Points": [{"interpolation": 2, "co": {"X": 1.0, "Y": 1.0}}]}, "has_audio": {"Points": [{"interpolation": 2, "co": {"X": 1.0, "Y": -1.0}}]}, "perspective_c4_y": {"Points": [{"interpolation": 2, "co": {"X": 1.0, "Y": -1.0}}]}, "perspective_c4_x": {"Points": [{"interpolation": 2, "co": {"X": 1.0, "Y": -1.0}}]}, "file_id": "71YSREPZ2E", "perspective_c2_y": {"Points": [{"interpolation": 2, "co": {"X": 1.0, "Y": -1.0}}]}, "id": "2DAGRDPHXD", "perspective_c2_x": {"Points": [{"interpolation": 2, "co": {"X": 1.0, "Y": -1.0}}]}, "start": 0, "image": "..\\..\\..\\..\\..\\.openshot_qt\\thumbnail\\71YSREPZ2E.png", "alpha": {"Points": [{"interpolation": 2, "co": {"X": 1.0, "Y": 1.0}}]}, "crop_height": {"Points": [{"interpolation": 2, "co": {"X": 1.0, "Y": -1.0}}]}, "has_video": {"Points": [{"interpolation": 2, "co": {"X": 1.0, "Y": -1.0}}]}, "crop_width": {"Points": [{"interpolation": 2, "co": {"X": 1.0, "Y": -1.0}}]}, "display": 0, "shear_y": {"Points": [{"interpolation": 2, "co": {"X": 1.0, "Y": 0.0}}]}, "channel_filter": {"Points": [{"interpolation": 2, "co": {"X": 1.0, "Y": -1.0}}]}, "effects": [], "scale_y": {"Points": [{"interpolation": 2, "co": {"X": 1.0, "Y": 1.0}}]}, "perspective_c3_y": {"Points": [{"interpolation": 2, "co": {"X": 1.0, "Y": -1.0}}]}, "rotation": {"Points": [{"interpolation": 2, "co": {"X": 1.0, "Y": 0.0}}]}, "end": 3.420000000000001, "time": {"Points": [{"interpolation": 2, "co": {"X": 1.0, "Y": 1.0}}]}, "shear_x": {"Points": [{"interpolation": 2, "co": {"X": 1.0, "Y": 0.0}}]}, "duration": 86400.0, "perspective_c1_x": {"Points": [{"interpolation": 2, "co": {"X": 1.0, "Y": -1.0}}]}, "channel_mapping": {"Points": [{"interpolation": 2, "co": {"X": 1.0, "Y": -1.0}}]}, "volume": {"Points": [{"interpolation": 2, "co": {"X": 1.0, "Y": 1.0}}]}, "position": 54.04, "scale": 1, "wave_color": {"blue": {"Points": [{"handle_left": {"X": 0.5, "Y": 1.0}, "interpolation": 0, "handle_type": 0, "handle_right": {"X": 0.5, "Y": 0.0}, "co": {"X": 1.0, "Y": 255.0}}]}, "green": {"Points": [{"handle_left": {"X": 0.5, "Y": 1.0}, "interpolation": 0, "handle_type": 0, "handle_right": {"X": 0.5, "Y": 0.0}, "co": {"X": 1.0, "Y": 123.0}}]}, "red": {"Points": [{"handle_left": {"X": 0.5, "Y": 1.0}, "interpolation": 0, "handle_type": 0, "handle_right": {"X": 0.5, "Y": 0.0}, "co": {"X": 1.0, "Y": 0.0}}]}, "alpha": {"Points": [{"handle_left": {"X": 0.5, "Y": 1.0}, "interpolation": 0, "handle_type": 0, "handle_right": {"X": 0.5, "Y": 0.0}, "co": {"X": 1.0, "Y": 255.0}}]}}, "crop_y": {"Points": [{"interpolation": 2, "co": {"X": 1.0, "Y": 0.0}}]}, "location_y": {"Points": [{"interpolation": 2, "co": {"X": 1.0, "Y": 0.0}}]}, "anchor": 0, "gravity": 4, "perspective_c1_y": {"Points": [{"interpolation": 2, "co": {"X": 1.0, "Y": -1.0}}]}, "reader": {"height": 744, "width": 1321, "video_length": "2592000", "audio_bit_rate": 0, "top_field_first": true, "display_ratio": {"den": 744, "num": 1321}, "type": "QtImageReader", "video_bit_rate": 0, "channel_layout": 4, "acodec": "", "vcodec": "", "duration": 86400.0, "has_audio": false, "pixel_ratio": {"den": 1, "num": 1}, "file_size": "3931296", "fps": {"den": 1, "num": 30}, "path": "Trailer Clips\\title_green.JPG", "pixel_format": -1, "audio_stream_index": -1, "video_timebase": {"den": 30, "num": 1}, "audio_timebase": {"den": 1, "num": 1}, "video_stream_index": -1, "interlaced_frame": false, "channels": 0, "has_single_image": true, "has_video": true, "sample_rate": 0}, "location_x": {"Points": [{"interpolation": 2, "co": {"X": 1.0, "Y": 0.0}}]}, "perspective_c3_x": {"Points": [{"interpolation": 2, "co": {"X": 1.0, "Y": -1.0}}]}}, {"waveform": false, "layer": 4, "title": "title_orange.JPG", "crop_x": {"Points": [{"interpolation": 2, "co": {"X": 1.0, "Y": 0.0}}]}, "scale_x": {"Points": [{"interpolation": 2, "co": {"X": 1.0, "Y": 1.0}}]}, "has_audio": {"Points": [{"interpolation": 2, "co": {"X": 1.0, "Y": -1.0}}]}, "perspective_c4_y": {"Points": [{"interpolation": 2, "co": {"X": 1.0, "Y": -1.0}}]}, "perspective_c4_x": {"Points": [{"interpolation": 2, "co": {"X": 1.0, "Y": -1.0}}]}, "file_id": "79XQ1JXZOE", "perspective_c2_y": {"Points": [{"interpolation": 2, "co": {"X": 1.0, "Y": -1.0}}]}, "id": "R7CLXXFX61", "perspective_c2_x": {"Points": [{"interpolation": 2, "co": {"X": 1.0, "Y": -1.0}}]}, "start": 5.6, "image": "..\\..\\..\\..\\..\\.openshot_qt\\thumbnail\\79XQ1JXZOE.png", "alpha": {"Points": [{"interpolation": 2, "co": {"X": 1.0, "Y": 1.0}}]}, "crop_height": {"Points": [{"interpolation": 2, "co": {"X": 1.0, "Y": -1.0}}]}, "has_video": {"Points": [{"interpolation": 2, "co": {"X": 1.0, "Y": -1.0}}]}, "crop_width": {"Points": [{"interpolation": 2, "co": {"X": 1.0, "Y": -1.0}}]}, "display": 0, "shear_y": {"Points": [{"interpolation": 2, "co": {"X": 1.0, "Y": 0.0}}]}, "channel_filter": {"Points": [{"interpolation": 2, "co": {"X": 1.0, "Y": -1.0}}]}, "effects": [], "scale_y": {"Points": [{"interpolation": 2, "co": {"X": 1.0, "Y": 1.0}}]}, "perspective_c3_y": {"Points": [{"interpolation": 2, "co": {"X": 1.0, "Y": -1.0}}]}, "rotation": {"Points": [{"interpolation": 2, "co": {"X": 1.0, "Y": 0.0}}]}, "end": 7.829999999999999, "time": {"Points": [{"interpolation": 2, "co": {"X": 1.0, "Y": 1.0}}]}, "shear_x": {"Points": [{"interpolation": 2, "co": {"X": 1.0, "Y": 0.0}}]}, "duration": 86400.0, "perspective_c1_x": {"Points": [{"interpolation": 2, "co": {"X": 1.0, "Y": -1.0}}]}, "channel_mapping": {"Points": [{"interpolation": 2, "co": {"X": 1.0, "Y": -1.0}}]}, "volume": {"Points": [{"interpolation": 2, "co": {"X": 1.0, "Y": 1.0}}]}, "position": 57.459062499999995, "scale": 1, "wave_color": {"blue": {"Points": [{"handle_left": {"X": 0.5, "Y": 1.0}, "interpolation": 0, "handle_type": 0, "handle_right": {"X": 0.5, "Y": 0.0}, "co": {"X": 1.0, "Y": 255.0}}]}, "green": {"Points": [{"handle_left": {"X": 0.5, "Y": 1.0}, "interpolation": 0, "handle_type": 0, "handle_right": {"X": 0.5, "Y": 0.0}, "co": {"X": 1.0, "Y": 123.0}}]}, "red": {"Points": [{"handle_left": {"X": 0.5, "Y": 1.0}, "interpolation": 0, "handle_type": 0, "handle_right": {"X": 0.5, "Y": 0.0}, "co": {"X": 1.0, "Y": 0.0}}]}, "alpha": {"Points": [{"handle_left": {"X": 0.5, "Y": 1.0}, "interpolation": 0, "handle_type": 0, "handle_right": {"X": 0.5, "Y": 0.0}, "co": {"X": 1.0, "Y": 255.0}}]}}, "crop_y": {"Points": [{"interpolation": 2, "co": {"X": 1.0, "Y": 0.0}}]}, "location_y": {"Points": [{"interpolation": 2, "co": {"X": 1.0, "Y": 0.0}}]}, "anchor": 0, "gravity": 4, "perspective_c1_y": {"Points": [{"interpolation": 2, "co": {"X": 1.0, "Y": -1.0}}]}, "reader": {"height": 745, "width": 1323, "video_length": "2592000", "audio_bit_rate": 0, "top_field_first": true, "display_ratio": {"den": 745, "num": 1323}, "type": "QtImageReader", "video_bit_rate": 0, "channel_layout": 4, "acodec": "", "vcodec": "", "duration": 86400.0, "has_audio": false, "pixel_ratio": {"den": 1, "num": 1}, "file_size": "3942540", "fps": {"den": 1, "num": 30}, "path": "Trailer Clips\\title_orange.JPG", "pixel_format": -1, "audio_stream_index": -1, "video_timebase": {"den": 30, "num": 1}, "audio_timebase": {"den": 1, "num": 1}, "video_stream_index": -1, "interlaced_frame": false, "channels": 0, "has_single_image": true, "has_video": true, "sample_rate": 0}, "location_x": {"Points": [{"interpolation": 2, "co": {"X": 1.0, "Y": 0.0}}]}, "perspective_c3_x": {"Points": [{"interpolation": 2, "co": {"X": 1.0, "Y": -1.0}}]}}, {"scale_x": {"Points": [{"interpolation": 2, "co": {"X": 1.0, "Y": 1.0}}]}, "has_audio": {"Points": [{"interpolation": 2, "co": {"X": 1.0, "Y": -1.0}}]}, "perspective_c4_y": {"Points": [{"interpolation": 2, "co": {"X": 1.0, "Y": -1.0}}]}, "file_id": "6DFW25DRJZ", "perspective_c2_y": {"Points": [{"interpolation": 2, "co": {"X": 1.0, "Y": -1.0}}]}, "id": "P9UCYI6O28", "start": 16.380000000000003, "image": "..\\..\\..\\..\\..\\.openshot_qt\\thumbnail\\P9UCYI6O28-394.png", "crop_height": {"Points": [{"interpolation": 2, "co": {"X": 1.0, "Y": -1.0}}]}, "display": 0, "perspective_c3_y": {"Points": [{"interpolation": 2, "co": {"X": 1.0, "Y": -1.0}}]}, "end": 52.85, "duration": 94.0, "position": 0, "scale": 1, "wave_color": {"blue": {"Points": [{"handle_left": {"X": 0.5, "Y": 1.0}, "interpolation": 0, "handle_type": 0, "handle_right": {"X": 0.5, "Y": 0.0}, "co": {"X": 1.0, "Y": 255.0}}]}, "green": {"Points": [{"handle_left": {"X": 0.5, "Y": 1.0}, "interpolation": 0, "handle_type": 0, "handle_right": {"X": 0.5, "Y": 0.0}, "co": {"X": 1.0, "Y": 123.0}}]}, "red": {"Points": [{"handle_left": {"X": 0.5, "Y": 1.0}, "interpolation": 0, "handle_type": 0, "handle_right": {"X": 0.5, "Y": 0.0}, "co": {"X": 1.0, "Y": 0.0}}]}, "alpha": {"Points": [{"handle_left": {"X": 0.5, "Y": 1.0}, "interpolation": 0, "handle_type": 0, "handle_right": {"X": 0.5, "Y": 0.0}, "co": {"X": 1.0, "Y": 255.0}}]}}, "crop_y": {"Points": [{"interpolation": 2, "co": {"X": 1.0, "Y": 0.0}}]}, "anchor": 0, "title": "cute.mp3", "waveform": false, "layer": 3, "gravity": 4, "crop_x": {"Points": [{"interpolation": 2, "co": {"X": 1.0, "Y": 0.0}}]}, "perspective_c4_x": {"Points": [{"interpolation": 2, "co": {"X": 1.0, "Y": -1.0}}]}, "perspective_c2_x": {"Points": [{"interpolation": 2, "co": {"X": 1.0, "Y": -1.0}}]}, "has_video": {"Points": [{"interpolation": 2, "co": {"X": 1.0, "Y": -1.0}}]}, "crop_width": {"Points": [{"interpolation": 2, "co": {"X": 1.0, "Y": -1.0}}]}, "channel_filter": {"Points": [{"interpolation": 2, "co": {"X": 1.0, "Y": -1.0}}]}, "effects": [], "scale_y": {"Points": [{"interpolation": 2, "co": {"X": 1.0, "Y": 1.0}}]}, "shear_y": {"Points": [{"interpolation": 2, "co": {"X": 1.0, "Y": 0.0}}]}, "rotation": {"Points": [{"interpolation": 2, "co": {"X": 1.0, "Y": 0.0}}]}, "time": {"Points": [{"interpolation": 1, "co": {"X": 1.0, "Y": 1.0}}, {"interpolation": 1, "co": {"X": 2280.0, "Y": 4559.0}}]}, "shear_x": {"Points": [{"interpolation": 2, "co": {"X": 1.0, "Y": 0.0}}]}, "perspective_c1_x": {"Points": [{"interpolation": 2, "co": {"X": 1.0, "Y": -1.0}}]}, "channel_mapping": {"Points": [{"interpolation": 2, "co": {"X": 1.0, "Y": -1.0}}]}, "volume": {"Points": [{"interpolation": 2, "co": {"X": 1.0, "Y": 1.0}}]}, "location_y": {"Points": [{"interpolation": 2, "co": {"X": 1.0, "Y": 0.0}}]}, "alpha": {"Points": [{"interpolation": 2, "co": {"X": 1.0, "Y": 1.0}}]}, "perspective_c1_y": {"Points": [{"interpolation": 2, "co": {"X": 1.0, "Y": -1.0}}]}, "reader": {"height": 480, "width": 720, "video_length": "4559", "audio_bit_rate": 112000, "top_field_first": true, "display_ratio": {"den": 1, "num": 1}, "type": "FFmpegReader", "video_bit_rate": 0, "channel_layout": 3, "acodec": "mp3", "vcodec": "", "duration": 189.9627075195312, "has_audio": true, "pixel_ratio": {"den": 1, "num": 1}, "file_size": "2659839", "fps": {"den": 1, "num": 24}, "path": "Game\\assets\\sounds\\cute.mp3", "pixel_format": -1, "audio_stream_index": 0, "video_timebase": {"den": 24, "num": 1}, "audio_timebase": {"den": 14112000, "num": 1}, "video_stream_index": -1, "interlaced_frame": false, "channels": 2, "has_single_image": false, "has_video": false, "sample_rate": 44100}, "location_x": {"Points": [{"interpolation": 2, "co": {"X": 1.0, "Y": 0.0}}]}, "perspective_c3_x": {"Points": [{"interpolation": 2, "co": {"X": 1.0, "Y": -1.0}}]}}, {"scale_x": {"Points": [{"interpolation": 2, "co": {"X": 1.0, "Y": 1.0}}]}, "has_audio": {"Points": [{"interpolation": 2, "co": {"X": 1.0, "Y": -1.0}}]}, "perspective_c4_y": {"Points": [{"interpolation": 2, "co": {"X": 1.0, "Y": -1.0}}]}, "file_id": "6DFW25DRJZ", "perspective_c2_y": {"Points": [{"interpolation": 2, "co": {"X": 1.0, "Y": -1.0}}]}, "id": "GV8LG59DLC", "start": 52.85, "image": "..\\..\\..\\..\\..\\.openshot_qt\\thumbnail\\GV8LG59DLC-1269.png", "crop_y": {"Points": [{"interpolation": 2, "co": {"X": 1.0, "Y": 0.0}}]}, "display": 0, "perspective_c3_y": {"Points": [{"interpolation": 2, "co": {"X": 1.0, "Y": -1.0}}]}, "end": 56.699999999999996, "duration": 94.0, "position": 36.47, "scale": 1, "wave_color": {"blue": {"Points": [{"handle_left": {"X": 0.5, "Y": 1.0}, "interpolation": 0, "handle_type": 0, "handle_right": {"X": 0.5, "Y": 0.0}, "co": {"X": 1.0, "Y": 255.0}}]}, "green": {"Points": [{"handle_left": {"X": 0.5, "Y": 1.0}, "interpolation": 0, "handle_type": 0, "handle_right": {"X": 0.5, "Y": 0.0}, "co": {"X": 1.0, "Y": 123.0}}]}, "red": {"Points": [{"handle_left": {"X": 0.5, "Y": 1.0}, "interpolation": 0, "handle_type": 0, "handle_right": {"X": 0.5, "Y": 0.0}, "co": {"X": 1.0, "Y": 0.0}}]}, "alpha": {"Points": [{"handle_left": {"X": 0.5, "Y": 1.0}, "interpolation": 0, "handle_type": 0, "handle_right": {"X": 0.5, "Y": 0.0}, "co": {"X": 1.0, "Y": 255.0}}]}}, "crop_height": {"Points": [{"interpolation": 2, "co": {"X": 1.0, "Y": -1.0}}]}, "anchor": 0, "title": "cute.mp3", "waveform": false, "layer": 3, "gravity": 4, "crop_x": {"Points": [{"interpolation": 2, "co": {"X": 1.0, "Y": 0.0}}]}, "perspective_c4_x": {"Points": [{"interpolation": 2, "co": {"X": 1.0, "Y": -1.0}}]}, "perspective_c2_x": {"Points": [{"interpolation": 2, "co": {"X": 1.0, "Y": -1.0}}]}, "has_video": {"Points": [{"interpolation": 2, "co": {"X": 1.0, "Y": -1.0}}]}, "crop_width": {"Points": [{"interpolation": 2, "co": {"X": 1.0, "Y": -1.0}}]}, "channel_filter": {"Points": [{"interpolation": 2, "co": {"X": 1.0, "Y": -1.0}}]}, "effects": [], "scale_y": {"Points": [{"interpolation": 2, "co": {"X": 1.0, "Y": 1.0}}]}, "shear_y": {"Points": [{"interpolation": 2, "co": {"X": 1.0, "Y": 0.0}}]}, "rotation": {"Points": [{"interpolation": 2, "co": {"X": 1.0, "Y": 0.0}}]}, "time": {"Points": [{"interpolation": 1, "co": {"X": 1.0, "Y": 1.0}}, {"interpolation": 1, "co": {"X": 2280.0, "Y": 4559.0}}]}, "shear_x": {"Points": [{"interpolation": 2, "co": {"X": 1.0, "Y": 0.0}}]}, "perspective_c1_x": {"Points": [{"interpolation": 2, "co": {"X": 1.0, "Y": -1.0}}]}, "channel_mapping": {"Points": [{"interpolation": 2, "co": {"X": 1.0, "Y": -1.0}}]}, "volume": {"Points": [{"interpolation": 2, "co": {"X": 1.0, "Y": 1.0}}]}, "location_y": {"Points": [{"interpolation": 2, "co": {"X": 1.0, "Y": 0.0}}]}, "alpha": {"Points": [{"interpolation": 2, "co": {"X": 1.0, "Y": 1.0}}]}, "perspective_c1_y": {"Points": [{"interpolation": 2, "co": {"X": 1.0, "Y": -1.0}}]}, "reader": {"height": 480, "width": 720, "video_length": "4559", "audio_bit_rate": 112000, "top_field_first": true, "display_ratio": {"den": 1, "num": 1}, "type": "FFmpegReader", "video_bit_rate": 0, "channel_layout": 3, "acodec": "mp3", "vcodec": "", "duration": 189.9627075195312, "has_audio": true, "pixel_ratio": {"den": 1, "num": 1}, "file_size": "2659839", "fps": {"den": 1, "num": 24}, "path": "Game\\assets\\sounds\\cute.mp3", "pixel_format": -1, "audio_stream_index": 0, "video_timebase": {"den": 24, "num": 1}, "audio_timebase": {"den": 14112000, "num": 1}, "video_stream_index": -1, "interlaced_frame": false, "channels": 2, "has_single_image": false, "has_video": false, "sample_rate": 44100}, "location_x": {"Points": [{"interpolation": 2, "co": {"X": 1.0, "Y": 0.0}}]}, "perspective_c3_x": {"Points": [{"interpolation": 2, "co": {"X": 1.0, "Y": -1.0}}]}}], "channel_layout": 3, "history": {"redo": [], "undo": [{"value": {"id": "R7CLXXFX61", "position": 71.168125, "layer": 4, "start": 5.6, "image": "C:\\Users\\Henry\\.openshot_qt\\thumbnail\\79XQ1JXZOE.png", "end": 8.95}, "type": "update", "key": ["clips", {"id": "R7CLXXFX61"}], "partial": false, "old_values": {"crop_width": {"Points": [{"interpolation": 2, "co": {"X": 1.0, "Y": -1.0}}]}, "display": 0, "waveform": false, "channel_filter": {"Points": [{"interpolation": 2, "co": {"X": 1.0, "Y": -1.0}}]}, "effects": [], "layer": 4, "scale_y": {"Points": [{"interpolation": 2, "co": {"X": 1.0, "Y": 1.0}}]}, "shear_y": {"Points": [{"interpolation": 2, "co": {"X": 1.0, "Y": 0.0}}]}, "rotation": {"Points": [{"interpolation": 2, "co": {"X": 1.0, "Y": 0.0}}]}, "end": 8.95, "time": {"Points": [{"interpolation": 2, "co": {"X": 1.0, "Y": 1.0}}]}, "crop_height": {"Points": [{"interpolation": 2, "co": {"X": 1.0, "Y": -1.0}}]}, "crop_x": {"Points": [{"interpolation": 2, "co": {"X": 1.0, "Y": 0.0}}]}, "shear_x": {"Points": [{"interpolation": 2, "co": {"X": 1.0, "Y": 0.0}}]}, "duration": 86400.0, "scale_x": {"Points": [{"interpolation": 2, "co": {"X": 1.0, "Y": 1.0}}]}, "title": "title_orange.JPG", "has_audio": {"Points": [{"interpolation": 2, "co": {"X": 1.0, "Y": -1.0}}]}, "perspective_c4_y": {"Points": [{"interpolation": 2, "co": {"X": 1.0, "Y": -1.0}}]}, "perspective_c3_y": {"Points": [{"interpolation": 2, "co": {"X": 1.0, "Y": -1.0}}]}, "channel_mapping": {"Points": [{"interpolation": 2, "co": {"X": 1.0, "Y": -1.0}}]}, "perspective_c4_x": {"Points": [{"interpolation": 2, "co": {"X": 1.0, "Y": -1.0}}]}, "position": 72.988125, "scale": 1, "wave_color": {"blue": {"Points": [{"handle_left": {"X": 0.5, "Y": 1.0}, "interpolation": 0, "handle_type": 0, "handle_right": {"X": 0.5, "Y": 0.0}, "co": {"X": 1.0, "Y": 255.0}}]}, "green": {"Points": [{"handle_left": {"X": 0.5, "Y": 1.0}, "interpolation": 0, "handle_type": 0, "handle_right": {"X": 0.5, "Y": 0.0}, "co": {"X": 1.0, "Y": 123.0}}]}, "red": {"Points": [{"handle_left": {"X": 0.5, "Y": 1.0}, "interpolation": 0, "handle_type": 0, "handle_right": {"X": 0.5, "Y": 0.0}, "co": {"X": 1.0, "Y": 0.0}}]}, "alpha": {"Points": [{"handle_left": {"X": 0.5, "Y": 1.0}, "interpolation": 0, "handle_type": 0, "handle_right": {"X": 0.5, "Y": 0.0}, "co": {"X": 1.0, "Y": 255.0}}]}}, "perspective_c1_x": {"Points": [{"interpolation": 2, "co": {"X": 1.0, "Y": -1.0}}]}, "file_id": "79XQ1JXZOE", "location_y": {"Points": [{"interpolation": 2, "co": {"X": 1.0, "Y": 0.0}}]}, "alpha": {"Points": [{"interpolation": 2, "co": {"X": 1.0, "Y": 1.0}}]}, "start": 7.42, "volume": {"Points": [{"interpolation": 2, "co": {"X": 1.0, "Y": 1.0}}]}, "anchor": 0, "gravity": 4, "perspective_c2_y": {"Points": [{"interpolation": 2, "co": {"X": 1.0, "Y": -1.0}}]}, "id": "R7CLXXFX61", "perspective_c2_x": {"Points": [{"interpolation": 2, "co": {"X": 1.0, "Y": -1.0}}]}, "perspective_c1_y": {"Points": [{"interpolation": 2, "co": {"X": 1.0, "Y": -1.0}}]}, "image": "C:\\Users\\Henry\\.openshot_qt\\thumbnail\\79XQ1JXZOE.png", "crop_y": {"Points": [{"interpolation": 2, "co": {"X": 1.0, "Y": 0.0}}]}, "reader": {"height": 745, "width": 1323, "video_length": "2592000", "audio_bit_rate": 0, "top_field_first": true, "display_ratio": {"den": 745, "num": 1323}, "type": "QtImageReader", "video_bit_rate": 0, "channel_layout": 4, "acodec": "", "vcodec": "", "duration": 86400.0, "has_audio": false, "pixel_ratio": {"den": 1, "num": 1}, "file_size": "3942540", "fps": {"den": 1, "num": 30}, "path": "C:\\Users\\Henry\\Documents\\Classes\\Fall 2017\\CS 329e Game Dev\\MVPgamedev\\Trailer Clips\\title_orange.JPG", "pixel_format": -1, "audio_stream_index": -1, "video_timebase": {"den": 30, "num": 1}, "audio_timebase": {"den": 1, "num": 1}, "video_stream_index": -1, "interlaced_frame": false, "channels": 0, "has_single_image": true, "has_video": true, "sample_rate": 0}, "location_x": {"Points": [{"interpolation": 2, "co": {"X": 1.0, "Y": 0.0}}]}, "has_video": {"Points": [{"interpolation": 2, "co": {"X": 1.0, "Y": -1.0}}]}, "perspective_c3_x": {"Points": [{"interpolation": 2, "co": {"X": 1.0, "Y": -1.0}}]}}}, {"value": {"id": "R7CLXXFX61", "position": 57.459062499999995, "layer": 4, "start": 5.6, "image": "C:\\Users\\Henry\\.openshot_qt\\thumbnail\\79XQ1JXZOE.png", "end": 8.95}, "type": "update", "key": ["clips", {"id": "R7CLXXFX61"}], "partial": false, "old_values": {"crop_width": {"Points": [{"interpolation": 2, "co": {"X": 1.0, "Y": -1.0}}]}, "display": 0, "waveform": false, "channel_filter": {"Points": [{"interpolation": 2, "co": {"X": 1.0, "Y": -1.0}}]}, "effects": [], "layer": 4, "scale_y": {"Points": [{"interpolation": 2, "co": {"X": 1.0, "Y": 1.0}}]}, "shear_y": {"Points": [{"interpolation": 2, "co": {"X": 1.0, "Y": 0.0}}]}, "rotation": {"Points": [{"interpolation": 2, "co": {"X": 1.0, "Y": 0.0}}]}, "end": 8.95, "time": {"Points": [{"interpolation": 2, "co": {"X": 1.0, "Y": 1.0}}]}, "crop_height": {"Points": [{"interpolation": 2, "co": {"X": 1.0, "Y": -1.0}}]}, "crop_x": {"Points": [{"interpolation": 2, "co": {"X": 1.0, "Y": 0.0}}]}, "shear_x": {"Points": [{"interpolation": 2, "co": {"X": 1.0, "Y": 0.0}}]}, "duration": 86400.0, "scale_x": {"Points": [{"interpolation": 2, "co": {"X": 1.0, "Y": 1.0}}]}, "title": "title_orange.JPG", "has_audio": {"Points": [{"interpolation": 2, "co": {"X": 1.0, "Y": -1.0}}]}, "perspective_c4_y": {"Points": [{"interpolation": 2, "co": {"X": 1.0, "Y": -1.0}}]}, "perspective_c3_y": {"Points": [{"interpolation": 2, "co": {"X": 1.0, "Y": -1.0}}]}, "channel_mapping": {"Points": [{"interpolation": 2, "co": {"X": 1.0, "Y": -1.0}}]}, "perspective_c4_x": {"Points": [{"interpolation": 2, "co": {"X": 1.0, "Y": -1.0}}]}, "position": 71.168125, "scale": 1, "wave_color": {"blue": {"Points": [{"handle_left": {"X": 0.5, "Y": 1.0}, "interpolation": 0, "handle_type": 0, "handle_right": {"X": 0.5, "Y": 0.0}, "co": {"X": 1.0, "Y": 255.0}}]}, "green": {"Points": [{"handle_left": {"X": 0.5, "Y": 1.0}, "interpolation": 0, "handle_type": 0, "handle_right": {"X": 0.5, "Y": 0.0}, "co": {"X": 1.0, "Y": 123.0}}]}, "red": {"Points": [{"handle_left": {"X": 0.5, "Y": 1.0}, "interpolation": 0, "handle_type": 0, "handle_right": {"X": 0.5, "Y": 0.0}, "co": {"X": 1.0, "Y": 0.0}}]}, "alpha": {"Points": [{"handle_left": {"X": 0.5, "Y": 1.0}, "interpolation": 0, "handle_type": 0, "handle_right": {"X": 0.5, "Y": 0.0}, "co": {"X": 1.0, "Y": 255.0}}]}}, "perspective_c1_x": {"Points": [{"interpolation": 2, "co": {"X": 1.0, "Y": -1.0}}]}, "file_id": "79XQ1JXZOE", "location_y": {"Points": [{"interpolation": 2, "co": {"X": 1.0, "Y": 0.0}}]}, "alpha": {"Points": [{"interpolation": 2, "co": {"X": 1.0, "Y": 1.0}}]}, "start": 5.6, "volume": {"Points": [{"interpolation": 2, "co": {"X": 1.0, "Y": 1.0}}]}, "anchor": 0, "gravity": 4, "perspective_c2_y": {"Points": [{"interpolation": 2, "co": {"X": 1.0, "Y": -1.0}}]}, "id": "R7CLXXFX61", "perspective_c2_x": {"Points": [{"interpolation": 2, "co": {"X": 1.0, "Y": -1.0}}]}, "perspective_c1_y": {"Points": [{"interpolation": 2, "co": {"X": 1.0, "Y": -1.0}}]}, "image": "C:\\Users\\Henry\\.openshot_qt\\thumbnail\\79XQ1JXZOE.png", "crop_y": {"Points": [{"interpolation": 2, "co": {"X": 1.0, "Y": 0.0}}]}, "reader": {"height": 745, "width": 1323, "video_length": "2592000", "audio_bit_rate": 0, "top_field_first": true, "display_ratio": {"den": 745, "num": 1323}, "type": "QtImageReader", "video_bit_rate": 0, "channel_layout": 4, "acodec": "", "vcodec": "", "duration": 86400.0, "has_audio": false, "pixel_ratio": {"den": 1, "num": 1}, "file_size": "3942540", "fps": {"den": 1, "num": 30}, "path": "C:\\Users\\Henry\\Documents\\Classes\\Fall 2017\\CS 329e Game Dev\\MVPgamedev\\Trailer Clips\\title_orange.JPG", "pixel_format": -1, "audio_stream_index": -1, "video_timebase": {"den": 30, "num": 1}, "audio_timebase": {"den": 1, "num": 1}, "video_stream_index": -1, "interlaced_frame": false, "channels": 0, "has_single_image": true, "has_video": true, "sample_rate": 0}, "location_x": {"Points": [{"interpolation": 2, "co": {"X": 1.0, "Y": 0.0}}]}, "has_video": {"Points": [{"interpolation": 2, "co": {"X": 1.0, "Y": -1.0}}]}, "perspective_c3_x": {"Points": [{"interpolation": 2, "co": {"X": 1.0, "Y": -1.0}}]}}}, {"value": {"id": "DE5U7SUIS0", "brightness": {"Points": [{"handle_left": {"X": 0.5, "Y": 1.0}, "interpolation": 0, "handle_type": 0, "handle_right": {"X": 0.5, "Y": 0.0}, "co": {"X": 1.0, "Y": 1.0}}, {"handle_left": {"X": 0.5, "Y": 1.0}, "interpolation": 0, "handle_type": 0, "handle_right": {"X": 0.5, "Y": 0.0}, "co": {"X": 33.0, "Y": -1.0}}]}, "replace_image": false, "end": 1.3200000000000003, "type": "Mask", "start": 0, "layer": 4, "reader": {"height": 576, "width": 720, "video_length": "2592000", "audio_bit_rate": 0, "top_field_first": true, "display_ratio": {"den": 4, "num": 5}, "type": "QtImageReader", "video_bit_rate": 0, "channel_layout": 4, "acodec": "", "vcodec": "", "duration": 86400.0, "has_audio": false, "pixel_ratio": {"den": 1, "num": 1}, "file_size": "1658880", "fps": {"den": 1, "num": 30}, "path": "C:\\Program Files\\OpenShot Video Editor\\transitions\\common\\fade.svg", "pixel_format": -1, "audio_stream_index": -1, "video_timebase": {"den": 30, "num": 1}, "audio_timebase": {"den": 1, "num": 1}, "video_stream_index": -1, "interlaced_frame": false, "sample_rate": 0, "has_single_image": true, "has_video": true, "channels": 0}, "title": "Transition", "position": 57.459062499999995, "contrast": {"Points": [{"interpolation": 2, "co": {"X": 1.0, "Y": 3.0}}]}}, "type": "insert", "key": ["effects"], "partial": false, "old_values": [{"id": "VHF5BZISRM", "brightness": {"Points": [{"handle_left": {"X": 0.5, "Y": 1.0}, "interpolation": 0, "handle_type": 0, "handle_right": {"X": 0.5, "Y": 0.0}, "co": {"X": 1.0, "Y": 1.0}}, {"handle_left": {"X": 0.5, "Y": 1.0}, "interpolation": 0, "handle_type": 0, "handle_right": {"X": 0.5, "Y": 0.0}, "co": {"X": 23.0, "Y": -1.0}}]}, "replace_image": false, "position": 8.368281249999999, "end": 0.9107812499999994, "layer": 4, "start": 0, "type": "Mask", "reader": {"height": 576, "width": 720, "video_length": "2592000", "audio_bit_rate": 0, "top_field_first": true, "display_ratio": {"den": 4, "num": 5}, "type": "QtImageReader", "video_bit_rate": 0, "vcodec": "", "acodec": "", "channel_layout": 4, "duration": 86400.0, "has_audio": false, "pixel_ratio": {"den": 1, "num": 1}, "file_size": "1658880", "fps": {"den": 1, "num": 30}, "path": "C:\\Program Files\\OpenShot Video Editor\\transitions\\common\\fade.svg", "pixel_format": -1, "audio_stream_index": -1, "video_timebase": {"den": 30, "num": 1}, "audio_timebase": {"den": 1, "num": 1}, "video_stream_index": -1, "interlaced_frame": false, "channels": 0, "has_single_image": true, "has_video": true, "sample_rate": 0}, "title": "Transition", "contrast": {"Points": [{"interpolation": 2, "co": {"X": 1.0, "Y": 3.0}}]}}, {"id": "NEPPV31YOA", "brightness": {"Points": [{"handle_left": {"X": 0.5, "Y": 1.0}, "interpolation": 0, "handle_type": 0, "handle_right": {"X": 0.5, "Y": 0.0}, "co": {"X": 1.0, "Y": 1.0}}, {"handle_left": {"X": 0.5, "Y": 1.0}, "interpolation": 0, "handle_type": 0, "handle_right": {"X": 0.5, "Y": 0.0}, "co": {"X": 25.0, "Y": -1.0}}]}, "replace_image": false, "position": 11.85734375, "end": 0.9809374999999996, "layer": 4, "start": 0, "type": "Mask", "reader": {"height": 576, "width": 720, "video_length": "2592000", "audio_bit_rate": 0, "top_field_first": true, "display_ratio": {"den": 4, "num": 5}, "type": "QtImageReader", "video_bit_rate": 0, "vcodec": "", "acodec": "", "channel_layout": 4, "duration": 86400.0, "has_audio": false, "pixel_ratio": {"den": 1, "num": 1}, "file_size": "1658880", "fps": {"den": 1, "num": 30}, "path": "C:\\Program Files\\OpenShot Video Editor\\transitions\\common\\fade.svg", "pixel_format": -1, "audio_stream_index": -1, "video_timebase": {"den": 30, "num": 1}, "audio_timebase": {"den": 1, "num": 1}, "video_stream_index": -1, "interlaced_frame": false, "channels": 0, "has_single_image": true, "has_video": true, "sample_rate": 0}, "title": "Transition", "contrast": {"Points": [{"interpolation": 2, "co": {"X": 1.0, "Y": 3.0}}]}}, {"id": "W530ZPN6L0", "brightness": {"Points": [{"handle_left": {"X": 0.5, "Y": 1.0}, "interpolation": 0, "handle_type": 0, "handle_right": {"X": 0.5, "Y": 0.0}, "co": {"X": 1.0, "Y": 1.0}}, {"handle_left": {"X": 0.5, "Y": 1.0}, "interpolation": 0, "handle_type": 0, "handle_right": {"X": 0.5, "Y": 0.0}, "co": {"X": 25.0, "Y": -1.0}}]}, "replace_image": false, "position": 19.516875, "end": 0.9804687499999858, "layer": 4, "start": 0, "type": "Mask", "reader": {"height": 576, "width": 720, "video_length": "2592000", "audio_bit_rate": 0, "top_field_first": true, "display_ratio": {"den": 4, "num": 5}, "type": "QtImageReader", "video_bit_rate": 0, "vcodec": "", "acodec": "", "channel_layout": 4, "duration": 86400.0, "has_audio": false, "pixel_ratio": {"den": 1, "num": 1}, "file_size": "1658880", "fps": {"den": 1, "num": 30}, "path": "C:\\Program Files\\OpenShot Video Editor\\transitions\\common\\fade.svg", "pixel_format": -1, "audio_stream_index": -1, "video_timebase": {"den": 30, "num": 1}, "audio_timebase": {"den": 1, "num": 1}, "video_stream_index": -1, "interlaced_frame": false, "channels": 0, "has_single_image": true, "has_video": true, "sample_rate": 0}, "title": "Transition", "contrast": {"Points": [{"interpolation": 2, "co": {"X": 1.0, "Y": 3.0}}]}}, {"id": "MEZSPK54U2", "brightness": {"Points": [{"handle_left": {"X": 0.5, "Y": 1.0}, "interpolation": 0, "handle_type": 0, "handle_right": {"X": 0.5, "Y": 0.0}, "co": {"X": 1.0, "Y": 1.0}}, {"handle_left": {"X": 0.5, "Y": 1.0}, "interpolation": 0, "handle_type": 0, "handle_right": {"X": 0.5, "Y": 0.0}, "co": {"X": 28.0, "Y": -1.0}}]}, "replace_image": false, "position": 23.9159375, "end": 1.1209375000000001, "layer": 4, "start": 0, "type": "Mask", "reader": {"height": 576, "width": 720, "video_length": "2592000", "audio_bit_rate": 0, "top_field_first": true, "display_ratio": {"den": 4, "num": 5}, "type": "QtImageReader", "video_bit_rate": 0, "vcodec": "", "acodec": "", "channel_layout": 4, "duration": 86400.0, "has_audio": false, "pixel_ratio": {"den": 1, "num": 1}, "file_size": "1658880", "fps": {"den": 1, "num": 30}, "path": "C:\\Program Files\\OpenShot Video Editor\\transitions\\common\\fade.svg", "pixel_format": -1, "audio_stream_index": -1, "video_timebase": {"den": 30, "num": 1}, "audio_timebase": {"den": 1, "num": 1}, "video_stream_index": -1, "interlaced_frame": false, "channels": 0, "has_single_image": true, "has_video": true, "sample_rate": 0}, "title": "Transition", "contrast": {"Points": [{"interpolation": 2, "co": {"X": 1.0, "Y": 3.0}}]}}, {"id": "EZSS7664M9", "brightness": {"Points": [{"handle_left": {"X": 0.5, "Y": 1.0}, "interpolation": 0, "handle_type": 0, "handle_right": {"X": 0.5, "Y": 0.0}, "co": {"X": 1.0, "Y": 1.0}}, {"handle_left": {"X": 0.5, "Y": 1.0}, "interpolation": 0, "handle_type": 0, "handle_right": {"X": 0.5, "Y": 0.0}, "co": {"X": 26.0, "Y": -1.0}}]}, "replace_image": false, "position": 34.03421875, "end": 1.0509374999999963, "layer": 4, "start": 0, "type": "Mask", "reader": {"height": 576, "width": 720, "video_length": "2592000", "audio_bit_rate": 0, "top_field_first": true, "display_ratio": {"den": 4, "num": 5}, "type": "QtImageReader", "video_bit_rate": 0, "vcodec": "", "acodec": "", "channel_layout": 4, "duration": 86400.0, "has_audio": false, "pixel_ratio": {"den": 1, "num": 1}, "file_size": "1658880", "fps": {"den": 1, "num": 30}, "path": "C:\\Program Files\\OpenShot Video Editor\\transitions\\common\\fade.svg", "pixel_format": -1, "audio_stream_index": -1, "video_timebase": {"den": 30, "num": 1}, "audio_timebase": {"den": 1, "num": 1}, "video_stream_index": -1, "interlaced_frame": false, "channels": 0, "has_single_image": true, "has_video": true, "sample_rate": 0}, "title": "Transition", "contrast": {"Points": [{"interpolation": 2, "co": {"X": 1.0, "Y": 3.0}}]}}, {"id": "00SHXEYG7E", "brightness": {"Points": [{"handle_left": {"X": 0.5, "Y": 1.0}, "interpolation": 0, "handle_type": 0, "handle_right": {"X": 0.5, "Y": 0.0}, "co": {"X": 1.0, "Y": 1.0}}, {"handle_left": {"X": 0.5, "Y": 1.0}, "interpolation": 0, "handle_type": 0, "handle_right": {"X": 0.5, "Y": 0.0}, "co": {"X": 28.0, "Y": -1.0}}]}, "replace_image": false, "position": 37.87, "end": 1.1242187500000043, "layer": 4, "start": 0, "type": "Mask", "reader": {"height": 576, "width": 720, "video_length": "2592000", "audio_bit_rate": 0, "top_field_first": true, "display_ratio": {"den": 4, "num": 5}, "type": "QtImageReader", "video_bit_rate": 0, "vcodec": "", "acodec": "", "channel_layout": 4, "duration": 86400.0, "has_audio": false, "pixel_ratio": {"den": 1, "num": 1}, "file_size": "1658880", "fps": {"den": 1, "num": 30}, "path": "C:\\Program Files\\OpenShot Video Editor\\transitions\\common\\fade.svg", "pixel_format": -1, "audio_stream_index": -1, "video_timebase": {"den": 30, "num": 1}, "audio_timebase": {"den": 1, "num": 1}, "video_stream_index": -1, "interlaced_frame": false, "channels": 0, "has_single_image": true, "has_video": true, "sample_rate": 0}, "title": "Transition", "contrast": {"Points": [{"interpolation": 2, "co": {"X": 1.0, "Y": 3.0}}]}}, {"id": "TUINYIA581", "brightness": {"Points": [{"handle_left": {"X": 0.5, "Y": 1.0}, "interpolation": 0, "handle_type": 0, "handle_right": {"X": 0.5, "Y": 0.0}, "co": {"X": 1.0, "Y": 1.0}}, {"handle_left": {"X": 0.5, "Y": 1.0}, "interpolation": 0, "handle_type": 0, "handle_right": {"X": 0.5, "Y": 0.0}, "co": {"X": 26.0, "Y": -1.0}}]}, "replace_image": false, "position": 42.699999999999996, "end": 1.0499999999999972, "layer": 4, "start": 0, "type": "Mask", "reader": {"height": 576, "width": 720, "video_length": "2592000", "audio_bit_rate": 0, "top_field_first": true, "display_ratio": {"den": 4, "num": 5}, "type": "QtImageReader", "video_bit_rate": 0, "vcodec": "", "acodec": "", "channel_layout": 4, "duration": 86400.0, "has_audio": false, "pixel_ratio": {"den": 1, "num": 1}, "file_size": "1658880", "fps": {"den": 1, "num": 30}, "path": "C:\\Program Files\\OpenShot Video Editor\\transitions\\common\\fade.svg", "pixel_format": -1, "audio_stream_index": -1, "video_timebase": {"den": 30, "num": 1}, "audio_timebase": {"den": 1, "num": 1}, "video_stream_index": -1, "interlaced_frame": false, "channels": 0, "has_single_image": true, "has_video": true, "sample_rate": 0}, "title": "Transition", "contrast": {"Points": [{"interpolation": 2, "co": {"X": 1.0, "Y": 3.0}}]}}, {"id": "ALPXWN5KRP", "brightness": {"Points": [{"handle_left": {"X": 0.5, "Y": 1.0}, "interpolation": 0, "handle_type": 0, "handle_right": {"X": 0.5, "Y": 0.0}, "co": {"X": 1.0, "Y": 1.0}}, {"handle_left": {"X": 0.5, "Y": 1.0}, "interpolation": 0, "handle_type": 0, "handle_right": {"X": 0.5, "Y": 0.0}, "co": {"X": 28.0, "Y": -1.0}}]}, "replace_image": false, "position": 47.739999999999995, "end": 1.1123437500000009, "layer": 4, "start": 0, "type": "Mask", "reader": {"height": 576, "width": 720, "video_length": "2592000", "audio_bit_rate": 0, "top_field_first": true, "display_ratio": {"den": 4, "num": 5}, "type": "QtImageReader", "video_bit_rate": 0, "vcodec": "", "acodec": "", "channel_layout": 4, "duration": 86400.0, "has_audio": false, "pixel_ratio": {"den": 1, "num": 1}, "file_size": "1658880", "fps": {"den": 1, "num": 30}, "path": "C:\\Program Files\\OpenShot Video Editor\\transitions\\common\\fade.svg", "pixel_format": -1, "audio_stream_index": -1, "video_timebase": {"den": 30, "num": 1}, "audio_timebase": {"den": 1, "num": 1}, "video_stream_index": -1, "interlaced_frame": false, "channels": 0, "has_single_image": true, "has_video": true, "sample_rate": 0}, "title": "Transition", "contrast": {"Points": [{"interpolation": 2, "co": {"X": 1.0, "Y": 3.0}}]}}, {"id": "XVRR2MCGC8", "brightness": {"Points": [{"handle_left": {"X": 0.5, "Y": 1.0}, "interpolation": 0, "handle_type": 0, "handle_right": {"X": 0.5, "Y": 0.0}, "co": {"X": 1.0, "Y": 1.0}}, {"handle_left": {"X": 0.5, "Y": 1.0}, "interpolation": 0, "handle_type": 0, "handle_right": {"X": 0.5, "Y": 0.0}, "co": {"X": 18.0, "Y": -1.0}}]}, "replace_image": false, "position": 3.74828125, "layer": 4, "start": 0, "type": "Mask", "reader": {"height": 576, "width": 720, "video_length": "2592000", "audio_bit_rate": 0, "top_field_first": true, "display_ratio": {"den": 4, "num": 5}, "type": "QtImageReader", "video_bit_rate": 0, "channel_layout": 4, "acodec": "", "vcodec": "", "duration": 86400.0, "has_audio": false, "pixel_ratio": {"den": 1, "num": 1}, "file_size": "1658880", "fps": {"den": 1, "num": 30}, "path": "C:\\Program Files\\OpenShot Video Editor\\transitions\\common\\fade.svg", "pixel_format": -1, "audio_stream_index": -1, "video_timebase": {"den": 30, "num": 1}, "audio_timebase": {"den": 1, "num": 1}, "video_stream_index": -1, "interlaced_frame": false, "channels": 0, "has_single_image": true, "has_video": true, "sample_rate": 0}, "title": "Transition", "end": 0.7217187500000009, "contrast": {"Points": [{"interpolation": 2, "co": {"X": 1.0, "Y": 3.0}}]}}, {"id": "TVMV1QDW4Y", "brightness": {"Points": [{"handle_left": {"X": 0.5, "Y": 1.0}, "interpolation": 0, "handle_type": 0, "handle_right": {"X": 0.5, "Y": 0.0}, "co": {"X": 1.0, "Y": 1.0}}, {"handle_left": {"X": 0.5, "Y": 1.0}, "interpolation": 0, "handle_type": 0, "handle_right": {"X": 0.5, "Y": 0.0}, "co": {"X": 31.0, "Y": -1.0}}]}, "replace_image": false, "position": 54.04, "layer": 4, "start": 0, "type": "Mask", "reader": {"height": 576, "width": 720, "video_length": "2592000", "audio_bit_rate": 0, "top_field_first": true, "display_ratio": {"den": 4, "num": 5}, "type": "QtImageReader", "video_bit_rate": 0, "channel_layout": 4, "acodec": "", "vcodec": "", "duration": 86400.0, "has_audio": false, "pixel_ratio": {"den": 1, "num": 1}, "file_size": "1658880", "fps": {"den": 1, "num": 30}, "path": "C:\\Program Files\\OpenShot Video Editor\\transitions\\common\\fade.svg", "pixel_format": -1, "audio_stream_index": -1, "video_timebase": {"den": 30, "num": 1}, "audio_timebase": {"den": 1, "num": 1}, "video_stream_index": -1, "interlaced_frame": false, "channels": 0, "has_single_image": true, "has_video": true, "sample_rate": 0}, "title": "Transition", "end": 1.259999999999998, "contrast": {"Points": [{"interpolation": 2, "co": {"X": 1.0, "Y": 3.0}}]}}, {"id": "9S8NSG1376", "brightness": {"Points": [{"handle_left": {"X": 0.5, "Y": 1.0}, "interpolation": 0, "handle_type": 0, "handle_right": {"X": 0.5, "Y": 0.0}, "co": {"X": 1.0, "Y": 1.0}}, {"handle_left": {"X": 0.5, "Y": 1.0}, "interpolation": 0, "handle_type": 0, "handle_right": {"X": 0.5, "Y": 0.0}, "co": {"X": 35.0, "Y": -1.0}}]}, "replace_image": false, "position": 56.059062499999996, "layer": 4, "start": 0, "type": "Mask", "reader": {"height": 576, "width": 720, "video_length": "2592000", "audio_bit_rate": 0, "top_field_first": true, "display_ratio": {"den": 4, "num": 5}, "type": "QtImageReader", "video_bit_rate": 0, "channel_layout": 4, "acodec": "", "vcodec": "", "duration": 86400.0, "has_audio": false, "pixel_ratio": {"den": 1, "num": 1}, "file_size": "1658880", "fps": {"den": 1, "num": 30}, "path": "C:\\Program Files\\OpenShot Video Editor\\transitions\\common\\fade.svg", "pixel_format": -1, "audio_stream_index": -1, "video_timebase": {"den": 30, "num": 1}, "audio_timebase": {"den": 1, "num": 1}, "video_stream_index": -1, "interlaced_frame": false, "channels": 0, "has_single_image": true, "has_video": true, "sample_rate": 0}, "title": "Transition", "end": 1.4009375000000048, "contrast": {"Points": [{"interpolation": 2, "co": {"X": 1.0, "Y": 3.0}}]}}]}, {"value": {"id": "R7CLXXFX61", "position": 57.459062499999995, "layer": 4, "start": 5.6, "image": "C:\\Users\\Henry\\.openshot_qt\\thumbnail\\79XQ1JXZOE.png", "end": 7.829999999999999}, "type": "update", "key": ["clips", {"id": "R7CLXXFX61"}], "partial": false, "old_values": {"crop_width": {"Points": [{"interpolation": 2, "co": {"X": 1.0, "Y": -1.0}}]}, "display": 0, "waveform": false, "channel_filter": {"Points": [{"interpolation": 2, "co": {"X": 1.0, "Y": -1.0}}]}, "effects": [], "layer": 4, "scale_y": {"Points": [{"interpolation": 2, "co": {"X": 1.0, "Y": 1.0}}]}, "shear_y": {"Points": [{"interpolation": 2, "co": {"X": 1.0, "Y": 0.0}}]}, "rotation": {"Points": [{"interpolation": 2, "co": {"X": 1.0, "Y": 0.0}}]}, "end": 8.95, "time": {"Points": [{"interpolation": 2, "co": {"X": 1.0, "Y": 1.0}}]}, "crop_height": {"Points": [{"interpolation": 2, "co": {"X": 1.0, "Y": -1.0}}]}, "crop_x": {"Points": [{"interpolation": 2, "co": {"X": 1.0, "Y": 0.0}}]}, "shear_x": {"Points": [{"interpolation": 2, "co": {"X": 1.0, "Y": 0.0}}]}, "duration": 86400.0, "scale_x": {"Points": [{"interpolation": 2, "co": {"X": 1.0, "Y": 1.0}}]}, "title": "title_orange.JPG", "has_audio": {"Points": [{"interpolation": 2, "co": {"X": 1.0, "Y": -1.0}}]}, "perspective_c4_y": {"Points": [{"interpolation": 2, "co": {"X": 1.0, "Y": -1.0}}]}, "perspective_c3_y": {"Points": [{"interpolation": 2, "co": {"X": 1.0, "Y": -1.0}}]}, "channel_mapping": {"Points": [{"interpolation": 2, "co": {"X": 1.0, "Y": -1.0}}]}, "perspective_c4_x": {"Points": [{"interpolation": 2, "co": {"X": 1.0, "Y": -1.0}}]}, "position": 57.459062499999995, "scale": 1, "wave_color": {"blue": {"Points": [{"handle_left": {"X": 0.5, "Y": 1.0}, "interpolation": 0, "handle_type": 0, "handle_right": {"X": 0.5, "Y": 0.0}, "co": {"X": 1.0, "Y": 255.0}}]}, "green": {"Points": [{"handle_left": {"X": 0.5, "Y": 1.0}, "interpolation": 0, "handle_type": 0, "handle_right": {"X": 0.5, "Y": 0.0}, "co": {"X": 1.0, "Y": 123.0}}]}, "red": {"Points": [{"handle_left": {"X": 0.5, "Y": 1.0}, "interpolation": 0, "handle_type": 0, "handle_right": {"X": 0.5, "Y": 0.0}, "co": {"X": 1.0, "Y": 0.0}}]}, "alpha": {"Points": [{"handle_left": {"X": 0.5, "Y": 1.0}, "interpolation": 0, "handle_type": 0, "handle_right": {"X": 0.5, "Y": 0.0}, "co": {"X": 1.0, "Y": 255.0}}]}}, "perspective_c1_x": {"Points": [{"interpolation": 2, "co": {"X": 1.0, "Y": -1.0}}]}, "file_id": "79XQ1JXZOE", "location_y": {"Points": [{"interpolation": 2, "co": {"X": 1.0, "Y": 0.0}}]}, "alpha": {"Points": [{"interpolation": 2, "co": {"X": 1.0, "Y": 1.0}}]}, "start": 5.6, "volume": {"Points": [{"interpolation": 2, "co": {"X": 1.0, "Y": 1.0}}]}, "anchor": 0, "gravity": 4, "perspective_c2_y": {"Points": [{"interpolation": 2, "co": {"X": 1.0, "Y": -1.0}}]}, "id": "R7CLXXFX61", "perspective_c2_x": {"Points": [{"interpolation": 2, "co": {"X": 1.0, "Y": -1.0}}]}, "perspective_c1_y": {"Points": [{"interpolation": 2, "co": {"X": 1.0, "Y": -1.0}}]}, "image": "C:\\Users\\Henry\\.openshot_qt\\thumbnail\\79XQ1JXZOE.png", "crop_y": {"Points": [{"interpolation": 2, "co": {"X": 1.0, "Y": 0.0}}]}, "reader": {"height": 745, "width": 1323, "video_length": "2592000", "audio_bit_rate": 0, "top_field_first": true, "display_ratio": {"den": 745, "num": 1323}, "type": "QtImageReader", "video_bit_rate": 0, "channel_layout": 4, "acodec": "", "vcodec": "", "duration": 86400.0, "has_audio": false, "pixel_ratio": {"den": 1, "num": 1}, "file_size": "3942540", "fps": {"den": 1, "num": 30}, "path": "C:\\Users\\Henry\\Documents\\Classes\\Fall 2017\\CS 329e Game Dev\\MVPgamedev\\Trailer Clips\\title_orange.JPG", "pixel_format": -1, "audio_stream_index": -1, "video_timebase": {"den": 30, "num": 1}, "audio_timebase": {"den": 1, "num": 1}, "video_stream_index": -1, "interlaced_frame": false, "channels": 0, "has_single_image": true, "has_video": true, "sample_rate": 0}, "location_x": {"Points": [{"interpolation": 2, "co": {"X": 1.0, "Y": 0.0}}]}, "has_video": {"Points": [{"interpolation": 2, "co": {"X": 1.0, "Y": -1.0}}]}, "perspective_c3_x": {"Points": [{"interpolation": 2, "co": {"X": 1.0, "Y": -1.0}}]}}}, {"value": {"id": "JBG87H3OER", "position": 59.57, "layer": 3, "start": 0, "image": "C:\\Program Files\\OpenShot Video Editor\\images\\AudioThumbnail.png", "end": 95}, "type": "update", "key": ["clips", {"id": "JBG87H3OER"}], "partial": false, "old_values": {"crop_width": {"Points": [{"interpolation": 2, "co": {"X": 1.0, "Y": -1.0}}]}, "display": 0, "waveform": false, "channel_filter": {"Points": [{"interpolation": 2, "co": {"X": 1.0, "Y": -1.0}}]}, "effects": [], "layer": 3, "scale_y": {"Points": [{"interpolation": 2, "co": {"X": 1.0, "Y": 1.0}}]}, "shear_y": {"Points": [{"interpolation": 2, "co": {"X": 1.0, "Y": 0.0}}]}, "rotation": {"Points": [{"interpolation": 2, "co": {"X": 1.0, "Y": 0.0}}]}, "end": 95.0, "time": {"Points": [{"interpolation": 1, "co": {"X": 1.0, "Y": 1.0}}, {"interpolation": 1, "co": {"X": 2280.0, "Y": 4559.0}}]}, "crop_height": {"Points": [{"interpolation": 2, "co": {"X": 1.0, "Y": -1.0}}]}, "crop_x": {"Points": [{"interpolation": 2, "co": {"X": 1.0, "Y": 0.0}}]}, "shear_x": {"Points": [{"interpolation": 2, "co": {"X": 1.0, "Y": 0.0}}]}, "duration": 94.0, "scale_x": {"Points": [{"interpolation": 2, "co": {"X": 1.0, "Y": 1.0}}]}, "title": "cute.mp3", "has_audio": {"Points": [{"interpolation": 2, "co": {"X": 1.0, "Y": -1.0}}]}, "perspective_c4_y": {"Points": [{"interpolation": 2, "co": {"X": 1.0, "Y": -1.0}}]}, "perspective_c3_y": {"Points": [{"interpolation": 2, "co": {"X": 1.0, "Y": -1.0}}]}, "channel_mapping": {"Points": [{"interpolation": 2, "co": {"X": 1.0, "Y": -1.0}}]}, "perspective_c4_x": {"Points": [{"interpolation": 2, "co": {"X": 1.0, "Y": -1.0}}]}, "position": 59.81812499999999, "scale": 1, "wave_color": {"blue": {"Points": [{"handle_left": {"X": 0.5, "Y": 1.0}, "interpolation": 0, "handle_type": 0, "handle_right": {"X": 0.5, "Y": 0.0}, "co": {"X": 1.0, "Y": 255.0}}]}, "green": {"Points": [{"handle_left": {"X": 0.5, "Y": 1.0}, "interpolation": 0, "handle_type": 0, "handle_right": {"X": 0.5, "Y": 0.0}, "co": {"X": 1.0, "Y": 123.0}}]}, "red": {"Points": [{"handle_left": {"X": 0.5, "Y": 1.0}, "interpolation": 0, "handle_type": 0, "handle_right": {"X": 0.5, "Y": 0.0}, "co": {"X": 1.0, "Y": 0.0}}]}, "alpha": {"Points": [{"handle_left": {"X": 0.5, "Y": 1.0}, "interpolation": 0, "handle_type": 0, "handle_right": {"X": 0.5, "Y": 0.0}, "co": {"X": 1.0, "Y": 255.0}}]}}, "perspective_c1_x": {"Points": [{"interpolation": 2, "co": {"X": 1.0, "Y": -1.0}}]}, "file_id": "6DFW25DRJZ", "location_y": {"Points": [{"interpolation": 2, "co": {"X": 1.0, "Y": 0.0}}]}, "alpha": {"Points": [{"interpolation": 2, "co": {"X": 1.0, "Y": 1.0}}]}, "start": 0, "volume": {"Points": [{"interpolation": 2, "co": {"X": 1.0, "Y": 1.0}}]}, "anchor": 0, "gravity": 4, "perspective_c2_y": {"Points": [{"interpolation": 2, "co": {"X": 1.0, "Y": -1.0}}]}, "id": "JBG87H3OER", "perspective_c2_x": {"Points": [{"interpolation": 2, "co": {"X": 1.0, "Y": -1.0}}]}, "perspective_c1_y": {"Points": [{"interpolation": 2, "co": {"X": 1.0, "Y": -1.0}}]}, "image": "C:\\Program Files\\OpenShot Video Editor\\images\\AudioThumbnail.png", "crop_y": {"Points": [{"interpolation": 2, "co": {"X": 1.0, "Y": 0.0}}]}, "reader": {"height": 480, "width": 720, "video_length": "4559", "audio_bit_rate": 112000, "top_field_first": true, "display_ratio": {"den": 1, "num": 1}, "type": "FFmpegReader", "video_bit_rate": 0, "channel_layout": 3, "acodec": "mp3", "vcodec": "", "duration": 189.9627075195312, "has_audio": true, "pixel_ratio": {"den": 1, "num": 1}, "file_size": "2659839", "fps": {"den": 1, "num": 24}, "path": "C:\\Users\\Henry\\Documents\\Classes\\Fall 2017\\CS 329e Game Dev\\MVPgamedev\\Game\\assets\\sounds\\cute.mp3", "pixel_format": -1, "audio_stream_index": 0, "video_timebase": {"den": 24, "num": 1}, "audio_timebase": {"den": 14112000, "num": 1}, "video_stream_index": -1, "interlaced_frame": false, "channels": 2, "has_single_image": false, "has_video": false, "sample_rate": 44100}, "location_x": {"Points": [{"interpolation": 2, "co": {"X": 1.0, "Y": 0.0}}]}, "has_video": {"Points": [{"interpolation": 2, "co": {"X": 1.0, "Y": -1.0}}]}, "perspective_c3_x": {"Points": [{"interpolation": 2, "co": {"X": 1.0, "Y": -1.0}}]}}}, {"value": {"crop_height": {"Points": [{"interpolation": 2, "co": {"X": 1.0, "Y": -1.0}}]}, "crop_width": {"Points": [{"interpolation": 2, "co": {"X": 1.0, "Y": -1.0}}]}, "display": 0, "waveform": false, "channel_filter": {"Points": [{"interpolation": 2, "co": {"X": 1.0, "Y": -1.0}}]}, "effects": [], "channel_mapping": {"Points": [{"interpolation": 2, "co": {"X": 1.0, "Y": -1.0}}]}, "layer": 3, "scale_y": {"Points": [{"interpolation": 2, "co": {"X": 1.0, "Y": 1.0}}]}, "perspective_c3_y": {"Points": [{"interpolation": 2, "co": {"X": 1.0, "Y": -1.0}}]}, "shear_y": {"Points": [{"interpolation": 2, "co": {"X": 1.0, "Y": 0.0}}]}, "end": 52.85, "gravity": 4, "crop_x": {"Points": [{"interpolation": 2, "co": {"X": 1.0, "Y": 0.0}}]}, "shear_x": {"Points": [{"interpolation": 2, "co": {"X": 1.0, "Y": 0.0}}]}, "duration": 94.0, "scale_x": {"Points": [{"interpolation": 2, "co": {"X": 1.0, "Y": 1.0}}]}, "has_audio": {"Points": [{"interpolation": 2, "co": {"X": 1.0, "Y": -1.0}}]}, "perspective_c4_y": {"Points": [{"interpolation": 2, "co": {"X": 1.0, "Y": -1.0}}]}, "perspective_c3_x": {"Points": [{"interpolation": 2, "co": {"X": 1.0, "Y": -1.0}}]}, "time": {"Points": [{"interpolation": 1, "co": {"X": 1.0, "Y": 1.0}}, {"interpolation": 1, "co": {"X": 2280.0, "Y": 4559.0}}]}, "perspective_c4_x": {"Points": [{"interpolation": 2, "co": {"X": 1.0, "Y": -1.0}}]}, "reader": {"height": 480, "width": 720, "video_length": "4559", "audio_bit_rate": 112000, "top_field_first": true, "display_ratio": {"den": 1, "num": 1}, "type": "FFmpegReader", "video_bit_rate": 0, "channel_layout": 3, "acodec": "mp3", "vcodec": "", "duration": 189.9627075195312, "has_audio": true, "pixel_ratio": {"den": 1, "num": 1}, "file_size": "2659839", "fps": {"den": 1, "num": 24}, "path": "C:\\Users\\Henry\\Documents\\Classes\\Fall 2017\\CS 329e Game Dev\\MVPgamedev\\Game\\assets\\sounds\\cute.mp3", "pixel_format": -1, "audio_stream_index": 0, "video_timebase": {"den": 24, "num": 1}, "audio_timebase": {"den": 14112000, "num": 1}, "video_stream_index": -1, "interlaced_frame": false, "sample_rate": 44100, "has_single_image": false, "has_video": false, "channels": 2}, "position": 0, "scale": 1, "wave_color": {"blue": {"Points": [{"handle_left": {"X": 0.5, "Y": 1.0}, "interpolation": 0, "handle_type": 0, "handle_right": {"X": 0.5, "Y": 0.0}, "co": {"X": 1.0, "Y": 255.0}}]}, "green": {"Points": [{"handle_left": {"X": 0.5, "Y": 1.0}, "interpolation": 0, "handle_type": 0, "handle_right": {"X": 0.5, "Y": 0.0}, "co": {"X": 1.0, "Y": 123.0}}]}, "red": {"Points": [{"handle_left": {"X": 0.5, "Y": 1.0}, "interpolation": 0, "handle_type": 0, "handle_right": {"X": 0.5, "Y": 0.0}, "co": {"X": 1.0, "Y": 0.0}}]}, "alpha": {"Points": [{"handle_left": {"X": 0.5, "Y": 1.0}, "interpolation": 0, "handle_type": 0, "handle_right": {"X": 0.5, "Y": 0.0}, "co": {"X": 1.0, "Y": 255.0}}]}}, "perspective_c1_y": {"Points": [{"interpolation": 2, "co": {"X": 1.0, "Y": -1.0}}]}, "file_id": "6DFW25DRJZ", "location_y": {"Points": [{"interpolation": 2, "co": {"X": 1.0, "Y": 0.0}}]}, "anchor": 0, "volume": {"Points": [{"interpolation": 2, "co": {"X": 1.0, "Y": 1.0}}]}, "perspective_c2_y": {"Points": [{"interpolation": 2, "co": {"X": 1.0, "Y": -1.0}}]}, "title": "cute.mp3", "id": "P9UCYI6O28", "perspective_c2_x": {"Points": [{"interpolation": 2, "co": {"X": 1.0, "Y": -1.0}}]}, "start": 16.380000000000003, "image": "C:\\Users\\Henry\\.openshot_qt\\thumbnail\\P9UCYI6O28-394.png", "alpha": {"Points": [{"interpolation": 2, "co": {"X": 1.0, "Y": 1.0}}]}, "crop_y": {"Points": [{"interpolation": 2, "co": {"X": 1.0, "Y": 0.0}}]}, "rotation": {"Points": [{"interpolation": 2, "co": {"X": 1.0, "Y": 0.0}}]}, "location_x": {"Points": [{"interpolation": 2, "co": {"X": 1.0, "Y": 0.0}}]}, "has_video": {"Points": [{"interpolation": 2, "co": {"X": 1.0, "Y": -1.0}}]}, "perspective_c1_x": {"Points": [{"interpolation": 2, "co": {"X": 1.0, "Y": -1.0}}]}}, "type": "insert", "key": ["clips"], "partial": false, "old_values": [{"crop_width": {"Points": [{"interpolation": 2, "co": {"X": 1.0, "Y": -1.0}}]}, "display": 0, "waveform": false, "channel_filter": {"Points": [{"interpolation": 2, "co": {"X": 1.0, "Y": -1.0}}]}, "effects": [], "layer": 4, "scale_y": {"Points": [{"interpolation": 2, "co": {"X": 1.0, "Y": 1.0}}]}, "shear_y": {"Points": [{"interpolation": 2, "co": {"X": 1.0, "Y": 0.0}}]}, "rotation": {"Points": [{"interpolation": 2, "co": {"X": 1.0, "Y": 0.0}}]}, "end": 6.239999999999999, "time": {"Points": [{"interpolation": 2, "co": {"X": 1.0, "Y": 1.0}}]}, "crop_x": {"Points": [{"interpolation": 2, "co": {"X": 1.0, "Y": 0.0}}]}, "shear_x": {"Points": [{"interpolation": 2, "co": {"X": 1.0, "Y": 0.0}}]}, "duration": 857.8773193359375, "scale_x": {"Points": [{"interpolation": 2, "co": {"X": 1.0, "Y": 1.0}}]}, "has_audio": {"Points": [{"interpolation": 2, "co": {"X": 1.0, "Y": -1.0}}]}, "perspective_c4_y": {"Points": [{"interpolation": 2, "co": {"X": 1.0, "Y": -1.0}}]}, "perspective_c3_y": {"Points": [{"interpolation": 2, "co": {"X": 1.0, "Y": -1.0}}]}, "channel_mapping": {"Points": [{"interpolation": 2, "co": {"X": 1.0, "Y": -1.0}}]}, "perspective_c4_x": {"Points": [{"interpolation": 2, "co": {"X": 1.0, "Y": -1.0}}]}, "position": 3.74828125, "scale": 1, "wave_color": {"blue": {"Points": [{"handle_left": {"X": 0.5, "Y": 1.0}, "interpolation": 0, "handle_type": 0, "handle_right": {"X": 0.5, "Y": 0.0}, "co": {"X": 1.0, "Y": 255.0}}]}, "green": {"Points": [{"handle_left": {"X": 0.5, "Y": 1.0}, "interpolation": 0, "handle_type": 0, "handle_right": {"X": 0.5, "Y": 0.0}, "co": {"X": 1.0, "Y": 123.0}}]}, "red": {"Points": [{"handle_left": {"X": 0.5, "Y": 1.0}, "interpolation": 0, "handle_type": 0, "handle_right": {"X": 0.5, "Y": 0.0}, "co": {"X": 1.0, "Y": 0.0}}]}, "alpha": {"Points": [{"handle_left": {"X": 0.5, "Y": 1.0}, "interpolation": 0, "handle_type": 0, "handle_right": {"X": 0.5, "Y": 0.0}, "co": {"X": 1.0, "Y": 255.0}}]}}, "file_id": "KMO2K20KW3", "location_y": {"Points": [{"interpolation": 2, "co": {"X": 1.0, "Y": 0.0}}]}, "anchor": 0, "gravity": 4, "volume": {"Points": [{"interpolation": 2, "co": {"X": 1.0, "Y": 1.0}}, {"handle_left": {"X": 0.5, "Y": 1.0}, "interpolation": 0, "handle_type": 0, "handle_right": {"X": 0.5, "Y": 0.0}, "co": {"X": 17.0, "Y": 0.0}}]}, "perspective_c2_y": {"Points": [{"interpolation": 2, "co": {"X": 1.0, "Y": -1.0}}]}, "title": "index.html - Google Chrome 11_27_2017 4_25_11 PM.mp4", "perspective_c3_x": {"Points": [{"interpolation": 2, "co": {"X": 1.0, "Y": -1.0}}]}, "id": "D7NUNOPHFR", "crop_y": {"Points": [{"interpolation": 2, "co": {"X": 1.0, "Y": 0.0}}]}, "has_video": {"Points": [{"interpolation": 2, "co": {"X": 1.0, "Y": -1.0}}]}, "perspective_c2_x": {"Points": [{"interpolation": 2, "co": {"X": 1.0, "Y": -1.0}}]}, "start": 0.6599999999999999, "image": "C:\\Users\\Henry\\.openshot_qt\\thumbnail\\D7NUNOPHFR-21.png", "alpha": {"Points": [{"interpolation": 2, "co": {"X": 1.0, "Y": 1.0}}]}, "crop_height": {"Points": [{"interpolation": 2, "co": {"X": 1.0, "Y": -1.0}}]}, "reader": {"height": 776, "width": 1376, "video_length": "25729", "audio_bit_rate": 131760, "top_field_first": true, "display_ratio": {"den": 97, "num": 172}, "type": "FFmpegReader", "video_bit_rate": 5473610, "vcodec": "h264", "acodec": "aac", "channel_layout": 3, "duration": 857.8773193359375, "has_audio": true, "pixel_ratio": {"den": 1, "num": 1}, "file_size": "586964452", "fps": {"den": 12866759, "num": 385935000}, "path": "C:\\Users\\Henry\\Videos\\Captures\\index.html - Google Chrome 11_27_2017 4_25_11 PM.mp4", "pixel_format": 0, "audio_stream_index": 1, "video_timebase": {"den": 30000, "num": 1}, "audio_timebase": {"den": 48000, "num": 1}, "video_stream_index": 0, "interlaced_frame": false, "channels": 2, "has_single_image": false, "has_video": true, "sample_rate": 48000}, "location_x": {"Points": [{"interpolation": 2, "co": {"X": 1.0, "Y": 0.0}}]}, "perspective_c1_y": {"Points": [{"interpolation": 2, "co": {"X": 1.0, "Y": -1.0}}]}, "perspective_c1_x": {"Points": [{"interpolation": 2, "co": {"X": 1.0, "Y": -1.0}}]}}, {"crop_width": {"Points": [{"interpolation": 2, "co": {"X": 1.0, "Y": -1.0}}]}, "display": 0, "waveform": false, "channel_filter": {"Points": [{"interpolation": 2, "co": {"X": 1.0, "Y": -1.0}}]}, "effects": [], "layer": 4, "scale_y": {"Points": [{"interpolation": 2, "co": {"X": 1.0, "Y": 1.0}}]}, "shear_y": {"Points": [{"interpolation": 2, "co": {"X": 1.0, "Y": 0.0}}]}, "rotation": {"Points": [{"interpolation": 2, "co": {"X": 1.0, "Y": 0.0}}]}, "end": 92.27999999999999, "time": {"Points": [{"interpolation": 1, "co": {"X": 1.0, "Y": 0.0}}]}, "crop_x": {"Points": [{"interpolation": 2, "co": {"X": 1.0, "Y": 0.0}}]}, "shear_x": {"Points": [{"interpolation": 2, "co": {"X": 1.0, "Y": 0.0}}]}, "duration": 857.8773193359375, "scale_x": {"Points": [{"interpolation": 2, "co": {"X": 1.0, "Y": 1.0}}]}, "has_audio": {"Points": [{"interpolation": 2, "co": {"X": 1.0, "Y": -1.0}}]}, "perspective_c4_y": {"Points": [{"interpolation": 2, "co": {"X": 1.0, "Y": -1.0}}]}, "perspective_c3_y": {"Points": [{"interpolation": 2, "co": {"X": 1.0, "Y": -1.0}}]}, "channel_mapping": {"Points": [{"interpolation": 2, "co": {"X": 1.0, "Y": -1.0}}]}, "perspective_c4_x": {"Points": [{"interpolation": 2, "co": {"X": 1.0, "Y": -1.0}}]}, "position": 37.87, "scale": 1, "wave_color": {"blue": {"Points": [{"handle_left": {"X": 0.5, "Y": 1.0}, "interpolation": 0, "handle_type": 0, "handle_right": {"X": 0.5, "Y": 0.0}, "co": {"X": 1.0, "Y": 255.0}}]}, "green": {"Points": [{"handle_left": {"X": 0.5, "Y": 1.0}, "interpolation": 0, "handle_type": 0, "handle_right": {"X": 0.5, "Y": 0.0}, "co": {"X": 1.0, "Y": 123.0}}]}, "red": {"Points": [{"handle_left": {"X": 0.5, "Y": 1.0}, "interpolation": 0, "handle_type": 0, "handle_right": {"X": 0.5, "Y": 0.0}, "co": {"X": 1.0, "Y": 0.0}}]}, "alpha": {"Points": [{"handle_left": {"X": 0.5, "Y": 1.0}, "interpolation": 0, "handle_type": 0, "handle_right": {"X": 0.5, "Y": 0.0}, "co": {"X": 1.0, "Y": 255.0}}]}}, "file_id": "KMO2K20KW3", "location_y": {"Points": [{"interpolation": 2, "co": {"X": 1.0, "Y": 0.0}}]}, "anchor": 0, "gravity": 4, "volume": {"Points": [{"interpolation": 2, "co": {"X": 1.0, "Y": 1.0}}, {"handle_left": {"X": 0.5, "Y": 1.0}, "interpolation": 0, "handle_type": 0, "handle_right": {"X": 0.5, "Y": 0.0}, "co": {"X": 2075.0, "Y": 0.0}}, {"handle_left": {"X": 0.5, "Y": 1.0}, "interpolation": 0, "handle_type": 0, "handle_right": {"X": 0.5, "Y": 0.0}, "co": {"X": 2075.0, "Y": 0.0}}]}, "perspective_c2_y": {"Points": [{"interpolation": 2, "co": {"X": 1.0, "Y": -1.0}}]}, "title": "index.html - Google Chrome 11_27_2017 4_25_11 PM.mp4", "perspective_c3_x": {"Points": [{"interpolation": 2, "co": {"X": 1.0, "Y": -1.0}}]}, "id": "FVONGYF9VS", "crop_y": {"Points": [{"interpolation": 2, "co": {"X": 1.0, "Y": 0.0}}]}, "has_video": {"Points": [{"interpolation": 2, "co": {"X": 1.0, "Y": -1.0}}]}, "perspective_c2_x": {"Points": [{"interpolation": 2, "co": {"X": 1.0, "Y": -1.0}}]}, "start": 86.39999999999999, "image": "C:\\Users\\Henry\\.openshot_qt\\thumbnail\\FVONGYF9VS-2593.png", "alpha": {"Points": [{"interpolation": 2, "co": {"X": 1.0, "Y": 1.0}}]}, "crop_height": {"Points": [{"interpolation": 2, "co": {"X": 1.0, "Y": -1.0}}]}, "reader": {"height": 776, "width": 1376, "video_length": "25729", "audio_bit_rate": 131760, "top_field_first": true, "display_ratio": {"den": 97, "num": 172}, "type": "FFmpegReader", "video_bit_rate": 5473610, "vcodec": "h264", "acodec": "aac", "channel_layout": 3, "duration": 857.8773193359375, "has_audio": true, "pixel_ratio": {"den": 1, "num": 1}, "file_size": "586964452", "fps": {"den": 12866759, "num": 385935000}, "path": "C:\\Users\\Henry\\Videos\\Captures\\index.html - Google Chrome 11_27_2017 4_25_11 PM.mp4", "pixel_format": 0, "audio_stream_index": 1, "video_timebase": {"den": 30000, "num": 1}, "audio_timebase": {"den": 48000, "num": 1}, "video_stream_index": 0, "interlaced_frame": false, "channels": 2, "has_single_image": false, "has_video": true, "sample_rate": 48000}, "location_x": {"Points": [{"interpolation": 2, "co": {"X": 1.0, "Y": 0.0}}]}, "perspective_c1_y": {"Points": [{"interpolation": 2, "co": {"X": 1.0, "Y": -1.0}}]}, "perspective_c1_x": {"Points": [{"interpolation": 2, "co": {"X": 1.0, "Y": -1.0}}]}}, {"crop_width": {"Points": [{"interpolation": 2, "co": {"X": 1.0, "Y": -1.0}}]}, "display": 0, "waveform": false, "channel_filter": {"Points": [{"interpolation": 2, "co": {"X": 1.0, "Y": -1.0}}]}, "effects": [], "layer": 4, "scale_y": {"Points": [{"interpolation": 2, "co": {"X": 1.0, "Y": 1.0}}]}, "shear_y": {"Points": [{"interpolation": 2, "co": {"X": 1.0, "Y": 0.0}}]}, "rotation": {"Points": [{"interpolation": 2, "co": {"X": 1.0, "Y": 0.0}}]}, "end": 416.72999999999996, "time": {"Points": [{"interpolation": 2, "co": {"X": 1.0, "Y": 1.0}}]}, "crop_x": {"Points": [{"interpolation": 2, "co": {"X": 1.0, "Y": 0.0}}]}, "shear_x": {"Points": [{"interpolation": 2, "co": {"X": 1.0, "Y": 0.0}}]}, "duration": 857.8773193359375, "scale_x": {"Points": [{"interpolation": 2, "co": {"X": 1.0, "Y": 1.0}}]}, "has_audio": {"Points": [{"interpolation": 2, "co": {"X": 1.0, "Y": -1.0}}]}, "perspective_c4_y": {"Points": [{"interpolation": 2, "co": {"X": 1.0, "Y": -1.0}}]}, "perspective_c3_y": {"Points": [{"interpolation": 2, "co": {"X": 1.0, "Y": -1.0}}]}, "channel_mapping": {"Points": [{"interpolation": 2, "co": {"X": 1.0, "Y": -1.0}}]}, "perspective_c4_x": {"Points": [{"interpolation": 2, "co": {"X": 1.0, "Y": -1.0}}]}, "position": 11.85734375, "scale": 1, "wave_color": {"blue": {"Points": [{"handle_left": {"X": 0.5, "Y": 1.0}, "interpolation": 0, "handle_type": 0, "handle_right": {"X": 0.5, "Y": 0.0}, "co": {"X": 1.0, "Y": 255.0}}]}, "green": {"Points": [{"handle_left": {"X": 0.5, "Y": 1.0}, "interpolation": 0, "handle_type": 0, "handle_right": {"X": 0.5, "Y": 0.0}, "co": {"X": 1.0, "Y": 123.0}}]}, "red": {"Points": [{"handle_left": {"X": 0.5, "Y": 1.0}, "interpolation": 0, "handle_type": 0, "handle_right": {"X": 0.5, "Y": 0.0}, "co": {"X": 1.0, "Y": 0.0}}]}, "alpha": {"Points": [{"handle_left": {"X": 0.5, "Y": 1.0}, "interpolation": 0, "handle_type": 0, "handle_right": {"X": 0.5, "Y": 0.0}, "co": {"X": 1.0, "Y": 255.0}}]}}, "file_id": "KMO2K20KW3", "location_y": {"Points": [{"interpolation": 2, "co": {"X": 1.0, "Y": 0.0}}]}, "anchor": 0, "gravity": 4, "volume": {"Points": [{"interpolation": 2, "co": {"X": 1.0, "Y": 1.0}}, {"handle_left": {"X": 0.5, "Y": 1.0}, "interpolation": 0, "handle_type": 0, "handle_right": {"X": 0.5, "Y": 0.0}, "co": {"X": 9795.0, "Y": 0.0}}, {"handle_left": {"X": 0.5, "Y": 1.0}, "interpolation": 0, "handle_type": 0, "handle_right": {"X": 0.5, "Y": 0.0}, "co": {"X": 9795.0, "Y": 0.0}}, {"handle_left": {"X": 0.5, "Y": 1.0}, "interpolation": 0, "handle_type": 0, "handle_right": {"X": 0.5, "Y": 0.0}, "co": {"X": 9795.0, "Y": 0.0}}, {"handle_left": {"X": 0.5, "Y": 1.0}, "interpolation": 0, "handle_type": 0, "handle_right": {"X": 0.5, "Y": 0.0}, "co": {"X": 9795.0, "Y": 0.0}}]}, "perspective_c2_y": {"Points": [{"interpolation": 2, "co": {"X": 1.0, "Y": -1.0}}]}, "title": "index.html - Google Chrome 11_27_2017 4_25_11 PM.mp4", "perspective_c3_x": {"Points": [{"interpolation": 2, "co": {"X": 1.0, "Y": -1.0}}]}, "id": "AD57EI7486", "crop_y": {"Points": [{"interpolation": 2, "co": {"X": 1.0, "Y": 0.0}}]}, "has_video": {"Points": [{"interpolation": 2, "co": {"X": 1.0, "Y": -1.0}}]}, "perspective_c2_x": {"Points": [{"interpolation": 2, "co": {"X": 1.0, "Y": -1.0}}]}, "start": 408.09, "image": "C:\\Users\\Henry\\.openshot_qt\\thumbnail\\AD57EI7486-12242.png", "alpha": {"Points": [{"interpolation": 2, "co": {"X": 1.0, "Y": 1.0}}]}, "crop_height": {"Points": [{"interpolation": 2, "co": {"X": 1.0, "Y": -1.0}}]}, "reader": {"height": 776, "width": 1376, "video_length": "25729", "audio_bit_rate": 131760, "top_field_first": true, "display_ratio": {"den": 97, "num": 172}, "type": "FFmpegReader", "video_bit_rate": 5473610, "vcodec": "h264", "acodec": "aac", "channel_layout": 3, "duration": 857.8773193359375, "has_audio": true, "pixel_ratio": {"den": 1, "num": 1}, "file_size": "586964452", "fps": {"den": 12866759, "num": 385935000}, "path": "C:\\Users\\Henry\\Videos\\Captures\\index.html - Google Chrome 11_27_2017 4_25_11 PM.mp4", "pixel_format": 0, "audio_stream_index": 1, "video_timebase": {"den": 30000, "num": 1}, "audio_timebase": {"den": 48000, "num": 1}, "video_stream_index": 0, "interlaced_frame": false, "channels": 2, "has_single_image": false, "has_video": true, "sample_rate": 48000}, "location_x": {"Points": [{"interpolation": 2, "co": {"X": 1.0, "Y": 0.0}}]}, "perspective_c1_y": {"Points": [{"interpolation": 2, "co": {"X": 1.0, "Y": -1.0}}]}, "perspective_c1_x": {"Points": [{"interpolation": 2, "co": {"X": 1.0, "Y": -1.0}}]}}, {"crop_width": {"Points": [{"interpolation": 2, "co": {"X": 1.0, "Y": -1.0}}]}, "display": 0, "waveform": false, "channel_filter": {"Points": [{"interpolation": 2, "co": {"X": 1.0, "Y": -1.0}}]}, "effects": [], "layer": 4, "scale_y": {"Points": [{"interpolation": 2, "co": {"X": 1.0, "Y": 1.0}}]}, "shear_y": {"Points": [{"interpolation": 2, "co": {"X": 1.0, "Y": 0.0}}]}, "rotation": {"Points": [{"interpolation": 2, "co": {"X": 1.0, "Y": 0.0}}]}, "end": 321.36234375, "time": {"Points": [{"interpolation": 1, "co": {"X": 1.0, "Y": 0.0}}]}, "crop_x": {"Points": [{"interpolation": 2, "co": {"X": 1.0, "Y": 0.0}}]}, "shear_x": {"Points": [{"interpolation": 2, "co": {"X": 1.0, "Y": 0.0}}]}, "duration": 857.8773193359375, "scale_x": {"Points": [{"interpolation": 2, "co": {"X": 1.0, "Y": 1.0}}]}, "has_audio": {"Points": [{"interpolation": 2, "co": {"X": 1.0, "Y": -1.0}}]}, "perspective_c4_y": {"Points": [{"interpolation": 2, "co": {"X": 1.0, "Y": -1.0}}]}, "perspective_c3_y": {"Points": [{"interpolation": 2, "co": {"X": 1.0, "Y": -1.0}}]}, "channel_mapping": {"Points": [{"interpolation": 2, "co": {"X": 1.0, "Y": -1.0}}]}, "perspective_c4_x": {"Points": [{"interpolation": 2, "co": {"X": 1.0, "Y": -1.0}}]}, "position": 42.699999999999996, "scale": 1, "wave_color": {"blue": {"Points": [{"handle_left": {"X": 0.5, "Y": 1.0}, "interpolation": 0, "handle_type": 0, "handle_right": {"X": 0.5, "Y": 0.0}, "co": {"X": 1.0, "Y": 255.0}}]}, "green": {"Points": [{"handle_left": {"X": 0.5, "Y": 1.0}, "interpolation": 0, "handle_type": 0, "handle_right": {"X": 0.5, "Y": 0.0}, "co": {"X": 1.0, "Y": 123.0}}]}, "red": {"Points": [{"handle_left": {"X": 0.5, "Y": 1.0}, "interpolation": 0, "handle_type": 0, "handle_right": {"X": 0.5, "Y": 0.0}, "co": {"X": 1.0, "Y": 0.0}}]}, "alpha": {"Points": [{"handle_left": {"X": 0.5, "Y": 1.0}, "interpolation": 0, "handle_type": 0, "handle_right": {"X": 0.5, "Y": 0.0}, "co": {"X": 1.0, "Y": 255.0}}]}}, "file_id": "KMO2K20KW3", "location_y": {"Points": [{"interpolation": 2, "co": {"X": 1.0, "Y": 0.0}}]}, "anchor": 0, "gravity": 4, "volume": {"Points": [{"interpolation": 2, "co": {"X": 1.0, "Y": 1.0}}, {"handle_left": {"X": 0.5, "Y": 1.0}, "interpolation": 0, "handle_type": 0, "handle_right": {"X": 0.5, "Y": 0.0}, "co": {"X": 7566.0, "Y": 0.0}}]}, "perspective_c2_y": {"Points": [{"interpolation": 2, "co": {"X": 1.0, "Y": -1.0}}]}, "title": "index.html - Google Chrome 11_27_2017 4_25_11 PM.mp4", "perspective_c3_x": {"Points": [{"interpolation": 2, "co": {"X": 1.0, "Y": -1.0}}]}, "id": "6W74PKD2H3", "crop_y": {"Points": [{"interpolation": 2, "co": {"X": 1.0, "Y": 0.0}}]}, "has_video": {"Points": [{"interpolation": 2, "co": {"X": 1.0, "Y": -1.0}}]}, "perspective_c2_x": {"Points": [{"interpolation": 2, "co": {"X": 1.0, "Y": -1.0}}]}, "start": 315.21, "image": "C:\\Users\\Henry\\.openshot_qt\\thumbnail\\6W74PKD2H3-9456.png", "alpha": {"Points": [{"interpolation": 2, "co": {"X": 1.0, "Y": 1.0}}]}, "crop_height": {"Points": [{"interpolation": 2, "co": {"X": 1.0, "Y": -1.0}}]}, "reader": {"height": 776, "width": 1376, "video_length": "25729", "audio_bit_rate": 131760, "top_field_first": true, "display_ratio": {"den": 97, "num": 172}, "type": "FFmpegReader", "video_bit_rate": 5473610, "vcodec": "h264", "acodec": "aac", "channel_layout": 3, "duration": 857.8773193359375, "has_audio": true, "pixel_ratio": {"den": 1, "num": 1}, "file_size": "586964452", "fps": {"den": 12866759, "num": 385935000}, "path": "C:\\Users\\Henry\\Videos\\Captures\\index.html - Google Chrome 11_27_2017 4_25_11 PM.mp4", "pixel_format": 0, "audio_stream_index": 1, "video_timebase": {"den": 30000, "num": 1}, "audio_timebase": {"den": 48000, "num": 1}, "video_stream_index": 0, "interlaced_frame": false, "channels": 2, "has_single_image": false, "has_video": true, "sample_rate": 48000}, "location_x": {"Points": [{"interpolation": 2, "co": {"X": 1.0, "Y": 0.0}}]}, "perspective_c1_y": {"Points": [{"interpolation": 2, "co": {"X": 1.0, "Y": -1.0}}]}, "perspective_c1_x": {"Points": [{"interpolation": 2, "co": {"X": 1.0, "Y": -1.0}}]}}, {"crop_width": {"Points": [{"interpolation": 2, "co": {"X": 1.0, "Y": -1.0}}]}, "display": 0, "waveform": false, "channel_filter": {"Points": [{"interpolation": 2, "co": {"X": 1.0, "Y": -1.0}}]}, "effects": [], "layer": 4, "scale_y": {"Points": [{"interpolation": 2, "co": {"X": 1.0, "Y": 1.0}}]}, "shear_y": {"Points": [{"interpolation": 2, "co": {"X": 1.0, "Y": 0.0}}]}, "rotation": {"Points": [{"interpolation": 2, "co": {"X": 1.0, "Y": 0.0}}]}, "end": 156.24, "time": {"Points": [{"interpolation": 2, "co": {"X": 1.0, "Y": 1.0}}]}, "crop_x": {"Points": [{"interpolation": 2, "co": {"X": 1.0, "Y": 0.0}}]}, "shear_x": {"Points": [{"interpolation": 2, "co": {"X": 1.0, "Y": 0.0}}]}, "duration": 857.8773193359375, "scale_x": {"Points": [{"interpolation": 2, "co": {"X": 1.0, "Y": 1.0}}]}, "has_audio": {"Points": [{"interpolation": 2, "co": {"X": 1.0, "Y": -1.0}}]}, "perspective_c4_y": {"Points": [{"interpolation": 2, "co": {"X": 1.0, "Y": -1.0}}]}, "perspective_c3_y": {"Points": [{"interpolation": 2, "co": {"X": 1.0, "Y": -1.0}}]}, "channel_mapping": {"Points": [{"interpolation": 2, "co": {"X": 1.0, "Y": -1.0}}]}, "perspective_c4_x": {"Points": [{"interpolation": 2, "co": {"X": 1.0, "Y": -1.0}}]}, "position": 23.9159375, "scale": 1, "wave_color": {"blue": {"Points": [{"handle_left": {"X": 0.5, "Y": 1.0}, "interpolation": 0, "handle_type": 0, "handle_right": {"X": 0.5, "Y": 0.0}, "co": {"X": 1.0, "Y": 255.0}}]}, "green": {"Points": [{"handle_left": {"X": 0.5, "Y": 1.0}, "interpolation": 0, "handle_type": 0, "handle_right": {"X": 0.5, "Y": 0.0}, "co": {"X": 1.0, "Y": 123.0}}]}, "red": {"Points": [{"handle_left": {"X": 0.5, "Y": 1.0}, "interpolation": 0, "handle_type": 0, "handle_right": {"X": 0.5, "Y": 0.0}, "co": {"X": 1.0, "Y": 0.0}}]}, "alpha": {"Points": [{"handle_left": {"X": 0.5, "Y": 1.0}, "interpolation": 0, "handle_type": 0, "handle_right": {"X": 0.5, "Y": 0.0}, "co": {"X": 1.0, "Y": 255.0}}]}}, "file_id": "KMO2K20KW3", "location_y": {"Points": [{"interpolation": 2, "co": {"X": 1.0, "Y": 0.0}}]}, "anchor": 0, "gravity": 4, "volume": {"Points": [{"interpolation": 2, "co": {"X": 1.0, "Y": 1.0}}, {"handle_left": {"X": 0.5, "Y": 1.0}, "interpolation": 0, "handle_type": 0, "handle_right": {"X": 0.5, "Y": 0.0}, "co": {"X": 3483.0, "Y": 0.0}}, {"handle_left": {"X": 0.5, "Y": 1.0}, "interpolation": 0, "handle_type": 0, "handle_right": {"X": 0.5, "Y": 0.0}, "co": {"X": 3483.0, "Y": 0.0}}, {"handle_left": {"X": 0.5, "Y": 1.0}, "interpolation": 0, "handle_type": 0, "handle_right": {"X": 0.5, "Y": 0.0}, "co": {"X": 3483.0, "Y": 0.0}}]}, "perspective_c2_y": {"Points": [{"interpolation": 2, "co": {"X": 1.0, "Y": -1.0}}]}, "title": "index.html - Google Chrome 11_27_2017 4_25_11 PM.mp4", "perspective_c3_x": {"Points": [{"interpolation": 2, "co": {"X": 1.0, "Y": -1.0}}]}, "id": "QUIH57SWSC", "crop_y": {"Points": [{"interpolation": 2, "co": {"X": 1.0, "Y": 0.0}}]}, "has_video": {"Points": [{"interpolation": 2, "co": {"X": 1.0, "Y": -1.0}}]}, "perspective_c2_x": {"Points": [{"interpolation": 2, "co": {"X": 1.0, "Y": -1.0}}]}, "start": 145.07078125, "image": "C:\\Users\\Henry\\.openshot_qt\\thumbnail\\QUIH57SWSC-4352.png", "alpha": {"Points": [{"interpolation": 2, "co": {"X": 1.0, "Y": 1.0}}]}, "crop_height": {"Points": [{"interpolation": 2, "co": {"X": 1.0, "Y": -1.0}}]}, "reader": {"height": 776, "width": 1376, "video_length": "25729", "audio_bit_rate": 131760, "top_field_first": true, "display_ratio": {"den": 97, "num": 172}, "type": "FFmpegReader", "video_bit_rate": 5473610, "vcodec": "h264", "acodec": "aac", "channel_layout": 3, "duration": 857.8773193359375, "has_audio": true, "pixel_ratio": {"den": 1, "num": 1}, "file_size": "586964452", "fps": {"den": 12866759, "num": 385935000}, "path": "C:\\Users\\Henry\\Videos\\Captures\\index.html - Google Chrome 11_27_2017 4_25_11 PM.mp4", "pixel_format": 0, "audio_stream_index": 1, "video_timebase": {"den": 30000, "num": 1}, "audio_timebase": {"den": 48000, "num": 1}, "video_stream_index": 0, "interlaced_frame": false, "channels": 2, "has_single_image": false, "has_video": true, "sample_rate": 48000}, "location_x": {"Points": [{"interpolation": 2, "co": {"X": 1.0, "Y": 0.0}}]}, "perspective_c1_y": {"Points": [{"interpolation": 2, "co": {"X": 1.0, "Y": -1.0}}]}, "perspective_c1_x": {"Points": [{"interpolation": 2, "co": {"X": 1.0, "Y": -1.0}}]}}, {"crop_width": {"Points": [{"interpolation": 2, "co": {"X": 1.0, "Y": -1.0}}]}, "display": 0, "waveform": false, "channel_filter": {"Points": [{"interpolation": 2, "co": {"X": 1.0, "Y": -1.0}}]}, "effects": [], "layer": 4, "scale_y": {"Points": [{"interpolation": 2, "co": {"X": 1.0, "Y": 1.0}}]}, "perspective_c3_y": {"Points": [{"interpolation": 2, "co": {"X": 1.0, "Y": -1.0}}]}, "rotation": {"Points": [{"interpolation": 2, "co": {"X": 1.0, "Y": 0.0}}]}, "end": 18.880000000000003, "time": {"Points": [{"interpolation": 2, "co": {"X": 1.0, "Y": 1.0}}]}, "crop_x": {"Points": [{"interpolation": 2, "co": {"X": 1.0, "Y": 0.0}}]}, "shear_x": {"Points": [{"interpolation": 2, "co": {"X": 1.0, "Y": 0.0}}]}, "duration": 32.23466491699219, "scale_x": {"Points": [{"interpolation": 2, "co": {"X": 1.0, "Y": 1.0}}]}, "title": "index.html - Google Chrome 11_27_2017 5_33_03 PM.mp4", "has_audio": {"Points": [{"interpolation": 2, "co": {"X": 1.0, "Y": -1.0}}]}, "perspective_c4_y": {"Points": [{"interpolation": 2, "co": {"X": 1.0, "Y": -1.0}}]}, "channel_mapping": {"Points": [{"interpolation": 2, "co": {"X": 1.0, "Y": -1.0}}]}, "perspective_c4_x": {"Points": [{"interpolation": 2, "co": {"X": 1.0, "Y": -1.0}}]}, "position": 47.739999999999995, "scale": 1, "wave_color": {"blue": {"Points": [{"handle_left": {"X": 0.5, "Y": 1.0}, "interpolation": 0, "handle_type": 0, "handle_right": {"X": 0.5, "Y": 0.0}, "co": {"X": 1.0, "Y": 255.0}}]}, "green": {"Points": [{"handle_left": {"X": 0.5, "Y": 1.0}, "interpolation": 0, "handle_type": 0, "handle_right": {"X": 0.5, "Y": 0.0}, "co": {"X": 1.0, "Y": 123.0}}]}, "red": {"Points": [{"handle_left": {"X": 0.5, "Y": 1.0}, "interpolation": 0, "handle_type": 0, "handle_right": {"X": 0.5, "Y": 0.0}, "co": {"X": 1.0, "Y": 0.0}}]}, "alpha": {"Points": [{"handle_left": {"X": 0.5, "Y": 1.0}, "interpolation": 0, "handle_type": 0, "handle_right": {"X": 0.5, "Y": 0.0}, "co": {"X": 1.0, "Y": 255.0}}]}}, "perspective_c1_x": {"Points": [{"interpolation": 2, "co": {"X": 1.0, "Y": -1.0}}]}, "file_id": "8GACR95UFW", "location_y": {"Points": [{"interpolation": 2, "co": {"X": 1.0, "Y": 0.0}}]}, "alpha": {"Points": [{"interpolation": 2, "co": {"X": 1.0, "Y": 1.0}}]}, "start": 11.32, "volume": {"Points": [{"interpolation": 2, "co": {"X": 1.0, "Y": 1.0}}, {"handle_left": {"X": 0.5, "Y": 1.0}, "interpolation": 0, "handle_type": 0, "handle_right": {"X": 0.5, "Y": 0.0}, "co": {"X": 273.0, "Y": 0.0}}]}, "anchor": 0, "gravity": 4, "perspective_c2_y": {"Points": [{"interpolation": 2, "co": {"X": 1.0, "Y": -1.0}}]}, "id": "AQ0LTW4H45", "crop_y": {"Points": [{"interpolation": 2, "co": {"X": 1.0, "Y": 0.0}}]}, "has_video": {"Points": [{"interpolation": 2, "co": {"X": 1.0, "Y": -1.0}}]}, "perspective_c2_x": {"Points": [{"interpolation": 2, "co": {"X": 1.0, "Y": -1.0}}]}, "perspective_c1_y": {"Points": [{"interpolation": 2, "co": {"X": 1.0, "Y": -1.0}}]}, "image": "C:\\Users\\Henry\\.openshot_qt\\thumbnail\\AQ0LTW4H45-327.png", "crop_height": {"Points": [{"interpolation": 2, "co": {"X": 1.0, "Y": -1.0}}]}, "reader": {"height": 744, "width": 1376, "video_length": "931", "audio_bit_rate": 120508, "top_field_first": true, "display_ratio": {"den": 93, "num": 172}, "type": "FFmpegReader", "video_bit_rate": 4884482, "vcodec": "h264", "acodec": "aac", "channel_layout": 3, "duration": 32.23466491699219, "has_audio": true, "pixel_ratio": {"den": 1, "num": 1}, "file_size": "19737442", "fps": {"den": 4253, "num": 122500}, "path": "C:\\Users\\Henry\\Videos\\Captures\\index.html - Google Chrome 11_27_2017 5_33_03 PM.mp4", "pixel_format": 0, "audio_stream_index": 1, "video_timebase": {"den": 30000, "num": 1}, "audio_timebase": {"den": 48000, "num": 1}, "video_stream_index": 0, "interlaced_frame": false, "channels": 2, "has_single_image": false, "has_video": true, "sample_rate": 48000}, "location_x": {"Points": [{"interpolation": 2, "co": {"X": 1.0, "Y": 0.0}}]}, "shear_y": {"Points": [{"interpolation": 2, "co": {"X": 1.0, "Y": 0.0}}]}, "perspective_c3_x": {"Points": [{"interpolation": 2, "co": {"X": 1.0, "Y": -1.0}}]}}, {"crop_width": {"Points": [{"interpolation": 2, "co": {"X": 1.0, "Y": -1.0}}]}, "display": 0, "waveform": false, "channel_filter": {"Points": [{"interpolation": 2, "co": {"X": 1.0, "Y": -1.0}}]}, "effects": [], "layer": 4, "scale_y": {"Points": [{"interpolation": 2, "co": {"X": 1.0, "Y": 1.0}}]}, "shear_y": {"Points": [{"interpolation": 2, "co": {"X": 1.0, "Y": 0.0}}]}, "rotation": {"Points": [{"interpolation": 2, "co": {"X": 1.0, "Y": 0.0}}]}, "end": 4.470000000000001, "gravity": 4, "crop_height": {"Points": [{"interpolation": 2, "co": {"X": 1.0, "Y": -1.0}}]}, "crop_x": {"Points": [{"interpolation": 2, "co": {"X": 1.0, "Y": 0.0}}]}, "shear_x": {"Points": [{"interpolation": 2, "co": {"X": 1.0, "Y": 0.0}}]}, "duration": 86400.0, "scale_x": {"Points": [{"interpolation": 2, "co": {"X": 1.0, "Y": 1.0}}]}, "has_audio": {"Points": [{"interpolation": 2, "co": {"X": 1.0, "Y": -1.0}}]}, "perspective_c4_y": {"Points": [{"interpolation": 2, "co": {"X": 1.0, "Y": -1.0}}]}, "perspective_c3_y": {"Points": [{"interpolation": 2, "co": {"X": 1.0, "Y": -1.0}}]}, "channel_mapping": {"Points": [{"interpolation": 2, "co": {"X": 1.0, "Y": -1.0}}]}, "perspective_c4_x": {"Points": [{"interpolation": 2, "co": {"X": 1.0, "Y": -1.0}}]}, "position": 8.368281249999999, "scale": 1, "wave_color": {"blue": {"Points": [{"handle_left": {"X": 0.5, "Y": 1.0}, "interpolation": 0, "handle_type": 0, "handle_right": {"X": 0.5, "Y": 0.0}, "co": {"X": 1.0, "Y": 255.0}}]}, "green": {"Points": [{"handle_left": {"X": 0.5, "Y": 1.0}, "interpolation": 0, "handle_type": 0, "handle_right": {"X": 0.5, "Y": 0.0}, "co": {"X": 1.0, "Y": 123.0}}]}, "red": {"Points": [{"handle_left": {"X": 0.5, "Y": 1.0}, "interpolation": 0, "handle_type": 0, "handle_right": {"X": 0.5, "Y": 0.0}, "co": {"X": 1.0, "Y": 0.0}}]}, "alpha": {"Points": [{"handle_left": {"X": 0.5, "Y": 1.0}, "interpolation": 0, "handle_type": 0, "handle_right": {"X": 0.5, "Y": 0.0}, "co": {"X": 1.0, "Y": 255.0}}]}}, "file_id": "023CIOM5V8", "location_y": {"Points": [{"interpolation": 2, "co": {"X": 1.0, "Y": 0.0}}]}, "anchor": 0, "volume": {"Points": [{"interpolation": 2, "co": {"X": 1.0, "Y": 1.0}}]}, "perspective_c2_y": {"Points": [{"interpolation": 2, "co": {"X": 1.0, "Y": -1.0}}]}, "title": "collect_items.JPG", "time": {"Points": [{"interpolation": 2, "co": {"X": 1.0, "Y": 1.0}}]}, "id": "XWM2I1BD6C", "perspective_c3_x": {"Points": [{"interpolation": 2, "co": {"X": 1.0, "Y": -1.0}}]}, "has_video": {"Points": [{"interpolation": 2, "co": {"X": 1.0, "Y": -1.0}}]}, "perspective_c2_x": {"Points": [{"interpolation": 2, "co": {"X": 1.0, "Y": -1.0}}]}, "start": 0, "image": "C:\\Users\\Henry\\.openshot_qt\\thumbnail\\023CIOM5V8.png", "alpha": {"Points": [{"interpolation": 2, "co": {"X": 1.0, "Y": 1.0}}]}, "crop_y": {"Points": [{"interpolation": 2, "co": {"X": 1.0, "Y": 0.0}}]}, "reader": {"height": 773, "width": 1375, "video_length": "2592000", "audio_bit_rate": 0, "top_field_first": true, "display_ratio": {"den": 773, "num": 1375}, "type": "QtImageReader", "video_bit_rate": 0, "vcodec": "", "acodec": "", "channel_layout": 4, "duration": 86400.0, "has_audio": false, "pixel_ratio": {"den": 1, "num": 1}, "file_size": "4251500", "fps": {"den": 1, "num": 30}, "path": "C:\\Users\\Henry\\Documents\\Classes\\Fall 2017\\CS 329e Game Dev\\MVPgamedev\\Trailer Clips\\collect_items.JPG", "pixel_format": -1, "audio_stream_index": -1, "video_timebase": {"den": 30, "num": 1}, "audio_timebase": {"den": 1, "num": 1}, "video_stream_index": -1, "interlaced_frame": false, "channels": 0, "has_single_image": true, "has_video": true, "sample_rate": 0}, "location_x": {"Points": [{"interpolation": 2, "co": {"X": 1.0, "Y": 0.0}}]}, "perspective_c1_y": {"Points": [{"interpolation": 2, "co": {"X": 1.0, "Y": -1.0}}]}, "perspective_c1_x": {"Points": [{"interpolation": 2, "co": {"X": 1.0, "Y": -1.0}}]}}, {"crop_width": {"Points": [{"interpolation": 2, "co": {"X": 1.0, "Y": -1.0}}]}, "display": 0, "waveform": false, "channel_filter": {"Points": [{"interpolation": 2, "co": {"X": 1.0, "Y": -1.0}}]}, "effects": [], "layer": 4, "scale_y": {"Points": [{"interpolation": 2, "co": {"X": 1.0, "Y": 1.0}}]}, "shear_y": {"Points": [{"interpolation": 2, "co": {"X": 1.0, "Y": 0.0}}]}, "rotation": {"Points": [{"interpolation": 2, "co": {"X": 1.0, "Y": 0.0}}]}, "end": 5.5200000000000005, "gravity": 4, "crop_height": {"Points": [{"interpolation": 2, "co": {"X": 1.0, "Y": -1.0}}]}, "crop_x": {"Points": [{"interpolation": 2, "co": {"X": 1.0, "Y": 0.0}}]}, "shear_x": {"Points": [{"interpolation": 2, "co": {"X": 1.0, "Y": 0.0}}]}, "duration": 86400.0, "scale_x": {"Points": [{"interpolation": 2, "co": {"X": 1.0, "Y": 1.0}}]}, "has_audio": {"Points": [{"interpolation": 2, "co": {"X": 1.0, "Y": -1.0}}]}, "perspective_c4_y": {"Points": [{"interpolation": 2, "co": {"X": 1.0, "Y": -1.0}}]}, "perspective_c3_y": {"Points": [{"interpolation": 2, "co": {"X": 1.0, "Y": -1.0}}]}, "channel_mapping": {"Points": [{"interpolation": 2, "co": {"X": 1.0, "Y": -1.0}}]}, "perspective_c4_x": {"Points": [{"interpolation": 2, "co": {"X": 1.0, "Y": -1.0}}]}, "position": 19.516875, "scale": 1, "wave_color": {"blue": {"Points": [{"handle_left": {"X": 0.5, "Y": 1.0}, "interpolation": 0, "handle_type": 0, "handle_right": {"X": 0.5, "Y": 0.0}, "co": {"X": 1.0, "Y": 255.0}}]}, "green": {"Points": [{"handle_left": {"X": 0.5, "Y": 1.0}, "interpolation": 0, "handle_type": 0, "handle_right": {"X": 0.5, "Y": 0.0}, "co": {"X": 1.0, "Y": 123.0}}]}, "red": {"Points": [{"handle_left": {"X": 0.5, "Y": 1.0}, "interpolation": 0, "handle_type": 0, "handle_right": {"X": 0.5, "Y": 0.0}, "co": {"X": 1.0, "Y": 0.0}}]}, "alpha": {"Points": [{"handle_left": {"X": 0.5, "Y": 1.0}, "interpolation": 0, "handle_type": 0, "handle_right": {"X": 0.5, "Y": 0.0}, "co": {"X": 1.0, "Y": 255.0}}]}}, "file_id": "XB0WY1UP4P", "location_y": {"Points": [{"interpolation": 2, "co": {"X": 1.0, "Y": 0.0}}]}, "anchor": 0, "volume": {"Points": [{"interpolation": 2, "co": {"X": 1.0, "Y": 1.0}}]}, "perspective_c2_y": {"Points": [{"interpolation": 2, "co": {"X": 1.0, "Y": -1.0}}]}, "title": "change_colors.JPG", "time": {"Points": [{"interpolation": 2, "co": {"X": 1.0, "Y": 1.0}}]}, "id": "YSMTB5UGRE", "perspective_c3_x": {"Points": [{"interpolation": 2, "co": {"X": 1.0, "Y": -1.0}}]}, "has_video": {"Points": [{"interpolation": 2, "co": {"X": 1.0, "Y": -1.0}}]}, "perspective_c2_x": {"Points": [{"interpolation": 2, "co": {"X": 1.0, "Y": -1.0}}]}, "start": 0, "image": "C:\\Users\\Henry\\.openshot_qt\\thumbnail\\XB0WY1UP4P.png", "alpha": {"Points": [{"interpolation": 2, "co": {"X": 1.0, "Y": 1.0}}]}, "crop_y": {"Points": [{"interpolation": 2, "co": {"X": 1.0, "Y": 0.0}}]}, "reader": {"height": 775, "width": 1374, "video_length": "2592000", "audio_bit_rate": 0, "top_field_first": true, "display_ratio": {"den": 775, "num": 1374}, "type": "QtImageReader", "video_bit_rate": 0, "vcodec": "", "acodec": "", "channel_layout": 4, "duration": 86400.0, "has_audio": false, "pixel_ratio": {"den": 1, "num": 1}, "file_size": "4259400", "fps": {"den": 1, "num": 30}, "path": "C:\\Users\\Henry\\Documents\\Classes\\Fall 2017\\CS 329e Game Dev\\MVPgamedev\\Trailer Clips\\change_colors.JPG", "pixel_format": -1, "audio_stream_index": -1, "video_timebase": {"den": 30, "num": 1}, "audio_timebase": {"den": 1, "num": 1}, "video_stream_index": -1, "interlaced_frame": false, "channels": 0, "has_single_image": true, "has_video": true, "sample_rate": 0}, "location_x": {"Points": [{"interpolation": 2, "co": {"X": 1.0, "Y": 0.0}}]}, "perspective_c1_y": {"Points": [{"interpolation": 2, "co": {"X": 1.0, "Y": -1.0}}]}, "perspective_c1_x": {"Points": [{"interpolation": 2, "co": {"X": 1.0, "Y": -1.0}}]}}, {"crop_width": {"Points": [{"interpolation": 2, "co": {"X": 1.0, "Y": -1.0}}]}, "display": 0, "waveform": false, "channel_filter": {"Points": [{"interpolation": 2, "co": {"X": 1.0, "Y": -1.0}}]}, "effects": [], "layer": 4, "scale_y": {"Points": [{"interpolation": 2, "co": {"X": 1.0, "Y": 1.0}}]}, "shear_y": {"Points": [{"interpolation": 2, "co": {"X": 1.0, "Y": 0.0}}]}, "rotation": {"Points": [{"interpolation": 2, "co": {"X": 1.0, "Y": 0.0}}]}, "end": 4.96, "gravity": 4, "crop_height": {"Points": [{"interpolation": 2, "co": {"X": 1.0, "Y": -1.0}}]}, "crop_x": {"Points": [{"interpolation": 2, "co": {"X": 1.0, "Y": 0.0}}]}, "shear_x": {"Points": [{"interpolation": 2, "co": {"X": 1.0, "Y": 0.0}}]}, "duration": 86400.0, "scale_x": {"Points": [{"interpolation": 2, "co": {"X": 1.0, "Y": 1.0}}]}, "has_audio": {"Points": [{"interpolation": 2, "co": {"X": 1.0, "Y": -1.0}}]}, "perspective_c4_y": {"Points": [{"interpolation": 2, "co": {"X": 1.0, "Y": -1.0}}]}, "perspective_c3_y": {"Points": [{"interpolation": 2, "co": {"X": 1.0, "Y": -1.0}}]}, "channel_mapping": {"Points": [{"interpolation": 2, "co": {"X": 1.0, "Y": -1.0}}]}, "perspective_c4_x": {"Points": [{"interpolation": 2, "co": {"X": 1.0, "Y": -1.0}}]}, "position": 34.03421875, "scale": 1, "wave_color": {"blue": {"Points": [{"handle_left": {"X": 0.5, "Y": 1.0}, "interpolation": 0, "handle_type": 0, "handle_right": {"X": 0.5, "Y": 0.0}, "co": {"X": 1.0, "Y": 255.0}}]}, "green": {"Points": [{"handle_left": {"X": 0.5, "Y": 1.0}, "interpolation": 0, "handle_type": 0, "handle_right": {"X": 0.5, "Y": 0.0}, "co": {"X": 1.0, "Y": 123.0}}]}, "red": {"Points": [{"handle_left": {"X": 0.5, "Y": 1.0}, "interpolation": 0, "handle_type": 0, "handle_right": {"X": 0.5, "Y": 0.0}, "co": {"X": 1.0, "Y": 0.0}}]}, "alpha": {"Points": [{"handle_left": {"X": 0.5, "Y": 1.0}, "interpolation": 0, "handle_type": 0, "handle_right": {"X": 0.5, "Y": 0.0}, "co": {"X": 1.0, "Y": 255.0}}]}}, "file_id": "4ZHGHLSG3V", "location_y": {"Points": [{"interpolation": 2, "co": {"X": 1.0, "Y": 0.0}}]}, "anchor": 0, "volume": {"Points": [{"interpolation": 2, "co": {"X": 1.0, "Y": 1.0}}]}, "perspective_c2_y": {"Points": [{"interpolation": 2, "co": {"X": 1.0, "Y": -1.0}}]}, "title": "battle_bosses.JPG", "time": {"Points": [{"interpolation": 2, "co": {"X": 1.0, "Y": 1.0}}]}, "id": "YSB4RH0R7O", "perspective_c3_x": {"Points": [{"interpolation": 2, "co": {"X": 1.0, "Y": -1.0}}]}, "has_video": {"Points": [{"interpolation": 2, "co": {"X": 1.0, "Y": -1.0}}]}, "perspective_c2_x": {"Points": [{"interpolation": 2, "co": {"X": 1.0, "Y": -1.0}}]}, "start": 0, "image": "C:\\Users\\Henry\\.openshot_qt\\thumbnail\\4ZHGHLSG3V.png", "alpha": {"Points": [{"interpolation": 2, "co": {"X": 1.0, "Y": 1.0}}]}, "crop_y": {"Points": [{"interpolation": 2, "co": {"X": 1.0, "Y": 0.0}}]}, "reader": {"height": 774, "width": 1375, "video_length": "2592000", "audio_bit_rate": 0, "top_field_first": true, "display_ratio": {"den": 774, "num": 1375}, "type": "QtImageReader", "video_bit_rate": 0, "vcodec": "", "acodec": "", "channel_layout": 4, "duration": 86400.0, "has_audio": false, "pixel_ratio": {"den": 1, "num": 1}, "file_size": "4257000", "fps": {"den": 1, "num": 30}, "path": "C:\\Users\\Henry\\Documents\\Classes\\Fall 2017\\CS 329e Game Dev\\MVPgamedev\\Trailer Clips\\battle_bosses.JPG", "pixel_format": -1, "audio_stream_index": -1, "video_timebase": {"den": 30, "num": 1}, "audio_timebase": {"den": 1, "num": 1}, "video_stream_index": -1, "interlaced_frame": false, "channels": 0, "has_single_image": true, "has_video": true, "sample_rate": 0}, "location_x": {"Points": [{"interpolation": 2, "co": {"X": 1.0, "Y": 0.0}}]}, "perspective_c1_y": {"Points": [{"interpolation": 2, "co": {"X": 1.0, "Y": -1.0}}]}, "perspective_c1_x": {"Points": [{"interpolation": 2, "co": {"X": 1.0, "Y": -1.0}}]}}, {"crop_width": {"Points": [{"interpolation": 2, "co": {"X": 1.0, "Y": -1.0}}]}, "display": 0, "waveform": false, "channel_filter": {"Points": [{"interpolation": 2, "co": {"X": 1.0, "Y": -1.0}}]}, "effects": [], "layer": 3, "scale_y": {"Points": [{"interpolation": 2, "co": {"X": 1.0, "Y": 1.0}}]}, "perspective_c3_y": {"Points": [{"interpolation": 2, "co": {"X": 1.0, "Y": -1.0}}]}, "rotation": {"Points": [{"interpolation": 2, "co": {"X": 1.0, "Y": 0.0}}]}, "end": 22.75, "time": {"Points": [{"interpolation": 2, "co": {"X": 1.0, "Y": 1.0}}]}, "crop_height": {"Points": [{"interpolation": 2, "co": {"X": 1.0, "Y": -1.0}}]}, "crop_x": {"Points": [{"interpolation": 2, "co": {"X": 1.0, "Y": 0.0}}]}, "shear_x": {"Points": [{"interpolation": 2, "co": {"X": 1.0, "Y": 0.0}}]}, "duration": 77.87101745605469, "scale_x": {"Points": [{"interpolation": 2, "co": {"X": 1.0, "Y": 1.0}}]}, "title": "bossMusic.mp3", "has_audio": {"Points": [{"interpolation": 2, "co": {"X": 1.0, "Y": -1.0}}]}, "perspective_c4_y": {"Points": [{"interpolation": 2, "co": {"X": 1.0, "Y": -1.0}}]}, "channel_mapping": {"Points": [{"interpolation": 2, "co": {"X": 1.0, "Y": -1.0}}]}, "perspective_c4_x": {"Points": [{"interpolation": 2, "co": {"X": 1.0, "Y": -1.0}}]}, "position": 36.82, "scale": 1, "wave_color": {"blue": {"Points": [{"handle_left": {"X": 0.5, "Y": 1.0}, "interpolation": 0, "handle_type": 0, "handle_right": {"X": 0.5, "Y": 0.0}, "co": {"X": 1.0, "Y": 255.0}}]}, "green": {"Points": [{"handle_left": {"X": 0.5, "Y": 1.0}, "interpolation": 0, "handle_type": 0, "handle_right": {"X": 0.5, "Y": 0.0}, "co": {"X": 1.0, "Y": 123.0}}]}, "red": {"Points": [{"handle_left": {"X": 0.5, "Y": 1.0}, "interpolation": 0, "handle_type": 0, "handle_right": {"X": 0.5, "Y": 0.0}, "co": {"X": 1.0, "Y": 0.0}}]}, "alpha": {"Points": [{"handle_left": {"X": 0.5, "Y": 1.0}, "interpolation": 0, "handle_type": 0, "handle_right": {"X": 0.5, "Y": 0.0}, "co": {"X": 1.0, "Y": 255.0}}]}}, "perspective_c1_x": {"Points": [{"interpolation": 2, "co": {"X": 1.0, "Y": -1.0}}]}, "file_id": "U6H5YEYQC1", "location_y": {"Points": [{"interpolation": 2, "co": {"X": 1.0, "Y": 0.0}}]}, "anchor": 0, "start": 0, "volume": {"Points": [{"interpolation": 2, "co": {"X": 1.0, "Y": 1.0}}, {"handle_left": {"X": 0.5, "Y": 1.0}, "interpolation": 0, "handle_type": 0, "handle_right": {"X": 0.5, "Y": 0.0}, "co": {"X": 1.0, "Y": 0.0}}, {"handle_left": {"X": 0.5, "Y": 1.0}, "interpolation": 0, "handle_type": 0, "handle_right": {"X": 0.5, "Y": 0.0}, "co": {"X": 73.0, "Y": 1.0}}, {"handle_left": {"X": 0.5, "Y": 1.0}, "interpolation": 0, "handle_type": 0, "handle_right": {"X": 0.5, "Y": 0.0}, "co": {"X": 1798.0, "Y": 1.0}}, {"handle_left": {"X": 0.5, "Y": 1.0}, "interpolation": 0, "handle_type": 0, "handle_right": {"X": 0.5, "Y": 0.0}, "co": {"X": 1870.0, "Y": 0.0}}, {"handle_left": {"X": 0.5, "Y": 1.0}, "interpolation": 0, "handle_type": 0, "handle_right": {"X": 0.5, "Y": 0.0}, "co": {"X": 1.0, "Y": 0.0}}, {"handle_left": {"X": 0.5, "Y": 1.0}, "interpolation": 0, "handle_type": 0, "handle_right": {"X": 0.5, "Y": 0.0}, "co": {"X": 73.0, "Y": 1.0}}, {"handle_left": {"X": 0.5, "Y": 1.0}, "interpolation": 0, "handle_type": 0, "handle_right": {"X": 0.5, "Y": 0.0}, "co": {"X": 475.0, "Y": 1.0}}, {"handle_left": {"X": 0.5, "Y": 1.0}, "interpolation": 0, "handle_type": 0, "handle_right": {"X": 0.5, "Y": 0.0}, "co": {"X": 547.0, "Y": 0.0}}]}, "perspective_c2_y": {"Points": [{"interpolation": 2, "co": {"X": 1.0, "Y": -1.0}}]}, "gravity": 4, "id": "BW2FX9SZ9D", "has_video": {"Points": [{"interpolation": 2, "co": {"X": 1.0, "Y": -1.0}}]}, "perspective_c2_x": {"Points": [{"interpolation": 2, "co": {"X": 1.0, "Y": -1.0}}]}, "perspective_c1_y": {"Points": [{"interpolation": 2, "co": {"X": 1.0, "Y": -1.0}}]}, "image": "C:\\Program Files\\OpenShot Video Editor\\images\\AudioThumbnail.png", "alpha": {"Points": [{"interpolation": 2, "co": {"X": 1.0, "Y": 1.0}}]}, "crop_y": {"Points": [{"interpolation": 2, "co": {"X": 1.0, "Y": 0.0}}]}, "reader": {"height": 480, "width": 720, "video_length": "1868", "audio_bit_rate": 128000, "top_field_first": true, "display_ratio": {"den": 1, "num": 1}, "type": "FFmpegReader", "video_bit_rate": 0, "vcodec": "", "acodec": "mp3", "channel_layout": 3, "duration": 77.87101745605469, "has_audio": true, "pixel_ratio": {"den": 1, "num": 1}, "file_size": "1246189", "fps": {"den": 1, "num": 24}, "path": "C:\\Users\\Henry\\Documents\\Classes\\Fall 2017\\CS 329e Game Dev\\MVPgamedev\\Game\\assets\\sounds\\bossMusic.mp3", "pixel_format": -1, "audio_stream_index": 0, "video_timebase": {"den": 24, "num": 1}, "audio_timebase": {"den": 14112000, "num": 1}, "video_stream_index": -1, "interlaced_frame": false, "channels": 2, "has_single_image": false, "has_video": false, "sample_rate": 44100}, "location_x": {"Points": [{"interpolation": 2, "co": {"X": 1.0, "Y": 0.0}}]}, "shear_y": {"Points": [{"interpolation": 2, "co": {"X": 1.0, "Y": 0.0}}]}, "perspective_c3_x": {"Points": [{"interpolation": 2, "co": {"X": 1.0, "Y": -1.0}}]}}, {"crop_width": {"Points": [{"interpolation": 2, "co": {"X": 1.0, "Y": -1.0}}]}, "display": 0, "waveform": false, "channel_filter": {"Points": [{"interpolation": 2, "co": {"X": 1.0, "Y": -1.0}}]}, "effects": [], "layer": 4, "scale_y": {"Points": [{"interpolation": 2, "co": {"X": 1.0, "Y": 1.0}}]}, "shear_y": {"Points": [{"interpolation": 2, "co": {"X": 1.0, "Y": 0.0}}]}, "rotation": {"Points": [{"interpolation": 2, "co": {"X": 1.0, "Y": 0.0}}]}, "end": 4.470000000000001, "time": {"Points": [{"interpolation": 2, "co": {"X": 1.0, "Y": 1.0}}]}, "crop_height": {"Points": [{"interpolation": 2, "co": {"X": 1.0, "Y": -1.0}}]}, "crop_x": {"Points": [{"interpolation": 2, "co": {"X": 1.0, "Y": 0.0}}]}, "shear_x": {"Points": [{"interpolation": 2, "co": {"X": 1.0, "Y": 0.0}}]}, "duration": 86400.0, "scale_x": {"Points": [{"interpolation": 2, "co": {"X": 1.0, "Y": 1.0}}]}, "title": "gammaprogram_logo.JPG", "has_audio": {"Points": [{"interpolation": 2, "co": {"X": 1.0, "Y": -1.0}}]}, "perspective_c4_y": {"Points": [{"interpolation": 2, "co": {"X": 1.0, "Y": -1.0}}]}, "perspective_c3_y": {"Points": [{"interpolation": 2, "co": {"X": 1.0, "Y": -1.0}}]}, "channel_mapping": {"Points": [{"interpolation": 2, "co": {"X": 1.0, "Y": -1.0}}]}, "perspective_c4_x": {"Points": [{"interpolation": 2, "co": {"X": 1.0, "Y": -1.0}}]}, "position": 0, "scale": 1, "wave_color": {"blue": {"Points": [{"handle_left": {"X": 0.5, "Y": 1.0}, "interpolation": 0, "handle_type": 0, "handle_right": {"X": 0.5, "Y": 0.0}, "co": {"X": 1.0, "Y": 255.0}}]}, "green": {"Points": [{"handle_left": {"X": 0.5, "Y": 1.0}, "interpolation": 0, "handle_type": 0, "handle_right": {"X": 0.5, "Y": 0.0}, "co": {"X": 1.0, "Y": 123.0}}]}, "red": {"Points": [{"handle_left": {"X": 0.5, "Y": 1.0}, "interpolation": 0, "handle_type": 0, "handle_right": {"X": 0.5, "Y": 0.0}, "co": {"X": 1.0, "Y": 0.0}}]}, "alpha": {"Points": [{"handle_left": {"X": 0.5, "Y": 1.0}, "interpolation": 0, "handle_type": 0, "handle_right": {"X": 0.5, "Y": 0.0}, "co": {"X": 1.0, "Y": 255.0}}]}}, "perspective_c1_x": {"Points": [{"interpolation": 2, "co": {"X": 1.0, "Y": -1.0}}]}, "file_id": "LGNIWH4F8R", "location_y": {"Points": [{"interpolation": 2, "co": {"X": 1.0, "Y": 0.0}}]}, "alpha": {"Points": [{"interpolation": 2, "co": {"X": 1.0, "Y": 1.0}}]}, "start": 0, "volume": {"Points": [{"interpolation": 2, "co": {"X": 1.0, "Y": 1.0}}]}, "anchor": 0, "gravity": 4, "perspective_c2_y": {"Points": [{"interpolation": 2, "co": {"X": 1.0, "Y": -1.0}}]}, "id": "APFYA4VY39", "perspective_c2_x": {"Points": [{"interpolation": 2, "co": {"X": 1.0, "Y": -1.0}}]}, "perspective_c1_y": {"Points": [{"interpolation": 2, "co": {"X": 1.0, "Y": -1.0}}]}, "image": "C:\\Users\\Henry\\.openshot_qt\\thumbnail\\LGNIWH4F8R.png", "crop_y": {"Points": [{"interpolation": 2, "co": {"X": 1.0, "Y": 0.0}}]}, "reader": {"height": 747, "width": 1324, "video_length": "2592000", "audio_bit_rate": 0, "top_field_first": true, "display_ratio": {"den": 747, "num": 1324}, "type": "QtImageReader", "video_bit_rate": 0, "channel_layout": 4, "acodec": "", "vcodec": "", "duration": 86400.0, "has_audio": false, "pixel_ratio": {"den": 1, "num": 1}, "file_size": "3956112", "fps": {"den": 1, "num": 30}, "path": "C:\\Users\\Henry\\Documents\\Classes\\Fall 2017\\CS 329e Game Dev\\MVPgamedev\\Trailer Clips\\gammaprogram_logo.JPG", "pixel_format": -1, "audio_stream_index": -1, "video_timebase": {"den": 30, "num": 1}, "audio_timebase": {"den": 1, "num": 1}, "video_stream_index": -1, "interlaced_frame": false, "channels": 0, "has_single_image": true, "has_video": true, "sample_rate": 0}, "location_x": {"Points": [{"interpolation": 2, "co": {"X": 1.0, "Y": 0.0}}]}, "has_video": {"Points": [{"interpolation": 2, "co": {"X": 1.0, "Y": -1.0}}]}, "perspective_c3_x": {"Points": [{"interpolation": 2, "co": {"X": 1.0, "Y": -1.0}}]}}, {"crop_width": {"Points": [{"interpolation": 2, "co": {"X": 1.0, "Y": -1.0}}]}, "display": 0, "waveform": false, "channel_filter": {"Points": [{"interpolation": 2, "co": {"X": 1.0, "Y": -1.0}}]}, "effects": [], "layer": 4, "scale_y": {"Points": [{"interpolation": 2, "co": {"X": 1.0, "Y": 1.0}}]}, "shear_y": {"Points": [{"interpolation": 2, "co": {"X": 1.0, "Y": 0.0}}]}, "rotation": {"Points": [{"interpolation": 2, "co": {"X": 1.0, "Y": 0.0}}]}, "end": 2.720000000000001, "time": {"Points": [{"interpolation": 2, "co": {"X": 1.0, "Y": 1.0}}]}, "crop_height": {"Points": [{"interpolation": 2, "co": {"X": 1.0, "Y": -1.0}}]}, "crop_x": {"Points": [{"interpolation": 2, "co": {"X": 1.0, "Y": 0.0}}]}, "shear_x": {"Points": [{"interpolation": 2, "co": {"X": 1.0, "Y": 0.0}}]}, "duration": 86400.0, "scale_x": {"Points": [{"interpolation": 2, "co": {"X": 1.0, "Y": 1.0}}]}, "title": "title_blue.JPG", "has_audio": {"Points": [{"interpolation": 2, "co": {"X": 1.0, "Y": -1.0}}]}, "perspective_c4_y": {"Points": [{"interpolation": 2, "co": {"X": 1.0, "Y": -1.0}}]}, "perspective_c3_y": {"Points": [{"interpolation": 2, "co": {"X": 1.0, "Y": -1.0}}]}, "channel_mapping": {"Points": [{"interpolation": 2, "co": {"X": 1.0, "Y": -1.0}}]}, "perspective_c4_x": {"Points": [{"interpolation": 2, "co": {"X": 1.0, "Y": -1.0}}]}, "position": 56.059062499999996, "scale": 1, "wave_color": {"blue": {"Points": [{"handle_left": {"X": 0.5, "Y": 1.0}, "interpolation": 0, "handle_type": 0, "handle_right": {"X": 0.5, "Y": 0.0}, "co": {"X": 1.0, "Y": 255.0}}]}, "green": {"Points": [{"handle_left": {"X": 0.5, "Y": 1.0}, "interpolation": 0, "handle_type": 0, "handle_right": {"X": 0.5, "Y": 0.0}, "co": {"X": 1.0, "Y": 123.0}}]}, "red": {"Points": [{"handle_left": {"X": 0.5, "Y": 1.0}, "interpolation": 0, "handle_type": 0, "handle_right": {"X": 0.5, "Y": 0.0}, "co": {"X": 1.0, "Y": 0.0}}]}, "alpha": {"Points": [{"handle_left": {"X": 0.5, "Y": 1.0}, "interpolation": 0, "handle_type": 0, "handle_right": {"X": 0.5, "Y": 0.0}, "co": {"X": 1.0, "Y": 255.0}}]}}, "perspective_c1_x": {"Points": [{"interpolation": 2, "co": {"X": 1.0, "Y": -1.0}}]}, "file_id": "78F44BZZJZ", "location_y": {"Points": [{"interpolation": 2, "co": {"X": 1.0, "Y": 0.0}}]}, "alpha": {"Points": [{"interpolation": 2, "co": {"X": 1.0, "Y": 1.0}}]}, "start": 0, "volume": {"Points": [{"interpolation": 2, "co": {"X": 1.0, "Y": 1.0}}]}, "anchor": 0, "gravity": 4, "perspective_c2_y": {"Points": [{"interpolation": 2, "co": {"X": 1.0, "Y": -1.0}}]}, "id": "9BTV42VL9R", "perspective_c2_x": {"Points": [{"interpolation": 2, "co": {"X": 1.0, "Y": -1.0}}]}, "perspective_c1_y": {"Points": [{"interpolation": 2, "co": {"X": 1.0, "Y": -1.0}}]}, "image": "C:\\Users\\Henry\\.openshot_qt\\thumbnail\\78F44BZZJZ.png", "crop_y": {"Points": [{"interpolation": 2, "co": {"X": 1.0, "Y": 0.0}}]}, "reader": {"height": 743, "width": 1322, "video_length": "2592000", "audio_bit_rate": 0, "top_field_first": true, "display_ratio": {"den": 743, "num": 1322}, "type": "QtImageReader", "video_bit_rate": 0, "channel_layout": 4, "acodec": "", "vcodec": "", "duration": 86400.0, "has_audio": false, "pixel_ratio": {"den": 1, "num": 1}, "file_size": "3928984", "fps": {"den": 1, "num": 30}, "path": "C:\\Users\\Henry\\Documents\\Classes\\Fall 2017\\CS 329e Game Dev\\MVPgamedev\\Trailer Clips\\title_blue.JPG", "pixel_format": -1, "audio_stream_index": -1, "video_timebase": {"den": 30, "num": 1}, "audio_timebase": {"den": 1, "num": 1}, "video_stream_index": -1, "interlaced_frame": false, "channels": 0, "has_single_image": true, "has_video": true, "sample_rate": 0}, "location_x": {"Points": [{"interpolation": 2, "co": {"X": 1.0, "Y": 0.0}}]}, "has_video": {"Points": [{"interpolation": 2, "co": {"X": 1.0, "Y": -1.0}}]}, "perspective_c3_x": {"Points": [{"interpolation": 2, "co": {"X": 1.0, "Y": -1.0}}]}}, {"crop_width": {"Points": [{"interpolation": 2, "co": {"X": 1.0, "Y": -1.0}}]}, "display": 0, "waveform": false, "channel_filter": {"Points": [{"interpolation": 2, "co": {"X": 1.0, "Y": -1.0}}]}, "effects": [], "layer": 4, "scale_y": {"Points": [{"interpolation": 2, "co": {"X": 1.0, "Y": 1.0}}]}, "shear_y": {"Points": [{"interpolation": 2, "co": {"X": 1.0, "Y": 0.0}}]}, "rotation": {"Points": [{"interpolation": 2, "co": {"X": 1.0, "Y": 0.0}}]}, "end": 3.420000000000001, "time": {"Points": [{"interpolation": 2, "co": {"X": 1.0, "Y": 1.0}}]}, "crop_height": {"Points": [{"interpolation": 2, "co": {"X": 1.0, "Y": -1.0}}]}, "crop_x": {"Points": [{"interpolation": 2, "co": {"X": 1.0, "Y": 0.0}}]}, "shear_x": {"Points": [{"interpolation": 2, "co": {"X": 1.0, "Y": 0.0}}]}, "duration": 86400.0, "scale_x": {"Points": [{"interpolation": 2, "co": {"X": 1.0, "Y": 1.0}}]}, "title": "title_green.JPG", "has_audio": {"Points": [{"interpolation": 2, "co": {"X": 1.0, "Y": -1.0}}]}, "perspective_c4_y": {"Points": [{"interpolation": 2, "co": {"X": 1.0, "Y": -1.0}}]}, "perspective_c3_y": {"Points": [{"interpolation": 2, "co": {"X": 1.0, "Y": -1.0}}]}, "channel_mapping": {"Points": [{"interpolation": 2, "co": {"X": 1.0, "Y": -1.0}}]}, "perspective_c4_x": {"Points": [{"interpolation": 2, "co": {"X": 1.0, "Y": -1.0}}]}, "position": 54.04, "scale": 1, "wave_color": {"blue": {"Points": [{"handle_left": {"X": 0.5, "Y": 1.0}, "interpolation": 0, "handle_type": 0, "handle_right": {"X": 0.5, "Y": 0.0}, "co": {"X": 1.0, "Y": 255.0}}]}, "green": {"Points": [{"handle_left": {"X": 0.5, "Y": 1.0}, "interpolation": 0, "handle_type": 0, "handle_right": {"X": 0.5, "Y": 0.0}, "co": {"X": 1.0, "Y": 123.0}}]}, "red": {"Points": [{"handle_left": {"X": 0.5, "Y": 1.0}, "interpolation": 0, "handle_type": 0, "handle_right": {"X": 0.5, "Y": 0.0}, "co": {"X": 1.0, "Y": 0.0}}]}, "alpha": {"Points": [{"handle_left": {"X": 0.5, "Y": 1.0}, "interpolation": 0, "handle_type": 0, "handle_right": {"X": 0.5, "Y": 0.0}, "co": {"X": 1.0, "Y": 255.0}}]}}, "perspective_c1_x": {"Points": [{"interpolation": 2, "co": {"X": 1.0, "Y": -1.0}}]}, "file_id": "71YSREPZ2E", "location_y": {"Points": [{"interpolation": 2, "co": {"X": 1.0, "Y": 0.0}}]}, "alpha": {"Points": [{"interpolation": 2, "co": {"X": 1.0, "Y": 1.0}}]}, "start": 0, "volume": {"Points": [{"interpolation": 2, "co": {"X": 1.0, "Y": 1.0}}]}, "anchor": 0, "gravity": 4, "perspective_c2_y": {"Points": [{"interpolation": 2, "co": {"X": 1.0, "Y": -1.0}}]}, "id": "2DAGRDPHXD", "perspective_c2_x": {"Points": [{"interpolation": 2, "co": {"X": 1.0, "Y": -1.0}}]}, "perspective_c1_y": {"Points": [{"interpolation": 2, "co": {"X": 1.0, "Y": -1.0}}]}, "image": "C:\\Users\\Henry\\.openshot_qt\\thumbnail\\71YSREPZ2E.png", "crop_y": {"Points": [{"interpolation": 2, "co": {"X": 1.0, "Y": 0.0}}]}, "reader": {"height": 744, "width": 1321, "video_length": "2592000", "audio_bit_rate": 0, "top_field_first": true, "display_ratio": {"den": 744, "num": 1321}, "type": "QtImageReader", "video_bit_rate": 0, "channel_layout": 4, "acodec": "", "vcodec": "", "duration": 86400.0, "has_audio": false, "pixel_ratio": {"den": 1, "num": 1}, "file_size": "3931296", "fps": {"den": 1, "num": 30}, "path": "C:\\Users\\Henry\\Documents\\Classes\\Fall 2017\\CS 329e Game Dev\\MVPgamedev\\Trailer Clips\\title_green.JPG", "pixel_format": -1, "audio_stream_index": -1, "video_timebase": {"den": 30, "num": 1}, "audio_timebase": {"den": 1, "num": 1}, "video_stream_index": -1, "interlaced_frame": false, "channels": 0, "has_single_image": true, "has_video": true, "sample_rate": 0}, "location_x": {"Points": [{"interpolation": 2, "co": {"X": 1.0, "Y": 0.0}}]}, "has_video": {"Points": [{"interpolation": 2, "co": {"X": 1.0, "Y": -1.0}}]}, "perspective_c3_x": {"Points": [{"interpolation": 2, "co": {"X": 1.0, "Y": -1.0}}]}}, {"crop_width": {"Points": [{"interpolation": 2, "co": {"X": 1.0, "Y": -1.0}}]}, "display": 0, "waveform": false, "channel_filter": {"Points": [{"interpolation": 2, "co": {"X": 1.0, "Y": -1.0}}]}, "effects": [], "layer": 4, "scale_y": {"Points": [{"interpolation": 2, "co": {"X": 1.0, "Y": 1.0}}]}, "shear_y": {"Points": [{"interpolation": 2, "co": {"X": 1.0, "Y": 0.0}}]}, "rotation": {"Points": [{"interpolation": 2, "co": {"X": 1.0, "Y": 0.0}}]}, "end": 7.829999999999999, "time": {"Points": [{"interpolation": 2, "co": {"X": 1.0, "Y": 1.0}}]}, "crop_height": {"Points": [{"interpolation": 2, "co": {"X": 1.0, "Y": -1.0}}]}, "crop_x": {"Points": [{"interpolation": 2, "co": {"X": 1.0, "Y": 0.0}}]}, "shear_x": {"Points": [{"interpolation": 2, "co": {"X": 1.0, "Y": 0.0}}]}, "duration": 86400.0, "scale_x": {"Points": [{"interpolation": 2, "co": {"X": 1.0, "Y": 1.0}}]}, "title": "title_orange.JPG", "has_audio": {"Points": [{"interpolation": 2, "co": {"X": 1.0, "Y": -1.0}}]}, "perspective_c4_y": {"Points": [{"interpolation": 2, "co": {"X": 1.0, "Y": -1.0}}]}, "perspective_c3_y": {"Points": [{"interpolation": 2, "co": {"X": 1.0, "Y": -1.0}}]}, "channel_mapping": {"Points": [{"interpolation": 2, "co": {"X": 1.0, "Y": -1.0}}]}, "perspective_c4_x": {"Points": [{"interpolation": 2, "co": {"X": 1.0, "Y": -1.0}}]}, "position": 57.459062499999995, "scale": 1, "wave_color": {"blue": {"Points": [{"handle_left": {"X": 0.5, "Y": 1.0}, "interpolation": 0, "handle_type": 0, "handle_right": {"X": 0.5, "Y": 0.0}, "co": {"X": 1.0, "Y": 255.0}}]}, "green": {"Points": [{"handle_left": {"X": 0.5, "Y": 1.0}, "interpolation": 0, "handle_type": 0, "handle_right": {"X": 0.5, "Y": 0.0}, "co": {"X": 1.0, "Y": 123.0}}]}, "red": {"Points": [{"handle_left": {"X": 0.5, "Y": 1.0}, "interpolation": 0, "handle_type": 0, "handle_right": {"X": 0.5, "Y": 0.0}, "co": {"X": 1.0, "Y": 0.0}}]}, "alpha": {"Points": [{"handle_left": {"X": 0.5, "Y": 1.0}, "interpolation": 0, "handle_type": 0, "handle_right": {"X": 0.5, "Y": 0.0}, "co": {"X": 1.0, "Y": 255.0}}]}}, "perspective_c1_x": {"Points": [{"interpolation": 2, "co": {"X": 1.0, "Y": -1.0}}]}, "file_id": "79XQ1JXZOE", "location_y": {"Points": [{"interpolation": 2, "co": {"X": 1.0, "Y": 0.0}}]}, "alpha": {"Points": [{"interpolation": 2, "co": {"X": 1.0, "Y": 1.0}}]}, "start": 5.6, "volume": {"Points": [{"interpolation": 2, "co": {"X": 1.0, "Y": 1.0}}]}, "anchor": 0, "gravity": 4, "perspective_c2_y": {"Points": [{"interpolation": 2, "co": {"X": 1.0, "Y": -1.0}}]}, "id": "R7CLXXFX61", "perspective_c2_x": {"Points": [{"interpolation": 2, "co": {"X": 1.0, "Y": -1.0}}]}, "perspective_c1_y": {"Points": [{"interpolation": 2, "co": {"X": 1.0, "Y": -1.0}}]}, "image": "C:\\Users\\Henry\\.openshot_qt\\thumbnail\\79XQ1JXZOE.png", "crop_y": {"Points": [{"interpolation": 2, "co": {"X": 1.0, "Y": 0.0}}]}, "reader": {"height": 745, "width": 1323, "video_length": "2592000", "audio_bit_rate": 0, "top_field_first": true, "display_ratio": {"den": 745, "num": 1323}, "type": "QtImageReader", "video_bit_rate": 0, "channel_layout": 4, "acodec": "", "vcodec": "", "duration": 86400.0, "has_audio": false, "pixel_ratio": {"den": 1, "num": 1}, "file_size": "3942540", "fps": {"den": 1, "num": 30}, "path": "C:\\Users\\Henry\\Documents\\Classes\\Fall 2017\\CS 329e Game Dev\\MVPgamedev\\Trailer Clips\\title_orange.JPG", "pixel_format": -1, "audio_stream_index": -1, "video_timebase": {"den": 30, "num": 1}, "audio_timebase": {"den": 1, "num": 1}, "video_stream_index": -1, "interlaced_frame": false, "channels": 0, "has_single_image": true, "has_video": true, "sample_rate": 0}, "location_x": {"Points": [{"interpolation": 2, "co": {"X": 1.0, "Y": 0.0}}]}, "has_video": {"Points": [{"interpolation": 2, "co": {"X": 1.0, "Y": -1.0}}]}, "perspective_c3_x": {"Points": [{"interpolation": 2, "co": {"X": 1.0, "Y": -1.0}}]}}, {"crop_width": {"Points": [{"interpolation": 2, "co": {"X": 1.0, "Y": -1.0}}]}, "display": 0, "waveform": false, "channel_filter": {"Points": [{"interpolation": 2, "co": {"X": 1.0, "Y": -1.0}}]}, "effects": [], "layer": 3, "scale_y": {"Points": [{"interpolation": 2, "co": {"X": 1.0, "Y": 1.0}}]}, "shear_y": {"Points": [{"interpolation": 2, "co": {"X": 1.0, "Y": 0.0}}]}, "rotation": {"Points": [{"interpolation": 2, "co": {"X": 1.0, "Y": 0.0}}]}, "end": 95, "time": {"Points": [{"interpolation": 1, "co": {"X": 1.0, "Y": 1.0}}, {"interpolation": 1, "co": {"X": 2280.0, "Y": 4559.0}}]}, "crop_height": {"Points": [{"interpolation": 2, "co": {"X": 1.0, "Y": -1.0}}]}, "crop_x": {"Points": [{"interpolation": 2, "co": {"X": 1.0, "Y": 0.0}}]}, "shear_x": {"Points": [{"interpolation": 2, "co": {"X": 1.0, "Y": 0.0}}]}, "duration": 94.0, "scale_x": {"Points": [{"interpolation": 2, "co": {"X": 1.0, "Y": 1.0}}]}, "title": "cute.mp3", "has_audio": {"Points": [{"interpolation": 2, "co": {"X": 1.0, "Y": -1.0}}]}, "perspective_c4_y": {"Points": [{"interpolation": 2, "co": {"X": 1.0, "Y": -1.0}}]}, "perspective_c3_y": {"Points": [{"interpolation": 2, "co": {"X": 1.0, "Y": -1.0}}]}, "channel_mapping": {"Points": [{"interpolation": 2, "co": {"X": 1.0, "Y": -1.0}}]}, "perspective_c4_x": {"Points": [{"interpolation": 2, "co": {"X": 1.0, "Y": -1.0}}]}, "position": 59.57, "scale": 1, "wave_color": {"blue": {"Points": [{"handle_left": {"X": 0.5, "Y": 1.0}, "interpolation": 0, "handle_type": 0, "handle_right": {"X": 0.5, "Y": 0.0}, "co": {"X": 1.0, "Y": 255.0}}]}, "green": {"Points": [{"handle_left": {"X": 0.5, "Y": 1.0}, "interpolation": 0, "handle_type": 0, "handle_right": {"X": 0.5, "Y": 0.0}, "co": {"X": 1.0, "Y": 123.0}}]}, "red": {"Points": [{"handle_left": {"X": 0.5, "Y": 1.0}, "interpolation": 0, "handle_type": 0, "handle_right": {"X": 0.5, "Y": 0.0}, "co": {"X": 1.0, "Y": 0.0}}]}, "alpha": {"Points": [{"handle_left": {"X": 0.5, "Y": 1.0}, "interpolation": 0, "handle_type": 0, "handle_right": {"X": 0.5, "Y": 0.0}, "co": {"X": 1.0, "Y": 255.0}}]}}, "perspective_c1_x": {"Points": [{"interpolation": 2, "co": {"X": 1.0, "Y": -1.0}}]}, "file_id": "6DFW25DRJZ", "location_y": {"Points": [{"interpolation": 2, "co": {"X": 1.0, "Y": 0.0}}]}, "alpha": {"Points": [{"interpolation": 2, "co": {"X": 1.0, "Y": 1.0}}]}, "start": 0, "volume": {"Points": [{"interpolation": 2, "co": {"X": 1.0, "Y": 1.0}}]}, "anchor": 0, "gravity": 4, "perspective_c2_y": {"Points": [{"interpolation": 2, "co": {"X": 1.0, "Y": -1.0}}]}, "id": "JBG87H3OER", "perspective_c2_x": {"Points": [{"interpolation": 2, "co": {"X": 1.0, "Y": -1.0}}]}, "perspective_c1_y": {"Points": [{"interpolation": 2, "co": {"X": 1.0, "Y": -1.0}}]}, "image": "C:\\Program Files\\OpenShot Video Editor\\images\\AudioThumbnail.png", "crop_y": {"Points": [{"interpolation": 2, "co": {"X": 1.0, "Y": 0.0}}]}, "reader": {"height": 480, "width": 720, "video_length": "4559", "audio_bit_rate": 112000, "top_field_first": true, "display_ratio": {"den": 1, "num": 1}, "type": "FFmpegReader", "video_bit_rate": 0, "channel_layout": 3, "acodec": "mp3", "vcodec": "", "duration": 189.9627075195312, "has_audio": true, "pixel_ratio": {"den": 1, "num": 1}, "file_size": "2659839", "fps": {"den": 1, "num": 24}, "path": "C:\\Users\\Henry\\Documents\\Classes\\Fall 2017\\CS 329e Game Dev\\MVPgamedev\\Game\\assets\\sounds\\cute.mp3", "pixel_format": -1, "audio_stream_index": 0, "video_timebase": {"den": 24, "num": 1}, "audio_timebase": {"den": 14112000, "num": 1}, "video_stream_index": -1, "interlaced_frame": false, "channels": 2, "has_single_image": false, "has_video": false, "sample_rate": 44100}, "location_x": {"Points": [{"interpolation": 2, "co": {"X": 1.0, "Y": 0.0}}]}, "has_video": {"Points": [{"interpolation": 2, "co": {"X": 1.0, "Y": -1.0}}]}, "perspective_c3_x": {"Points": [{"interpolation": 2, "co": {"X": 1.0, "Y": -1.0}}]}}]}, {"value": {"crop_width": {"Points": [{"interpolation": 2, "co": {"X": 1.0, "Y": -1.0}}]}, "display": 0, "waveform": false, "channel_filter": {"Points": [{"interpolation": 2, "co": {"X": 1.0, "Y": -1.0}}]}, "effects": [], "layer": 3, "scale_y": {"Points": [{"interpolation": 2, "co": {"X": 1.0, "Y": 1.0}}]}, "shear_y": {"Points": [{"interpolation": 2, "co": {"X": 1.0, "Y": 0.0}}]}, "rotation": {"Points": [{"interpolation": 2, "co": {"X": 1.0, "Y": 0.0}}]}, "end": 95, "time": {"Points": [{"interpolation": 1, "co": {"X": 1.0, "Y": 1.0}}, {"interpolation": 1, "co": {"X": 2280.0, "Y": 4559.0}}]}, "crop_height": {"Points": [{"interpolation": 2, "co": {"X": 1.0, "Y": -1.0}}]}, "crop_x": {"Points": [{"interpolation": 2, "co": {"X": 1.0, "Y": 0.0}}]}, "shear_x": {"Points": [{"interpolation": 2, "co": {"X": 1.0, "Y": 0.0}}]}, "duration": 94.0, "scale_x": {"Points": [{"interpolation": 2, "co": {"X": 1.0, "Y": 1.0}}]}, "title": "cute.mp3", "has_audio": {"Points": [{"interpolation": 2, "co": {"X": 1.0, "Y": -1.0}}]}, "perspective_c4_y": {"Points": [{"interpolation": 2, "co": {"X": 1.0, "Y": -1.0}}]}, "perspective_c3_y": {"Points": [{"interpolation": 2, "co": {"X": 1.0, "Y": -1.0}}]}, "channel_mapping": {"Points": [{"interpolation": 2, "co": {"X": 1.0, "Y": -1.0}}]}, "perspective_c4_x": {"Points": [{"interpolation": 2, "co": {"X": 1.0, "Y": -1.0}}]}, "position": 75.95, "scale": 1, "wave_color": {"blue": {"Points": [{"handle_left": {"X": 0.5, "Y": 1.0}, "interpolation": 0, "handle_type": 0, "handle_right": {"X": 0.5, "Y": 0.0}, "co": {"X": 1.0, "Y": 255.0}}]}, "green": {"Points": [{"handle_left": {"X": 0.5, "Y": 1.0}, "interpolation": 0, "handle_type": 0, "handle_right": {"X": 0.5, "Y": 0.0}, "co": {"X": 1.0, "Y": 123.0}}]}, "red": {"Points": [{"handle_left": {"X": 0.5, "Y": 1.0}, "interpolation": 0, "handle_type": 0, "handle_right": {"X": 0.5, "Y": 0.0}, "co": {"X": 1.0, "Y": 0.0}}]}, "alpha": {"Points": [{"handle_left": {"X": 0.5, "Y": 1.0}, "interpolation": 0, "handle_type": 0, "handle_right": {"X": 0.5, "Y": 0.0}, "co": {"X": 1.0, "Y": 255.0}}]}}, "perspective_c1_x": {"Points": [{"interpolation": 2, "co": {"X": 1.0, "Y": -1.0}}]}, "file_id": "6DFW25DRJZ", "location_y": {"Points": [{"interpolation": 2, "co": {"X": 1.0, "Y": 0.0}}]}, "alpha": {"Points": [{"interpolation": 2, "co": {"X": 1.0, "Y": 1.0}}]}, "start": 16.380000000000003, "volume": {"Points": [{"interpolation": 2, "co": {"X": 1.0, "Y": 1.0}}]}, "anchor": 0, "gravity": 4, "perspective_c2_y": {"Points": [{"interpolation": 2, "co": {"X": 1.0, "Y": -1.0}}]}, "id": "P9UCYI6O28", "perspective_c2_x": {"Points": [{"interpolation": 2, "co": {"X": 1.0, "Y": -1.0}}]}, "perspective_c1_y": {"Points": [{"interpolation": 2, "co": {"X": 1.0, "Y": -1.0}}]}, "image": "C:\\Users\\Henry\\.openshot_qt\\thumbnail\\P9UCYI6O28-394.png", "crop_y": {"Points": [{"interpolation": 2, "co": {"X": 1.0, "Y": 0.0}}]}, "location_x": {"Points": [{"interpolation": 2, "co": {"X": 1.0, "Y": 0.0}}]}, "has_video": {"Points": [{"interpolation": 2, "co": {"X": 1.0, "Y": -1.0}}]}, "perspective_c3_x": {"Points": [{"interpolation": 2, "co": {"X": 1.0, "Y": -1.0}}]}}, "type": "update", "key": ["clips", {"id": "P9UCYI6O28"}], "partial": false, "old_values": {"crop_width": {"Points": [{"interpolation": 2, "co": {"X": 1.0, "Y": -1.0}}]}, "display": 0, "waveform": false, "channel_filter": {"Points": [{"interpolation": 2, "co": {"X": 1.0, "Y": -1.0}}]}, "effects": [], "layer": 3, "scale_y": {"Points": [{"interpolation": 2, "co": {"X": 1.0, "Y": 1.0}}]}, "shear_y": {"Points": [{"interpolation": 2, "co": {"X": 1.0, "Y": 0.0}}]}, "rotation": {"Points": [{"interpolation": 2, "co": {"X": 1.0, "Y": 0.0}}]}, "end": 95, "time": {"Points": [{"interpolation": 1, "co": {"X": 1.0, "Y": 1.0}}, {"interpolation": 1, "co": {"X": 2280.0, "Y": 4559.0}}]}, "crop_height": {"Points": [{"interpolation": 2, "co": {"X": 1.0, "Y": -1.0}}]}, "crop_x": {"Points": [{"interpolation": 2, "co": {"X": 1.0, "Y": 0.0}}]}, "shear_x": {"Points": [{"interpolation": 2, "co": {"X": 1.0, "Y": 0.0}}]}, "duration": 94.0, "scale_x": {"Points": [{"interpolation": 2, "co": {"X": 1.0, "Y": 1.0}}]}, "title": "cute.mp3", "has_audio": {"Points": [{"interpolation": 2, "co": {"X": 1.0, "Y": -1.0}}]}, "perspective_c4_y": {"Points": [{"interpolation": 2, "co": {"X": 1.0, "Y": -1.0}}]}, "perspective_c3_y": {"Points": [{"interpolation": 2, "co": {"X": 1.0, "Y": -1.0}}]}, "channel_mapping": {"Points": [{"interpolation": 2, "co": {"X": 1.0, "Y": -1.0}}]}, "perspective_c4_x": {"Points": [{"interpolation": 2, "co": {"X": 1.0, "Y": -1.0}}]}, "position": 75.95, "scale": 1, "wave_color": {"blue": {"Points": [{"handle_left": {"X": 0.5, "Y": 1.0}, "interpolation": 0, "handle_type": 0, "handle_right": {"X": 0.5, "Y": 0.0}, "co": {"X": 1.0, "Y": 255.0}}]}, "green": {"Points": [{"handle_left": {"X": 0.5, "Y": 1.0}, "interpolation": 0, "handle_type": 0, "handle_right": {"X": 0.5, "Y": 0.0}, "co": {"X": 1.0, "Y": 123.0}}]}, "red": {"Points": [{"handle_left": {"X": 0.5, "Y": 1.0}, "interpolation": 0, "handle_type": 0, "handle_right": {"X": 0.5, "Y": 0.0}, "co": {"X": 1.0, "Y": 0.0}}]}, "alpha": {"Points": [{"handle_left": {"X": 0.5, "Y": 1.0}, "interpolation": 0, "handle_type": 0, "handle_right": {"X": 0.5, "Y": 0.0}, "co": {"X": 1.0, "Y": 255.0}}]}}, "perspective_c1_x": {"Points": [{"interpolation": 2, "co": {"X": 1.0, "Y": -1.0}}]}, "perspective_c1_y": {"Points": [{"interpolation": 2, "co": {"X": 1.0, "Y": -1.0}}]}, "file_id": "6DFW25DRJZ", "location_y": {"Points": [{"interpolation": 2, "co": {"X": 1.0, "Y": 0.0}}]}, "alpha": {"Points": [{"interpolation": 2, "co": {"X": 1.0, "Y": 1.0}}]}, "volume": {"Points": [{"interpolation": 2, "co": {"X": 1.0, "Y": 1.0}}]}, "anchor": 0, "gravity": 4, "perspective_c2_y": {"Points": [{"interpolation": 2, "co": {"X": 1.0, "Y": -1.0}}]}, "id": "P9UCYI6O28", "perspective_c2_x": {"Points": [{"interpolation": 2, "co": {"X": 1.0, "Y": -1.0}}]}, "start": 16.380000000000003, "image": "C:\\Program Files\\OpenShot Video Editor\\images\\AudioThumbnail.png", "crop_y": {"Points": [{"interpolation": 2, "co": {"X": 1.0, "Y": 0.0}}]}, "reader": {"height": 480, "width": 720, "video_length": "4559", "audio_bit_rate": 112000, "top_field_first": true, "display_ratio": {"den": 1, "num": 1}, "type": "FFmpegReader", "video_bit_rate": 0, "channel_layout": 3, "acodec": "mp3", "vcodec": "", "duration": 189.9627075195312, "has_audio": true, "pixel_ratio": {"den": 1, "num": 1}, "file_size": "2659839", "fps": {"den": 1, "num": 24}, "path": "C:\\Users\\Henry\\Documents\\Classes\\Fall 2017\\CS 329e Game Dev\\MVPgamedev\\Game\\assets\\sounds\\cute.mp3", "pixel_format": -1, "audio_stream_index": 0, "video_timebase": {"den": 24, "num": 1}, "audio_timebase": {"den": 14112000, "num": 1}, "video_stream_index": -1, "interlaced_frame": false, "channels": 2, "has_single_image": false, "has_video": false, "sample_rate": 44100}, "location_x": {"Points": [{"interpolation": 2, "co": {"X": 1.0, "Y": 0.0}}]}, "has_video": {"Points": [{"interpolation": 2, "co": {"X": 1.0, "Y": -1.0}}]}, "perspective_c3_x": {"Points": [{"interpolation": 2, "co": {"X": 1.0, "Y": -1.0}}]}}}, {"value": {"crop_width": {"Points": [{"interpolation": 2, "co": {"X": 1.0, "Y": -1.0}}]}, "display": 0, "waveform": false, "channel_filter": {"Points": [{"interpolation": 2, "co": {"X": 1.0, "Y": -1.0}}]}, "effects": [], "layer": 3, "scale_y": {"Points": [{"interpolation": 2, "co": {"X": 1.0, "Y": 1.0}}]}, "shear_y": {"Points": [{"interpolation": 2, "co": {"X": 1.0, "Y": 0.0}}]}, "rotation": {"Points": [{"interpolation": 2, "co": {"X": 1.0, "Y": 0.0}}]}, "end": 16.380000000000003, "time": {"Points": [{"interpolation": 1, "co": {"X": 1.0, "Y": 1.0}}, {"interpolation": 1, "co": {"X": 2280.0, "Y": 4559.0}}]}, "crop_height": {"Points": [{"interpolation": 2, "co": {"X": 1.0, "Y": -1.0}}]}, "crop_x": {"Points": [{"interpolation": 2, "co": {"X": 1.0, "Y": 0.0}}]}, "shear_x": {"Points": [{"interpolation": 2, "co": {"X": 1.0, "Y": 0.0}}]}, "duration": 94.0, "scale_x": {"Points": [{"interpolation": 2, "co": {"X": 1.0, "Y": 1.0}}]}, "title": "cute.mp3", "has_audio": {"Points": [{"interpolation": 2, "co": {"X": 1.0, "Y": -1.0}}]}, "perspective_c4_y": {"Points": [{"interpolation": 2, "co": {"X": 1.0, "Y": -1.0}}]}, "perspective_c3_y": {"Points": [{"interpolation": 2, "co": {"X": 1.0, "Y": -1.0}}]}, "channel_mapping": {"Points": [{"interpolation": 2, "co": {"X": 1.0, "Y": -1.0}}]}, "perspective_c4_x": {"Points": [{"interpolation": 2, "co": {"X": 1.0, "Y": -1.0}}]}, "position": 59.57, "scale": 1, "wave_color": {"blue": {"Points": [{"handle_left": {"X": 0.5, "Y": 1.0}, "interpolation": 0, "handle_type": 0, "handle_right": {"X": 0.5, "Y": 0.0}, "co": {"X": 1.0, "Y": 255.0}}]}, "green": {"Points": [{"handle_left": {"X": 0.5, "Y": 1.0}, "interpolation": 0, "handle_type": 0, "handle_right": {"X": 0.5, "Y": 0.0}, "co": {"X": 1.0, "Y": 123.0}}]}, "red": {"Points": [{"handle_left": {"X": 0.5, "Y": 1.0}, "interpolation": 0, "handle_type": 0, "handle_right": {"X": 0.5, "Y": 0.0}, "co": {"X": 1.0, "Y": 0.0}}]}, "alpha": {"Points": [{"handle_left": {"X": 0.5, "Y": 1.0}, "interpolation": 0, "handle_type": 0, "handle_right": {"X": 0.5, "Y": 0.0}, "co": {"X": 1.0, "Y": 255.0}}]}}, "perspective_c1_x": {"Points": [{"interpolation": 2, "co": {"X": 1.0, "Y": -1.0}}]}, "file_id": "6DFW25DRJZ", "location_y": {"Points": [{"interpolation": 2, "co": {"X": 1.0, "Y": 0.0}}]}, "alpha": {"Points": [{"interpolation": 2, "co": {"X": 1.0, "Y": 1.0}}]}, "start": 0, "volume": {"Points": [{"interpolation": 2, "co": {"X": 1.0, "Y": 1.0}}]}, "anchor": 0, "gravity": 4, "perspective_c2_y": {"Points": [{"interpolation": 2, "co": {"X": 1.0, "Y": -1.0}}]}, "id": "JBG87H3OER", "perspective_c2_x": {"Points": [{"interpolation": 2, "co": {"X": 1.0, "Y": -1.0}}]}, "perspective_c1_y": {"Points": [{"interpolation": 2, "co": {"X": 1.0, "Y": -1.0}}]}, "image": "C:\\Program Files\\OpenShot Video Editor\\images\\AudioThumbnail.png", "crop_y": {"Points": [{"interpolation": 2, "co": {"X": 1.0, "Y": 0.0}}]}, "location_x": {"Points": [{"interpolation": 2, "co": {"X": 1.0, "Y": 0.0}}]}, "has_video": {"Points": [{"interpolation": 2, "co": {"X": 1.0, "Y": -1.0}}]}, "perspective_c3_x": {"Points": [{"interpolation": 2, "co": {"X": 1.0, "Y": -1.0}}]}}, "type": "update", "key": ["clips", {"id": "JBG87H3OER"}], "partial": false, "old_values": {"crop_width": {"Points": [{"interpolation": 2, "co": {"X": 1.0, "Y": -1.0}}]}, "display": 0, "waveform": false, "channel_filter": {"Points": [{"interpolation": 2, "co": {"X": 1.0, "Y": -1.0}}]}, "effects": [], "layer": 3, "scale_y": {"Points": [{"interpolation": 2, "co": {"X": 1.0, "Y": 1.0}}]}, "shear_y": {"Points": [{"interpolation": 2, "co": {"X": 1.0, "Y": 0.0}}]}, "rotation": {"Points": [{"interpolation": 2, "co": {"X": 1.0, "Y": 0.0}}]}, "end": 95, "time": {"Points": [{"interpolation": 1, "co": {"X": 1.0, "Y": 1.0}}, {"interpolation": 1, "co": {"X": 2280.0, "Y": 4559.0}}]}, "crop_height": {"Points": [{"interpolation": 2, "co": {"X": 1.0, "Y": -1.0}}]}, "crop_x": {"Points": [{"interpolation": 2, "co": {"X": 1.0, "Y": 0.0}}]}, "shear_x": {"Points": [{"interpolation": 2, "co": {"X": 1.0, "Y": 0.0}}]}, "duration": 94.0, "scale_x": {"Points": [{"interpolation": 2, "co": {"X": 1.0, "Y": 1.0}}]}, "title": "cute.mp3", "has_audio": {"Points": [{"interpolation": 2, "co": {"X": 1.0, "Y": -1.0}}]}, "perspective_c4_y": {"Points": [{"interpolation": 2, "co": {"X": 1.0, "Y": -1.0}}]}, "perspective_c3_y": {"Points": [{"interpolation": 2, "co": {"X": 1.0, "Y": -1.0}}]}, "channel_mapping": {"Points": [{"interpolation": 2, "co": {"X": 1.0, "Y": -1.0}}]}, "perspective_c4_x": {"Points": [{"interpolation": 2, "co": {"X": 1.0, "Y": -1.0}}]}, "position": 59.57, "scale": 1, "wave_color": {"blue": {"Points": [{"handle_left": {"X": 0.5, "Y": 1.0}, "interpolation": 0, "handle_type": 0, "handle_right": {"X": 0.5, "Y": 0.0}, "co": {"X": 1.0, "Y": 255.0}}]}, "green": {"Points": [{"handle_left": {"X": 0.5, "Y": 1.0}, "interpolation": 0, "handle_type": 0, "handle_right": {"X": 0.5, "Y": 0.0}, "co": {"X": 1.0, "Y": 123.0}}]}, "red": {"Points": [{"handle_left": {"X": 0.5, "Y": 1.0}, "interpolation": 0, "handle_type": 0, "handle_right": {"X": 0.5, "Y": 0.0}, "co": {"X": 1.0, "Y": 0.0}}]}, "alpha": {"Points": [{"handle_left": {"X": 0.5, "Y": 1.0}, "interpolation": 0, "handle_type": 0, "handle_right": {"X": 0.5, "Y": 0.0}, "co": {"X": 1.0, "Y": 255.0}}]}}, "perspective_c1_x": {"Points": [{"interpolation": 2, "co": {"X": 1.0, "Y": -1.0}}]}, "file_id": "6DFW25DRJZ", "location_y": {"Points": [{"interpolation": 2, "co": {"X": 1.0, "Y": 0.0}}]}, "alpha": {"Points": [{"interpolation": 2, "co": {"X": 1.0, "Y": 1.0}}]}, "start": 0, "volume": {"Points": [{"interpolation": 2, "co": {"X": 1.0, "Y": 1.0}}]}, "anchor": 0, "gravity": 4, "perspective_c2_y": {"Points": [{"interpolation": 2, "co": {"X": 1.0, "Y": -1.0}}]}, "id": "JBG87H3OER", "perspective_c2_x": {"Points": [{"interpolation": 2, "co": {"X": 1.0, "Y": -1.0}}]}, "perspective_c1_y": {"Points": [{"interpolation": 2, "co": {"X": 1.0, "Y": -1.0}}]}, "image": "C:\\Program Files\\OpenShot Video Editor\\images\\AudioThumbnail.png", "crop_y": {"Points": [{"interpolation": 2, "co": {"X": 1.0, "Y": 0.0}}]}, "reader": {"height": 480, "width": 720, "video_length": "4559", "audio_bit_rate": 112000, "top_field_first": true, "display_ratio": {"den": 1, "num": 1}, "type": "FFmpegReader", "video_bit_rate": 0, "channel_layout": 3, "acodec": "mp3", "vcodec": "", "duration": 189.9627075195312, "has_audio": true, "pixel_ratio": {"den": 1, "num": 1}, "file_size": "2659839", "fps": {"den": 1, "num": 24}, "path": "C:\\Users\\Henry\\Documents\\Classes\\Fall 2017\\CS 329e Game Dev\\MVPgamedev\\Game\\assets\\sounds\\cute.mp3", "pixel_format": -1, "audio_stream_index": 0, "video_timebase": {"den": 24, "num": 1}, "audio_timebase": {"den": 14112000, "num": 1}, "video_stream_index": -1, "interlaced_frame": false, "channels": 2, "has_single_image": false, "has_video": false, "sample_rate": 44100}, "location_x": {"Points": [{"interpolation": 2, "co": {"X": 1.0, "Y": 0.0}}]}, "has_video": {"Points": [{"interpolation": 2, "co": {"X": 1.0, "Y": -1.0}}]}, "perspective_c3_x": {"Points": [{"interpolation": 2, "co": {"X": 1.0, "Y": -1.0}}]}}}, {"value": {"crop_width": {"Points": [{"interpolation": 2, "co": {"X": 1.0, "Y": -1.0}}]}, "display": 0, "waveform": false, "channel_filter": {"Points": [{"interpolation": 2, "co": {"X": 1.0, "Y": -1.0}}]}, "effects": [], "channel_mapping": {"Points": [{"interpolation": 2, "co": {"X": 1.0, "Y": -1.0}}]}, "layer": 3, "scale_y": {"Points": [{"interpolation": 2, "co": {"X": 1.0, "Y": 1.0}}]}, "perspective_c3_y": {"Points": [{"interpolation": 2, "co": {"X": 1.0, "Y": -1.0}}]}, "shear_y": {"Points": [{"interpolation": 2, "co": {"X": 1.0, "Y": 0.0}}]}, "end": 95, "gravity": 4, "crop_y": {"Points": [{"interpolation": 2, "co": {"X": 1.0, "Y": 0.0}}]}, "shear_x": {"Points": [{"interpolation": 2, "co": {"X": 1.0, "Y": 0.0}}]}, "duration": 94.0, "scale_x": {"Points": [{"interpolation": 2, "co": {"X": 1.0, "Y": 1.0}}]}, "has_audio": {"Points": [{"interpolation": 2, "co": {"X": 1.0, "Y": -1.0}}]}, "perspective_c4_y": {"Points": [{"interpolation": 2, "co": {"X": 1.0, "Y": -1.0}}]}, "perspective_c3_x": {"Points": [{"interpolation": 2, "co": {"X": 1.0, "Y": -1.0}}]}, "time": {"Points": [{"interpolation": 1, "co": {"X": 1.0, "Y": 1.0}}, {"interpolation": 1, "co": {"X": 2280.0, "Y": 4559.0}}]}, "perspective_c4_x": {"Points": [{"interpolation": 2, "co": {"X": 1.0, "Y": -1.0}}]}, "reader": {"height": 480, "width": 720, "video_length": "4559", "audio_bit_rate": 112000, "top_field_first": true, "display_ratio": {"den": 1, "num": 1}, "type": "FFmpegReader", "video_bit_rate": 0, "channel_layout": 3, "acodec": "mp3", "vcodec": "", "duration": 189.9627075195312, "has_audio": true, "pixel_ratio": {"den": 1, "num": 1}, "file_size": "2659839", "fps": {"den": 1, "num": 24}, "path": "C:\\Users\\Henry\\Documents\\Classes\\Fall 2017\\CS 329e Game Dev\\MVPgamedev\\Game\\assets\\sounds\\cute.mp3", "pixel_format": -1, "audio_stream_index": 0, "video_timebase": {"den": 24, "num": 1}, "audio_timebase": {"den": 14112000, "num": 1}, "video_stream_index": -1, "interlaced_frame": false, "sample_rate": 44100, "has_single_image": false, "has_video": false, "channels": 2}, "position": 116.27, "scale": 1, "wave_color": {"blue": {"Points": [{"handle_left": {"X": 0.5, "Y": 1.0}, "interpolation": 0, "handle_type": 0, "handle_right": {"X": 0.5, "Y": 0.0}, "co": {"X": 1.0, "Y": 255.0}}]}, "green": {"Points": [{"handle_left": {"X": 0.5, "Y": 1.0}, "interpolation": 0, "handle_type": 0, "handle_right": {"X": 0.5, "Y": 0.0}, "co": {"X": 1.0, "Y": 123.0}}]}, "red": {"Points": [{"handle_left": {"X": 0.5, "Y": 1.0}, "interpolation": 0, "handle_type": 0, "handle_right": {"X": 0.5, "Y": 0.0}, "co": {"X": 1.0, "Y": 0.0}}]}, "alpha": {"Points": [{"handle_left": {"X": 0.5, "Y": 1.0}, "interpolation": 0, "handle_type": 0, "handle_right": {"X": 0.5, "Y": 0.0}, "co": {"X": 1.0, "Y": 255.0}}]}}, "perspective_c1_y": {"Points": [{"interpolation": 2, "co": {"X": 1.0, "Y": -1.0}}]}, "file_id": "6DFW25DRJZ", "location_y": {"Points": [{"interpolation": 2, "co": {"X": 1.0, "Y": 0.0}}]}, "anchor": 0, "crop_x": {"Points": [{"interpolation": 2, "co": {"X": 1.0, "Y": 0.0}}]}, "volume": {"Points": [{"interpolation": 2, "co": {"X": 1.0, "Y": 1.0}}]}, "perspective_c2_y": {"Points": [{"interpolation": 2, "co": {"X": 1.0, "Y": -1.0}}]}, "title": "cute.mp3", "id": "GX5DST0FZM", "perspective_c2_x": {"Points": [{"interpolation": 2, "co": {"X": 1.0, "Y": -1.0}}]}, "start": 56.699999999999996, "image": "C:\\Users\\Henry\\.openshot_qt\\thumbnail\\GX5DST0FZM-1362.png", "alpha": {"Points": [{"interpolation": 2, "co": {"X": 1.0, "Y": 1.0}}]}, "crop_height": {"Points": [{"interpolation": 2, "co": {"X": 1.0, "Y": -1.0}}]}, "rotation": {"Points": [{"interpolation": 2, "co": {"X": 1.0, "Y": 0.0}}]}, "location_x": {"Points": [{"interpolation": 2, "co": {"X": 1.0, "Y": 0.0}}]}, "has_video": {"Points": [{"interpolation": 2, "co": {"X": 1.0, "Y": -1.0}}]}, "perspective_c1_x": {"Points": [{"interpolation": 2, "co": {"X": 1.0, "Y": -1.0}}]}}, "type": "insert", "key": ["clips"], "partial": false, "old_values": [{"crop_width": {"Points": [{"interpolation": 2, "co": {"X": 1.0, "Y": -1.0}}]}, "display": 0, "waveform": false, "channel_filter": {"Points": [{"interpolation": 2, "co": {"X": 1.0, "Y": -1.0}}]}, "effects": [], "layer": 4, "scale_y": {"Points": [{"interpolation": 2, "co": {"X": 1.0, "Y": 1.0}}]}, "shear_y": {"Points": [{"interpolation": 2, "co": {"X": 1.0, "Y": 0.0}}]}, "rotation": {"Points": [{"interpolation": 2, "co": {"X": 1.0, "Y": 0.0}}]}, "end": 6.239999999999999, "time": {"Points": [{"interpolation": 2, "co": {"X": 1.0, "Y": 1.0}}]}, "crop_x": {"Points": [{"interpolation": 2, "co": {"X": 1.0, "Y": 0.0}}]}, "shear_x": {"Points": [{"interpolation": 2, "co": {"X": 1.0, "Y": 0.0}}]}, "duration": 857.8773193359375, "scale_x": {"Points": [{"interpolation": 2, "co": {"X": 1.0, "Y": 1.0}}]}, "has_audio": {"Points": [{"interpolation": 2, "co": {"X": 1.0, "Y": -1.0}}]}, "perspective_c4_y": {"Points": [{"interpolation": 2, "co": {"X": 1.0, "Y": -1.0}}]}, "perspective_c3_y": {"Points": [{"interpolation": 2, "co": {"X": 1.0, "Y": -1.0}}]}, "channel_mapping": {"Points": [{"interpolation": 2, "co": {"X": 1.0, "Y": -1.0}}]}, "perspective_c4_x": {"Points": [{"interpolation": 2, "co": {"X": 1.0, "Y": -1.0}}]}, "position": 3.74828125, "scale": 1, "wave_color": {"blue": {"Points": [{"handle_left": {"X": 0.5, "Y": 1.0}, "interpolation": 0, "handle_type": 0, "handle_right": {"X": 0.5, "Y": 0.0}, "co": {"X": 1.0, "Y": 255.0}}]}, "green": {"Points": [{"handle_left": {"X": 0.5, "Y": 1.0}, "interpolation": 0, "handle_type": 0, "handle_right": {"X": 0.5, "Y": 0.0}, "co": {"X": 1.0, "Y": 123.0}}]}, "red": {"Points": [{"handle_left": {"X": 0.5, "Y": 1.0}, "interpolation": 0, "handle_type": 0, "handle_right": {"X": 0.5, "Y": 0.0}, "co": {"X": 1.0, "Y": 0.0}}]}, "alpha": {"Points": [{"handle_left": {"X": 0.5, "Y": 1.0}, "interpolation": 0, "handle_type": 0, "handle_right": {"X": 0.5, "Y": 0.0}, "co": {"X": 1.0, "Y": 255.0}}]}}, "file_id": "KMO2K20KW3", "location_y": {"Points": [{"interpolation": 2, "co": {"X": 1.0, "Y": 0.0}}]}, "anchor": 0, "gravity": 4, "volume": {"Points": [{"interpolation": 2, "co": {"X": 1.0, "Y": 1.0}}, {"handle_left": {"X": 0.5, "Y": 1.0}, "interpolation": 0, "handle_type": 0, "handle_right": {"X": 0.5, "Y": 0.0}, "co": {"X": 17.0, "Y": 0.0}}]}, "perspective_c2_y": {"Points": [{"interpolation": 2, "co": {"X": 1.0, "Y": -1.0}}]}, "title": "index.html - Google Chrome 11_27_2017 4_25_11 PM.mp4", "perspective_c3_x": {"Points": [{"interpolation": 2, "co": {"X": 1.0, "Y": -1.0}}]}, "id": "D7NUNOPHFR", "crop_y": {"Points": [{"interpolation": 2, "co": {"X": 1.0, "Y": 0.0}}]}, "has_video": {"Points": [{"interpolation": 2, "co": {"X": 1.0, "Y": -1.0}}]}, "perspective_c2_x": {"Points": [{"interpolation": 2, "co": {"X": 1.0, "Y": -1.0}}]}, "start": 0.6599999999999999, "image": "C:\\Users\\Henry\\.openshot_qt\\thumbnail\\D7NUNOPHFR-21.png", "alpha": {"Points": [{"interpolation": 2, "co": {"X": 1.0, "Y": 1.0}}]}, "crop_height": {"Points": [{"interpolation": 2, "co": {"X": 1.0, "Y": -1.0}}]}, "reader": {"height": 776, "width": 1376, "video_length": "25729", "audio_bit_rate": 131760, "top_field_first": true, "display_ratio": {"den": 97, "num": 172}, "type": "FFmpegReader", "video_bit_rate": 5473610, "vcodec": "h264", "acodec": "aac", "channel_layout": 3, "duration": 857.8773193359375, "has_audio": true, "pixel_ratio": {"den": 1, "num": 1}, "file_size": "586964452", "fps": {"den": 12866759, "num": 385935000}, "path": "C:\\Users\\Henry\\Videos\\Captures\\index.html - Google Chrome 11_27_2017 4_25_11 PM.mp4", "pixel_format": 0, "audio_stream_index": 1, "video_timebase": {"den": 30000, "num": 1}, "audio_timebase": {"den": 48000, "num": 1}, "video_stream_index": 0, "interlaced_frame": false, "channels": 2, "has_single_image": false, "has_video": true, "sample_rate": 48000}, "location_x": {"Points": [{"interpolation": 2, "co": {"X": 1.0, "Y": 0.0}}]}, "perspective_c1_y": {"Points": [{"interpolation": 2, "co": {"X": 1.0, "Y": -1.0}}]}, "perspective_c1_x": {"Points": [{"interpolation": 2, "co": {"X": 1.0, "Y": -1.0}}]}}, {"crop_width": {"Points": [{"interpolation": 2, "co": {"X": 1.0, "Y": -1.0}}]}, "display": 0, "waveform": false, "channel_filter": {"Points": [{"interpolation": 2, "co": {"X": 1.0, "Y": -1.0}}]}, "effects": [], "layer": 4, "scale_y": {"Points": [{"interpolation": 2, "co": {"X": 1.0, "Y": 1.0}}]}, "shear_y": {"Points": [{"interpolation": 2, "co": {"X": 1.0, "Y": 0.0}}]}, "rotation": {"Points": [{"interpolation": 2, "co": {"X": 1.0, "Y": 0.0}}]}, "end": 92.27999999999999, "time": {"Points": [{"interpolation": 1, "co": {"X": 1.0, "Y": 0.0}}]}, "crop_x": {"Points": [{"interpolation": 2, "co": {"X": 1.0, "Y": 0.0}}]}, "shear_x": {"Points": [{"interpolation": 2, "co": {"X": 1.0, "Y": 0.0}}]}, "duration": 857.8773193359375, "scale_x": {"Points": [{"interpolation": 2, "co": {"X": 1.0, "Y": 1.0}}]}, "has_audio": {"Points": [{"interpolation": 2, "co": {"X": 1.0, "Y": -1.0}}]}, "perspective_c4_y": {"Points": [{"interpolation": 2, "co": {"X": 1.0, "Y": -1.0}}]}, "perspective_c3_y": {"Points": [{"interpolation": 2, "co": {"X": 1.0, "Y": -1.0}}]}, "channel_mapping": {"Points": [{"interpolation": 2, "co": {"X": 1.0, "Y": -1.0}}]}, "perspective_c4_x": {"Points": [{"interpolation": 2, "co": {"X": 1.0, "Y": -1.0}}]}, "position": 37.87, "scale": 1, "wave_color": {"blue": {"Points": [{"handle_left": {"X": 0.5, "Y": 1.0}, "interpolation": 0, "handle_type": 0, "handle_right": {"X": 0.5, "Y": 0.0}, "co": {"X": 1.0, "Y": 255.0}}]}, "green": {"Points": [{"handle_left": {"X": 0.5, "Y": 1.0}, "interpolation": 0, "handle_type": 0, "handle_right": {"X": 0.5, "Y": 0.0}, "co": {"X": 1.0, "Y": 123.0}}]}, "red": {"Points": [{"handle_left": {"X": 0.5, "Y": 1.0}, "interpolation": 0, "handle_type": 0, "handle_right": {"X": 0.5, "Y": 0.0}, "co": {"X": 1.0, "Y": 0.0}}]}, "alpha": {"Points": [{"handle_left": {"X": 0.5, "Y": 1.0}, "interpolation": 0, "handle_type": 0, "handle_right": {"X": 0.5, "Y": 0.0}, "co": {"X": 1.0, "Y": 255.0}}]}}, "file_id": "KMO2K20KW3", "location_y": {"Points": [{"interpolation": 2, "co": {"X": 1.0, "Y": 0.0}}]}, "anchor": 0, "gravity": 4, "volume": {"Points": [{"interpolation": 2, "co": {"X": 1.0, "Y": 1.0}}, {"handle_left": {"X": 0.5, "Y": 1.0}, "interpolation": 0, "handle_type": 0, "handle_right": {"X": 0.5, "Y": 0.0}, "co": {"X": 2075.0, "Y": 0.0}}, {"handle_left": {"X": 0.5, "Y": 1.0}, "interpolation": 0, "handle_type": 0, "handle_right": {"X": 0.5, "Y": 0.0}, "co": {"X": 2075.0, "Y": 0.0}}]}, "perspective_c2_y": {"Points": [{"interpolation": 2, "co": {"X": 1.0, "Y": -1.0}}]}, "title": "index.html - Google Chrome 11_27_2017 4_25_11 PM.mp4", "perspective_c3_x": {"Points": [{"interpolation": 2, "co": {"X": 1.0, "Y": -1.0}}]}, "id": "FVONGYF9VS", "crop_y": {"Points": [{"interpolation": 2, "co": {"X": 1.0, "Y": 0.0}}]}, "has_video": {"Points": [{"interpolation": 2, "co": {"X": 1.0, "Y": -1.0}}]}, "perspective_c2_x": {"Points": [{"interpolation": 2, "co": {"X": 1.0, "Y": -1.0}}]}, "start": 86.39999999999999, "image": "C:\\Users\\Henry\\.openshot_qt\\thumbnail\\FVONGYF9VS-2593.png", "alpha": {"Points": [{"interpolation": 2, "co": {"X": 1.0, "Y": 1.0}}]}, "crop_height": {"Points": [{"interpolation": 2, "co": {"X": 1.0, "Y": -1.0}}]}, "reader": {"height": 776, "width": 1376, "video_length": "25729", "audio_bit_rate": 131760, "top_field_first": true, "display_ratio": {"den": 97, "num": 172}, "type": "FFmpegReader", "video_bit_rate": 5473610, "vcodec": "h264", "acodec": "aac", "channel_layout": 3, "duration": 857.8773193359375, "has_audio": true, "pixel_ratio": {"den": 1, "num": 1}, "file_size": "586964452", "fps": {"den": 12866759, "num": 385935000}, "path": "C:\\Users\\Henry\\Videos\\Captures\\index.html - Google Chrome 11_27_2017 4_25_11 PM.mp4", "pixel_format": 0, "audio_stream_index": 1, "video_timebase": {"den": 30000, "num": 1}, "audio_timebase": {"den": 48000, "num": 1}, "video_stream_index": 0, "interlaced_frame": false, "channels": 2, "has_single_image": false, "has_video": true, "sample_rate": 48000}, "location_x": {"Points": [{"interpolation": 2, "co": {"X": 1.0, "Y": 0.0}}]}, "perspective_c1_y": {"Points": [{"interpolation": 2, "co": {"X": 1.0, "Y": -1.0}}]}, "perspective_c1_x": {"Points": [{"interpolation": 2, "co": {"X": 1.0, "Y": -1.0}}]}}, {"crop_width": {"Points": [{"interpolation": 2, "co": {"X": 1.0, "Y": -1.0}}]}, "display": 0, "waveform": false, "channel_filter": {"Points": [{"interpolation": 2, "co": {"X": 1.0, "Y": -1.0}}]}, "effects": [], "layer": 4, "scale_y": {"Points": [{"interpolation": 2, "co": {"X": 1.0, "Y": 1.0}}]}, "shear_y": {"Points": [{"interpolation": 2, "co": {"X": 1.0, "Y": 0.0}}]}, "rotation": {"Points": [{"interpolation": 2, "co": {"X": 1.0, "Y": 0.0}}]}, "end": 416.72999999999996, "time": {"Points": [{"interpolation": 2, "co": {"X": 1.0, "Y": 1.0}}]}, "crop_x": {"Points": [{"interpolation": 2, "co": {"X": 1.0, "Y": 0.0}}]}, "shear_x": {"Points": [{"interpolation": 2, "co": {"X": 1.0, "Y": 0.0}}]}, "duration": 857.8773193359375, "scale_x": {"Points": [{"interpolation": 2, "co": {"X": 1.0, "Y": 1.0}}]}, "has_audio": {"Points": [{"interpolation": 2, "co": {"X": 1.0, "Y": -1.0}}]}, "perspective_c4_y": {"Points": [{"interpolation": 2, "co": {"X": 1.0, "Y": -1.0}}]}, "perspective_c3_y": {"Points": [{"interpolation": 2, "co": {"X": 1.0, "Y": -1.0}}]}, "channel_mapping": {"Points": [{"interpolation": 2, "co": {"X": 1.0, "Y": -1.0}}]}, "perspective_c4_x": {"Points": [{"interpolation": 2, "co": {"X": 1.0, "Y": -1.0}}]}, "position": 11.85734375, "scale": 1, "wave_color": {"blue": {"Points": [{"handle_left": {"X": 0.5, "Y": 1.0}, "interpolation": 0, "handle_type": 0, "handle_right": {"X": 0.5, "Y": 0.0}, "co": {"X": 1.0, "Y": 255.0}}]}, "green": {"Points": [{"handle_left": {"X": 0.5, "Y": 1.0}, "interpolation": 0, "handle_type": 0, "handle_right": {"X": 0.5, "Y": 0.0}, "co": {"X": 1.0, "Y": 123.0}}]}, "red": {"Points": [{"handle_left": {"X": 0.5, "Y": 1.0}, "interpolation": 0, "handle_type": 0, "handle_right": {"X": 0.5, "Y": 0.0}, "co": {"X": 1.0, "Y": 0.0}}]}, "alpha": {"Points": [{"handle_left": {"X": 0.5, "Y": 1.0}, "interpolation": 0, "handle_type": 0, "handle_right": {"X": 0.5, "Y": 0.0}, "co": {"X": 1.0, "Y": 255.0}}]}}, "file_id": "KMO2K20KW3", "location_y": {"Points": [{"interpolation": 2, "co": {"X": 1.0, "Y": 0.0}}]}, "anchor": 0, "gravity": 4, "volume": {"Points": [{"interpolation": 2, "co": {"X": 1.0, "Y": 1.0}}, {"handle_left": {"X": 0.5, "Y": 1.0}, "interpolation": 0, "handle_type": 0, "handle_right": {"X": 0.5, "Y": 0.0}, "co": {"X": 9795.0, "Y": 0.0}}, {"handle_left": {"X": 0.5, "Y": 1.0}, "interpolation": 0, "handle_type": 0, "handle_right": {"X": 0.5, "Y": 0.0}, "co": {"X": 9795.0, "Y": 0.0}}, {"handle_left": {"X": 0.5, "Y": 1.0}, "interpolation": 0, "handle_type": 0, "handle_right": {"X": 0.5, "Y": 0.0}, "co": {"X": 9795.0, "Y": 0.0}}, {"handle_left": {"X": 0.5, "Y": 1.0}, "interpolation": 0, "handle_type": 0, "handle_right": {"X": 0.5, "Y": 0.0}, "co": {"X": 9795.0, "Y": 0.0}}]}, "perspective_c2_y": {"Points": [{"interpolation": 2, "co": {"X": 1.0, "Y": -1.0}}]}, "title": "index.html - Google Chrome 11_27_2017 4_25_11 PM.mp4", "perspective_c3_x": {"Points": [{"interpolation": 2, "co": {"X": 1.0, "Y": -1.0}}]}, "id": "AD57EI7486", "crop_y": {"Points": [{"interpolation": 2, "co": {"X": 1.0, "Y": 0.0}}]}, "has_video": {"Points": [{"interpolation": 2, "co": {"X": 1.0, "Y": -1.0}}]}, "perspective_c2_x": {"Points": [{"interpolation": 2, "co": {"X": 1.0, "Y": -1.0}}]}, "start": 408.09, "image": "C:\\Users\\Henry\\.openshot_qt\\thumbnail\\AD57EI7486-12242.png", "alpha": {"Points": [{"interpolation": 2, "co": {"X": 1.0, "Y": 1.0}}]}, "crop_height": {"Points": [{"interpolation": 2, "co": {"X": 1.0, "Y": -1.0}}]}, "reader": {"height": 776, "width": 1376, "video_length": "25729", "audio_bit_rate": 131760, "top_field_first": true, "display_ratio": {"den": 97, "num": 172}, "type": "FFmpegReader", "video_bit_rate": 5473610, "vcodec": "h264", "acodec": "aac", "channel_layout": 3, "duration": 857.8773193359375, "has_audio": true, "pixel_ratio": {"den": 1, "num": 1}, "file_size": "586964452", "fps": {"den": 12866759, "num": 385935000}, "path": "C:\\Users\\Henry\\Videos\\Captures\\index.html - Google Chrome 11_27_2017 4_25_11 PM.mp4", "pixel_format": 0, "audio_stream_index": 1, "video_timebase": {"den": 30000, "num": 1}, "audio_timebase": {"den": 48000, "num": 1}, "video_stream_index": 0, "interlaced_frame": false, "channels": 2, "has_single_image": false, "has_video": true, "sample_rate": 48000}, "location_x": {"Points": [{"interpolation": 2, "co": {"X": 1.0, "Y": 0.0}}]}, "perspective_c1_y": {"Points": [{"interpolation": 2, "co": {"X": 1.0, "Y": -1.0}}]}, "perspective_c1_x": {"Points": [{"interpolation": 2, "co": {"X": 1.0, "Y": -1.0}}]}}, {"crop_width": {"Points": [{"interpolation": 2, "co": {"X": 1.0, "Y": -1.0}}]}, "display": 0, "waveform": false, "channel_filter": {"Points": [{"interpolation": 2, "co": {"X": 1.0, "Y": -1.0}}]}, "effects": [], "layer": 4, "scale_y": {"Points": [{"interpolation": 2, "co": {"X": 1.0, "Y": 1.0}}]}, "shear_y": {"Points": [{"interpolation": 2, "co": {"X": 1.0, "Y": 0.0}}]}, "rotation": {"Points": [{"interpolation": 2, "co": {"X": 1.0, "Y": 0.0}}]}, "end": 321.36234375, "time": {"Points": [{"interpolation": 1, "co": {"X": 1.0, "Y": 0.0}}]}, "crop_x": {"Points": [{"interpolation": 2, "co": {"X": 1.0, "Y": 0.0}}]}, "shear_x": {"Points": [{"interpolation": 2, "co": {"X": 1.0, "Y": 0.0}}]}, "duration": 857.8773193359375, "scale_x": {"Points": [{"interpolation": 2, "co": {"X": 1.0, "Y": 1.0}}]}, "has_audio": {"Points": [{"interpolation": 2, "co": {"X": 1.0, "Y": -1.0}}]}, "perspective_c4_y": {"Points": [{"interpolation": 2, "co": {"X": 1.0, "Y": -1.0}}]}, "perspective_c3_y": {"Points": [{"interpolation": 2, "co": {"X": 1.0, "Y": -1.0}}]}, "channel_mapping": {"Points": [{"interpolation": 2, "co": {"X": 1.0, "Y": -1.0}}]}, "perspective_c4_x": {"Points": [{"interpolation": 2, "co": {"X": 1.0, "Y": -1.0}}]}, "position": 42.699999999999996, "scale": 1, "wave_color": {"blue": {"Points": [{"handle_left": {"X": 0.5, "Y": 1.0}, "interpolation": 0, "handle_type": 0, "handle_right": {"X": 0.5, "Y": 0.0}, "co": {"X": 1.0, "Y": 255.0}}]}, "green": {"Points": [{"handle_left": {"X": 0.5, "Y": 1.0}, "interpolation": 0, "handle_type": 0, "handle_right": {"X": 0.5, "Y": 0.0}, "co": {"X": 1.0, "Y": 123.0}}]}, "red": {"Points": [{"handle_left": {"X": 0.5, "Y": 1.0}, "interpolation": 0, "handle_type": 0, "handle_right": {"X": 0.5, "Y": 0.0}, "co": {"X": 1.0, "Y": 0.0}}]}, "alpha": {"Points": [{"handle_left": {"X": 0.5, "Y": 1.0}, "interpolation": 0, "handle_type": 0, "handle_right": {"X": 0.5, "Y": 0.0}, "co": {"X": 1.0, "Y": 255.0}}]}}, "file_id": "KMO2K20KW3", "location_y": {"Points": [{"interpolation": 2, "co": {"X": 1.0, "Y": 0.0}}]}, "anchor": 0, "gravity": 4, "volume": {"Points": [{"interpolation": 2, "co": {"X": 1.0, "Y": 1.0}}, {"handle_left": {"X": 0.5, "Y": 1.0}, "interpolation": 0, "handle_type": 0, "handle_right": {"X": 0.5, "Y": 0.0}, "co": {"X": 7566.0, "Y": 0.0}}]}, "perspective_c2_y": {"Points": [{"interpolation": 2, "co": {"X": 1.0, "Y": -1.0}}]}, "title": "index.html - Google Chrome 11_27_2017 4_25_11 PM.mp4", "perspective_c3_x": {"Points": [{"interpolation": 2, "co": {"X": 1.0, "Y": -1.0}}]}, "id": "6W74PKD2H3", "crop_y": {"Points": [{"interpolation": 2, "co": {"X": 1.0, "Y": 0.0}}]}, "has_video": {"Points": [{"interpolation": 2, "co": {"X": 1.0, "Y": -1.0}}]}, "perspective_c2_x": {"Points": [{"interpolation": 2, "co": {"X": 1.0, "Y": -1.0}}]}, "start": 315.21, "image": "C:\\Users\\Henry\\.openshot_qt\\thumbnail\\6W74PKD2H3-9456.png", "alpha": {"Points": [{"interpolation": 2, "co": {"X": 1.0, "Y": 1.0}}]}, "crop_height": {"Points": [{"interpolation": 2, "co": {"X": 1.0, "Y": -1.0}}]}, "reader": {"height": 776, "width": 1376, "video_length": "25729", "audio_bit_rate": 131760, "top_field_first": true, "display_ratio": {"den": 97, "num": 172}, "type": "FFmpegReader", "video_bit_rate": 5473610, "vcodec": "h264", "acodec": "aac", "channel_layout": 3, "duration": 857.8773193359375, "has_audio": true, "pixel_ratio": {"den": 1, "num": 1}, "file_size": "586964452", "fps": {"den": 12866759, "num": 385935000}, "path": "C:\\Users\\Henry\\Videos\\Captures\\index.html - Google Chrome 11_27_2017 4_25_11 PM.mp4", "pixel_format": 0, "audio_stream_index": 1, "video_timebase": {"den": 30000, "num": 1}, "audio_timebase": {"den": 48000, "num": 1}, "video_stream_index": 0, "interlaced_frame": false, "channels": 2, "has_single_image": false, "has_video": true, "sample_rate": 48000}, "location_x": {"Points": [{"interpolation": 2, "co": {"X": 1.0, "Y": 0.0}}]}, "perspective_c1_y": {"Points": [{"interpolation": 2, "co": {"X": 1.0, "Y": -1.0}}]}, "perspective_c1_x": {"Points": [{"interpolation": 2, "co": {"X": 1.0, "Y": -1.0}}]}}, {"crop_width": {"Points": [{"interpolation": 2, "co": {"X": 1.0, "Y": -1.0}}]}, "display": 0, "waveform": false, "channel_filter": {"Points": [{"interpolation": 2, "co": {"X": 1.0, "Y": -1.0}}]}, "effects": [], "layer": 4, "scale_y": {"Points": [{"interpolation": 2, "co": {"X": 1.0, "Y": 1.0}}]}, "shear_y": {"Points": [{"interpolation": 2, "co": {"X": 1.0, "Y": 0.0}}]}, "rotation": {"Points": [{"interpolation": 2, "co": {"X": 1.0, "Y": 0.0}}]}, "end": 156.24, "time": {"Points": [{"interpolation": 2, "co": {"X": 1.0, "Y": 1.0}}]}, "crop_x": {"Points": [{"interpolation": 2, "co": {"X": 1.0, "Y": 0.0}}]}, "shear_x": {"Points": [{"interpolation": 2, "co": {"X": 1.0, "Y": 0.0}}]}, "duration": 857.8773193359375, "scale_x": {"Points": [{"interpolation": 2, "co": {"X": 1.0, "Y": 1.0}}]}, "has_audio": {"Points": [{"interpolation": 2, "co": {"X": 1.0, "Y": -1.0}}]}, "perspective_c4_y": {"Points": [{"interpolation": 2, "co": {"X": 1.0, "Y": -1.0}}]}, "perspective_c3_y": {"Points": [{"interpolation": 2, "co": {"X": 1.0, "Y": -1.0}}]}, "channel_mapping": {"Points": [{"interpolation": 2, "co": {"X": 1.0, "Y": -1.0}}]}, "perspective_c4_x": {"Points": [{"interpolation": 2, "co": {"X": 1.0, "Y": -1.0}}]}, "position": 23.9159375, "scale": 1, "wave_color": {"blue": {"Points": [{"handle_left": {"X": 0.5, "Y": 1.0}, "interpolation": 0, "handle_type": 0, "handle_right": {"X": 0.5, "Y": 0.0}, "co": {"X": 1.0, "Y": 255.0}}]}, "green": {"Points": [{"handle_left": {"X": 0.5, "Y": 1.0}, "interpolation": 0, "handle_type": 0, "handle_right": {"X": 0.5, "Y": 0.0}, "co": {"X": 1.0, "Y": 123.0}}]}, "red": {"Points": [{"handle_left": {"X": 0.5, "Y": 1.0}, "interpolation": 0, "handle_type": 0, "handle_right": {"X": 0.5, "Y": 0.0}, "co": {"X": 1.0, "Y": 0.0}}]}, "alpha": {"Points": [{"handle_left": {"X": 0.5, "Y": 1.0}, "interpolation": 0, "handle_type": 0, "handle_right": {"X": 0.5, "Y": 0.0}, "co": {"X": 1.0, "Y": 255.0}}]}}, "file_id": "KMO2K20KW3", "location_y": {"Points": [{"interpolation": 2, "co": {"X": 1.0, "Y": 0.0}}]}, "anchor": 0, "gravity": 4, "volume": {"Points": [{"interpolation": 2, "co": {"X": 1.0, "Y": 1.0}}, {"handle_left": {"X": 0.5, "Y": 1.0}, "interpolation": 0, "handle_type": 0, "handle_right": {"X": 0.5, "Y": 0.0}, "co": {"X": 3483.0, "Y": 0.0}}, {"handle_left": {"X": 0.5, "Y": 1.0}, "interpolation": 0, "handle_type": 0, "handle_right": {"X": 0.5, "Y": 0.0}, "co": {"X": 3483.0, "Y": 0.0}}, {"handle_left": {"X": 0.5, "Y": 1.0}, "interpolation": 0, "handle_type": 0, "handle_right": {"X": 0.5, "Y": 0.0}, "co": {"X": 3483.0, "Y": 0.0}}]}, "perspective_c2_y": {"Points": [{"interpolation": 2, "co": {"X": 1.0, "Y": -1.0}}]}, "title": "index.html - Google Chrome 11_27_2017 4_25_11 PM.mp4", "perspective_c3_x": {"Points": [{"interpolation": 2, "co": {"X": 1.0, "Y": -1.0}}]}, "id": "QUIH57SWSC", "crop_y": {"Points": [{"interpolation": 2, "co": {"X": 1.0, "Y": 0.0}}]}, "has_video": {"Points": [{"interpolation": 2, "co": {"X": 1.0, "Y": -1.0}}]}, "perspective_c2_x": {"Points": [{"interpolation": 2, "co": {"X": 1.0, "Y": -1.0}}]}, "start": 145.07078125, "image": "C:\\Users\\Henry\\.openshot_qt\\thumbnail\\QUIH57SWSC-4352.png", "alpha": {"Points": [{"interpolation": 2, "co": {"X": 1.0, "Y": 1.0}}]}, "crop_height": {"Points": [{"interpolation": 2, "co": {"X": 1.0, "Y": -1.0}}]}, "reader": {"height": 776, "width": 1376, "video_length": "25729", "audio_bit_rate": 131760, "top_field_first": true, "display_ratio": {"den": 97, "num": 172}, "type": "FFmpegReader", "video_bit_rate": 5473610, "vcodec": "h264", "acodec": "aac", "channel_layout": 3, "duration": 857.8773193359375, "has_audio": true, "pixel_ratio": {"den": 1, "num": 1}, "file_size": "586964452", "fps": {"den": 12866759, "num": 385935000}, "path": "C:\\Users\\Henry\\Videos\\Captures\\index.html - Google Chrome 11_27_2017 4_25_11 PM.mp4", "pixel_format": 0, "audio_stream_index": 1, "video_timebase": {"den": 30000, "num": 1}, "audio_timebase": {"den": 48000, "num": 1}, "video_stream_index": 0, "interlaced_frame": false, "channels": 2, "has_single_image": false, "has_video": true, "sample_rate": 48000}, "location_x": {"Points": [{"interpolation": 2, "co": {"X": 1.0, "Y": 0.0}}]}, "perspective_c1_y": {"Points": [{"interpolation": 2, "co": {"X": 1.0, "Y": -1.0}}]}, "perspective_c1_x": {"Points": [{"interpolation": 2, "co": {"X": 1.0, "Y": -1.0}}]}}, {"crop_width": {"Points": [{"interpolation": 2, "co": {"X": 1.0, "Y": -1.0}}]}, "display": 0, "waveform": false, "channel_filter": {"Points": [{"interpolation": 2, "co": {"X": 1.0, "Y": -1.0}}]}, "effects": [], "layer": 4, "scale_y": {"Points": [{"interpolation": 2, "co": {"X": 1.0, "Y": 1.0}}]}, "perspective_c3_y": {"Points": [{"interpolation": 2, "co": {"X": 1.0, "Y": -1.0}}]}, "rotation": {"Points": [{"interpolation": 2, "co": {"X": 1.0, "Y": 0.0}}]}, "end": 18.880000000000003, "time": {"Points": [{"interpolation": 2, "co": {"X": 1.0, "Y": 1.0}}]}, "crop_x": {"Points": [{"interpolation": 2, "co": {"X": 1.0, "Y": 0.0}}]}, "shear_x": {"Points": [{"interpolation": 2, "co": {"X": 1.0, "Y": 0.0}}]}, "duration": 32.23466491699219, "scale_x": {"Points": [{"interpolation": 2, "co": {"X": 1.0, "Y": 1.0}}]}, "title": "index.html - Google Chrome 11_27_2017 5_33_03 PM.mp4", "has_audio": {"Points": [{"interpolation": 2, "co": {"X": 1.0, "Y": -1.0}}]}, "perspective_c4_y": {"Points": [{"interpolation": 2, "co": {"X": 1.0, "Y": -1.0}}]}, "channel_mapping": {"Points": [{"interpolation": 2, "co": {"X": 1.0, "Y": -1.0}}]}, "perspective_c4_x": {"Points": [{"interpolation": 2, "co": {"X": 1.0, "Y": -1.0}}]}, "position": 47.739999999999995, "scale": 1, "wave_color": {"blue": {"Points": [{"handle_left": {"X": 0.5, "Y": 1.0}, "interpolation": 0, "handle_type": 0, "handle_right": {"X": 0.5, "Y": 0.0}, "co": {"X": 1.0, "Y": 255.0}}]}, "green": {"Points": [{"handle_left": {"X": 0.5, "Y": 1.0}, "interpolation": 0, "handle_type": 0, "handle_right": {"X": 0.5, "Y": 0.0}, "co": {"X": 1.0, "Y": 123.0}}]}, "red": {"Points": [{"handle_left": {"X": 0.5, "Y": 1.0}, "interpolation": 0, "handle_type": 0, "handle_right": {"X": 0.5, "Y": 0.0}, "co": {"X": 1.0, "Y": 0.0}}]}, "alpha": {"Points": [{"handle_left": {"X": 0.5, "Y": 1.0}, "interpolation": 0, "handle_type": 0, "handle_right": {"X": 0.5, "Y": 0.0}, "co": {"X": 1.0, "Y": 255.0}}]}}, "perspective_c1_x": {"Points": [{"interpolation": 2, "co": {"X": 1.0, "Y": -1.0}}]}, "file_id": "8GACR95UFW", "location_y": {"Points": [{"interpolation": 2, "co": {"X": 1.0, "Y": 0.0}}]}, "alpha": {"Points": [{"interpolation": 2, "co": {"X": 1.0, "Y": 1.0}}]}, "start": 11.32, "volume": {"Points": [{"interpolation": 2, "co": {"X": 1.0, "Y": 1.0}}, {"handle_left": {"X": 0.5, "Y": 1.0}, "interpolation": 0, "handle_type": 0, "handle_right": {"X": 0.5, "Y": 0.0}, "co": {"X": 273.0, "Y": 0.0}}]}, "anchor": 0, "gravity": 4, "perspective_c2_y": {"Points": [{"interpolation": 2, "co": {"X": 1.0, "Y": -1.0}}]}, "id": "AQ0LTW4H45", "crop_y": {"Points": [{"interpolation": 2, "co": {"X": 1.0, "Y": 0.0}}]}, "has_video": {"Points": [{"interpolation": 2, "co": {"X": 1.0, "Y": -1.0}}]}, "perspective_c2_x": {"Points": [{"interpolation": 2, "co": {"X": 1.0, "Y": -1.0}}]}, "perspective_c1_y": {"Points": [{"interpolation": 2, "co": {"X": 1.0, "Y": -1.0}}]}, "image": "C:\\Users\\Henry\\.openshot_qt\\thumbnail\\AQ0LTW4H45-327.png", "crop_height": {"Points": [{"interpolation": 2, "co": {"X": 1.0, "Y": -1.0}}]}, "reader": {"height": 744, "width": 1376, "video_length": "931", "audio_bit_rate": 120508, "top_field_first": true, "display_ratio": {"den": 93, "num": 172}, "type": "FFmpegReader", "video_bit_rate": 4884482, "vcodec": "h264", "acodec": "aac", "channel_layout": 3, "duration": 32.23466491699219, "has_audio": true, "pixel_ratio": {"den": 1, "num": 1}, "file_size": "19737442", "fps": {"den": 4253, "num": 122500}, "path": "C:\\Users\\Henry\\Videos\\Captures\\index.html - Google Chrome 11_27_2017 5_33_03 PM.mp4", "pixel_format": 0, "audio_stream_index": 1, "video_timebase": {"den": 30000, "num": 1}, "audio_timebase": {"den": 48000, "num": 1}, "video_stream_index": 0, "interlaced_frame": false, "channels": 2, "has_single_image": false, "has_video": true, "sample_rate": 48000}, "location_x": {"Points": [{"interpolation": 2, "co": {"X": 1.0, "Y": 0.0}}]}, "shear_y": {"Points": [{"interpolation": 2, "co": {"X": 1.0, "Y": 0.0}}]}, "perspective_c3_x": {"Points": [{"interpolation": 2, "co": {"X": 1.0, "Y": -1.0}}]}}, {"crop_width": {"Points": [{"interpolation": 2, "co": {"X": 1.0, "Y": -1.0}}]}, "display": 0, "waveform": false, "channel_filter": {"Points": [{"interpolation": 2, "co": {"X": 1.0, "Y": -1.0}}]}, "effects": [], "layer": 4, "scale_y": {"Points": [{"interpolation": 2, "co": {"X": 1.0, "Y": 1.0}}]}, "shear_y": {"Points": [{"interpolation": 2, "co": {"X": 1.0, "Y": 0.0}}]}, "rotation": {"Points": [{"interpolation": 2, "co": {"X": 1.0, "Y": 0.0}}]}, "end": 4.470000000000001, "gravity": 4, "crop_height": {"Points": [{"interpolation": 2, "co": {"X": 1.0, "Y": -1.0}}]}, "crop_x": {"Points": [{"interpolation": 2, "co": {"X": 1.0, "Y": 0.0}}]}, "shear_x": {"Points": [{"interpolation": 2, "co": {"X": 1.0, "Y": 0.0}}]}, "duration": 86400.0, "scale_x": {"Points": [{"interpolation": 2, "co": {"X": 1.0, "Y": 1.0}}]}, "has_audio": {"Points": [{"interpolation": 2, "co": {"X": 1.0, "Y": -1.0}}]}, "perspective_c4_y": {"Points": [{"interpolation": 2, "co": {"X": 1.0, "Y": -1.0}}]}, "perspective_c3_y": {"Points": [{"interpolation": 2, "co": {"X": 1.0, "Y": -1.0}}]}, "channel_mapping": {"Points": [{"interpolation": 2, "co": {"X": 1.0, "Y": -1.0}}]}, "perspective_c4_x": {"Points": [{"interpolation": 2, "co": {"X": 1.0, "Y": -1.0}}]}, "position": 8.368281249999999, "scale": 1, "wave_color": {"blue": {"Points": [{"handle_left": {"X": 0.5, "Y": 1.0}, "interpolation": 0, "handle_type": 0, "handle_right": {"X": 0.5, "Y": 0.0}, "co": {"X": 1.0, "Y": 255.0}}]}, "green": {"Points": [{"handle_left": {"X": 0.5, "Y": 1.0}, "interpolation": 0, "handle_type": 0, "handle_right": {"X": 0.5, "Y": 0.0}, "co": {"X": 1.0, "Y": 123.0}}]}, "red": {"Points": [{"handle_left": {"X": 0.5, "Y": 1.0}, "interpolation": 0, "handle_type": 0, "handle_right": {"X": 0.5, "Y": 0.0}, "co": {"X": 1.0, "Y": 0.0}}]}, "alpha": {"Points": [{"handle_left": {"X": 0.5, "Y": 1.0}, "interpolation": 0, "handle_type": 0, "handle_right": {"X": 0.5, "Y": 0.0}, "co": {"X": 1.0, "Y": 255.0}}]}}, "file_id": "023CIOM5V8", "location_y": {"Points": [{"interpolation": 2, "co": {"X": 1.0, "Y": 0.0}}]}, "anchor": 0, "volume": {"Points": [{"interpolation": 2, "co": {"X": 1.0, "Y": 1.0}}]}, "perspective_c2_y": {"Points": [{"interpolation": 2, "co": {"X": 1.0, "Y": -1.0}}]}, "title": "collect_items.JPG", "time": {"Points": [{"interpolation": 2, "co": {"X": 1.0, "Y": 1.0}}]}, "id": "XWM2I1BD6C", "perspective_c3_x": {"Points": [{"interpolation": 2, "co": {"X": 1.0, "Y": -1.0}}]}, "has_video": {"Points": [{"interpolation": 2, "co": {"X": 1.0, "Y": -1.0}}]}, "perspective_c2_x": {"Points": [{"interpolation": 2, "co": {"X": 1.0, "Y": -1.0}}]}, "start": 0, "image": "C:\\Users\\Henry\\.openshot_qt\\thumbnail\\023CIOM5V8.png", "alpha": {"Points": [{"interpolation": 2, "co": {"X": 1.0, "Y": 1.0}}]}, "crop_y": {"Points": [{"interpolation": 2, "co": {"X": 1.0, "Y": 0.0}}]}, "reader": {"height": 773, "width": 1375, "video_length": "2592000", "audio_bit_rate": 0, "top_field_first": true, "display_ratio": {"den": 773, "num": 1375}, "type": "QtImageReader", "video_bit_rate": 0, "vcodec": "", "acodec": "", "channel_layout": 4, "duration": 86400.0, "has_audio": false, "pixel_ratio": {"den": 1, "num": 1}, "file_size": "4251500", "fps": {"den": 1, "num": 30}, "path": "C:\\Users\\Henry\\Documents\\Classes\\Fall 2017\\CS 329e Game Dev\\MVPgamedev\\Trailer Clips\\collect_items.JPG", "pixel_format": -1, "audio_stream_index": -1, "video_timebase": {"den": 30, "num": 1}, "audio_timebase": {"den": 1, "num": 1}, "video_stream_index": -1, "interlaced_frame": false, "channels": 0, "has_single_image": true, "has_video": true, "sample_rate": 0}, "location_x": {"Points": [{"interpolation": 2, "co": {"X": 1.0, "Y": 0.0}}]}, "perspective_c1_y": {"Points": [{"interpolation": 2, "co": {"X": 1.0, "Y": -1.0}}]}, "perspective_c1_x": {"Points": [{"interpolation": 2, "co": {"X": 1.0, "Y": -1.0}}]}}, {"crop_width": {"Points": [{"interpolation": 2, "co": {"X": 1.0, "Y": -1.0}}]}, "display": 0, "waveform": false, "channel_filter": {"Points": [{"interpolation": 2, "co": {"X": 1.0, "Y": -1.0}}]}, "effects": [], "layer": 4, "scale_y": {"Points": [{"interpolation": 2, "co": {"X": 1.0, "Y": 1.0}}]}, "shear_y": {"Points": [{"interpolation": 2, "co": {"X": 1.0, "Y": 0.0}}]}, "rotation": {"Points": [{"interpolation": 2, "co": {"X": 1.0, "Y": 0.0}}]}, "end": 5.5200000000000005, "gravity": 4, "crop_height": {"Points": [{"interpolation": 2, "co": {"X": 1.0, "Y": -1.0}}]}, "crop_x": {"Points": [{"interpolation": 2, "co": {"X": 1.0, "Y": 0.0}}]}, "shear_x": {"Points": [{"interpolation": 2, "co": {"X": 1.0, "Y": 0.0}}]}, "duration": 86400.0, "scale_x": {"Points": [{"interpolation": 2, "co": {"X": 1.0, "Y": 1.0}}]}, "has_audio": {"Points": [{"interpolation": 2, "co": {"X": 1.0, "Y": -1.0}}]}, "perspective_c4_y": {"Points": [{"interpolation": 2, "co": {"X": 1.0, "Y": -1.0}}]}, "perspective_c3_y": {"Points": [{"interpolation": 2, "co": {"X": 1.0, "Y": -1.0}}]}, "channel_mapping": {"Points": [{"interpolation": 2, "co": {"X": 1.0, "Y": -1.0}}]}, "perspective_c4_x": {"Points": [{"interpolation": 2, "co": {"X": 1.0, "Y": -1.0}}]}, "position": 19.516875, "scale": 1, "wave_color": {"blue": {"Points": [{"handle_left": {"X": 0.5, "Y": 1.0}, "interpolation": 0, "handle_type": 0, "handle_right": {"X": 0.5, "Y": 0.0}, "co": {"X": 1.0, "Y": 255.0}}]}, "green": {"Points": [{"handle_left": {"X": 0.5, "Y": 1.0}, "interpolation": 0, "handle_type": 0, "handle_right": {"X": 0.5, "Y": 0.0}, "co": {"X": 1.0, "Y": 123.0}}]}, "red": {"Points": [{"handle_left": {"X": 0.5, "Y": 1.0}, "interpolation": 0, "handle_type": 0, "handle_right": {"X": 0.5, "Y": 0.0}, "co": {"X": 1.0, "Y": 0.0}}]}, "alpha": {"Points": [{"handle_left": {"X": 0.5, "Y": 1.0}, "interpolation": 0, "handle_type": 0, "handle_right": {"X": 0.5, "Y": 0.0}, "co": {"X": 1.0, "Y": 255.0}}]}}, "file_id": "XB0WY1UP4P", "location_y": {"Points": [{"interpolation": 2, "co": {"X": 1.0, "Y": 0.0}}]}, "anchor": 0, "volume": {"Points": [{"interpolation": 2, "co": {"X": 1.0, "Y": 1.0}}]}, "perspective_c2_y": {"Points": [{"interpolation": 2, "co": {"X": 1.0, "Y": -1.0}}]}, "title": "change_colors.JPG", "time": {"Points": [{"interpolation": 2, "co": {"X": 1.0, "Y": 1.0}}]}, "id": "YSMTB5UGRE", "perspective_c3_x": {"Points": [{"interpolation": 2, "co": {"X": 1.0, "Y": -1.0}}]}, "has_video": {"Points": [{"interpolation": 2, "co": {"X": 1.0, "Y": -1.0}}]}, "perspective_c2_x": {"Points": [{"interpolation": 2, "co": {"X": 1.0, "Y": -1.0}}]}, "start": 0, "image": "C:\\Users\\Henry\\.openshot_qt\\thumbnail\\XB0WY1UP4P.png", "alpha": {"Points": [{"interpolation": 2, "co": {"X": 1.0, "Y": 1.0}}]}, "crop_y": {"Points": [{"interpolation": 2, "co": {"X": 1.0, "Y": 0.0}}]}, "reader": {"height": 775, "width": 1374, "video_length": "2592000", "audio_bit_rate": 0, "top_field_first": true, "display_ratio": {"den": 775, "num": 1374}, "type": "QtImageReader", "video_bit_rate": 0, "vcodec": "", "acodec": "", "channel_layout": 4, "duration": 86400.0, "has_audio": false, "pixel_ratio": {"den": 1, "num": 1}, "file_size": "4259400", "fps": {"den": 1, "num": 30}, "path": "C:\\Users\\Henry\\Documents\\Classes\\Fall 2017\\CS 329e Game Dev\\MVPgamedev\\Trailer Clips\\change_colors.JPG", "pixel_format": -1, "audio_stream_index": -1, "video_timebase": {"den": 30, "num": 1}, "audio_timebase": {"den": 1, "num": 1}, "video_stream_index": -1, "interlaced_frame": false, "channels": 0, "has_single_image": true, "has_video": true, "sample_rate": 0}, "location_x": {"Points": [{"interpolation": 2, "co": {"X": 1.0, "Y": 0.0}}]}, "perspective_c1_y": {"Points": [{"interpolation": 2, "co": {"X": 1.0, "Y": -1.0}}]}, "perspective_c1_x": {"Points": [{"interpolation": 2, "co": {"X": 1.0, "Y": -1.0}}]}}, {"crop_width": {"Points": [{"interpolation": 2, "co": {"X": 1.0, "Y": -1.0}}]}, "display": 0, "waveform": false, "channel_filter": {"Points": [{"interpolation": 2, "co": {"X": 1.0, "Y": -1.0}}]}, "effects": [], "layer": 4, "scale_y": {"Points": [{"interpolation": 2, "co": {"X": 1.0, "Y": 1.0}}]}, "shear_y": {"Points": [{"interpolation": 2, "co": {"X": 1.0, "Y": 0.0}}]}, "rotation": {"Points": [{"interpolation": 2, "co": {"X": 1.0, "Y": 0.0}}]}, "end": 4.96, "gravity": 4, "crop_height": {"Points": [{"interpolation": 2, "co": {"X": 1.0, "Y": -1.0}}]}, "crop_x": {"Points": [{"interpolation": 2, "co": {"X": 1.0, "Y": 0.0}}]}, "shear_x": {"Points": [{"interpolation": 2, "co": {"X": 1.0, "Y": 0.0}}]}, "duration": 86400.0, "scale_x": {"Points": [{"interpolation": 2, "co": {"X": 1.0, "Y": 1.0}}]}, "has_audio": {"Points": [{"interpolation": 2, "co": {"X": 1.0, "Y": -1.0}}]}, "perspective_c4_y": {"Points": [{"interpolation": 2, "co": {"X": 1.0, "Y": -1.0}}]}, "perspective_c3_y": {"Points": [{"interpolation": 2, "co": {"X": 1.0, "Y": -1.0}}]}, "channel_mapping": {"Points": [{"interpolation": 2, "co": {"X": 1.0, "Y": -1.0}}]}, "perspective_c4_x": {"Points": [{"interpolation": 2, "co": {"X": 1.0, "Y": -1.0}}]}, "position": 34.03421875, "scale": 1, "wave_color": {"blue": {"Points": [{"handle_left": {"X": 0.5, "Y": 1.0}, "interpolation": 0, "handle_type": 0, "handle_right": {"X": 0.5, "Y": 0.0}, "co": {"X": 1.0, "Y": 255.0}}]}, "green": {"Points": [{"handle_left": {"X": 0.5, "Y": 1.0}, "interpolation": 0, "handle_type": 0, "handle_right": {"X": 0.5, "Y": 0.0}, "co": {"X": 1.0, "Y": 123.0}}]}, "red": {"Points": [{"handle_left": {"X": 0.5, "Y": 1.0}, "interpolation": 0, "handle_type": 0, "handle_right": {"X": 0.5, "Y": 0.0}, "co": {"X": 1.0, "Y": 0.0}}]}, "alpha": {"Points": [{"handle_left": {"X": 0.5, "Y": 1.0}, "interpolation": 0, "handle_type": 0, "handle_right": {"X": 0.5, "Y": 0.0}, "co": {"X": 1.0, "Y": 255.0}}]}}, "file_id": "4ZHGHLSG3V", "location_y": {"Points": [{"interpolation": 2, "co": {"X": 1.0, "Y": 0.0}}]}, "anchor": 0, "volume": {"Points": [{"interpolation": 2, "co": {"X": 1.0, "Y": 1.0}}]}, "perspective_c2_y": {"Points": [{"interpolation": 2, "co": {"X": 1.0, "Y": -1.0}}]}, "title": "battle_bosses.JPG", "time": {"Points": [{"interpolation": 2, "co": {"X": 1.0, "Y": 1.0}}]}, "id": "YSB4RH0R7O", "perspective_c3_x": {"Points": [{"interpolation": 2, "co": {"X": 1.0, "Y": -1.0}}]}, "has_video": {"Points": [{"interpolation": 2, "co": {"X": 1.0, "Y": -1.0}}]}, "perspective_c2_x": {"Points": [{"interpolation": 2, "co": {"X": 1.0, "Y": -1.0}}]}, "start": 0, "image": "C:\\Users\\Henry\\.openshot_qt\\thumbnail\\4ZHGHLSG3V.png", "alpha": {"Points": [{"interpolation": 2, "co": {"X": 1.0, "Y": 1.0}}]}, "crop_y": {"Points": [{"interpolation": 2, "co": {"X": 1.0, "Y": 0.0}}]}, "reader": {"height": 774, "width": 1375, "video_length": "2592000", "audio_bit_rate": 0, "top_field_first": true, "display_ratio": {"den": 774, "num": 1375}, "type": "QtImageReader", "video_bit_rate": 0, "vcodec": "", "acodec": "", "channel_layout": 4, "duration": 86400.0, "has_audio": false, "pixel_ratio": {"den": 1, "num": 1}, "file_size": "4257000", "fps": {"den": 1, "num": 30}, "path": "C:\\Users\\Henry\\Documents\\Classes\\Fall 2017\\CS 329e Game Dev\\MVPgamedev\\Trailer Clips\\battle_bosses.JPG", "pixel_format": -1, "audio_stream_index": -1, "video_timebase": {"den": 30, "num": 1}, "audio_timebase": {"den": 1, "num": 1}, "video_stream_index": -1, "interlaced_frame": false, "channels": 0, "has_single_image": true, "has_video": true, "sample_rate": 0}, "location_x": {"Points": [{"interpolation": 2, "co": {"X": 1.0, "Y": 0.0}}]}, "perspective_c1_y": {"Points": [{"interpolation": 2, "co": {"X": 1.0, "Y": -1.0}}]}, "perspective_c1_x": {"Points": [{"interpolation": 2, "co": {"X": 1.0, "Y": -1.0}}]}}, {"crop_width": {"Points": [{"interpolation": 2, "co": {"X": 1.0, "Y": -1.0}}]}, "display": 0, "waveform": false, "channel_filter": {"Points": [{"interpolation": 2, "co": {"X": 1.0, "Y": -1.0}}]}, "effects": [], "layer": 3, "scale_y": {"Points": [{"interpolation": 2, "co": {"X": 1.0, "Y": 1.0}}]}, "perspective_c3_y": {"Points": [{"interpolation": 2, "co": {"X": 1.0, "Y": -1.0}}]}, "rotation": {"Points": [{"interpolation": 2, "co": {"X": 1.0, "Y": 0.0}}]}, "end": 22.75, "time": {"Points": [{"interpolation": 2, "co": {"X": 1.0, "Y": 1.0}}]}, "crop_height": {"Points": [{"interpolation": 2, "co": {"X": 1.0, "Y": -1.0}}]}, "crop_x": {"Points": [{"interpolation": 2, "co": {"X": 1.0, "Y": 0.0}}]}, "shear_x": {"Points": [{"interpolation": 2, "co": {"X": 1.0, "Y": 0.0}}]}, "duration": 77.87101745605469, "scale_x": {"Points": [{"interpolation": 2, "co": {"X": 1.0, "Y": 1.0}}]}, "title": "bossMusic.mp3", "has_audio": {"Points": [{"interpolation": 2, "co": {"X": 1.0, "Y": -1.0}}]}, "perspective_c4_y": {"Points": [{"interpolation": 2, "co": {"X": 1.0, "Y": -1.0}}]}, "channel_mapping": {"Points": [{"interpolation": 2, "co": {"X": 1.0, "Y": -1.0}}]}, "perspective_c4_x": {"Points": [{"interpolation": 2, "co": {"X": 1.0, "Y": -1.0}}]}, "position": 36.82, "scale": 1, "wave_color": {"blue": {"Points": [{"handle_left": {"X": 0.5, "Y": 1.0}, "interpolation": 0, "handle_type": 0, "handle_right": {"X": 0.5, "Y": 0.0}, "co": {"X": 1.0, "Y": 255.0}}]}, "green": {"Points": [{"handle_left": {"X": 0.5, "Y": 1.0}, "interpolation": 0, "handle_type": 0, "handle_right": {"X": 0.5, "Y": 0.0}, "co": {"X": 1.0, "Y": 123.0}}]}, "red": {"Points": [{"handle_left": {"X": 0.5, "Y": 1.0}, "interpolation": 0, "handle_type": 0, "handle_right": {"X": 0.5, "Y": 0.0}, "co": {"X": 1.0, "Y": 0.0}}]}, "alpha": {"Points": [{"handle_left": {"X": 0.5, "Y": 1.0}, "interpolation": 0, "handle_type": 0, "handle_right": {"X": 0.5, "Y": 0.0}, "co": {"X": 1.0, "Y": 255.0}}]}}, "perspective_c1_x": {"Points": [{"interpolation": 2, "co": {"X": 1.0, "Y": -1.0}}]}, "file_id": "U6H5YEYQC1", "location_y": {"Points": [{"interpolation": 2, "co": {"X": 1.0, "Y": 0.0}}]}, "anchor": 0, "start": 0, "volume": {"Points": [{"interpolation": 2, "co": {"X": 1.0, "Y": 1.0}}, {"handle_left": {"X": 0.5, "Y": 1.0}, "interpolation": 0, "handle_type": 0, "handle_right": {"X": 0.5, "Y": 0.0}, "co": {"X": 1.0, "Y": 0.0}}, {"handle_left": {"X": 0.5, "Y": 1.0}, "interpolation": 0, "handle_type": 0, "handle_right": {"X": 0.5, "Y": 0.0}, "co": {"X": 73.0, "Y": 1.0}}, {"handle_left": {"X": 0.5, "Y": 1.0}, "interpolation": 0, "handle_type": 0, "handle_right": {"X": 0.5, "Y": 0.0}, "co": {"X": 1798.0, "Y": 1.0}}, {"handle_left": {"X": 0.5, "Y": 1.0}, "interpolation": 0, "handle_type": 0, "handle_right": {"X": 0.5, "Y": 0.0}, "co": {"X": 1870.0, "Y": 0.0}}, {"handle_left": {"X": 0.5, "Y": 1.0}, "interpolation": 0, "handle_type": 0, "handle_right": {"X": 0.5, "Y": 0.0}, "co": {"X": 1.0, "Y": 0.0}}, {"handle_left": {"X": 0.5, "Y": 1.0}, "interpolation": 0, "handle_type": 0, "handle_right": {"X": 0.5, "Y": 0.0}, "co": {"X": 73.0, "Y": 1.0}}, {"handle_left": {"X": 0.5, "Y": 1.0}, "interpolation": 0, "handle_type": 0, "handle_right": {"X": 0.5, "Y": 0.0}, "co": {"X": 475.0, "Y": 1.0}}, {"handle_left": {"X": 0.5, "Y": 1.0}, "interpolation": 0, "handle_type": 0, "handle_right": {"X": 0.5, "Y": 0.0}, "co": {"X": 547.0, "Y": 0.0}}]}, "perspective_c2_y": {"Points": [{"interpolation": 2, "co": {"X": 1.0, "Y": -1.0}}]}, "gravity": 4, "id": "BW2FX9SZ9D", "has_video": {"Points": [{"interpolation": 2, "co": {"X": 1.0, "Y": -1.0}}]}, "perspective_c2_x": {"Points": [{"interpolation": 2, "co": {"X": 1.0, "Y": -1.0}}]}, "perspective_c1_y": {"Points": [{"interpolation": 2, "co": {"X": 1.0, "Y": -1.0}}]}, "image": "C:\\Program Files\\OpenShot Video Editor\\images\\AudioThumbnail.png", "alpha": {"Points": [{"interpolation": 2, "co": {"X": 1.0, "Y": 1.0}}]}, "crop_y": {"Points": [{"interpolation": 2, "co": {"X": 1.0, "Y": 0.0}}]}, "reader": {"height": 480, "width": 720, "video_length": "1868", "audio_bit_rate": 128000, "top_field_first": true, "display_ratio": {"den": 1, "num": 1}, "type": "FFmpegReader", "video_bit_rate": 0, "vcodec": "", "acodec": "mp3", "channel_layout": 3, "duration": 77.87101745605469, "has_audio": true, "pixel_ratio": {"den": 1, "num": 1}, "file_size": "1246189", "fps": {"den": 1, "num": 24}, "path": "C:\\Users\\Henry\\Documents\\Classes\\Fall 2017\\CS 329e Game Dev\\MVPgamedev\\Game\\assets\\sounds\\bossMusic.mp3", "pixel_format": -1, "audio_stream_index": 0, "video_timebase": {"den": 24, "num": 1}, "audio_timebase": {"den": 14112000, "num": 1}, "video_stream_index": -1, "interlaced_frame": false, "channels": 2, "has_single_image": false, "has_video": false, "sample_rate": 44100}, "location_x": {"Points": [{"interpolation": 2, "co": {"X": 1.0, "Y": 0.0}}]}, "shear_y": {"Points": [{"interpolation": 2, "co": {"X": 1.0, "Y": 0.0}}]}, "perspective_c3_x": {"Points": [{"interpolation": 2, "co": {"X": 1.0, "Y": -1.0}}]}}, {"crop_width": {"Points": [{"interpolation": 2, "co": {"X": 1.0, "Y": -1.0}}]}, "display": 0, "waveform": false, "channel_filter": {"Points": [{"interpolation": 2, "co": {"X": 1.0, "Y": -1.0}}]}, "effects": [], "layer": 4, "scale_y": {"Points": [{"interpolation": 2, "co": {"X": 1.0, "Y": 1.0}}]}, "shear_y": {"Points": [{"interpolation": 2, "co": {"X": 1.0, "Y": 0.0}}]}, "rotation": {"Points": [{"interpolation": 2, "co": {"X": 1.0, "Y": 0.0}}]}, "end": 4.470000000000001, "time": {"Points": [{"interpolation": 2, "co": {"X": 1.0, "Y": 1.0}}]}, "crop_height": {"Points": [{"interpolation": 2, "co": {"X": 1.0, "Y": -1.0}}]}, "crop_x": {"Points": [{"interpolation": 2, "co": {"X": 1.0, "Y": 0.0}}]}, "shear_x": {"Points": [{"interpolation": 2, "co": {"X": 1.0, "Y": 0.0}}]}, "duration": 86400.0, "scale_x": {"Points": [{"interpolation": 2, "co": {"X": 1.0, "Y": 1.0}}]}, "title": "gammaprogram_logo.JPG", "has_audio": {"Points": [{"interpolation": 2, "co": {"X": 1.0, "Y": -1.0}}]}, "perspective_c4_y": {"Points": [{"interpolation": 2, "co": {"X": 1.0, "Y": -1.0}}]}, "perspective_c3_y": {"Points": [{"interpolation": 2, "co": {"X": 1.0, "Y": -1.0}}]}, "channel_mapping": {"Points": [{"interpolation": 2, "co": {"X": 1.0, "Y": -1.0}}]}, "perspective_c4_x": {"Points": [{"interpolation": 2, "co": {"X": 1.0, "Y": -1.0}}]}, "position": 0, "scale": 1, "wave_color": {"blue": {"Points": [{"handle_left": {"X": 0.5, "Y": 1.0}, "interpolation": 0, "handle_type": 0, "handle_right": {"X": 0.5, "Y": 0.0}, "co": {"X": 1.0, "Y": 255.0}}]}, "green": {"Points": [{"handle_left": {"X": 0.5, "Y": 1.0}, "interpolation": 0, "handle_type": 0, "handle_right": {"X": 0.5, "Y": 0.0}, "co": {"X": 1.0, "Y": 123.0}}]}, "red": {"Points": [{"handle_left": {"X": 0.5, "Y": 1.0}, "interpolation": 0, "handle_type": 0, "handle_right": {"X": 0.5, "Y": 0.0}, "co": {"X": 1.0, "Y": 0.0}}]}, "alpha": {"Points": [{"handle_left": {"X": 0.5, "Y": 1.0}, "interpolation": 0, "handle_type": 0, "handle_right": {"X": 0.5, "Y": 0.0}, "co": {"X": 1.0, "Y": 255.0}}]}}, "perspective_c1_x": {"Points": [{"interpolation": 2, "co": {"X": 1.0, "Y": -1.0}}]}, "file_id": "LGNIWH4F8R", "location_y": {"Points": [{"interpolation": 2, "co": {"X": 1.0, "Y": 0.0}}]}, "alpha": {"Points": [{"interpolation": 2, "co": {"X": 1.0, "Y": 1.0}}]}, "start": 0, "volume": {"Points": [{"interpolation": 2, "co": {"X": 1.0, "Y": 1.0}}]}, "anchor": 0, "gravity": 4, "perspective_c2_y": {"Points": [{"interpolation": 2, "co": {"X": 1.0, "Y": -1.0}}]}, "id": "APFYA4VY39", "perspective_c2_x": {"Points": [{"interpolation": 2, "co": {"X": 1.0, "Y": -1.0}}]}, "perspective_c1_y": {"Points": [{"interpolation": 2, "co": {"X": 1.0, "Y": -1.0}}]}, "image": "C:\\Users\\Henry\\.openshot_qt\\thumbnail\\LGNIWH4F8R.png", "crop_y": {"Points": [{"interpolation": 2, "co": {"X": 1.0, "Y": 0.0}}]}, "reader": {"height": 747, "width": 1324, "video_length": "2592000", "audio_bit_rate": 0, "top_field_first": true, "display_ratio": {"den": 747, "num": 1324}, "type": "QtImageReader", "video_bit_rate": 0, "channel_layout": 4, "acodec": "", "vcodec": "", "duration": 86400.0, "has_audio": false, "pixel_ratio": {"den": 1, "num": 1}, "file_size": "3956112", "fps": {"den": 1, "num": 30}, "path": "C:\\Users\\Henry\\Documents\\Classes\\Fall 2017\\CS 329e Game Dev\\MVPgamedev\\Trailer Clips\\gammaprogram_logo.JPG", "pixel_format": -1, "audio_stream_index": -1, "video_timebase": {"den": 30, "num": 1}, "audio_timebase": {"den": 1, "num": 1}, "video_stream_index": -1, "interlaced_frame": false, "channels": 0, "has_single_image": true, "has_video": true, "sample_rate": 0}, "location_x": {"Points": [{"interpolation": 2, "co": {"X": 1.0, "Y": 0.0}}]}, "has_video": {"Points": [{"interpolation": 2, "co": {"X": 1.0, "Y": -1.0}}]}, "perspective_c3_x": {"Points": [{"interpolation": 2, "co": {"X": 1.0, "Y": -1.0}}]}}, {"crop_width": {"Points": [{"interpolation": 2, "co": {"X": 1.0, "Y": -1.0}}]}, "display": 0, "waveform": false, "channel_filter": {"Points": [{"interpolation": 2, "co": {"X": 1.0, "Y": -1.0}}]}, "effects": [], "layer": 4, "scale_y": {"Points": [{"interpolation": 2, "co": {"X": 1.0, "Y": 1.0}}]}, "shear_y": {"Points": [{"interpolation": 2, "co": {"X": 1.0, "Y": 0.0}}]}, "rotation": {"Points": [{"interpolation": 2, "co": {"X": 1.0, "Y": 0.0}}]}, "end": 2.720000000000001, "time": {"Points": [{"interpolation": 2, "co": {"X": 1.0, "Y": 1.0}}]}, "crop_height": {"Points": [{"interpolation": 2, "co": {"X": 1.0, "Y": -1.0}}]}, "crop_x": {"Points": [{"interpolation": 2, "co": {"X": 1.0, "Y": 0.0}}]}, "shear_x": {"Points": [{"interpolation": 2, "co": {"X": 1.0, "Y": 0.0}}]}, "duration": 86400.0, "scale_x": {"Points": [{"interpolation": 2, "co": {"X": 1.0, "Y": 1.0}}]}, "title": "title_blue.JPG", "has_audio": {"Points": [{"interpolation": 2, "co": {"X": 1.0, "Y": -1.0}}]}, "perspective_c4_y": {"Points": [{"interpolation": 2, "co": {"X": 1.0, "Y": -1.0}}]}, "perspective_c3_y": {"Points": [{"interpolation": 2, "co": {"X": 1.0, "Y": -1.0}}]}, "channel_mapping": {"Points": [{"interpolation": 2, "co": {"X": 1.0, "Y": -1.0}}]}, "perspective_c4_x": {"Points": [{"interpolation": 2, "co": {"X": 1.0, "Y": -1.0}}]}, "position": 56.059062499999996, "scale": 1, "wave_color": {"blue": {"Points": [{"handle_left": {"X": 0.5, "Y": 1.0}, "interpolation": 0, "handle_type": 0, "handle_right": {"X": 0.5, "Y": 0.0}, "co": {"X": 1.0, "Y": 255.0}}]}, "green": {"Points": [{"handle_left": {"X": 0.5, "Y": 1.0}, "interpolation": 0, "handle_type": 0, "handle_right": {"X": 0.5, "Y": 0.0}, "co": {"X": 1.0, "Y": 123.0}}]}, "red": {"Points": [{"handle_left": {"X": 0.5, "Y": 1.0}, "interpolation": 0, "handle_type": 0, "handle_right": {"X": 0.5, "Y": 0.0}, "co": {"X": 1.0, "Y": 0.0}}]}, "alpha": {"Points": [{"handle_left": {"X": 0.5, "Y": 1.0}, "interpolation": 0, "handle_type": 0, "handle_right": {"X": 0.5, "Y": 0.0}, "co": {"X": 1.0, "Y": 255.0}}]}}, "perspective_c1_x": {"Points": [{"interpolation": 2, "co": {"X": 1.0, "Y": -1.0}}]}, "file_id": "78F44BZZJZ", "location_y": {"Points": [{"interpolation": 2, "co": {"X": 1.0, "Y": 0.0}}]}, "alpha": {"Points": [{"interpolation": 2, "co": {"X": 1.0, "Y": 1.0}}]}, "start": 0, "volume": {"Points": [{"interpolation": 2, "co": {"X": 1.0, "Y": 1.0}}]}, "anchor": 0, "gravity": 4, "perspective_c2_y": {"Points": [{"interpolation": 2, "co": {"X": 1.0, "Y": -1.0}}]}, "id": "9BTV42VL9R", "perspective_c2_x": {"Points": [{"interpolation": 2, "co": {"X": 1.0, "Y": -1.0}}]}, "perspective_c1_y": {"Points": [{"interpolation": 2, "co": {"X": 1.0, "Y": -1.0}}]}, "image": "C:\\Users\\Henry\\.openshot_qt\\thumbnail\\78F44BZZJZ.png", "crop_y": {"Points": [{"interpolation": 2, "co": {"X": 1.0, "Y": 0.0}}]}, "reader": {"height": 743, "width": 1322, "video_length": "2592000", "audio_bit_rate": 0, "top_field_first": true, "display_ratio": {"den": 743, "num": 1322}, "type": "QtImageReader", "video_bit_rate": 0, "channel_layout": 4, "acodec": "", "vcodec": "", "duration": 86400.0, "has_audio": false, "pixel_ratio": {"den": 1, "num": 1}, "file_size": "3928984", "fps": {"den": 1, "num": 30}, "path": "C:\\Users\\Henry\\Documents\\Classes\\Fall 2017\\CS 329e Game Dev\\MVPgamedev\\Trailer Clips\\title_blue.JPG", "pixel_format": -1, "audio_stream_index": -1, "video_timebase": {"den": 30, "num": 1}, "audio_timebase": {"den": 1, "num": 1}, "video_stream_index": -1, "interlaced_frame": false, "channels": 0, "has_single_image": true, "has_video": true, "sample_rate": 0}, "location_x": {"Points": [{"interpolation": 2, "co": {"X": 1.0, "Y": 0.0}}]}, "has_video": {"Points": [{"interpolation": 2, "co": {"X": 1.0, "Y": -1.0}}]}, "perspective_c3_x": {"Points": [{"interpolation": 2, "co": {"X": 1.0, "Y": -1.0}}]}}, {"crop_width": {"Points": [{"interpolation": 2, "co": {"X": 1.0, "Y": -1.0}}]}, "display": 0, "waveform": false, "channel_filter": {"Points": [{"interpolation": 2, "co": {"X": 1.0, "Y": -1.0}}]}, "effects": [], "layer": 4, "scale_y": {"Points": [{"interpolation": 2, "co": {"X": 1.0, "Y": 1.0}}]}, "shear_y": {"Points": [{"interpolation": 2, "co": {"X": 1.0, "Y": 0.0}}]}, "rotation": {"Points": [{"interpolation": 2, "co": {"X": 1.0, "Y": 0.0}}]}, "end": 3.420000000000001, "time": {"Points": [{"interpolation": 2, "co": {"X": 1.0, "Y": 1.0}}]}, "crop_height": {"Points": [{"interpolation": 2, "co": {"X": 1.0, "Y": -1.0}}]}, "crop_x": {"Points": [{"interpolation": 2, "co": {"X": 1.0, "Y": 0.0}}]}, "shear_x": {"Points": [{"interpolation": 2, "co": {"X": 1.0, "Y": 0.0}}]}, "duration": 86400.0, "scale_x": {"Points": [{"interpolation": 2, "co": {"X": 1.0, "Y": 1.0}}]}, "title": "title_green.JPG", "has_audio": {"Points": [{"interpolation": 2, "co": {"X": 1.0, "Y": -1.0}}]}, "perspective_c4_y": {"Points": [{"interpolation": 2, "co": {"X": 1.0, "Y": -1.0}}]}, "perspective_c3_y": {"Points": [{"interpolation": 2, "co": {"X": 1.0, "Y": -1.0}}]}, "channel_mapping": {"Points": [{"interpolation": 2, "co": {"X": 1.0, "Y": -1.0}}]}, "perspective_c4_x": {"Points": [{"interpolation": 2, "co": {"X": 1.0, "Y": -1.0}}]}, "position": 54.04, "scale": 1, "wave_color": {"blue": {"Points": [{"handle_left": {"X": 0.5, "Y": 1.0}, "interpolation": 0, "handle_type": 0, "handle_right": {"X": 0.5, "Y": 0.0}, "co": {"X": 1.0, "Y": 255.0}}]}, "green": {"Points": [{"handle_left": {"X": 0.5, "Y": 1.0}, "interpolation": 0, "handle_type": 0, "handle_right": {"X": 0.5, "Y": 0.0}, "co": {"X": 1.0, "Y": 123.0}}]}, "red": {"Points": [{"handle_left": {"X": 0.5, "Y": 1.0}, "interpolation": 0, "handle_type": 0, "handle_right": {"X": 0.5, "Y": 0.0}, "co": {"X": 1.0, "Y": 0.0}}]}, "alpha": {"Points": [{"handle_left": {"X": 0.5, "Y": 1.0}, "interpolation": 0, "handle_type": 0, "handle_right": {"X": 0.5, "Y": 0.0}, "co": {"X": 1.0, "Y": 255.0}}]}}, "perspective_c1_x": {"Points": [{"interpolation": 2, "co": {"X": 1.0, "Y": -1.0}}]}, "file_id": "71YSREPZ2E", "location_y": {"Points": [{"interpolation": 2, "co": {"X": 1.0, "Y": 0.0}}]}, "alpha": {"Points": [{"interpolation": 2, "co": {"X": 1.0, "Y": 1.0}}]}, "start": 0, "volume": {"Points": [{"interpolation": 2, "co": {"X": 1.0, "Y": 1.0}}]}, "anchor": 0, "gravity": 4, "perspective_c2_y": {"Points": [{"interpolation": 2, "co": {"X": 1.0, "Y": -1.0}}]}, "id": "2DAGRDPHXD", "perspective_c2_x": {"Points": [{"interpolation": 2, "co": {"X": 1.0, "Y": -1.0}}]}, "perspective_c1_y": {"Points": [{"interpolation": 2, "co": {"X": 1.0, "Y": -1.0}}]}, "image": "C:\\Users\\Henry\\.openshot_qt\\thumbnail\\71YSREPZ2E.png", "crop_y": {"Points": [{"interpolation": 2, "co": {"X": 1.0, "Y": 0.0}}]}, "reader": {"height": 744, "width": 1321, "video_length": "2592000", "audio_bit_rate": 0, "top_field_first": true, "display_ratio": {"den": 744, "num": 1321}, "type": "QtImageReader", "video_bit_rate": 0, "channel_layout": 4, "acodec": "", "vcodec": "", "duration": 86400.0, "has_audio": false, "pixel_ratio": {"den": 1, "num": 1}, "file_size": "3931296", "fps": {"den": 1, "num": 30}, "path": "C:\\Users\\Henry\\Documents\\Classes\\Fall 2017\\CS 329e Game Dev\\MVPgamedev\\Trailer Clips\\title_green.JPG", "pixel_format": -1, "audio_stream_index": -1, "video_timebase": {"den": 30, "num": 1}, "audio_timebase": {"den": 1, "num": 1}, "video_stream_index": -1, "interlaced_frame": false, "channels": 0, "has_single_image": true, "has_video": true, "sample_rate": 0}, "location_x": {"Points": [{"interpolation": 2, "co": {"X": 1.0, "Y": 0.0}}]}, "has_video": {"Points": [{"interpolation": 2, "co": {"X": 1.0, "Y": -1.0}}]}, "perspective_c3_x": {"Points": [{"interpolation": 2, "co": {"X": 1.0, "Y": -1.0}}]}}, {"crop_width": {"Points": [{"interpolation": 2, "co": {"X": 1.0, "Y": -1.0}}]}, "display": 0, "waveform": false, "channel_filter": {"Points": [{"interpolation": 2, "co": {"X": 1.0, "Y": -1.0}}]}, "effects": [], "layer": 4, "scale_y": {"Points": [{"interpolation": 2, "co": {"X": 1.0, "Y": 1.0}}]}, "shear_y": {"Points": [{"interpolation": 2, "co": {"X": 1.0, "Y": 0.0}}]}, "rotation": {"Points": [{"interpolation": 2, "co": {"X": 1.0, "Y": 0.0}}]}, "end": 7.829999999999999, "time": {"Points": [{"interpolation": 2, "co": {"X": 1.0, "Y": 1.0}}]}, "crop_height": {"Points": [{"interpolation": 2, "co": {"X": 1.0, "Y": -1.0}}]}, "crop_x": {"Points": [{"interpolation": 2, "co": {"X": 1.0, "Y": 0.0}}]}, "shear_x": {"Points": [{"interpolation": 2, "co": {"X": 1.0, "Y": 0.0}}]}, "duration": 86400.0, "scale_x": {"Points": [{"interpolation": 2, "co": {"X": 1.0, "Y": 1.0}}]}, "title": "title_orange.JPG", "has_audio": {"Points": [{"interpolation": 2, "co": {"X": 1.0, "Y": -1.0}}]}, "perspective_c4_y": {"Points": [{"interpolation": 2, "co": {"X": 1.0, "Y": -1.0}}]}, "perspective_c3_y": {"Points": [{"interpolation": 2, "co": {"X": 1.0, "Y": -1.0}}]}, "channel_mapping": {"Points": [{"interpolation": 2, "co": {"X": 1.0, "Y": -1.0}}]}, "perspective_c4_x": {"Points": [{"interpolation": 2, "co": {"X": 1.0, "Y": -1.0}}]}, "position": 57.459062499999995, "scale": 1, "wave_color": {"blue": {"Points": [{"handle_left": {"X": 0.5, "Y": 1.0}, "interpolation": 0, "handle_type": 0, "handle_right": {"X": 0.5, "Y": 0.0}, "co": {"X": 1.0, "Y": 255.0}}]}, "green": {"Points": [{"handle_left": {"X": 0.5, "Y": 1.0}, "interpolation": 0, "handle_type": 0, "handle_right": {"X": 0.5, "Y": 0.0}, "co": {"X": 1.0, "Y": 123.0}}]}, "red": {"Points": [{"handle_left": {"X": 0.5, "Y": 1.0}, "interpolation": 0, "handle_type": 0, "handle_right": {"X": 0.5, "Y": 0.0}, "co": {"X": 1.0, "Y": 0.0}}]}, "alpha": {"Points": [{"handle_left": {"X": 0.5, "Y": 1.0}, "interpolation": 0, "handle_type": 0, "handle_right": {"X": 0.5, "Y": 0.0}, "co": {"X": 1.0, "Y": 255.0}}]}}, "perspective_c1_x": {"Points": [{"interpolation": 2, "co": {"X": 1.0, "Y": -1.0}}]}, "file_id": "79XQ1JXZOE", "location_y": {"Points": [{"interpolation": 2, "co": {"X": 1.0, "Y": 0.0}}]}, "alpha": {"Points": [{"interpolation": 2, "co": {"X": 1.0, "Y": 1.0}}]}, "start": 5.6, "volume": {"Points": [{"interpolation": 2, "co": {"X": 1.0, "Y": 1.0}}]}, "anchor": 0, "gravity": 4, "perspective_c2_y": {"Points": [{"interpolation": 2, "co": {"X": 1.0, "Y": -1.0}}]}, "id": "R7CLXXFX61", "perspective_c2_x": {"Points": [{"interpolation": 2, "co": {"X": 1.0, "Y": -1.0}}]}, "perspective_c1_y": {"Points": [{"interpolation": 2, "co": {"X": 1.0, "Y": -1.0}}]}, "image": "C:\\Users\\Henry\\.openshot_qt\\thumbnail\\79XQ1JXZOE.png", "crop_y": {"Points": [{"interpolation": 2, "co": {"X": 1.0, "Y": 0.0}}]}, "reader": {"height": 745, "width": 1323, "video_length": "2592000", "audio_bit_rate": 0, "top_field_first": true, "display_ratio": {"den": 745, "num": 1323}, "type": "QtImageReader", "video_bit_rate": 0, "channel_layout": 4, "acodec": "", "vcodec": "", "duration": 86400.0, "has_audio": false, "pixel_ratio": {"den": 1, "num": 1}, "file_size": "3942540", "fps": {"den": 1, "num": 30}, "path": "C:\\Users\\Henry\\Documents\\Classes\\Fall 2017\\CS 329e Game Dev\\MVPgamedev\\Trailer Clips\\title_orange.JPG", "pixel_format": -1, "audio_stream_index": -1, "video_timebase": {"den": 30, "num": 1}, "audio_timebase": {"den": 1, "num": 1}, "video_stream_index": -1, "interlaced_frame": false, "channels": 0, "has_single_image": true, "has_video": true, "sample_rate": 0}, "location_x": {"Points": [{"interpolation": 2, "co": {"X": 1.0, "Y": 0.0}}]}, "has_video": {"Points": [{"interpolation": 2, "co": {"X": 1.0, "Y": -1.0}}]}, "perspective_c3_x": {"Points": [{"interpolation": 2, "co": {"X": 1.0, "Y": -1.0}}]}}, {"crop_width": {"Points": [{"interpolation": 2, "co": {"X": 1.0, "Y": -1.0}}]}, "display": 0, "waveform": false, "channel_filter": {"Points": [{"interpolation": 2, "co": {"X": 1.0, "Y": -1.0}}]}, "effects": [], "layer": 3, "scale_y": {"Points": [{"interpolation": 2, "co": {"X": 1.0, "Y": 1.0}}]}, "shear_y": {"Points": [{"interpolation": 2, "co": {"X": 1.0, "Y": 0.0}}]}, "rotation": {"Points": [{"interpolation": 2, "co": {"X": 1.0, "Y": 0.0}}]}, "end": 16.380000000000003, "time": {"Points": [{"interpolation": 1, "co": {"X": 1.0, "Y": 1.0}}, {"interpolation": 1, "co": {"X": 2280.0, "Y": 4559.0}}]}, "crop_height": {"Points": [{"interpolation": 2, "co": {"X": 1.0, "Y": -1.0}}]}, "crop_x": {"Points": [{"interpolation": 2, "co": {"X": 1.0, "Y": 0.0}}]}, "shear_x": {"Points": [{"interpolation": 2, "co": {"X": 1.0, "Y": 0.0}}]}, "duration": 94.0, "scale_x": {"Points": [{"interpolation": 2, "co": {"X": 1.0, "Y": 1.0}}]}, "title": "cute.mp3", "has_audio": {"Points": [{"interpolation": 2, "co": {"X": 1.0, "Y": -1.0}}]}, "perspective_c4_y": {"Points": [{"interpolation": 2, "co": {"X": 1.0, "Y": -1.0}}]}, "perspective_c3_y": {"Points": [{"interpolation": 2, "co": {"X": 1.0, "Y": -1.0}}]}, "channel_mapping": {"Points": [{"interpolation": 2, "co": {"X": 1.0, "Y": -1.0}}]}, "perspective_c4_x": {"Points": [{"interpolation": 2, "co": {"X": 1.0, "Y": -1.0}}]}, "position": 59.57, "scale": 1, "wave_color": {"blue": {"Points": [{"handle_left": {"X": 0.5, "Y": 1.0}, "interpolation": 0, "handle_type": 0, "handle_right": {"X": 0.5, "Y": 0.0}, "co": {"X": 1.0, "Y": 255.0}}]}, "green": {"Points": [{"handle_left": {"X": 0.5, "Y": 1.0}, "interpolation": 0, "handle_type": 0, "handle_right": {"X": 0.5, "Y": 0.0}, "co": {"X": 1.0, "Y": 123.0}}]}, "red": {"Points": [{"handle_left": {"X": 0.5, "Y": 1.0}, "interpolation": 0, "handle_type": 0, "handle_right": {"X": 0.5, "Y": 0.0}, "co": {"X": 1.0, "Y": 0.0}}]}, "alpha": {"Points": [{"handle_left": {"X": 0.5, "Y": 1.0}, "interpolation": 0, "handle_type": 0, "handle_right": {"X": 0.5, "Y": 0.0}, "co": {"X": 1.0, "Y": 255.0}}]}}, "perspective_c1_x": {"Points": [{"interpolation": 2, "co": {"X": 1.0, "Y": -1.0}}]}, "file_id": "6DFW25DRJZ", "location_y": {"Points": [{"interpolation": 2, "co": {"X": 1.0, "Y": 0.0}}]}, "alpha": {"Points": [{"interpolation": 2, "co": {"X": 1.0, "Y": 1.0}}]}, "start": 0, "volume": {"Points": [{"interpolation": 2, "co": {"X": 1.0, "Y": 1.0}}]}, "anchor": 0, "gravity": 4, "perspective_c2_y": {"Points": [{"interpolation": 2, "co": {"X": 1.0, "Y": -1.0}}]}, "id": "JBG87H3OER", "perspective_c2_x": {"Points": [{"interpolation": 2, "co": {"X": 1.0, "Y": -1.0}}]}, "perspective_c1_y": {"Points": [{"interpolation": 2, "co": {"X": 1.0, "Y": -1.0}}]}, "image": "C:\\Program Files\\OpenShot Video Editor\\images\\AudioThumbnail.png", "crop_y": {"Points": [{"interpolation": 2, "co": {"X": 1.0, "Y": 0.0}}]}, "reader": {"height": 480, "width": 720, "video_length": "4559", "audio_bit_rate": 112000, "top_field_first": true, "display_ratio": {"den": 1, "num": 1}, "type": "FFmpegReader", "video_bit_rate": 0, "channel_layout": 3, "acodec": "mp3", "vcodec": "", "duration": 189.9627075195312, "has_audio": true, "pixel_ratio": {"den": 1, "num": 1}, "file_size": "2659839", "fps": {"den": 1, "num": 24}, "path": "C:\\Users\\Henry\\Documents\\Classes\\Fall 2017\\CS 329e Game Dev\\MVPgamedev\\Game\\assets\\sounds\\cute.mp3", "pixel_format": -1, "audio_stream_index": 0, "video_timebase": {"den": 24, "num": 1}, "audio_timebase": {"den": 14112000, "num": 1}, "video_stream_index": -1, "interlaced_frame": false, "channels": 2, "has_single_image": false, "has_video": false, "sample_rate": 44100}, "location_x": {"Points": [{"interpolation": 2, "co": {"X": 1.0, "Y": 0.0}}]}, "has_video": {"Points": [{"interpolation": 2, "co": {"X": 1.0, "Y": -1.0}}]}, "perspective_c3_x": {"Points": [{"interpolation": 2, "co": {"X": 1.0, "Y": -1.0}}]}}, {"crop_width": {"Points": [{"interpolation": 2, "co": {"X": 1.0, "Y": -1.0}}]}, "display": 0, "waveform": false, "channel_filter": {"Points": [{"interpolation": 2, "co": {"X": 1.0, "Y": -1.0}}]}, "effects": [], "layer": 3, "scale_y": {"Points": [{"interpolation": 2, "co": {"X": 1.0, "Y": 1.0}}]}, "perspective_c3_y": {"Points": [{"interpolation": 2, "co": {"X": 1.0, "Y": -1.0}}]}, "rotation": {"Points": [{"interpolation": 2, "co": {"X": 1.0, "Y": 0.0}}]}, "end": 95, "time": {"Points": [{"interpolation": 1, "co": {"X": 1.0, "Y": 1.0}}, {"interpolation": 1, "co": {"X": 2280.0, "Y": 4559.0}}]}, "crop_x": {"Points": [{"interpolation": 2, "co": {"X": 1.0, "Y": 0.0}}]}, "shear_x": {"Points": [{"interpolation": 2, "co": {"X": 1.0, "Y": 0.0}}]}, "duration": 94.0, "scale_x": {"Points": [{"interpolation": 2, "co": {"X": 1.0, "Y": 1.0}}]}, "title": "cute.mp3", "has_audio": {"Points": [{"interpolation": 2, "co": {"X": 1.0, "Y": -1.0}}]}, "perspective_c4_y": {"Points": [{"interpolation": 2, "co": {"X": 1.0, "Y": -1.0}}]}, "channel_mapping": {"Points": [{"interpolation": 2, "co": {"X": 1.0, "Y": -1.0}}]}, "perspective_c4_x": {"Points": [{"interpolation": 2, "co": {"X": 1.0, "Y": -1.0}}]}, "position": 75.95, "scale": 1, "wave_color": {"blue": {"Points": [{"handle_left": {"X": 0.5, "Y": 1.0}, "interpolation": 0, "handle_type": 0, "handle_right": {"X": 0.5, "Y": 0.0}, "co": {"X": 1.0, "Y": 255.0}}]}, "green": {"Points": [{"handle_left": {"X": 0.5, "Y": 1.0}, "interpolation": 0, "handle_type": 0, "handle_right": {"X": 0.5, "Y": 0.0}, "co": {"X": 1.0, "Y": 123.0}}]}, "red": {"Points": [{"handle_left": {"X": 0.5, "Y": 1.0}, "interpolation": 0, "handle_type": 0, "handle_right": {"X": 0.5, "Y": 0.0}, "co": {"X": 1.0, "Y": 0.0}}]}, "alpha": {"Points": [{"handle_left": {"X": 0.5, "Y": 1.0}, "interpolation": 0, "handle_type": 0, "handle_right": {"X": 0.5, "Y": 0.0}, "co": {"X": 1.0, "Y": 255.0}}]}}, "perspective_c1_x": {"Points": [{"interpolation": 2, "co": {"X": 1.0, "Y": -1.0}}]}, "file_id": "6DFW25DRJZ", "location_y": {"Points": [{"interpolation": 2, "co": {"X": 1.0, "Y": 0.0}}]}, "anchor": 0, "start": 16.380000000000003, "volume": {"Points": [{"interpolation": 2, "co": {"X": 1.0, "Y": 1.0}}]}, "perspective_c2_y": {"Points": [{"interpolation": 2, "co": {"X": 1.0, "Y": -1.0}}]}, "gravity": 4, "id": "P9UCYI6O28", "crop_y": {"Points": [{"interpolation": 2, "co": {"X": 1.0, "Y": 0.0}}]}, "has_video": {"Points": [{"interpolation": 2, "co": {"X": 1.0, "Y": -1.0}}]}, "perspective_c2_x": {"Points": [{"interpolation": 2, "co": {"X": 1.0, "Y": -1.0}}]}, "perspective_c1_y": {"Points": [{"interpolation": 2, "co": {"X": 1.0, "Y": -1.0}}]}, "image": "C:\\Users\\Henry\\.openshot_qt\\thumbnail\\P9UCYI6O28-394.png", "alpha": {"Points": [{"interpolation": 2, "co": {"X": 1.0, "Y": 1.0}}]}, "crop_height": {"Points": [{"interpolation": 2, "co": {"X": 1.0, "Y": -1.0}}]}, "reader": {"height": 480, "width": 720, "video_length": "4559", "audio_bit_rate": 112000, "top_field_first": true, "display_ratio": {"den": 1, "num": 1}, "type": "FFmpegReader", "video_bit_rate": 0, "channel_layout": 3, "acodec": "mp3", "vcodec": "", "duration": 189.9627075195312, "has_audio": true, "pixel_ratio": {"den": 1, "num": 1}, "file_size": "2659839", "fps": {"den": 1, "num": 24}, "path": "C:\\Users\\Henry\\Documents\\Classes\\Fall 2017\\CS 329e Game Dev\\MVPgamedev\\Game\\assets\\sounds\\cute.mp3", "pixel_format": -1, "audio_stream_index": 0, "video_timebase": {"den": 24, "num": 1}, "audio_timebase": {"den": 14112000, "num": 1}, "video_stream_index": -1, "interlaced_frame": false, "channels": 2, "has_single_image": false, "has_video": false, "sample_rate": 44100}, "location_x": {"Points": [{"interpolation": 2, "co": {"X": 1.0, "Y": 0.0}}]}, "shear_y": {"Points": [{"interpolation": 2, "co": {"X": 1.0, "Y": 0.0}}]}, "perspective_c3_x": {"Points": [{"interpolation": 2, "co": {"X": 1.0, "Y": -1.0}}]}}]}, {"value": {"crop_width": {"Points": [{"interpolation": 2, "co": {"X": 1.0, "Y": -1.0}}]}, "display": 0, "waveform": false, "channel_filter": {"Points": [{"interpolation": 2, "co": {"X": 1.0, "Y": -1.0}}]}, "effects": [], "layer": 3, "scale_y": {"Points": [{"interpolation": 2, "co": {"X": 1.0, "Y": 1.0}}]}, "perspective_c3_y": {"Points": [{"interpolation": 2, "co": {"X": 1.0, "Y": -1.0}}]}, "rotation": {"Points": [{"interpolation": 2, "co": {"X": 1.0, "Y": 0.0}}]}, "end": 95, "time": {"Points": [{"interpolation": 1, "co": {"X": 1.0, "Y": 1.0}}, {"interpolation": 1, "co": {"X": 2280.0, "Y": 4559.0}}]}, "crop_x": {"Points": [{"interpolation": 2, "co": {"X": 1.0, "Y": 0.0}}]}, "shear_x": {"Points": [{"interpolation": 2, "co": {"X": 1.0, "Y": 0.0}}]}, "duration": 94.0, "scale_x": {"Points": [{"interpolation": 2, "co": {"X": 1.0, "Y": 1.0}}]}, "title": "cute.mp3", "has_audio": {"Points": [{"interpolation": 2, "co": {"X": 1.0, "Y": -1.0}}]}, "perspective_c4_y": {"Points": [{"interpolation": 2, "co": {"X": 1.0, "Y": -1.0}}]}, "channel_mapping": {"Points": [{"interpolation": 2, "co": {"X": 1.0, "Y": -1.0}}]}, "perspective_c4_x": {"Points": [{"interpolation": 2, "co": {"X": 1.0, "Y": -1.0}}]}, "position": 116.27, "scale": 1, "wave_color": {"blue": {"Points": [{"handle_left": {"X": 0.5, "Y": 1.0}, "interpolation": 0, "handle_type": 0, "handle_right": {"X": 0.5, "Y": 0.0}, "co": {"X": 1.0, "Y": 255.0}}]}, "green": {"Points": [{"handle_left": {"X": 0.5, "Y": 1.0}, "interpolation": 0, "handle_type": 0, "handle_right": {"X": 0.5, "Y": 0.0}, "co": {"X": 1.0, "Y": 123.0}}]}, "red": {"Points": [{"handle_left": {"X": 0.5, "Y": 1.0}, "interpolation": 0, "handle_type": 0, "handle_right": {"X": 0.5, "Y": 0.0}, "co": {"X": 1.0, "Y": 0.0}}]}, "alpha": {"Points": [{"handle_left": {"X": 0.5, "Y": 1.0}, "interpolation": 0, "handle_type": 0, "handle_right": {"X": 0.5, "Y": 0.0}, "co": {"X": 1.0, "Y": 255.0}}]}}, "perspective_c1_x": {"Points": [{"interpolation": 2, "co": {"X": 1.0, "Y": -1.0}}]}, "file_id": "6DFW25DRJZ", "location_y": {"Points": [{"interpolation": 2, "co": {"X": 1.0, "Y": 0.0}}]}, "anchor": 0, "start": 56.699999999999996, "volume": {"Points": [{"interpolation": 2, "co": {"X": 1.0, "Y": 1.0}}]}, "perspective_c2_y": {"Points": [{"interpolation": 2, "co": {"X": 1.0, "Y": -1.0}}]}, "gravity": 4, "id": "GX5DST0FZM", "crop_y": {"Points": [{"interpolation": 2, "co": {"X": 1.0, "Y": 0.0}}]}, "has_video": {"Points": [{"interpolation": 2, "co": {"X": 1.0, "Y": -1.0}}]}, "perspective_c2_x": {"Points": [{"interpolation": 2, "co": {"X": 1.0, "Y": -1.0}}]}, "perspective_c1_y": {"Points": [{"interpolation": 2, "co": {"X": 1.0, "Y": -1.0}}]}, "image": "C:\\Users\\Henry\\.openshot_qt\\thumbnail\\GX5DST0FZM-1362.png", "alpha": {"Points": [{"interpolation": 2, "co": {"X": 1.0, "Y": 1.0}}]}, "crop_height": {"Points": [{"interpolation": 2, "co": {"X": 1.0, "Y": -1.0}}]}, "location_x": {"Points": [{"interpolation": 2, "co": {"X": 1.0, "Y": 0.0}}]}, "shear_y": {"Points": [{"interpolation": 2, "co": {"X": 1.0, "Y": 0.0}}]}, "perspective_c3_x": {"Points": [{"interpolation": 2, "co": {"X": 1.0, "Y": -1.0}}]}}, "type": "update", "key": ["clips", {"id": "GX5DST0FZM"}], "partial": false, "old_values": {"crop_width": {"Points": [{"interpolation": 2, "co": {"X": 1.0, "Y": -1.0}}]}, "display": 0, "waveform": false, "channel_filter": {"Points": [{"interpolation": 2, "co": {"X": 1.0, "Y": -1.0}}]}, "effects": [], "layer": 3, "scale_y": {"Points": [{"interpolation": 2, "co": {"X": 1.0, "Y": 1.0}}]}, "perspective_c3_y": {"Points": [{"interpolation": 2, "co": {"X": 1.0, "Y": -1.0}}]}, "rotation": {"Points": [{"interpolation": 2, "co": {"X": 1.0, "Y": 0.0}}]}, "end": 95, "time": {"Points": [{"interpolation": 1, "co": {"X": 1.0, "Y": 1.0}}, {"interpolation": 1, "co": {"X": 2280.0, "Y": 4559.0}}]}, "crop_x": {"Points": [{"interpolation": 2, "co": {"X": 1.0, "Y": 0.0}}]}, "shear_x": {"Points": [{"interpolation": 2, "co": {"X": 1.0, "Y": 0.0}}]}, "duration": 94.0, "scale_x": {"Points": [{"interpolation": 2, "co": {"X": 1.0, "Y": 1.0}}]}, "title": "cute.mp3", "has_audio": {"Points": [{"interpolation": 2, "co": {"X": 1.0, "Y": -1.0}}]}, "perspective_c4_y": {"Points": [{"interpolation": 2, "co": {"X": 1.0, "Y": -1.0}}]}, "channel_mapping": {"Points": [{"interpolation": 2, "co": {"X": 1.0, "Y": -1.0}}]}, "perspective_c4_x": {"Points": [{"interpolation": 2, "co": {"X": 1.0, "Y": -1.0}}]}, "position": 116.27, "scale": 1, "wave_color": {"blue": {"Points": [{"handle_left": {"X": 0.5, "Y": 1.0}, "interpolation": 0, "handle_type": 0, "handle_right": {"X": 0.5, "Y": 0.0}, "co": {"X": 1.0, "Y": 255.0}}]}, "green": {"Points": [{"handle_left": {"X": 0.5, "Y": 1.0}, "interpolation": 0, "handle_type": 0, "handle_right": {"X": 0.5, "Y": 0.0}, "co": {"X": 1.0, "Y": 123.0}}]}, "red": {"Points": [{"handle_left": {"X": 0.5, "Y": 1.0}, "interpolation": 0, "handle_type": 0, "handle_right": {"X": 0.5, "Y": 0.0}, "co": {"X": 1.0, "Y": 0.0}}]}, "alpha": {"Points": [{"handle_left": {"X": 0.5, "Y": 1.0}, "interpolation": 0, "handle_type": 0, "handle_right": {"X": 0.5, "Y": 0.0}, "co": {"X": 1.0, "Y": 255.0}}]}}, "perspective_c1_x": {"Points": [{"interpolation": 2, "co": {"X": 1.0, "Y": -1.0}}]}, "file_id": "6DFW25DRJZ", "location_y": {"Points": [{"interpolation": 2, "co": {"X": 1.0, "Y": 0.0}}]}, "anchor": 0, "start": 56.699999999999996, "volume": {"Points": [{"interpolation": 2, "co": {"X": 1.0, "Y": 1.0}}]}, "perspective_c2_y": {"Points": [{"interpolation": 2, "co": {"X": 1.0, "Y": -1.0}}]}, "gravity": 4, "id": "GX5DST0FZM", "crop_y": {"Points": [{"interpolation": 2, "co": {"X": 1.0, "Y": 0.0}}]}, "has_video": {"Points": [{"interpolation": 2, "co": {"X": 1.0, "Y": -1.0}}]}, "perspective_c2_x": {"Points": [{"interpolation": 2, "co": {"X": 1.0, "Y": -1.0}}]}, "perspective_c1_y": {"Points": [{"interpolation": 2, "co": {"X": 1.0, "Y": -1.0}}]}, "image": "C:\\Users\\Henry\\.openshot_qt\\thumbnail\\P9UCYI6O28-394.png", "alpha": {"Points": [{"interpolation": 2, "co": {"X": 1.0, "Y": 1.0}}]}, "crop_height": {"Points": [{"interpolation": 2, "co": {"X": 1.0, "Y": -1.0}}]}, "reader": {"height": 480, "width": 720, "video_length": "4559", "audio_bit_rate": 112000, "top_field_first": true, "display_ratio": {"den": 1, "num": 1}, "type": "FFmpegReader", "video_bit_rate": 0, "channel_layout": 3, "acodec": "mp3", "vcodec": "", "duration": 189.9627075195312, "has_audio": true, "pixel_ratio": {"den": 1, "num": 1}, "file_size": "2659839", "fps": {"den": 1, "num": 24}, "path": "C:\\Users\\Henry\\Documents\\Classes\\Fall 2017\\CS 329e Game Dev\\MVPgamedev\\Game\\assets\\sounds\\cute.mp3", "pixel_format": -1, "audio_stream_index": 0, "video_timebase": {"den": 24, "num": 1}, "audio_timebase": {"den": 14112000, "num": 1}, "video_stream_index": -1, "interlaced_frame": false, "channels": 2, "has_single_image": false, "has_video": false, "sample_rate": 44100}, "location_x": {"Points": [{"interpolation": 2, "co": {"X": 1.0, "Y": 0.0}}]}, "shear_y": {"Points": [{"interpolation": 2, "co": {"X": 1.0, "Y": 0.0}}]}, "perspective_c3_x": {"Points": [{"interpolation": 2, "co": {"X": 1.0, "Y": -1.0}}]}}}, {"value": {"crop_width": {"Points": [{"interpolation": 2, "co": {"X": 1.0, "Y": -1.0}}]}, "display": 0, "waveform": false, "channel_filter": {"Points": [{"interpolation": 2, "co": {"X": 1.0, "Y": -1.0}}]}, "effects": [], "layer": 3, "scale_y": {"Points": [{"interpolation": 2, "co": {"X": 1.0, "Y": 1.0}}]}, "perspective_c3_y": {"Points": [{"interpolation": 2, "co": {"X": 1.0, "Y": -1.0}}]}, "rotation": {"Points": [{"interpolation": 2, "co": {"X": 1.0, "Y": 0.0}}]}, "end": 56.699999999999996, "time": {"Points": [{"interpolation": 1, "co": {"X": 1.0, "Y": 1.0}}, {"interpolation": 1, "co": {"X": 2280.0, "Y": 4559.0}}]}, "crop_x": {"Points": [{"interpolation": 2, "co": {"X": 1.0, "Y": 0.0}}]}, "shear_x": {"Points": [{"interpolation": 2, "co": {"X": 1.0, "Y": 0.0}}]}, "duration": 94.0, "scale_x": {"Points": [{"interpolation": 2, "co": {"X": 1.0, "Y": 1.0}}]}, "title": "cute.mp3", "has_audio": {"Points": [{"interpolation": 2, "co": {"X": 1.0, "Y": -1.0}}]}, "perspective_c4_y": {"Points": [{"interpolation": 2, "co": {"X": 1.0, "Y": -1.0}}]}, "channel_mapping": {"Points": [{"interpolation": 2, "co": {"X": 1.0, "Y": -1.0}}]}, "perspective_c4_x": {"Points": [{"interpolation": 2, "co": {"X": 1.0, "Y": -1.0}}]}, "position": 75.95, "scale": 1, "wave_color": {"blue": {"Points": [{"handle_left": {"X": 0.5, "Y": 1.0}, "interpolation": 0, "handle_type": 0, "handle_right": {"X": 0.5, "Y": 0.0}, "co": {"X": 1.0, "Y": 255.0}}]}, "green": {"Points": [{"handle_left": {"X": 0.5, "Y": 1.0}, "interpolation": 0, "handle_type": 0, "handle_right": {"X": 0.5, "Y": 0.0}, "co": {"X": 1.0, "Y": 123.0}}]}, "red": {"Points": [{"handle_left": {"X": 0.5, "Y": 1.0}, "interpolation": 0, "handle_type": 0, "handle_right": {"X": 0.5, "Y": 0.0}, "co": {"X": 1.0, "Y": 0.0}}]}, "alpha": {"Points": [{"handle_left": {"X": 0.5, "Y": 1.0}, "interpolation": 0, "handle_type": 0, "handle_right": {"X": 0.5, "Y": 0.0}, "co": {"X": 1.0, "Y": 255.0}}]}}, "perspective_c1_x": {"Points": [{"interpolation": 2, "co": {"X": 1.0, "Y": -1.0}}]}, "file_id": "6DFW25DRJZ", "location_y": {"Points": [{"interpolation": 2, "co": {"X": 1.0, "Y": 0.0}}]}, "anchor": 0, "start": 16.380000000000003, "volume": {"Points": [{"interpolation": 2, "co": {"X": 1.0, "Y": 1.0}}]}, "perspective_c2_y": {"Points": [{"interpolation": 2, "co": {"X": 1.0, "Y": -1.0}}]}, "gravity": 4, "id": "P9UCYI6O28", "crop_y": {"Points": [{"interpolation": 2, "co": {"X": 1.0, "Y": 0.0}}]}, "has_video": {"Points": [{"interpolation": 2, "co": {"X": 1.0, "Y": -1.0}}]}, "perspective_c2_x": {"Points": [{"interpolation": 2, "co": {"X": 1.0, "Y": -1.0}}]}, "perspective_c1_y": {"Points": [{"interpolation": 2, "co": {"X": 1.0, "Y": -1.0}}]}, "image": "C:\\Users\\Henry\\.openshot_qt\\thumbnail\\P9UCYI6O28-394.png", "alpha": {"Points": [{"interpolation": 2, "co": {"X": 1.0, "Y": 1.0}}]}, "crop_height": {"Points": [{"interpolation": 2, "co": {"X": 1.0, "Y": -1.0}}]}, "location_x": {"Points": [{"interpolation": 2, "co": {"X": 1.0, "Y": 0.0}}]}, "shear_y": {"Points": [{"interpolation": 2, "co": {"X": 1.0, "Y": 0.0}}]}, "perspective_c3_x": {"Points": [{"interpolation": 2, "co": {"X": 1.0, "Y": -1.0}}]}}, "type": "update", "key": ["clips", {"id": "P9UCYI6O28"}], "partial": false, "old_values": {"crop_width": {"Points": [{"interpolation": 2, "co": {"X": 1.0, "Y": -1.0}}]}, "display": 0, "waveform": false, "channel_filter": {"Points": [{"interpolation": 2, "co": {"X": 1.0, "Y": -1.0}}]}, "effects": [], "layer": 3, "scale_y": {"Points": [{"interpolation": 2, "co": {"X": 1.0, "Y": 1.0}}]}, "perspective_c3_y": {"Points": [{"interpolation": 2, "co": {"X": 1.0, "Y": -1.0}}]}, "rotation": {"Points": [{"interpolation": 2, "co": {"X": 1.0, "Y": 0.0}}]}, "end": 95, "time": {"Points": [{"interpolation": 1, "co": {"X": 1.0, "Y": 1.0}}, {"interpolation": 1, "co": {"X": 2280.0, "Y": 4559.0}}]}, "crop_x": {"Points": [{"interpolation": 2, "co": {"X": 1.0, "Y": 0.0}}]}, "shear_x": {"Points": [{"interpolation": 2, "co": {"X": 1.0, "Y": 0.0}}]}, "duration": 94.0, "scale_x": {"Points": [{"interpolation": 2, "co": {"X": 1.0, "Y": 1.0}}]}, "title": "cute.mp3", "has_audio": {"Points": [{"interpolation": 2, "co": {"X": 1.0, "Y": -1.0}}]}, "perspective_c4_y": {"Points": [{"interpolation": 2, "co": {"X": 1.0, "Y": -1.0}}]}, "channel_mapping": {"Points": [{"interpolation": 2, "co": {"X": 1.0, "Y": -1.0}}]}, "perspective_c4_x": {"Points": [{"interpolation": 2, "co": {"X": 1.0, "Y": -1.0}}]}, "position": 75.95, "scale": 1, "wave_color": {"blue": {"Points": [{"handle_left": {"X": 0.5, "Y": 1.0}, "interpolation": 0, "handle_type": 0, "handle_right": {"X": 0.5, "Y": 0.0}, "co": {"X": 1.0, "Y": 255.0}}]}, "green": {"Points": [{"handle_left": {"X": 0.5, "Y": 1.0}, "interpolation": 0, "handle_type": 0, "handle_right": {"X": 0.5, "Y": 0.0}, "co": {"X": 1.0, "Y": 123.0}}]}, "red": {"Points": [{"handle_left": {"X": 0.5, "Y": 1.0}, "interpolation": 0, "handle_type": 0, "handle_right": {"X": 0.5, "Y": 0.0}, "co": {"X": 1.0, "Y": 0.0}}]}, "alpha": {"Points": [{"handle_left": {"X": 0.5, "Y": 1.0}, "interpolation": 0, "handle_type": 0, "handle_right": {"X": 0.5, "Y": 0.0}, "co": {"X": 1.0, "Y": 255.0}}]}}, "perspective_c1_x": {"Points": [{"interpolation": 2, "co": {"X": 1.0, "Y": -1.0}}]}, "file_id": "6DFW25DRJZ", "location_y": {"Points": [{"interpolation": 2, "co": {"X": 1.0, "Y": 0.0}}]}, "anchor": 0, "start": 16.380000000000003, "volume": {"Points": [{"interpolation": 2, "co": {"X": 1.0, "Y": 1.0}}]}, "perspective_c2_y": {"Points": [{"interpolation": 2, "co": {"X": 1.0, "Y": -1.0}}]}, "gravity": 4, "id": "P9UCYI6O28", "crop_y": {"Points": [{"interpolation": 2, "co": {"X": 1.0, "Y": 0.0}}]}, "has_video": {"Points": [{"interpolation": 2, "co": {"X": 1.0, "Y": -1.0}}]}, "perspective_c2_x": {"Points": [{"interpolation": 2, "co": {"X": 1.0, "Y": -1.0}}]}, "perspective_c1_y": {"Points": [{"interpolation": 2, "co": {"X": 1.0, "Y": -1.0}}]}, "image": "C:\\Users\\Henry\\.openshot_qt\\thumbnail\\P9UCYI6O28-394.png", "alpha": {"Points": [{"interpolation": 2, "co": {"X": 1.0, "Y": 1.0}}]}, "crop_height": {"Points": [{"interpolation": 2, "co": {"X": 1.0, "Y": -1.0}}]}, "reader": {"height": 480, "width": 720, "video_length": "4559", "audio_bit_rate": 112000, "top_field_first": true, "display_ratio": {"den": 1, "num": 1}, "type": "FFmpegReader", "video_bit_rate": 0, "channel_layout": 3, "acodec": "mp3", "vcodec": "", "duration": 189.9627075195312, "has_audio": true, "pixel_ratio": {"den": 1, "num": 1}, "file_size": "2659839", "fps": {"den": 1, "num": 24}, "path": "C:\\Users\\Henry\\Documents\\Classes\\Fall 2017\\CS 329e Game Dev\\MVPgamedev\\Game\\assets\\sounds\\cute.mp3", "pixel_format": -1, "audio_stream_index": 0, "video_timebase": {"den": 24, "num": 1}, "audio_timebase": {"den": 14112000, "num": 1}, "video_stream_index": -1, "interlaced_frame": false, "channels": 2, "has_single_image": false, "has_video": false, "sample_rate": 44100}, "location_x": {"Points": [{"interpolation": 2, "co": {"X": 1.0, "Y": 0.0}}]}, "shear_y": {"Points": [{"interpolation": 2, "co": {"X": 1.0, "Y": 0.0}}]}, "perspective_c3_x": {"Points": [{"interpolation": 2, "co": {"X": 1.0, "Y": -1.0}}]}}}, {"value": null, "type": "delete", "key": ["clips", {"id": "JBG87H3OER"}], "partial": false, "old_values": {"crop_width": {"Points": [{"interpolation": 2, "co": {"X": 1.0, "Y": -1.0}}]}, "display": 0, "waveform": false, "channel_filter": {"Points": [{"interpolation": 2, "co": {"X": 1.0, "Y": -1.0}}]}, "effects": [], "layer": 3, "scale_y": {"Points": [{"interpolation": 2, "co": {"X": 1.0, "Y": 1.0}}]}, "shear_y": {"Points": [{"interpolation": 2, "co": {"X": 1.0, "Y": 0.0}}]}, "rotation": {"Points": [{"interpolation": 2, "co": {"X": 1.0, "Y": 0.0}}]}, "end": 16.380000000000003, "time": {"Points": [{"interpolation": 1, "co": {"X": 1.0, "Y": 1.0}}, {"interpolation": 1, "co": {"X": 2280.0, "Y": 4559.0}}]}, "crop_height": {"Points": [{"interpolation": 2, "co": {"X": 1.0, "Y": -1.0}}]}, "crop_x": {"Points": [{"interpolation": 2, "co": {"X": 1.0, "Y": 0.0}}]}, "shear_x": {"Points": [{"interpolation": 2, "co": {"X": 1.0, "Y": 0.0}}]}, "duration": 94.0, "scale_x": {"Points": [{"interpolation": 2, "co": {"X": 1.0, "Y": 1.0}}]}, "title": "cute.mp3", "has_audio": {"Points": [{"interpolation": 2, "co": {"X": 1.0, "Y": -1.0}}]}, "perspective_c4_y": {"Points": [{"interpolation": 2, "co": {"X": 1.0, "Y": -1.0}}]}, "perspective_c3_y": {"Points": [{"interpolation": 2, "co": {"X": 1.0, "Y": -1.0}}]}, "channel_mapping": {"Points": [{"interpolation": 2, "co": {"X": 1.0, "Y": -1.0}}]}, "perspective_c4_x": {"Points": [{"interpolation": 2, "co": {"X": 1.0, "Y": -1.0}}]}, "position": 59.57, "scale": 1, "wave_color": {"blue": {"Points": [{"handle_left": {"X": 0.5, "Y": 1.0}, "interpolation": 0, "handle_type": 0, "handle_right": {"X": 0.5, "Y": 0.0}, "co": {"X": 1.0, "Y": 255.0}}]}, "green": {"Points": [{"handle_left": {"X": 0.5, "Y": 1.0}, "interpolation": 0, "handle_type": 0, "handle_right": {"X": 0.5, "Y": 0.0}, "co": {"X": 1.0, "Y": 123.0}}]}, "red": {"Points": [{"handle_left": {"X": 0.5, "Y": 1.0}, "interpolation": 0, "handle_type": 0, "handle_right": {"X": 0.5, "Y": 0.0}, "co": {"X": 1.0, "Y": 0.0}}]}, "alpha": {"Points": [{"handle_left": {"X": 0.5, "Y": 1.0}, "interpolation": 0, "handle_type": 0, "handle_right": {"X": 0.5, "Y": 0.0}, "co": {"X": 1.0, "Y": 255.0}}]}}, "perspective_c1_x": {"Points": [{"interpolation": 2, "co": {"X": 1.0, "Y": -1.0}}]}, "file_id": "6DFW25DRJZ", "location_y": {"Points": [{"interpolation": 2, "co": {"X": 1.0, "Y": 0.0}}]}, "alpha": {"Points": [{"interpolation": 2, "co": {"X": 1.0, "Y": 1.0}}]}, "start": 0, "volume": {"Points": [{"interpolation": 2, "co": {"X": 1.0, "Y": 1.0}}]}, "anchor": 0, "gravity": 4, "perspective_c2_y": {"Points": [{"interpolation": 2, "co": {"X": 1.0, "Y": -1.0}}]}, "id": "JBG87H3OER", "perspective_c2_x": {"Points": [{"interpolation": 2, "co": {"X": 1.0, "Y": -1.0}}]}, "perspective_c1_y": {"Points": [{"interpolation": 2, "co": {"X": 1.0, "Y": -1.0}}]}, "image": "C:\\Program Files\\OpenShot Video Editor\\images\\AudioThumbnail.png", "crop_y": {"Points": [{"interpolation": 2, "co": {"X": 1.0, "Y": 0.0}}]}, "reader": {"height": 480, "width": 720, "video_length": "4559", "audio_bit_rate": 112000, "top_field_first": true, "display_ratio": {"den": 1, "num": 1}, "type": "FFmpegReader", "video_bit_rate": 0, "channel_layout": 3, "acodec": "mp3", "vcodec": "", "duration": 189.9627075195312, "has_audio": true, "pixel_ratio": {"den": 1, "num": 1}, "file_size": "2659839", "fps": {"den": 1, "num": 24}, "path": "C:\\Users\\Henry\\Documents\\Classes\\Fall 2017\\CS 329e Game Dev\\MVPgamedev\\Game\\assets\\sounds\\cute.mp3", "pixel_format": -1, "audio_stream_index": 0, "video_timebase": {"den": 24, "num": 1}, "audio_timebase": {"den": 14112000, "num": 1}, "video_stream_index": -1, "interlaced_frame": false, "channels": 2, "has_single_image": false, "has_video": false, "sample_rate": 44100}, "location_x": {"Points": [{"interpolation": 2, "co": {"X": 1.0, "Y": 0.0}}]}, "has_video": {"Points": [{"interpolation": 2, "co": {"X": 1.0, "Y": -1.0}}]}, "perspective_c3_x": {"Points": [{"interpolation": 2, "co": {"X": 1.0, "Y": -1.0}}]}}}, {"value": null, "type": "delete", "key": ["clips", {"id": "GX5DST0FZM"}], "partial": false, "old_values": {"crop_width": {"Points": [{"interpolation": 2, "co": {"X": 1.0, "Y": -1.0}}]}, "display": 0, "waveform": false, "channel_filter": {"Points": [{"interpolation": 2, "co": {"X": 1.0, "Y": -1.0}}]}, "effects": [], "layer": 3, "scale_y": {"Points": [{"interpolation": 2, "co": {"X": 1.0, "Y": 1.0}}]}, "perspective_c3_y": {"Points": [{"interpolation": 2, "co": {"X": 1.0, "Y": -1.0}}]}, "rotation": {"Points": [{"interpolation": 2, "co": {"X": 1.0, "Y": 0.0}}]}, "end": 95, "time": {"Points": [{"interpolation": 1, "co": {"X": 1.0, "Y": 1.0}}, {"interpolation": 1, "co": {"X": 2280.0, "Y": 4559.0}}]}, "crop_height": {"Points": [{"interpolation": 2, "co": {"X": 1.0, "Y": -1.0}}]}, "crop_x": {"Points": [{"interpolation": 2, "co": {"X": 1.0, "Y": 0.0}}]}, "shear_x": {"Points": [{"interpolation": 2, "co": {"X": 1.0, "Y": 0.0}}]}, "duration": 94.0, "scale_x": {"Points": [{"interpolation": 2, "co": {"X": 1.0, "Y": 1.0}}]}, "title": "cute.mp3", "has_audio": {"Points": [{"interpolation": 2, "co": {"X": 1.0, "Y": -1.0}}]}, "perspective_c4_y": {"Points": [{"interpolation": 2, "co": {"X": 1.0, "Y": -1.0}}]}, "channel_mapping": {"Points": [{"interpolation": 2, "co": {"X": 1.0, "Y": -1.0}}]}, "perspective_c4_x": {"Points": [{"interpolation": 2, "co": {"X": 1.0, "Y": -1.0}}]}, "position": 116.27, "scale": 1, "wave_color": {"blue": {"Points": [{"handle_left": {"X": 0.5, "Y": 1.0}, "interpolation": 0, "handle_type": 0, "handle_right": {"X": 0.5, "Y": 0.0}, "co": {"X": 1.0, "Y": 255.0}}]}, "green": {"Points": [{"handle_left": {"X": 0.5, "Y": 1.0}, "interpolation": 0, "handle_type": 0, "handle_right": {"X": 0.5, "Y": 0.0}, "co": {"X": 1.0, "Y": 123.0}}]}, "red": {"Points": [{"handle_left": {"X": 0.5, "Y": 1.0}, "interpolation": 0, "handle_type": 0, "handle_right": {"X": 0.5, "Y": 0.0}, "co": {"X": 1.0, "Y": 0.0}}]}, "alpha": {"Points": [{"handle_left": {"X": 0.5, "Y": 1.0}, "interpolation": 0, "handle_type": 0, "handle_right": {"X": 0.5, "Y": 0.0}, "co": {"X": 1.0, "Y": 255.0}}]}}, "perspective_c1_x": {"Points": [{"interpolation": 2, "co": {"X": 1.0, "Y": -1.0}}]}, "file_id": "6DFW25DRJZ", "location_y": {"Points": [{"interpolation": 2, "co": {"X": 1.0, "Y": 0.0}}]}, "anchor": 0, "start": 56.699999999999996, "volume": {"Points": [{"interpolation": 2, "co": {"X": 1.0, "Y": 1.0}}]}, "perspective_c2_y": {"Points": [{"interpolation": 2, "co": {"X": 1.0, "Y": -1.0}}]}, "gravity": 4, "id": "GX5DST0FZM", "has_video": {"Points": [{"interpolation": 2, "co": {"X": 1.0, "Y": -1.0}}]}, "perspective_c2_x": {"Points": [{"interpolation": 2, "co": {"X": 1.0, "Y": -1.0}}]}, "perspective_c1_y": {"Points": [{"interpolation": 2, "co": {"X": 1.0, "Y": -1.0}}]}, "image": "C:\\Users\\Henry\\.openshot_qt\\thumbnail\\GX5DST0FZM-1362.png", "alpha": {"Points": [{"interpolation": 2, "co": {"X": 1.0, "Y": 1.0}}]}, "crop_y": {"Points": [{"interpolation": 2, "co": {"X": 1.0, "Y": 0.0}}]}, "reader": {"height": 480, "width": 720, "video_length": "4559", "audio_bit_rate": 112000, "top_field_first": true, "display_ratio": {"den": 1, "num": 1}, "type": "FFmpegReader", "video_bit_rate": 0, "channel_layout": 3, "acodec": "mp3", "vcodec": "", "duration": 189.9627075195312, "has_audio": true, "pixel_ratio": {"den": 1, "num": 1}, "file_size": "2659839", "fps": {"den": 1, "num": 24}, "path": "C:\\Users\\Henry\\Documents\\Classes\\Fall 2017\\CS 329e Game Dev\\MVPgamedev\\Game\\assets\\sounds\\cute.mp3", "pixel_format": -1, "audio_stream_index": 0, "video_timebase": {"den": 24, "num": 1}, "audio_timebase": {"den": 14112000, "num": 1}, "video_stream_index": -1, "interlaced_frame": false, "channels": 2, "has_single_image": false, "has_video": false, "sample_rate": 44100}, "location_x": {"Points": [{"interpolation": 2, "co": {"X": 1.0, "Y": 0.0}}]}, "shear_y": {"Points": [{"interpolation": 2, "co": {"X": 1.0, "Y": 0.0}}]}, "perspective_c3_x": {"Points": [{"interpolation": 2, "co": {"X": 1.0, "Y": -1.0}}]}}}, {"value": {"id": "P9UCYI6O28", "position": 0, "layer": 3, "start": 16.380000000000003, "image": "C:\\Users\\Henry\\.openshot_qt\\thumbnail\\P9UCYI6O28-394.png", "end": 56.699999999999996}, "type": "update", "key": ["clips", {"id": "P9UCYI6O28"}], "partial": false, "old_values": {"crop_width": {"Points": [{"interpolation": 2, "co": {"X": 1.0, "Y": -1.0}}]}, "display": 0, "waveform": false, "channel_filter": {"Points": [{"interpolation": 2, "co": {"X": 1.0, "Y": -1.0}}]}, "effects": [], "layer": 3, "scale_y": {"Points": [{"interpolation": 2, "co": {"X": 1.0, "Y": 1.0}}]}, "perspective_c3_y": {"Points": [{"interpolation": 2, "co": {"X": 1.0, "Y": -1.0}}]}, "rotation": {"Points": [{"interpolation": 2, "co": {"X": 1.0, "Y": 0.0}}]}, "end": 56.699999999999996, "time": {"Points": [{"interpolation": 1, "co": {"X": 1.0, "Y": 1.0}}, {"interpolation": 1, "co": {"X": 2280.0, "Y": 4559.0}}]}, "crop_x": {"Points": [{"interpolation": 2, "co": {"X": 1.0, "Y": 0.0}}]}, "shear_x": {"Points": [{"interpolation": 2, "co": {"X": 1.0, "Y": 0.0}}]}, "duration": 94.0, "scale_x": {"Points": [{"interpolation": 2, "co": {"X": 1.0, "Y": 1.0}}]}, "title": "cute.mp3", "has_audio": {"Points": [{"interpolation": 2, "co": {"X": 1.0, "Y": -1.0}}]}, "perspective_c4_y": {"Points": [{"interpolation": 2, "co": {"X": 1.0, "Y": -1.0}}]}, "channel_mapping": {"Points": [{"interpolation": 2, "co": {"X": 1.0, "Y": -1.0}}]}, "perspective_c4_x": {"Points": [{"interpolation": 2, "co": {"X": 1.0, "Y": -1.0}}]}, "position": 75.95, "scale": 1, "wave_color": {"blue": {"Points": [{"handle_left": {"X": 0.5, "Y": 1.0}, "interpolation": 0, "handle_type": 0, "handle_right": {"X": 0.5, "Y": 0.0}, "co": {"X": 1.0, "Y": 255.0}}]}, "green": {"Points": [{"handle_left": {"X": 0.5, "Y": 1.0}, "interpolation": 0, "handle_type": 0, "handle_right": {"X": 0.5, "Y": 0.0}, "co": {"X": 1.0, "Y": 123.0}}]}, "red": {"Points": [{"handle_left": {"X": 0.5, "Y": 1.0}, "interpolation": 0, "handle_type": 0, "handle_right": {"X": 0.5, "Y": 0.0}, "co": {"X": 1.0, "Y": 0.0}}]}, "alpha": {"Points": [{"handle_left": {"X": 0.5, "Y": 1.0}, "interpolation": 0, "handle_type": 0, "handle_right": {"X": 0.5, "Y": 0.0}, "co": {"X": 1.0, "Y": 255.0}}]}}, "perspective_c1_x": {"Points": [{"interpolation": 2, "co": {"X": 1.0, "Y": -1.0}}]}, "file_id": "6DFW25DRJZ", "location_y": {"Points": [{"interpolation": 2, "co": {"X": 1.0, "Y": 0.0}}]}, "anchor": 0, "start": 16.380000000000003, "volume": {"Points": [{"interpolation": 2, "co": {"X": 1.0, "Y": 1.0}}]}, "perspective_c2_y": {"Points": [{"interpolation": 2, "co": {"X": 1.0, "Y": -1.0}}]}, "gravity": 4, "id": "P9UCYI6O28", "crop_y": {"Points": [{"interpolation": 2, "co": {"X": 1.0, "Y": 0.0}}]}, "has_video": {"Points": [{"interpolation": 2, "co": {"X": 1.0, "Y": -1.0}}]}, "perspective_c2_x": {"Points": [{"interpolation": 2, "co": {"X": 1.0, "Y": -1.0}}]}, "perspective_c1_y": {"Points": [{"interpolation": 2, "co": {"X": 1.0, "Y": -1.0}}]}, "image": "C:\\Users\\Henry\\.openshot_qt\\thumbnail\\P9UCYI6O28-394.png", "alpha": {"Points": [{"interpolation": 2, "co": {"X": 1.0, "Y": 1.0}}]}, "crop_height": {"Points": [{"interpolation": 2, "co": {"X": 1.0, "Y": -1.0}}]}, "reader": {"height": 480, "width": 720, "video_length": "4559", "audio_bit_rate": 112000, "top_field_first": true, "display_ratio": {"den": 1, "num": 1}, "type": "FFmpegReader", "video_bit_rate": 0, "channel_layout": 3, "acodec": "mp3", "vcodec": "", "duration": 189.9627075195312, "has_audio": true, "pixel_ratio": {"den": 1, "num": 1}, "file_size": "2659839", "fps": {"den": 1, "num": 24}, "path": "C:\\Users\\Henry\\Documents\\Classes\\Fall 2017\\CS 329e Game Dev\\MVPgamedev\\Game\\assets\\sounds\\cute.mp3", "pixel_format": -1, "audio_stream_index": 0, "video_timebase": {"den": 24, "num": 1}, "audio_timebase": {"den": 14112000, "num": 1}, "video_stream_index": -1, "interlaced_frame": false, "channels": 2, "has_single_image": false, "has_video": false, "sample_rate": 44100}, "location_x": {"Points": [{"interpolation": 2, "co": {"X": 1.0, "Y": 0.0}}]}, "shear_y": {"Points": [{"interpolation": 2, "co": {"X": 1.0, "Y": 0.0}}]}, "perspective_c3_x": {"Points": [{"interpolation": 2, "co": {"X": 1.0, "Y": -1.0}}]}}}, {"value": {"id": "DYVC4Z99S7", "brightness": {"Points": [{"handle_left": {"X": 0.5, "Y": 1.0}, "interpolation": 0, "handle_type": 0, "handle_right": {"X": 0.5, "Y": 0.0}, "co": {"X": 1.0, "Y": 1.0}}, {"handle_left": {"X": 0.5, "Y": 1.0}, "interpolation": 0, "handle_type": 0, "handle_right": {"X": 0.5, "Y": 0.0}, "co": {"X": 85.0, "Y": -1.0}}]}, "replace_image": false, "end": 3.499999999999993, "type": "Mask", "start": 0, "layer": 3, "reader": {"height": 576, "width": 720, "video_length": "2592000", "audio_bit_rate": 0, "top_field_first": true, "display_ratio": {"den": 4, "num": 5}, "type": "QtImageReader", "video_bit_rate": 0, "channel_layout": 4, "acodec": "", "vcodec": "", "duration": 86400.0, "has_audio": false, "pixel_ratio": {"den": 1, "num": 1}, "file_size": "1658880", "fps": {"den": 1, "num": 30}, "path": "C:\\Program Files\\OpenShot Video Editor\\transitions\\common\\fade.svg", "pixel_format": -1, "audio_stream_index": -1, "video_timebase": {"den": 30, "num": 1}, "audio_timebase": {"den": 1, "num": 1}, "video_stream_index": -1, "interlaced_frame": false, "sample_rate": 0, "has_single_image": true, "has_video": true, "channels": 0}, "title": "Transition", "position": 36.82, "contrast": {"Points": [{"interpolation": 2, "co": {"X": 1.0, "Y": 3.0}}]}}, "type": "insert", "key": ["effects"], "partial": false, "old_values": [{"id": "VHF5BZISRM", "brightness": {"Points": [{"handle_left": {"X": 0.5, "Y": 1.0}, "interpolation": 0, "handle_type": 0, "handle_right": {"X": 0.5, "Y": 0.0}, "co": {"X": 1.0, "Y": 1.0}}, {"handle_left": {"X": 0.5, "Y": 1.0}, "interpolation": 0, "handle_type": 0, "handle_right": {"X": 0.5, "Y": 0.0}, "co": {"X": 23.0, "Y": -1.0}}]}, "replace_image": false, "position": 8.368281249999999, "end": 0.9107812499999994, "layer": 4, "start": 0, "type": "Mask", "reader": {"height": 576, "width": 720, "video_length": "2592000", "audio_bit_rate": 0, "top_field_first": true, "display_ratio": {"den": 4, "num": 5}, "type": "QtImageReader", "video_bit_rate": 0, "vcodec": "", "acodec": "", "channel_layout": 4, "duration": 86400.0, "has_audio": false, "pixel_ratio": {"den": 1, "num": 1}, "file_size": "1658880", "fps": {"den": 1, "num": 30}, "path": "C:\\Program Files\\OpenShot Video Editor\\transitions\\common\\fade.svg", "pixel_format": -1, "audio_stream_index": -1, "video_timebase": {"den": 30, "num": 1}, "audio_timebase": {"den": 1, "num": 1}, "video_stream_index": -1, "interlaced_frame": false, "channels": 0, "has_single_image": true, "has_video": true, "sample_rate": 0}, "title": "Transition", "contrast": {"Points": [{"interpolation": 2, "co": {"X": 1.0, "Y": 3.0}}]}}, {"id": "NEPPV31YOA", "brightness": {"Points": [{"handle_left": {"X": 0.5, "Y": 1.0}, "interpolation": 0, "handle_type": 0, "handle_right": {"X": 0.5, "Y": 0.0}, "co": {"X": 1.0, "Y": 1.0}}, {"handle_left": {"X": 0.5, "Y": 1.0}, "interpolation": 0, "handle_type": 0, "handle_right": {"X": 0.5, "Y": 0.0}, "co": {"X": 25.0, "Y": -1.0}}]}, "replace_image": false, "position": 11.85734375, "end": 0.9809374999999996, "layer": 4, "start": 0, "type": "Mask", "reader": {"height": 576, "width": 720, "video_length": "2592000", "audio_bit_rate": 0, "top_field_first": true, "display_ratio": {"den": 4, "num": 5}, "type": "QtImageReader", "video_bit_rate": 0, "vcodec": "", "acodec": "", "channel_layout": 4, "duration": 86400.0, "has_audio": false, "pixel_ratio": {"den": 1, "num": 1}, "file_size": "1658880", "fps": {"den": 1, "num": 30}, "path": "C:\\Program Files\\OpenShot Video Editor\\transitions\\common\\fade.svg", "pixel_format": -1, "audio_stream_index": -1, "video_timebase": {"den": 30, "num": 1}, "audio_timebase": {"den": 1, "num": 1}, "video_stream_index": -1, "interlaced_frame": false, "channels": 0, "has_single_image": true, "has_video": true, "sample_rate": 0}, "title": "Transition", "contrast": {"Points": [{"interpolation": 2, "co": {"X": 1.0, "Y": 3.0}}]}}, {"id": "W530ZPN6L0", "brightness": {"Points": [{"handle_left": {"X": 0.5, "Y": 1.0}, "interpolation": 0, "handle_type": 0, "handle_right": {"X": 0.5, "Y": 0.0}, "co": {"X": 1.0, "Y": 1.0}}, {"handle_left": {"X": 0.5, "Y": 1.0}, "interpolation": 0, "handle_type": 0, "handle_right": {"X": 0.5, "Y": 0.0}, "co": {"X": 25.0, "Y": -1.0}}]}, "replace_image": false, "position": 19.516875, "end": 0.9804687499999858, "layer": 4, "start": 0, "type": "Mask", "reader": {"height": 576, "width": 720, "video_length": "2592000", "audio_bit_rate": 0, "top_field_first": true, "display_ratio": {"den": 4, "num": 5}, "type": "QtImageReader", "video_bit_rate": 0, "vcodec": "", "acodec": "", "channel_layout": 4, "duration": 86400.0, "has_audio": false, "pixel_ratio": {"den": 1, "num": 1}, "file_size": "1658880", "fps": {"den": 1, "num": 30}, "path": "C:\\Program Files\\OpenShot Video Editor\\transitions\\common\\fade.svg", "pixel_format": -1, "audio_stream_index": -1, "video_timebase": {"den": 30, "num": 1}, "audio_timebase": {"den": 1, "num": 1}, "video_stream_index": -1, "interlaced_frame": false, "channels": 0, "has_single_image": true, "has_video": true, "sample_rate": 0}, "title": "Transition", "contrast": {"Points": [{"interpolation": 2, "co": {"X": 1.0, "Y": 3.0}}]}}, {"id": "MEZSPK54U2", "brightness": {"Points": [{"handle_left": {"X": 0.5, "Y": 1.0}, "interpolation": 0, "handle_type": 0, "handle_right": {"X": 0.5, "Y": 0.0}, "co": {"X": 1.0, "Y": 1.0}}, {"handle_left": {"X": 0.5, "Y": 1.0}, "interpolation": 0, "handle_type": 0, "handle_right": {"X": 0.5, "Y": 0.0}, "co": {"X": 28.0, "Y": -1.0}}]}, "replace_image": false, "position": 23.9159375, "end": 1.1209375000000001, "layer": 4, "start": 0, "type": "Mask", "reader": {"height": 576, "width": 720, "video_length": "2592000", "audio_bit_rate": 0, "top_field_first": true, "display_ratio": {"den": 4, "num": 5}, "type": "QtImageReader", "video_bit_rate": 0, "vcodec": "", "acodec": "", "channel_layout": 4, "duration": 86400.0, "has_audio": false, "pixel_ratio": {"den": 1, "num": 1}, "file_size": "1658880", "fps": {"den": 1, "num": 30}, "path": "C:\\Program Files\\OpenShot Video Editor\\transitions\\common\\fade.svg", "pixel_format": -1, "audio_stream_index": -1, "video_timebase": {"den": 30, "num": 1}, "audio_timebase": {"den": 1, "num": 1}, "video_stream_index": -1, "interlaced_frame": false, "channels": 0, "has_single_image": true, "has_video": true, "sample_rate": 0}, "title": "Transition", "contrast": {"Points": [{"interpolation": 2, "co": {"X": 1.0, "Y": 3.0}}]}}, {"id": "EZSS7664M9", "brightness": {"Points": [{"handle_left": {"X": 0.5, "Y": 1.0}, "interpolation": 0, "handle_type": 0, "handle_right": {"X": 0.5, "Y": 0.0}, "co": {"X": 1.0, "Y": 1.0}}, {"handle_left": {"X": 0.5, "Y": 1.0}, "interpolation": 0, "handle_type": 0, "handle_right": {"X": 0.5, "Y": 0.0}, "co": {"X": 26.0, "Y": -1.0}}]}, "replace_image": false, "position": 34.03421875, "end": 1.0509374999999963, "layer": 4, "start": 0, "type": "Mask", "reader": {"height": 576, "width": 720, "video_length": "2592000", "audio_bit_rate": 0, "top_field_first": true, "display_ratio": {"den": 4, "num": 5}, "type": "QtImageReader", "video_bit_rate": 0, "vcodec": "", "acodec": "", "channel_layout": 4, "duration": 86400.0, "has_audio": false, "pixel_ratio": {"den": 1, "num": 1}, "file_size": "1658880", "fps": {"den": 1, "num": 30}, "path": "C:\\Program Files\\OpenShot Video Editor\\transitions\\common\\fade.svg", "pixel_format": -1, "audio_stream_index": -1, "video_timebase": {"den": 30, "num": 1}, "audio_timebase": {"den": 1, "num": 1}, "video_stream_index": -1, "interlaced_frame": false, "channels": 0, "has_single_image": true, "has_video": true, "sample_rate": 0}, "title": "Transition", "contrast": {"Points": [{"interpolation": 2, "co": {"X": 1.0, "Y": 3.0}}]}}, {"id": "00SHXEYG7E", "brightness": {"Points": [{"handle_left": {"X": 0.5, "Y": 1.0}, "interpolation": 0, "handle_type": 0, "handle_right": {"X": 0.5, "Y": 0.0}, "co": {"X": 1.0, "Y": 1.0}}, {"handle_left": {"X": 0.5, "Y": 1.0}, "interpolation": 0, "handle_type": 0, "handle_right": {"X": 0.5, "Y": 0.0}, "co": {"X": 28.0, "Y": -1.0}}]}, "replace_image": false, "position": 37.87, "end": 1.1242187500000043, "layer": 4, "start": 0, "type": "Mask", "reader": {"height": 576, "width": 720, "video_length": "2592000", "audio_bit_rate": 0, "top_field_first": true, "display_ratio": {"den": 4, "num": 5}, "type": "QtImageReader", "video_bit_rate": 0, "vcodec": "", "acodec": "", "channel_layout": 4, "duration": 86400.0, "has_audio": false, "pixel_ratio": {"den": 1, "num": 1}, "file_size": "1658880", "fps": {"den": 1, "num": 30}, "path": "C:\\Program Files\\OpenShot Video Editor\\transitions\\common\\fade.svg", "pixel_format": -1, "audio_stream_index": -1, "video_timebase": {"den": 30, "num": 1}, "audio_timebase": {"den": 1, "num": 1}, "video_stream_index": -1, "interlaced_frame": false, "channels": 0, "has_single_image": true, "has_video": true, "sample_rate": 0}, "title": "Transition", "contrast": {"Points": [{"interpolation": 2, "co": {"X": 1.0, "Y": 3.0}}]}}, {"id": "TUINYIA581", "brightness": {"Points": [{"handle_left": {"X": 0.5, "Y": 1.0}, "interpolation": 0, "handle_type": 0, "handle_right": {"X": 0.5, "Y": 0.0}, "co": {"X": 1.0, "Y": 1.0}}, {"handle_left": {"X": 0.5, "Y": 1.0}, "interpolation": 0, "handle_type": 0, "handle_right": {"X": 0.5, "Y": 0.0}, "co": {"X": 26.0, "Y": -1.0}}]}, "replace_image": false, "position": 42.699999999999996, "end": 1.0499999999999972, "layer": 4, "start": 0, "type": "Mask", "reader": {"height": 576, "width": 720, "video_length": "2592000", "audio_bit_rate": 0, "top_field_first": true, "display_ratio": {"den": 4, "num": 5}, "type": "QtImageReader", "video_bit_rate": 0, "vcodec": "", "acodec": "", "channel_layout": 4, "duration": 86400.0, "has_audio": false, "pixel_ratio": {"den": 1, "num": 1}, "file_size": "1658880", "fps": {"den": 1, "num": 30}, "path": "C:\\Program Files\\OpenShot Video Editor\\transitions\\common\\fade.svg", "pixel_format": -1, "audio_stream_index": -1, "video_timebase": {"den": 30, "num": 1}, "audio_timebase": {"den": 1, "num": 1}, "video_stream_index": -1, "interlaced_frame": false, "channels": 0, "has_single_image": true, "has_video": true, "sample_rate": 0}, "title": "Transition", "contrast": {"Points": [{"interpolation": 2, "co": {"X": 1.0, "Y": 3.0}}]}}, {"id": "ALPXWN5KRP", "brightness": {"Points": [{"handle_left": {"X": 0.5, "Y": 1.0}, "interpolation": 0, "handle_type": 0, "handle_right": {"X": 0.5, "Y": 0.0}, "co": {"X": 1.0, "Y": 1.0}}, {"handle_left": {"X": 0.5, "Y": 1.0}, "interpolation": 0, "handle_type": 0, "handle_right": {"X": 0.5, "Y": 0.0}, "co": {"X": 28.0, "Y": -1.0}}]}, "replace_image": false, "position": 47.739999999999995, "end": 1.1123437500000009, "layer": 4, "start": 0, "type": "Mask", "reader": {"height": 576, "width": 720, "video_length": "2592000", "audio_bit_rate": 0, "top_field_first": true, "display_ratio": {"den": 4, "num": 5}, "type": "QtImageReader", "video_bit_rate": 0, "vcodec": "", "acodec": "", "channel_layout": 4, "duration": 86400.0, "has_audio": false, "pixel_ratio": {"den": 1, "num": 1}, "file_size": "1658880", "fps": {"den": 1, "num": 30}, "path": "C:\\Program Files\\OpenShot Video Editor\\transitions\\common\\fade.svg", "pixel_format": -1, "audio_stream_index": -1, "video_timebase": {"den": 30, "num": 1}, "audio_timebase": {"den": 1, "num": 1}, "video_stream_index": -1, "interlaced_frame": false, "channels": 0, "has_single_image": true, "has_video": true, "sample_rate": 0}, "title": "Transition", "contrast": {"Points": [{"interpolation": 2, "co": {"X": 1.0, "Y": 3.0}}]}}, {"id": "XVRR2MCGC8", "brightness": {"Points": [{"handle_left": {"X": 0.5, "Y": 1.0}, "interpolation": 0, "handle_type": 0, "handle_right": {"X": 0.5, "Y": 0.0}, "co": {"X": 1.0, "Y": 1.0}}, {"handle_left": {"X": 0.5, "Y": 1.0}, "interpolation": 0, "handle_type": 0, "handle_right": {"X": 0.5, "Y": 0.0}, "co": {"X": 18.0, "Y": -1.0}}]}, "replace_image": false, "position": 3.74828125, "layer": 4, "start": 0, "type": "Mask", "reader": {"height": 576, "width": 720, "video_length": "2592000", "audio_bit_rate": 0, "top_field_first": true, "display_ratio": {"den": 4, "num": 5}, "type": "QtImageReader", "video_bit_rate": 0, "channel_layout": 4, "acodec": "", "vcodec": "", "duration": 86400.0, "has_audio": false, "pixel_ratio": {"den": 1, "num": 1}, "file_size": "1658880", "fps": {"den": 1, "num": 30}, "path": "C:\\Program Files\\OpenShot Video Editor\\transitions\\common\\fade.svg", "pixel_format": -1, "audio_stream_index": -1, "video_timebase": {"den": 30, "num": 1}, "audio_timebase": {"den": 1, "num": 1}, "video_stream_index": -1, "interlaced_frame": false, "channels": 0, "has_single_image": true, "has_video": true, "sample_rate": 0}, "title": "Transition", "end": 0.7217187500000009, "contrast": {"Points": [{"interpolation": 2, "co": {"X": 1.0, "Y": 3.0}}]}}, {"id": "TVMV1QDW4Y", "brightness": {"Points": [{"handle_left": {"X": 0.5, "Y": 1.0}, "interpolation": 0, "handle_type": 0, "handle_right": {"X": 0.5, "Y": 0.0}, "co": {"X": 1.0, "Y": 1.0}}, {"handle_left": {"X": 0.5, "Y": 1.0}, "interpolation": 0, "handle_type": 0, "handle_right": {"X": 0.5, "Y": 0.0}, "co": {"X": 31.0, "Y": -1.0}}]}, "replace_image": false, "position": 54.04, "layer": 4, "start": 0, "type": "Mask", "reader": {"height": 576, "width": 720, "video_length": "2592000", "audio_bit_rate": 0, "top_field_first": true, "display_ratio": {"den": 4, "num": 5}, "type": "QtImageReader", "video_bit_rate": 0, "channel_layout": 4, "acodec": "", "vcodec": "", "duration": 86400.0, "has_audio": false, "pixel_ratio": {"den": 1, "num": 1}, "file_size": "1658880", "fps": {"den": 1, "num": 30}, "path": "C:\\Program Files\\OpenShot Video Editor\\transitions\\common\\fade.svg", "pixel_format": -1, "audio_stream_index": -1, "video_timebase": {"den": 30, "num": 1}, "audio_timebase": {"den": 1, "num": 1}, "video_stream_index": -1, "interlaced_frame": false, "channels": 0, "has_single_image": true, "has_video": true, "sample_rate": 0}, "title": "Transition", "end": 1.259999999999998, "contrast": {"Points": [{"interpolation": 2, "co": {"X": 1.0, "Y": 3.0}}]}}, {"id": "9S8NSG1376", "brightness": {"Points": [{"handle_left": {"X": 0.5, "Y": 1.0}, "interpolation": 0, "handle_type": 0, "handle_right": {"X": 0.5, "Y": 0.0}, "co": {"X": 1.0, "Y": 1.0}}, {"handle_left": {"X": 0.5, "Y": 1.0}, "interpolation": 0, "handle_type": 0, "handle_right": {"X": 0.5, "Y": 0.0}, "co": {"X": 35.0, "Y": -1.0}}]}, "replace_image": false, "position": 56.059062499999996, "layer": 4, "start": 0, "type": "Mask", "reader": {"height": 576, "width": 720, "video_length": "2592000", "audio_bit_rate": 0, "top_field_first": true, "display_ratio": {"den": 4, "num": 5}, "type": "QtImageReader", "video_bit_rate": 0, "channel_layout": 4, "acodec": "", "vcodec": "", "duration": 86400.0, "has_audio": false, "pixel_ratio": {"den": 1, "num": 1}, "file_size": "1658880", "fps": {"den": 1, "num": 30}, "path": "C:\\Program Files\\OpenShot Video Editor\\transitions\\common\\fade.svg", "pixel_format": -1, "audio_stream_index": -1, "video_timebase": {"den": 30, "num": 1}, "audio_timebase": {"den": 1, "num": 1}, "video_stream_index": -1, "interlaced_frame": false, "channels": 0, "has_single_image": true, "has_video": true, "sample_rate": 0}, "title": "Transition", "end": 1.4009375000000048, "contrast": {"Points": [{"interpolation": 2, "co": {"X": 1.0, "Y": 3.0}}]}}, {"id": "DE5U7SUIS0", "brightness": {"Points": [{"handle_left": {"X": 0.5, "Y": 1.0}, "interpolation": 0, "handle_type": 0, "handle_right": {"X": 0.5, "Y": 0.0}, "co": {"X": 1.0, "Y": 1.0}}, {"handle_left": {"X": 0.5, "Y": 1.0}, "interpolation": 0, "handle_type": 0, "handle_right": {"X": 0.5, "Y": 0.0}, "co": {"X": 33.0, "Y": -1.0}}]}, "replace_image": false, "position": 57.459062499999995, "layer": 4, "start": 0, "type": "Mask", "reader": {"height": 576, "width": 720, "video_length": "2592000", "audio_bit_rate": 0, "top_field_first": true, "display_ratio": {"den": 4, "num": 5}, "type": "QtImageReader", "video_bit_rate": 0, "channel_layout": 4, "acodec": "", "vcodec": "", "duration": 86400.0, "has_audio": false, "pixel_ratio": {"den": 1, "num": 1}, "file_size": "1658880", "fps": {"den": 1, "num": 30}, "path": "C:\\Program Files\\OpenShot Video Editor\\transitions\\common\\fade.svg", "pixel_format": -1, "audio_stream_index": -1, "video_timebase": {"den": 30, "num": 1}, "audio_timebase": {"den": 1, "num": 1}, "video_stream_index": -1, "interlaced_frame": false, "channels": 0, "has_single_image": true, "has_video": true, "sample_rate": 0}, "title": "Transition", "end": 1.3200000000000003, "contrast": {"Points": [{"interpolation": 2, "co": {"X": 1.0, "Y": 3.0}}]}}]}, {"value": null, "type": "delete", "key": ["effects", {"id": "DYVC4Z99S7"}], "partial": false, "old_values": {"id": "DYVC4Z99S7", "brightness": {"Points": [{"handle_left": {"X": 0.5, "Y": 1.0}, "interpolation": 0, "handle_type": 0, "handle_right": {"X": 0.5, "Y": 0.0}, "co": {"X": 1.0, "Y": 1.0}}, {"handle_left": {"X": 0.5, "Y": 1.0}, "interpolation": 0, "handle_type": 0, "handle_right": {"X": 0.5, "Y": 0.0}, "co": {"X": 85.0, "Y": -1.0}}]}, "replace_image": false, "position": 36.82, "layer": 3, "start": 0, "type": "Mask", "reader": {"height": 576, "width": 720, "video_length": "2592000", "audio_bit_rate": 0, "top_field_first": true, "display_ratio": {"den": 4, "num": 5}, "type": "QtImageReader", "video_bit_rate": 0, "channel_layout": 4, "acodec": "", "vcodec": "", "duration": 86400.0, "has_audio": false, "pixel_ratio": {"den": 1, "num": 1}, "file_size": "1658880", "fps": {"den": 1, "num": 30}, "path": "C:\\Program Files\\OpenShot Video Editor\\transitions\\common\\fade.svg", "pixel_format": -1, "audio_stream_index": -1, "video_timebase": {"den": 30, "num": 1}, "audio_timebase": {"den": 1, "num": 1}, "video_stream_index": -1, "interlaced_frame": false, "channels": 0, "has_single_image": true, "has_video": true, "sample_rate": 0}, "title": "Transition", "end": 3.499999999999993, "contrast": {"Points": [{"interpolation": 2, "co": {"X": 1.0, "Y": 3.0}}]}}}, {"value": {"crop_width": {"Points": [{"interpolation": 2, "co": {"X": 1.0, "Y": -1.0}}]}, "display": 0, "waveform": false, "channel_filter": {"Points": [{"interpolation": 2, "co": {"X": 1.0, "Y": -1.0}}]}, "effects": [], "channel_mapping": {"Points": [{"interpolation": 2, "co": {"X": 1.0, "Y": -1.0}}]}, "layer": 3, "scale_y": {"Points": [{"interpolation": 2, "co": {"X": 1.0, "Y": 1.0}}]}, "perspective_c3_y": {"Points": [{"interpolation": 2, "co": {"X": 1.0, "Y": -1.0}}]}, "shear_y": {"Points": [{"interpolation": 2, "co": {"X": 1.0, "Y": 0.0}}]}, "end": 56.699999999999996, "gravity": 4, "crop_y": {"Points": [{"interpolation": 2, "co": {"X": 1.0, "Y": 0.0}}]}, "shear_x": {"Points": [{"interpolation": 2, "co": {"X": 1.0, "Y": 0.0}}]}, "duration": 94.0, "scale_x": {"Points": [{"interpolation": 2, "co": {"X": 1.0, "Y": 1.0}}]}, "has_audio": {"Points": [{"interpolation": 2, "co": {"X": 1.0, "Y": -1.0}}]}, "perspective_c4_y": {"Points": [{"interpolation": 2, "co": {"X": 1.0, "Y": -1.0}}]}, "perspective_c3_x": {"Points": [{"interpolation": 2, "co": {"X": 1.0, "Y": -1.0}}]}, "time": {"Points": [{"interpolation": 1, "co": {"X": 1.0, "Y": 1.0}}, {"interpolation": 1, "co": {"X": 2280.0, "Y": 4559.0}}]}, "perspective_c4_x": {"Points": [{"interpolation": 2, "co": {"X": 1.0, "Y": -1.0}}]}, "reader": {"height": 480, "width": 720, "video_length": "4559", "audio_bit_rate": 112000, "top_field_first": true, "display_ratio": {"den": 1, "num": 1}, "type": "FFmpegReader", "video_bit_rate": 0, "channel_layout": 3, "acodec": "mp3", "vcodec": "", "duration": 189.9627075195312, "has_audio": true, "pixel_ratio": {"den": 1, "num": 1}, "file_size": "2659839", "fps": {"den": 1, "num": 24}, "path": "C:\\Users\\Henry\\Documents\\Classes\\Fall 2017\\CS 329e Game Dev\\MVPgamedev\\Game\\assets\\sounds\\cute.mp3", "pixel_format": -1, "audio_stream_index": 0, "video_timebase": {"den": 24, "num": 1}, "audio_timebase": {"den": 14112000, "num": 1}, "video_stream_index": -1, "interlaced_frame": false, "sample_rate": 44100, "has_single_image": false, "has_video": false, "channels": 2}, "position": 36.47, "scale": 1, "wave_color": {"blue": {"Points": [{"handle_left": {"X": 0.5, "Y": 1.0}, "interpolation": 0, "handle_type": 0, "handle_right": {"X": 0.5, "Y": 0.0}, "co": {"X": 1.0, "Y": 255.0}}]}, "green": {"Points": [{"handle_left": {"X": 0.5, "Y": 1.0}, "interpolation": 0, "handle_type": 0, "handle_right": {"X": 0.5, "Y": 0.0}, "co": {"X": 1.0, "Y": 123.0}}]}, "red": {"Points": [{"handle_left": {"X": 0.5, "Y": 1.0}, "interpolation": 0, "handle_type": 0, "handle_right": {"X": 0.5, "Y": 0.0}, "co": {"X": 1.0, "Y": 0.0}}]}, "alpha": {"Points": [{"handle_left": {"X": 0.5, "Y": 1.0}, "interpolation": 0, "handle_type": 0, "handle_right": {"X": 0.5, "Y": 0.0}, "co": {"X": 1.0, "Y": 255.0}}]}}, "perspective_c1_y": {"Points": [{"interpolation": 2, "co": {"X": 1.0, "Y": -1.0}}]}, "file_id": "6DFW25DRJZ", "location_y": {"Points": [{"interpolation": 2, "co": {"X": 1.0, "Y": 0.0}}]}, "anchor": 0, "crop_x": {"Points": [{"interpolation": 2, "co": {"X": 1.0, "Y": 0.0}}]}, "volume": {"Points": [{"interpolation": 2, "co": {"X": 1.0, "Y": 1.0}}]}, "perspective_c2_y": {"Points": [{"interpolation": 2, "co": {"X": 1.0, "Y": -1.0}}]}, "title": "cute.mp3", "id": "GV8LG59DLC", "perspective_c2_x": {"Points": [{"interpolation": 2, "co": {"X": 1.0, "Y": -1.0}}]}, "start": 52.85, "image": "C:\\Users\\Henry\\.openshot_qt\\thumbnail\\GV8LG59DLC-1269.png", "alpha": {"Points": [{"interpolation": 2, "co": {"X": 1.0, "Y": 1.0}}]}, "crop_height": {"Points": [{"interpolation": 2, "co": {"X": 1.0, "Y": -1.0}}]}, "rotation": {"Points": [{"interpolation": 2, "co": {"X": 1.0, "Y": 0.0}}]}, "location_x": {"Points": [{"interpolation": 2, "co": {"X": 1.0, "Y": 0.0}}]}, "has_video": {"Points": [{"interpolation": 2, "co": {"X": 1.0, "Y": -1.0}}]}, "perspective_c1_x": {"Points": [{"interpolation": 2, "co": {"X": 1.0, "Y": -1.0}}]}}, "type": "insert", "key": ["clips"], "partial": false, "old_values": [{"crop_width": {"Points": [{"interpolation": 2, "co": {"X": 1.0, "Y": -1.0}}]}, "display": 0, "waveform": false, "channel_filter": {"Points": [{"interpolation": 2, "co": {"X": 1.0, "Y": -1.0}}]}, "effects": [], "layer": 4, "scale_y": {"Points": [{"interpolation": 2, "co": {"X": 1.0, "Y": 1.0}}]}, "shear_y": {"Points": [{"interpolation": 2, "co": {"X": 1.0, "Y": 0.0}}]}, "rotation": {"Points": [{"interpolation": 2, "co": {"X": 1.0, "Y": 0.0}}]}, "end": 6.239999999999999, "time": {"Points": [{"interpolation": 2, "co": {"X": 1.0, "Y": 1.0}}]}, "crop_x": {"Points": [{"interpolation": 2, "co": {"X": 1.0, "Y": 0.0}}]}, "shear_x": {"Points": [{"interpolation": 2, "co": {"X": 1.0, "Y": 0.0}}]}, "duration": 857.8773193359375, "scale_x": {"Points": [{"interpolation": 2, "co": {"X": 1.0, "Y": 1.0}}]}, "has_audio": {"Points": [{"interpolation": 2, "co": {"X": 1.0, "Y": -1.0}}]}, "perspective_c4_y": {"Points": [{"interpolation": 2, "co": {"X": 1.0, "Y": -1.0}}]}, "perspective_c3_y": {"Points": [{"interpolation": 2, "co": {"X": 1.0, "Y": -1.0}}]}, "channel_mapping": {"Points": [{"interpolation": 2, "co": {"X": 1.0, "Y": -1.0}}]}, "perspective_c4_x": {"Points": [{"interpolation": 2, "co": {"X": 1.0, "Y": -1.0}}]}, "position": 3.74828125, "scale": 1, "wave_color": {"blue": {"Points": [{"handle_left": {"X": 0.5, "Y": 1.0}, "interpolation": 0, "handle_type": 0, "handle_right": {"X": 0.5, "Y": 0.0}, "co": {"X": 1.0, "Y": 255.0}}]}, "green": {"Points": [{"handle_left": {"X": 0.5, "Y": 1.0}, "interpolation": 0, "handle_type": 0, "handle_right": {"X": 0.5, "Y": 0.0}, "co": {"X": 1.0, "Y": 123.0}}]}, "red": {"Points": [{"handle_left": {"X": 0.5, "Y": 1.0}, "interpolation": 0, "handle_type": 0, "handle_right": {"X": 0.5, "Y": 0.0}, "co": {"X": 1.0, "Y": 0.0}}]}, "alpha": {"Points": [{"handle_left": {"X": 0.5, "Y": 1.0}, "interpolation": 0, "handle_type": 0, "handle_right": {"X": 0.5, "Y": 0.0}, "co": {"X": 1.0, "Y": 255.0}}]}}, "file_id": "KMO2K20KW3", "location_y": {"Points": [{"interpolation": 2, "co": {"X": 1.0, "Y": 0.0}}]}, "anchor": 0, "gravity": 4, "volume": {"Points": [{"interpolation": 2, "co": {"X": 1.0, "Y": 1.0}}, {"handle_left": {"X": 0.5, "Y": 1.0}, "interpolation": 0, "handle_type": 0, "handle_right": {"X": 0.5, "Y": 0.0}, "co": {"X": 17.0, "Y": 0.0}}]}, "perspective_c2_y": {"Points": [{"interpolation": 2, "co": {"X": 1.0, "Y": -1.0}}]}, "title": "index.html - Google Chrome 11_27_2017 4_25_11 PM.mp4", "perspective_c3_x": {"Points": [{"interpolation": 2, "co": {"X": 1.0, "Y": -1.0}}]}, "id": "D7NUNOPHFR", "crop_y": {"Points": [{"interpolation": 2, "co": {"X": 1.0, "Y": 0.0}}]}, "has_video": {"Points": [{"interpolation": 2, "co": {"X": 1.0, "Y": -1.0}}]}, "perspective_c2_x": {"Points": [{"interpolation": 2, "co": {"X": 1.0, "Y": -1.0}}]}, "start": 0.6599999999999999, "image": "C:\\Users\\Henry\\.openshot_qt\\thumbnail\\D7NUNOPHFR-21.png", "alpha": {"Points": [{"interpolation": 2, "co": {"X": 1.0, "Y": 1.0}}]}, "crop_height": {"Points": [{"interpolation": 2, "co": {"X": 1.0, "Y": -1.0}}]}, "reader": {"height": 776, "width": 1376, "video_length": "25729", "audio_bit_rate": 131760, "top_field_first": true, "display_ratio": {"den": 97, "num": 172}, "type": "FFmpegReader", "video_bit_rate": 5473610, "vcodec": "h264", "acodec": "aac", "channel_layout": 3, "duration": 857.8773193359375, "has_audio": true, "pixel_ratio": {"den": 1, "num": 1}, "file_size": "586964452", "fps": {"den": 12866759, "num": 385935000}, "path": "C:\\Users\\Henry\\Videos\\Captures\\index.html - Google Chrome 11_27_2017 4_25_11 PM.mp4", "pixel_format": 0, "audio_stream_index": 1, "video_timebase": {"den": 30000, "num": 1}, "audio_timebase": {"den": 48000, "num": 1}, "video_stream_index": 0, "interlaced_frame": false, "channels": 2, "has_single_image": false, "has_video": true, "sample_rate": 48000}, "location_x": {"Points": [{"interpolation": 2, "co": {"X": 1.0, "Y": 0.0}}]}, "perspective_c1_y": {"Points": [{"interpolation": 2, "co": {"X": 1.0, "Y": -1.0}}]}, "perspective_c1_x": {"Points": [{"interpolation": 2, "co": {"X": 1.0, "Y": -1.0}}]}}, {"crop_width": {"Points": [{"interpolation": 2, "co": {"X": 1.0, "Y": -1.0}}]}, "display": 0, "waveform": false, "channel_filter": {"Points": [{"interpolation": 2, "co": {"X": 1.0, "Y": -1.0}}]}, "effects": [], "layer": 4, "scale_y": {"Points": [{"interpolation": 2, "co": {"X": 1.0, "Y": 1.0}}]}, "shear_y": {"Points": [{"interpolation": 2, "co": {"X": 1.0, "Y": 0.0}}]}, "rotation": {"Points": [{"interpolation": 2, "co": {"X": 1.0, "Y": 0.0}}]}, "end": 92.27999999999999, "time": {"Points": [{"interpolation": 1, "co": {"X": 1.0, "Y": 0.0}}]}, "crop_x": {"Points": [{"interpolation": 2, "co": {"X": 1.0, "Y": 0.0}}]}, "shear_x": {"Points": [{"interpolation": 2, "co": {"X": 1.0, "Y": 0.0}}]}, "duration": 857.8773193359375, "scale_x": {"Points": [{"interpolation": 2, "co": {"X": 1.0, "Y": 1.0}}]}, "has_audio": {"Points": [{"interpolation": 2, "co": {"X": 1.0, "Y": -1.0}}]}, "perspective_c4_y": {"Points": [{"interpolation": 2, "co": {"X": 1.0, "Y": -1.0}}]}, "perspective_c3_y": {"Points": [{"interpolation": 2, "co": {"X": 1.0, "Y": -1.0}}]}, "channel_mapping": {"Points": [{"interpolation": 2, "co": {"X": 1.0, "Y": -1.0}}]}, "perspective_c4_x": {"Points": [{"interpolation": 2, "co": {"X": 1.0, "Y": -1.0}}]}, "position": 37.87, "scale": 1, "wave_color": {"blue": {"Points": [{"handle_left": {"X": 0.5, "Y": 1.0}, "interpolation": 0, "handle_type": 0, "handle_right": {"X": 0.5, "Y": 0.0}, "co": {"X": 1.0, "Y": 255.0}}]}, "green": {"Points": [{"handle_left": {"X": 0.5, "Y": 1.0}, "interpolation": 0, "handle_type": 0, "handle_right": {"X": 0.5, "Y": 0.0}, "co": {"X": 1.0, "Y": 123.0}}]}, "red": {"Points": [{"handle_left": {"X": 0.5, "Y": 1.0}, "interpolation": 0, "handle_type": 0, "handle_right": {"X": 0.5, "Y": 0.0}, "co": {"X": 1.0, "Y": 0.0}}]}, "alpha": {"Points": [{"handle_left": {"X": 0.5, "Y": 1.0}, "interpolation": 0, "handle_type": 0, "handle_right": {"X": 0.5, "Y": 0.0}, "co": {"X": 1.0, "Y": 255.0}}]}}, "file_id": "KMO2K20KW3", "location_y": {"Points": [{"interpolation": 2, "co": {"X": 1.0, "Y": 0.0}}]}, "anchor": 0, "gravity": 4, "volume": {"Points": [{"interpolation": 2, "co": {"X": 1.0, "Y": 1.0}}, {"handle_left": {"X": 0.5, "Y": 1.0}, "interpolation": 0, "handle_type": 0, "handle_right": {"X": 0.5, "Y": 0.0}, "co": {"X": 2075.0, "Y": 0.0}}, {"handle_left": {"X": 0.5, "Y": 1.0}, "interpolation": 0, "handle_type": 0, "handle_right": {"X": 0.5, "Y": 0.0}, "co": {"X": 2075.0, "Y": 0.0}}]}, "perspective_c2_y": {"Points": [{"interpolation": 2, "co": {"X": 1.0, "Y": -1.0}}]}, "title": "index.html - Google Chrome 11_27_2017 4_25_11 PM.mp4", "perspective_c3_x": {"Points": [{"interpolation": 2, "co": {"X": 1.0, "Y": -1.0}}]}, "id": "FVONGYF9VS", "crop_y": {"Points": [{"interpolation": 2, "co": {"X": 1.0, "Y": 0.0}}]}, "has_video": {"Points": [{"interpolation": 2, "co": {"X": 1.0, "Y": -1.0}}]}, "perspective_c2_x": {"Points": [{"interpolation": 2, "co": {"X": 1.0, "Y": -1.0}}]}, "start": 86.39999999999999, "image": "C:\\Users\\Henry\\.openshot_qt\\thumbnail\\FVONGYF9VS-2593.png", "alpha": {"Points": [{"interpolation": 2, "co": {"X": 1.0, "Y": 1.0}}]}, "crop_height": {"Points": [{"interpolation": 2, "co": {"X": 1.0, "Y": -1.0}}]}, "reader": {"height": 776, "width": 1376, "video_length": "25729", "audio_bit_rate": 131760, "top_field_first": true, "display_ratio": {"den": 97, "num": 172}, "type": "FFmpegReader", "video_bit_rate": 5473610, "vcodec": "h264", "acodec": "aac", "channel_layout": 3, "duration": 857.8773193359375, "has_audio": true, "pixel_ratio": {"den": 1, "num": 1}, "file_size": "586964452", "fps": {"den": 12866759, "num": 385935000}, "path": "C:\\Users\\Henry\\Videos\\Captures\\index.html - Google Chrome 11_27_2017 4_25_11 PM.mp4", "pixel_format": 0, "audio_stream_index": 1, "video_timebase": {"den": 30000, "num": 1}, "audio_timebase": {"den": 48000, "num": 1}, "video_stream_index": 0, "interlaced_frame": false, "channels": 2, "has_single_image": false, "has_video": true, "sample_rate": 48000}, "location_x": {"Points": [{"interpolation": 2, "co": {"X": 1.0, "Y": 0.0}}]}, "perspective_c1_y": {"Points": [{"interpolation": 2, "co": {"X": 1.0, "Y": -1.0}}]}, "perspective_c1_x": {"Points": [{"interpolation": 2, "co": {"X": 1.0, "Y": -1.0}}]}}, {"crop_width": {"Points": [{"interpolation": 2, "co": {"X": 1.0, "Y": -1.0}}]}, "display": 0, "waveform": false, "channel_filter": {"Points": [{"interpolation": 2, "co": {"X": 1.0, "Y": -1.0}}]}, "effects": [], "layer": 4, "scale_y": {"Points": [{"interpolation": 2, "co": {"X": 1.0, "Y": 1.0}}]}, "shear_y": {"Points": [{"interpolation": 2, "co": {"X": 1.0, "Y": 0.0}}]}, "rotation": {"Points": [{"interpolation": 2, "co": {"X": 1.0, "Y": 0.0}}]}, "end": 416.72999999999996, "time": {"Points": [{"interpolation": 2, "co": {"X": 1.0, "Y": 1.0}}]}, "crop_x": {"Points": [{"interpolation": 2, "co": {"X": 1.0, "Y": 0.0}}]}, "shear_x": {"Points": [{"interpolation": 2, "co": {"X": 1.0, "Y": 0.0}}]}, "duration": 857.8773193359375, "scale_x": {"Points": [{"interpolation": 2, "co": {"X": 1.0, "Y": 1.0}}]}, "has_audio": {"Points": [{"interpolation": 2, "co": {"X": 1.0, "Y": -1.0}}]}, "perspective_c4_y": {"Points": [{"interpolation": 2, "co": {"X": 1.0, "Y": -1.0}}]}, "perspective_c3_y": {"Points": [{"interpolation": 2, "co": {"X": 1.0, "Y": -1.0}}]}, "channel_mapping": {"Points": [{"interpolation": 2, "co": {"X": 1.0, "Y": -1.0}}]}, "perspective_c4_x": {"Points": [{"interpolation": 2, "co": {"X": 1.0, "Y": -1.0}}]}, "position": 11.85734375, "scale": 1, "wave_color": {"blue": {"Points": [{"handle_left": {"X": 0.5, "Y": 1.0}, "interpolation": 0, "handle_type": 0, "handle_right": {"X": 0.5, "Y": 0.0}, "co": {"X": 1.0, "Y": 255.0}}]}, "green": {"Points": [{"handle_left": {"X": 0.5, "Y": 1.0}, "interpolation": 0, "handle_type": 0, "handle_right": {"X": 0.5, "Y": 0.0}, "co": {"X": 1.0, "Y": 123.0}}]}, "red": {"Points": [{"handle_left": {"X": 0.5, "Y": 1.0}, "interpolation": 0, "handle_type": 0, "handle_right": {"X": 0.5, "Y": 0.0}, "co": {"X": 1.0, "Y": 0.0}}]}, "alpha": {"Points": [{"handle_left": {"X": 0.5, "Y": 1.0}, "interpolation": 0, "handle_type": 0, "handle_right": {"X": 0.5, "Y": 0.0}, "co": {"X": 1.0, "Y": 255.0}}]}}, "file_id": "KMO2K20KW3", "location_y": {"Points": [{"interpolation": 2, "co": {"X": 1.0, "Y": 0.0}}]}, "anchor": 0, "gravity": 4, "volume": {"Points": [{"interpolation": 2, "co": {"X": 1.0, "Y": 1.0}}, {"handle_left": {"X": 0.5, "Y": 1.0}, "interpolation": 0, "handle_type": 0, "handle_right": {"X": 0.5, "Y": 0.0}, "co": {"X": 9795.0, "Y": 0.0}}, {"handle_left": {"X": 0.5, "Y": 1.0}, "interpolation": 0, "handle_type": 0, "handle_right": {"X": 0.5, "Y": 0.0}, "co": {"X": 9795.0, "Y": 0.0}}, {"handle_left": {"X": 0.5, "Y": 1.0}, "interpolation": 0, "handle_type": 0, "handle_right": {"X": 0.5, "Y": 0.0}, "co": {"X": 9795.0, "Y": 0.0}}, {"handle_left": {"X": 0.5, "Y": 1.0}, "interpolation": 0, "handle_type": 0, "handle_right": {"X": 0.5, "Y": 0.0}, "co": {"X": 9795.0, "Y": 0.0}}]}, "perspective_c2_y": {"Points": [{"interpolation": 2, "co": {"X": 1.0, "Y": -1.0}}]}, "title": "index.html - Google Chrome 11_27_2017 4_25_11 PM.mp4", "perspective_c3_x": {"Points": [{"interpolation": 2, "co": {"X": 1.0, "Y": -1.0}}]}, "id": "AD57EI7486", "crop_y": {"Points": [{"interpolation": 2, "co": {"X": 1.0, "Y": 0.0}}]}, "has_video": {"Points": [{"interpolation": 2, "co": {"X": 1.0, "Y": -1.0}}]}, "perspective_c2_x": {"Points": [{"interpolation": 2, "co": {"X": 1.0, "Y": -1.0}}]}, "start": 408.09, "image": "C:\\Users\\Henry\\.openshot_qt\\thumbnail\\AD57EI7486-12242.png", "alpha": {"Points": [{"interpolation": 2, "co": {"X": 1.0, "Y": 1.0}}]}, "crop_height": {"Points": [{"interpolation": 2, "co": {"X": 1.0, "Y": -1.0}}]}, "reader": {"height": 776, "width": 1376, "video_length": "25729", "audio_bit_rate": 131760, "top_field_first": true, "display_ratio": {"den": 97, "num": 172}, "type": "FFmpegReader", "video_bit_rate": 5473610, "vcodec": "h264", "acodec": "aac", "channel_layout": 3, "duration": 857.8773193359375, "has_audio": true, "pixel_ratio": {"den": 1, "num": 1}, "file_size": "586964452", "fps": {"den": 12866759, "num": 385935000}, "path": "C:\\Users\\Henry\\Videos\\Captures\\index.html - Google Chrome 11_27_2017 4_25_11 PM.mp4", "pixel_format": 0, "audio_stream_index": 1, "video_timebase": {"den": 30000, "num": 1}, "audio_timebase": {"den": 48000, "num": 1}, "video_stream_index": 0, "interlaced_frame": false, "channels": 2, "has_single_image": false, "has_video": true, "sample_rate": 48000}, "location_x": {"Points": [{"interpolation": 2, "co": {"X": 1.0, "Y": 0.0}}]}, "perspective_c1_y": {"Points": [{"interpolation": 2, "co": {"X": 1.0, "Y": -1.0}}]}, "perspective_c1_x": {"Points": [{"interpolation": 2, "co": {"X": 1.0, "Y": -1.0}}]}}, {"crop_width": {"Points": [{"interpolation": 2, "co": {"X": 1.0, "Y": -1.0}}]}, "display": 0, "waveform": false, "channel_filter": {"Points": [{"interpolation": 2, "co": {"X": 1.0, "Y": -1.0}}]}, "effects": [], "layer": 4, "scale_y": {"Points": [{"interpolation": 2, "co": {"X": 1.0, "Y": 1.0}}]}, "shear_y": {"Points": [{"interpolation": 2, "co": {"X": 1.0, "Y": 0.0}}]}, "rotation": {"Points": [{"interpolation": 2, "co": {"X": 1.0, "Y": 0.0}}]}, "end": 321.36234375, "time": {"Points": [{"interpolation": 1, "co": {"X": 1.0, "Y": 0.0}}]}, "crop_x": {"Points": [{"interpolation": 2, "co": {"X": 1.0, "Y": 0.0}}]}, "shear_x": {"Points": [{"interpolation": 2, "co": {"X": 1.0, "Y": 0.0}}]}, "duration": 857.8773193359375, "scale_x": {"Points": [{"interpolation": 2, "co": {"X": 1.0, "Y": 1.0}}]}, "has_audio": {"Points": [{"interpolation": 2, "co": {"X": 1.0, "Y": -1.0}}]}, "perspective_c4_y": {"Points": [{"interpolation": 2, "co": {"X": 1.0, "Y": -1.0}}]}, "perspective_c3_y": {"Points": [{"interpolation": 2, "co": {"X": 1.0, "Y": -1.0}}]}, "channel_mapping": {"Points": [{"interpolation": 2, "co": {"X": 1.0, "Y": -1.0}}]}, "perspective_c4_x": {"Points": [{"interpolation": 2, "co": {"X": 1.0, "Y": -1.0}}]}, "position": 42.699999999999996, "scale": 1, "wave_color": {"blue": {"Points": [{"handle_left": {"X": 0.5, "Y": 1.0}, "interpolation": 0, "handle_type": 0, "handle_right": {"X": 0.5, "Y": 0.0}, "co": {"X": 1.0, "Y": 255.0}}]}, "green": {"Points": [{"handle_left": {"X": 0.5, "Y": 1.0}, "interpolation": 0, "handle_type": 0, "handle_right": {"X": 0.5, "Y": 0.0}, "co": {"X": 1.0, "Y": 123.0}}]}, "red": {"Points": [{"handle_left": {"X": 0.5, "Y": 1.0}, "interpolation": 0, "handle_type": 0, "handle_right": {"X": 0.5, "Y": 0.0}, "co": {"X": 1.0, "Y": 0.0}}]}, "alpha": {"Points": [{"handle_left": {"X": 0.5, "Y": 1.0}, "interpolation": 0, "handle_type": 0, "handle_right": {"X": 0.5, "Y": 0.0}, "co": {"X": 1.0, "Y": 255.0}}]}}, "file_id": "KMO2K20KW3", "location_y": {"Points": [{"interpolation": 2, "co": {"X": 1.0, "Y": 0.0}}]}, "anchor": 0, "gravity": 4, "volume": {"Points": [{"interpolation": 2, "co": {"X": 1.0, "Y": 1.0}}, {"handle_left": {"X": 0.5, "Y": 1.0}, "interpolation": 0, "handle_type": 0, "handle_right": {"X": 0.5, "Y": 0.0}, "co": {"X": 7566.0, "Y": 0.0}}]}, "perspective_c2_y": {"Points": [{"interpolation": 2, "co": {"X": 1.0, "Y": -1.0}}]}, "title": "index.html - Google Chrome 11_27_2017 4_25_11 PM.mp4", "perspective_c3_x": {"Points": [{"interpolation": 2, "co": {"X": 1.0, "Y": -1.0}}]}, "id": "6W74PKD2H3", "crop_y": {"Points": [{"interpolation": 2, "co": {"X": 1.0, "Y": 0.0}}]}, "has_video": {"Points": [{"interpolation": 2, "co": {"X": 1.0, "Y": -1.0}}]}, "perspective_c2_x": {"Points": [{"interpolation": 2, "co": {"X": 1.0, "Y": -1.0}}]}, "start": 315.21, "image": "C:\\Users\\Henry\\.openshot_qt\\thumbnail\\6W74PKD2H3-9456.png", "alpha": {"Points": [{"interpolation": 2, "co": {"X": 1.0, "Y": 1.0}}]}, "crop_height": {"Points": [{"interpolation": 2, "co": {"X": 1.0, "Y": -1.0}}]}, "reader": {"height": 776, "width": 1376, "video_length": "25729", "audio_bit_rate": 131760, "top_field_first": true, "display_ratio": {"den": 97, "num": 172}, "type": "FFmpegReader", "video_bit_rate": 5473610, "vcodec": "h264", "acodec": "aac", "channel_layout": 3, "duration": 857.8773193359375, "has_audio": true, "pixel_ratio": {"den": 1, "num": 1}, "file_size": "586964452", "fps": {"den": 12866759, "num": 385935000}, "path": "C:\\Users\\Henry\\Videos\\Captures\\index.html - Google Chrome 11_27_2017 4_25_11 PM.mp4", "pixel_format": 0, "audio_stream_index": 1, "video_timebase": {"den": 30000, "num": 1}, "audio_timebase": {"den": 48000, "num": 1}, "video_stream_index": 0, "interlaced_frame": false, "channels": 2, "has_single_image": false, "has_video": true, "sample_rate": 48000}, "location_x": {"Points": [{"interpolation": 2, "co": {"X": 1.0, "Y": 0.0}}]}, "perspective_c1_y": {"Points": [{"interpolation": 2, "co": {"X": 1.0, "Y": -1.0}}]}, "perspective_c1_x": {"Points": [{"interpolation": 2, "co": {"X": 1.0, "Y": -1.0}}]}}, {"crop_width": {"Points": [{"interpolation": 2, "co": {"X": 1.0, "Y": -1.0}}]}, "display": 0, "waveform": false, "channel_filter": {"Points": [{"interpolation": 2, "co": {"X": 1.0, "Y": -1.0}}]}, "effects": [], "layer": 4, "scale_y": {"Points": [{"interpolation": 2, "co": {"X": 1.0, "Y": 1.0}}]}, "shear_y": {"Points": [{"interpolation": 2, "co": {"X": 1.0, "Y": 0.0}}]}, "rotation": {"Points": [{"interpolation": 2, "co": {"X": 1.0, "Y": 0.0}}]}, "end": 156.24, "time": {"Points": [{"interpolation": 2, "co": {"X": 1.0, "Y": 1.0}}]}, "crop_x": {"Points": [{"interpolation": 2, "co": {"X": 1.0, "Y": 0.0}}]}, "shear_x": {"Points": [{"interpolation": 2, "co": {"X": 1.0, "Y": 0.0}}]}, "duration": 857.8773193359375, "scale_x": {"Points": [{"interpolation": 2, "co": {"X": 1.0, "Y": 1.0}}]}, "has_audio": {"Points": [{"interpolation": 2, "co": {"X": 1.0, "Y": -1.0}}]}, "perspective_c4_y": {"Points": [{"interpolation": 2, "co": {"X": 1.0, "Y": -1.0}}]}, "perspective_c3_y": {"Points": [{"interpolation": 2, "co": {"X": 1.0, "Y": -1.0}}]}, "channel_mapping": {"Points": [{"interpolation": 2, "co": {"X": 1.0, "Y": -1.0}}]}, "perspective_c4_x": {"Points": [{"interpolation": 2, "co": {"X": 1.0, "Y": -1.0}}]}, "position": 23.9159375, "scale": 1, "wave_color": {"blue": {"Points": [{"handle_left": {"X": 0.5, "Y": 1.0}, "interpolation": 0, "handle_type": 0, "handle_right": {"X": 0.5, "Y": 0.0}, "co": {"X": 1.0, "Y": 255.0}}]}, "green": {"Points": [{"handle_left": {"X": 0.5, "Y": 1.0}, "interpolation": 0, "handle_type": 0, "handle_right": {"X": 0.5, "Y": 0.0}, "co": {"X": 1.0, "Y": 123.0}}]}, "red": {"Points": [{"handle_left": {"X": 0.5, "Y": 1.0}, "interpolation": 0, "handle_type": 0, "handle_right": {"X": 0.5, "Y": 0.0}, "co": {"X": 1.0, "Y": 0.0}}]}, "alpha": {"Points": [{"handle_left": {"X": 0.5, "Y": 1.0}, "interpolation": 0, "handle_type": 0, "handle_right": {"X": 0.5, "Y": 0.0}, "co": {"X": 1.0, "Y": 255.0}}]}}, "file_id": "KMO2K20KW3", "location_y": {"Points": [{"interpolation": 2, "co": {"X": 1.0, "Y": 0.0}}]}, "anchor": 0, "gravity": 4, "volume": {"Points": [{"interpolation": 2, "co": {"X": 1.0, "Y": 1.0}}, {"handle_left": {"X": 0.5, "Y": 1.0}, "interpolation": 0, "handle_type": 0, "handle_right": {"X": 0.5, "Y": 0.0}, "co": {"X": 3483.0, "Y": 0.0}}, {"handle_left": {"X": 0.5, "Y": 1.0}, "interpolation": 0, "handle_type": 0, "handle_right": {"X": 0.5, "Y": 0.0}, "co": {"X": 3483.0, "Y": 0.0}}, {"handle_left": {"X": 0.5, "Y": 1.0}, "interpolation": 0, "handle_type": 0, "handle_right": {"X": 0.5, "Y": 0.0}, "co": {"X": 3483.0, "Y": 0.0}}]}, "perspective_c2_y": {"Points": [{"interpolation": 2, "co": {"X": 1.0, "Y": -1.0}}]}, "title": "index.html - Google Chrome 11_27_2017 4_25_11 PM.mp4", "perspective_c3_x": {"Points": [{"interpolation": 2, "co": {"X": 1.0, "Y": -1.0}}]}, "id": "QUIH57SWSC", "crop_y": {"Points": [{"interpolation": 2, "co": {"X": 1.0, "Y": 0.0}}]}, "has_video": {"Points": [{"interpolation": 2, "co": {"X": 1.0, "Y": -1.0}}]}, "perspective_c2_x": {"Points": [{"interpolation": 2, "co": {"X": 1.0, "Y": -1.0}}]}, "start": 145.07078125, "image": "C:\\Users\\Henry\\.openshot_qt\\thumbnail\\QUIH57SWSC-4352.png", "alpha": {"Points": [{"interpolation": 2, "co": {"X": 1.0, "Y": 1.0}}]}, "crop_height": {"Points": [{"interpolation": 2, "co": {"X": 1.0, "Y": -1.0}}]}, "reader": {"height": 776, "width": 1376, "video_length": "25729", "audio_bit_rate": 131760, "top_field_first": true, "display_ratio": {"den": 97, "num": 172}, "type": "FFmpegReader", "video_bit_rate": 5473610, "vcodec": "h264", "acodec": "aac", "channel_layout": 3, "duration": 857.8773193359375, "has_audio": true, "pixel_ratio": {"den": 1, "num": 1}, "file_size": "586964452", "fps": {"den": 12866759, "num": 385935000}, "path": "C:\\Users\\Henry\\Videos\\Captures\\index.html - Google Chrome 11_27_2017 4_25_11 PM.mp4", "pixel_format": 0, "audio_stream_index": 1, "video_timebase": {"den": 30000, "num": 1}, "audio_timebase": {"den": 48000, "num": 1}, "video_stream_index": 0, "interlaced_frame": false, "channels": 2, "has_single_image": false, "has_video": true, "sample_rate": 48000}, "location_x": {"Points": [{"interpolation": 2, "co": {"X": 1.0, "Y": 0.0}}]}, "perspective_c1_y": {"Points": [{"interpolation": 2, "co": {"X": 1.0, "Y": -1.0}}]}, "perspective_c1_x": {"Points": [{"interpolation": 2, "co": {"X": 1.0, "Y": -1.0}}]}}, {"crop_width": {"Points": [{"interpolation": 2, "co": {"X": 1.0, "Y": -1.0}}]}, "display": 0, "waveform": false, "channel_filter": {"Points": [{"interpolation": 2, "co": {"X": 1.0, "Y": -1.0}}]}, "effects": [], "layer": 4, "scale_y": {"Points": [{"interpolation": 2, "co": {"X": 1.0, "Y": 1.0}}]}, "perspective_c3_y": {"Points": [{"interpolation": 2, "co": {"X": 1.0, "Y": -1.0}}]}, "rotation": {"Points": [{"interpolation": 2, "co": {"X": 1.0, "Y": 0.0}}]}, "end": 18.880000000000003, "time": {"Points": [{"interpolation": 2, "co": {"X": 1.0, "Y": 1.0}}]}, "crop_x": {"Points": [{"interpolation": 2, "co": {"X": 1.0, "Y": 0.0}}]}, "shear_x": {"Points": [{"interpolation": 2, "co": {"X": 1.0, "Y": 0.0}}]}, "duration": 32.23466491699219, "scale_x": {"Points": [{"interpolation": 2, "co": {"X": 1.0, "Y": 1.0}}]}, "title": "index.html - Google Chrome 11_27_2017 5_33_03 PM.mp4", "has_audio": {"Points": [{"interpolation": 2, "co": {"X": 1.0, "Y": -1.0}}]}, "perspective_c4_y": {"Points": [{"interpolation": 2, "co": {"X": 1.0, "Y": -1.0}}]}, "channel_mapping": {"Points": [{"interpolation": 2, "co": {"X": 1.0, "Y": -1.0}}]}, "perspective_c4_x": {"Points": [{"interpolation": 2, "co": {"X": 1.0, "Y": -1.0}}]}, "position": 47.739999999999995, "scale": 1, "wave_color": {"blue": {"Points": [{"handle_left": {"X": 0.5, "Y": 1.0}, "interpolation": 0, "handle_type": 0, "handle_right": {"X": 0.5, "Y": 0.0}, "co": {"X": 1.0, "Y": 255.0}}]}, "green": {"Points": [{"handle_left": {"X": 0.5, "Y": 1.0}, "interpolation": 0, "handle_type": 0, "handle_right": {"X": 0.5, "Y": 0.0}, "co": {"X": 1.0, "Y": 123.0}}]}, "red": {"Points": [{"handle_left": {"X": 0.5, "Y": 1.0}, "interpolation": 0, "handle_type": 0, "handle_right": {"X": 0.5, "Y": 0.0}, "co": {"X": 1.0, "Y": 0.0}}]}, "alpha": {"Points": [{"handle_left": {"X": 0.5, "Y": 1.0}, "interpolation": 0, "handle_type": 0, "handle_right": {"X": 0.5, "Y": 0.0}, "co": {"X": 1.0, "Y": 255.0}}]}}, "perspective_c1_x": {"Points": [{"interpolation": 2, "co": {"X": 1.0, "Y": -1.0}}]}, "file_id": "8GACR95UFW", "location_y": {"Points": [{"interpolation": 2, "co": {"X": 1.0, "Y": 0.0}}]}, "alpha": {"Points": [{"interpolation": 2, "co": {"X": 1.0, "Y": 1.0}}]}, "start": 11.32, "volume": {"Points": [{"interpolation": 2, "co": {"X": 1.0, "Y": 1.0}}, {"handle_left": {"X": 0.5, "Y": 1.0}, "interpolation": 0, "handle_type": 0, "handle_right": {"X": 0.5, "Y": 0.0}, "co": {"X": 273.0, "Y": 0.0}}]}, "anchor": 0, "gravity": 4, "perspective_c2_y": {"Points": [{"interpolation": 2, "co": {"X": 1.0, "Y": -1.0}}]}, "id": "AQ0LTW4H45", "crop_y": {"Points": [{"interpolation": 2, "co": {"X": 1.0, "Y": 0.0}}]}, "has_video": {"Points": [{"interpolation": 2, "co": {"X": 1.0, "Y": -1.0}}]}, "perspective_c2_x": {"Points": [{"interpolation": 2, "co": {"X": 1.0, "Y": -1.0}}]}, "perspective_c1_y": {"Points": [{"interpolation": 2, "co": {"X": 1.0, "Y": -1.0}}]}, "image": "C:\\Users\\Henry\\.openshot_qt\\thumbnail\\AQ0LTW4H45-327.png", "crop_height": {"Points": [{"interpolation": 2, "co": {"X": 1.0, "Y": -1.0}}]}, "reader": {"height": 744, "width": 1376, "video_length": "931", "audio_bit_rate": 120508, "top_field_first": true, "display_ratio": {"den": 93, "num": 172}, "type": "FFmpegReader", "video_bit_rate": 4884482, "vcodec": "h264", "acodec": "aac", "channel_layout": 3, "duration": 32.23466491699219, "has_audio": true, "pixel_ratio": {"den": 1, "num": 1}, "file_size": "19737442", "fps": {"den": 4253, "num": 122500}, "path": "C:\\Users\\Henry\\Videos\\Captures\\index.html - Google Chrome 11_27_2017 5_33_03 PM.mp4", "pixel_format": 0, "audio_stream_index": 1, "video_timebase": {"den": 30000, "num": 1}, "audio_timebase": {"den": 48000, "num": 1}, "video_stream_index": 0, "interlaced_frame": false, "channels": 2, "has_single_image": false, "has_video": true, "sample_rate": 48000}, "location_x": {"Points": [{"interpolation": 2, "co": {"X": 1.0, "Y": 0.0}}]}, "shear_y": {"Points": [{"interpolation": 2, "co": {"X": 1.0, "Y": 0.0}}]}, "perspective_c3_x": {"Points": [{"interpolation": 2, "co": {"X": 1.0, "Y": -1.0}}]}}, {"crop_width": {"Points": [{"interpolation": 2, "co": {"X": 1.0, "Y": -1.0}}]}, "display": 0, "waveform": false, "channel_filter": {"Points": [{"interpolation": 2, "co": {"X": 1.0, "Y": -1.0}}]}, "effects": [], "layer": 4, "scale_y": {"Points": [{"interpolation": 2, "co": {"X": 1.0, "Y": 1.0}}]}, "shear_y": {"Points": [{"interpolation": 2, "co": {"X": 1.0, "Y": 0.0}}]}, "rotation": {"Points": [{"interpolation": 2, "co": {"X": 1.0, "Y": 0.0}}]}, "end": 4.470000000000001, "gravity": 4, "crop_height": {"Points": [{"interpolation": 2, "co": {"X": 1.0, "Y": -1.0}}]}, "crop_x": {"Points": [{"interpolation": 2, "co": {"X": 1.0, "Y": 0.0}}]}, "shear_x": {"Points": [{"interpolation": 2, "co": {"X": 1.0, "Y": 0.0}}]}, "duration": 86400.0, "scale_x": {"Points": [{"interpolation": 2, "co": {"X": 1.0, "Y": 1.0}}]}, "has_audio": {"Points": [{"interpolation": 2, "co": {"X": 1.0, "Y": -1.0}}]}, "perspective_c4_y": {"Points": [{"interpolation": 2, "co": {"X": 1.0, "Y": -1.0}}]}, "perspective_c3_y": {"Points": [{"interpolation": 2, "co": {"X": 1.0, "Y": -1.0}}]}, "channel_mapping": {"Points": [{"interpolation": 2, "co": {"X": 1.0, "Y": -1.0}}]}, "perspective_c4_x": {"Points": [{"interpolation": 2, "co": {"X": 1.0, "Y": -1.0}}]}, "position": 8.368281249999999, "scale": 1, "wave_color": {"blue": {"Points": [{"handle_left": {"X": 0.5, "Y": 1.0}, "interpolation": 0, "handle_type": 0, "handle_right": {"X": 0.5, "Y": 0.0}, "co": {"X": 1.0, "Y": 255.0}}]}, "green": {"Points": [{"handle_left": {"X": 0.5, "Y": 1.0}, "interpolation": 0, "handle_type": 0, "handle_right": {"X": 0.5, "Y": 0.0}, "co": {"X": 1.0, "Y": 123.0}}]}, "red": {"Points": [{"handle_left": {"X": 0.5, "Y": 1.0}, "interpolation": 0, "handle_type": 0, "handle_right": {"X": 0.5, "Y": 0.0}, "co": {"X": 1.0, "Y": 0.0}}]}, "alpha": {"Points": [{"handle_left": {"X": 0.5, "Y": 1.0}, "interpolation": 0, "handle_type": 0, "handle_right": {"X": 0.5, "Y": 0.0}, "co": {"X": 1.0, "Y": 255.0}}]}}, "file_id": "023CIOM5V8", "location_y": {"Points": [{"interpolation": 2, "co": {"X": 1.0, "Y": 0.0}}]}, "anchor": 0, "volume": {"Points": [{"interpolation": 2, "co": {"X": 1.0, "Y": 1.0}}]}, "perspective_c2_y": {"Points": [{"interpolation": 2, "co": {"X": 1.0, "Y": -1.0}}]}, "title": "collect_items.JPG", "time": {"Points": [{"interpolation": 2, "co": {"X": 1.0, "Y": 1.0}}]}, "id": "XWM2I1BD6C", "perspective_c3_x": {"Points": [{"interpolation": 2, "co": {"X": 1.0, "Y": -1.0}}]}, "has_video": {"Points": [{"interpolation": 2, "co": {"X": 1.0, "Y": -1.0}}]}, "perspective_c2_x": {"Points": [{"interpolation": 2, "co": {"X": 1.0, "Y": -1.0}}]}, "start": 0, "image": "C:\\Users\\Henry\\.openshot_qt\\thumbnail\\023CIOM5V8.png", "alpha": {"Points": [{"interpolation": 2, "co": {"X": 1.0, "Y": 1.0}}]}, "crop_y": {"Points": [{"interpolation": 2, "co": {"X": 1.0, "Y": 0.0}}]}, "reader": {"height": 773, "width": 1375, "video_length": "2592000", "audio_bit_rate": 0, "top_field_first": true, "display_ratio": {"den": 773, "num": 1375}, "type": "QtImageReader", "video_bit_rate": 0, "vcodec": "", "acodec": "", "channel_layout": 4, "duration": 86400.0, "has_audio": false, "pixel_ratio": {"den": 1, "num": 1}, "file_size": "4251500", "fps": {"den": 1, "num": 30}, "path": "C:\\Users\\Henry\\Documents\\Classes\\Fall 2017\\CS 329e Game Dev\\MVPgamedev\\Trailer Clips\\collect_items.JPG", "pixel_format": -1, "audio_stream_index": -1, "video_timebase": {"den": 30, "num": 1}, "audio_timebase": {"den": 1, "num": 1}, "video_stream_index": -1, "interlaced_frame": false, "channels": 0, "has_single_image": true, "has_video": true, "sample_rate": 0}, "location_x": {"Points": [{"interpolation": 2, "co": {"X": 1.0, "Y": 0.0}}]}, "perspective_c1_y": {"Points": [{"interpolation": 2, "co": {"X": 1.0, "Y": -1.0}}]}, "perspective_c1_x": {"Points": [{"interpolation": 2, "co": {"X": 1.0, "Y": -1.0}}]}}, {"crop_width": {"Points": [{"interpolation": 2, "co": {"X": 1.0, "Y": -1.0}}]}, "display": 0, "waveform": false, "channel_filter": {"Points": [{"interpolation": 2, "co": {"X": 1.0, "Y": -1.0}}]}, "effects": [], "layer": 4, "scale_y": {"Points": [{"interpolation": 2, "co": {"X": 1.0, "Y": 1.0}}]}, "shear_y": {"Points": [{"interpolation": 2, "co": {"X": 1.0, "Y": 0.0}}]}, "rotation": {"Points": [{"interpolation": 2, "co": {"X": 1.0, "Y": 0.0}}]}, "end": 5.5200000000000005, "gravity": 4, "crop_height": {"Points": [{"interpolation": 2, "co": {"X": 1.0, "Y": -1.0}}]}, "crop_x": {"Points": [{"interpolation": 2, "co": {"X": 1.0, "Y": 0.0}}]}, "shear_x": {"Points": [{"interpolation": 2, "co": {"X": 1.0, "Y": 0.0}}]}, "duration": 86400.0, "scale_x": {"Points": [{"interpolation": 2, "co": {"X": 1.0, "Y": 1.0}}]}, "has_audio": {"Points": [{"interpolation": 2, "co": {"X": 1.0, "Y": -1.0}}]}, "perspective_c4_y": {"Points": [{"interpolation": 2, "co": {"X": 1.0, "Y": -1.0}}]}, "perspective_c3_y": {"Points": [{"interpolation": 2, "co": {"X": 1.0, "Y": -1.0}}]}, "channel_mapping": {"Points": [{"interpolation": 2, "co": {"X": 1.0, "Y": -1.0}}]}, "perspective_c4_x": {"Points": [{"interpolation": 2, "co": {"X": 1.0, "Y": -1.0}}]}, "position": 19.516875, "scale": 1, "wave_color": {"blue": {"Points": [{"handle_left": {"X": 0.5, "Y": 1.0}, "interpolation": 0, "handle_type": 0, "handle_right": {"X": 0.5, "Y": 0.0}, "co": {"X": 1.0, "Y": 255.0}}]}, "green": {"Points": [{"handle_left": {"X": 0.5, "Y": 1.0}, "interpolation": 0, "handle_type": 0, "handle_right": {"X": 0.5, "Y": 0.0}, "co": {"X": 1.0, "Y": 123.0}}]}, "red": {"Points": [{"handle_left": {"X": 0.5, "Y": 1.0}, "interpolation": 0, "handle_type": 0, "handle_right": {"X": 0.5, "Y": 0.0}, "co": {"X": 1.0, "Y": 0.0}}]}, "alpha": {"Points": [{"handle_left": {"X": 0.5, "Y": 1.0}, "interpolation": 0, "handle_type": 0, "handle_right": {"X": 0.5, "Y": 0.0}, "co": {"X": 1.0, "Y": 255.0}}]}}, "file_id": "XB0WY1UP4P", "location_y": {"Points": [{"interpolation": 2, "co": {"X": 1.0, "Y": 0.0}}]}, "anchor": 0, "volume": {"Points": [{"interpolation": 2, "co": {"X": 1.0, "Y": 1.0}}]}, "perspective_c2_y": {"Points": [{"interpolation": 2, "co": {"X": 1.0, "Y": -1.0}}]}, "title": "change_colors.JPG", "time": {"Points": [{"interpolation": 2, "co": {"X": 1.0, "Y": 1.0}}]}, "id": "YSMTB5UGRE", "perspective_c3_x": {"Points": [{"interpolation": 2, "co": {"X": 1.0, "Y": -1.0}}]}, "has_video": {"Points": [{"interpolation": 2, "co": {"X": 1.0, "Y": -1.0}}]}, "perspective_c2_x": {"Points": [{"interpolation": 2, "co": {"X": 1.0, "Y": -1.0}}]}, "start": 0, "image": "C:\\Users\\Henry\\.openshot_qt\\thumbnail\\XB0WY1UP4P.png", "alpha": {"Points": [{"interpolation": 2, "co": {"X": 1.0, "Y": 1.0}}]}, "crop_y": {"Points": [{"interpolation": 2, "co": {"X": 1.0, "Y": 0.0}}]}, "reader": {"height": 775, "width": 1374, "video_length": "2592000", "audio_bit_rate": 0, "top_field_first": true, "display_ratio": {"den": 775, "num": 1374}, "type": "QtImageReader", "video_bit_rate": 0, "vcodec": "", "acodec": "", "channel_layout": 4, "duration": 86400.0, "has_audio": false, "pixel_ratio": {"den": 1, "num": 1}, "file_size": "4259400", "fps": {"den": 1, "num": 30}, "path": "C:\\Users\\Henry\\Documents\\Classes\\Fall 2017\\CS 329e Game Dev\\MVPgamedev\\Trailer Clips\\change_colors.JPG", "pixel_format": -1, "audio_stream_index": -1, "video_timebase": {"den": 30, "num": 1}, "audio_timebase": {"den": 1, "num": 1}, "video_stream_index": -1, "interlaced_frame": false, "channels": 0, "has_single_image": true, "has_video": true, "sample_rate": 0}, "location_x": {"Points": [{"interpolation": 2, "co": {"X": 1.0, "Y": 0.0}}]}, "perspective_c1_y": {"Points": [{"interpolation": 2, "co": {"X": 1.0, "Y": -1.0}}]}, "perspective_c1_x": {"Points": [{"interpolation": 2, "co": {"X": 1.0, "Y": -1.0}}]}}, {"crop_width": {"Points": [{"interpolation": 2, "co": {"X": 1.0, "Y": -1.0}}]}, "display": 0, "waveform": false, "channel_filter": {"Points": [{"interpolation": 2, "co": {"X": 1.0, "Y": -1.0}}]}, "effects": [], "layer": 4, "scale_y": {"Points": [{"interpolation": 2, "co": {"X": 1.0, "Y": 1.0}}]}, "shear_y": {"Points": [{"interpolation": 2, "co": {"X": 1.0, "Y": 0.0}}]}, "rotation": {"Points": [{"interpolation": 2, "co": {"X": 1.0, "Y": 0.0}}]}, "end": 4.96, "gravity": 4, "crop_height": {"Points": [{"interpolation": 2, "co": {"X": 1.0, "Y": -1.0}}]}, "crop_x": {"Points": [{"interpolation": 2, "co": {"X": 1.0, "Y": 0.0}}]}, "shear_x": {"Points": [{"interpolation": 2, "co": {"X": 1.0, "Y": 0.0}}]}, "duration": 86400.0, "scale_x": {"Points": [{"interpolation": 2, "co": {"X": 1.0, "Y": 1.0}}]}, "has_audio": {"Points": [{"interpolation": 2, "co": {"X": 1.0, "Y": -1.0}}]}, "perspective_c4_y": {"Points": [{"interpolation": 2, "co": {"X": 1.0, "Y": -1.0}}]}, "perspective_c3_y": {"Points": [{"interpolation": 2, "co": {"X": 1.0, "Y": -1.0}}]}, "channel_mapping": {"Points": [{"interpolation": 2, "co": {"X": 1.0, "Y": -1.0}}]}, "perspective_c4_x": {"Points": [{"interpolation": 2, "co": {"X": 1.0, "Y": -1.0}}]}, "position": 34.03421875, "scale": 1, "wave_color": {"blue": {"Points": [{"handle_left": {"X": 0.5, "Y": 1.0}, "interpolation": 0, "handle_type": 0, "handle_right": {"X": 0.5, "Y": 0.0}, "co": {"X": 1.0, "Y": 255.0}}]}, "green": {"Points": [{"handle_left": {"X": 0.5, "Y": 1.0}, "interpolation": 0, "handle_type": 0, "handle_right": {"X": 0.5, "Y": 0.0}, "co": {"X": 1.0, "Y": 123.0}}]}, "red": {"Points": [{"handle_left": {"X": 0.5, "Y": 1.0}, "interpolation": 0, "handle_type": 0, "handle_right": {"X": 0.5, "Y": 0.0}, "co": {"X": 1.0, "Y": 0.0}}]}, "alpha": {"Points": [{"handle_left": {"X": 0.5, "Y": 1.0}, "interpolation": 0, "handle_type": 0, "handle_right": {"X": 0.5, "Y": 0.0}, "co": {"X": 1.0, "Y": 255.0}}]}}, "file_id": "4ZHGHLSG3V", "location_y": {"Points": [{"interpolation": 2, "co": {"X": 1.0, "Y": 0.0}}]}, "anchor": 0, "volume": {"Points": [{"interpolation": 2, "co": {"X": 1.0, "Y": 1.0}}]}, "perspective_c2_y": {"Points": [{"interpolation": 2, "co": {"X": 1.0, "Y": -1.0}}]}, "title": "battle_bosses.JPG", "time": {"Points": [{"interpolation": 2, "co": {"X": 1.0, "Y": 1.0}}]}, "id": "YSB4RH0R7O", "perspective_c3_x": {"Points": [{"interpolation": 2, "co": {"X": 1.0, "Y": -1.0}}]}, "has_video": {"Points": [{"interpolation": 2, "co": {"X": 1.0, "Y": -1.0}}]}, "perspective_c2_x": {"Points": [{"interpolation": 2, "co": {"X": 1.0, "Y": -1.0}}]}, "start": 0, "image": "C:\\Users\\Henry\\.openshot_qt\\thumbnail\\4ZHGHLSG3V.png", "alpha": {"Points": [{"interpolation": 2, "co": {"X": 1.0, "Y": 1.0}}]}, "crop_y": {"Points": [{"interpolation": 2, "co": {"X": 1.0, "Y": 0.0}}]}, "reader": {"height": 774, "width": 1375, "video_length": "2592000", "audio_bit_rate": 0, "top_field_first": true, "display_ratio": {"den": 774, "num": 1375}, "type": "QtImageReader", "video_bit_rate": 0, "vcodec": "", "acodec": "", "channel_layout": 4, "duration": 86400.0, "has_audio": false, "pixel_ratio": {"den": 1, "num": 1}, "file_size": "4257000", "fps": {"den": 1, "num": 30}, "path": "C:\\Users\\Henry\\Documents\\Classes\\Fall 2017\\CS 329e Game Dev\\MVPgamedev\\Trailer Clips\\battle_bosses.JPG", "pixel_format": -1, "audio_stream_index": -1, "video_timebase": {"den": 30, "num": 1}, "audio_timebase": {"den": 1, "num": 1}, "video_stream_index": -1, "interlaced_frame": false, "channels": 0, "has_single_image": true, "has_video": true, "sample_rate": 0}, "location_x": {"Points": [{"interpolation": 2, "co": {"X": 1.0, "Y": 0.0}}]}, "perspective_c1_y": {"Points": [{"interpolation": 2, "co": {"X": 1.0, "Y": -1.0}}]}, "perspective_c1_x": {"Points": [{"interpolation": 2, "co": {"X": 1.0, "Y": -1.0}}]}}, {"crop_width": {"Points": [{"interpolation": 2, "co": {"X": 1.0, "Y": -1.0}}]}, "display": 0, "waveform": false, "channel_filter": {"Points": [{"interpolation": 2, "co": {"X": 1.0, "Y": -1.0}}]}, "effects": [], "layer": 3, "scale_y": {"Points": [{"interpolation": 2, "co": {"X": 1.0, "Y": 1.0}}]}, "perspective_c3_y": {"Points": [{"interpolation": 2, "co": {"X": 1.0, "Y": -1.0}}]}, "rotation": {"Points": [{"interpolation": 2, "co": {"X": 1.0, "Y": 0.0}}]}, "end": 22.75, "time": {"Points": [{"interpolation": 2, "co": {"X": 1.0, "Y": 1.0}}]}, "crop_height": {"Points": [{"interpolation": 2, "co": {"X": 1.0, "Y": -1.0}}]}, "crop_x": {"Points": [{"interpolation": 2, "co": {"X": 1.0, "Y": 0.0}}]}, "shear_x": {"Points": [{"interpolation": 2, "co": {"X": 1.0, "Y": 0.0}}]}, "duration": 77.87101745605469, "scale_x": {"Points": [{"interpolation": 2, "co": {"X": 1.0, "Y": 1.0}}]}, "title": "bossMusic.mp3", "has_audio": {"Points": [{"interpolation": 2, "co": {"X": 1.0, "Y": -1.0}}]}, "perspective_c4_y": {"Points": [{"interpolation": 2, "co": {"X": 1.0, "Y": -1.0}}]}, "channel_mapping": {"Points": [{"interpolation": 2, "co": {"X": 1.0, "Y": -1.0}}]}, "perspective_c4_x": {"Points": [{"interpolation": 2, "co": {"X": 1.0, "Y": -1.0}}]}, "position": 36.82, "scale": 1, "wave_color": {"blue": {"Points": [{"handle_left": {"X": 0.5, "Y": 1.0}, "interpolation": 0, "handle_type": 0, "handle_right": {"X": 0.5, "Y": 0.0}, "co": {"X": 1.0, "Y": 255.0}}]}, "green": {"Points": [{"handle_left": {"X": 0.5, "Y": 1.0}, "interpolation": 0, "handle_type": 0, "handle_right": {"X": 0.5, "Y": 0.0}, "co": {"X": 1.0, "Y": 123.0}}]}, "red": {"Points": [{"handle_left": {"X": 0.5, "Y": 1.0}, "interpolation": 0, "handle_type": 0, "handle_right": {"X": 0.5, "Y": 0.0}, "co": {"X": 1.0, "Y": 0.0}}]}, "alpha": {"Points": [{"handle_left": {"X": 0.5, "Y": 1.0}, "interpolation": 0, "handle_type": 0, "handle_right": {"X": 0.5, "Y": 0.0}, "co": {"X": 1.0, "Y": 255.0}}]}}, "perspective_c1_x": {"Points": [{"interpolation": 2, "co": {"X": 1.0, "Y": -1.0}}]}, "file_id": "U6H5YEYQC1", "location_y": {"Points": [{"interpolation": 2, "co": {"X": 1.0, "Y": 0.0}}]}, "anchor": 0, "start": 0, "volume": {"Points": [{"interpolation": 2, "co": {"X": 1.0, "Y": 1.0}}, {"handle_left": {"X": 0.5, "Y": 1.0}, "interpolation": 0, "handle_type": 0, "handle_right": {"X": 0.5, "Y": 0.0}, "co": {"X": 1.0, "Y": 0.0}}, {"handle_left": {"X": 0.5, "Y": 1.0}, "interpolation": 0, "handle_type": 0, "handle_right": {"X": 0.5, "Y": 0.0}, "co": {"X": 73.0, "Y": 1.0}}, {"handle_left": {"X": 0.5, "Y": 1.0}, "interpolation": 0, "handle_type": 0, "handle_right": {"X": 0.5, "Y": 0.0}, "co": {"X": 1798.0, "Y": 1.0}}, {"handle_left": {"X": 0.5, "Y": 1.0}, "interpolation": 0, "handle_type": 0, "handle_right": {"X": 0.5, "Y": 0.0}, "co": {"X": 1870.0, "Y": 0.0}}, {"handle_left": {"X": 0.5, "Y": 1.0}, "interpolation": 0, "handle_type": 0, "handle_right": {"X": 0.5, "Y": 0.0}, "co": {"X": 1.0, "Y": 0.0}}, {"handle_left": {"X": 0.5, "Y": 1.0}, "interpolation": 0, "handle_type": 0, "handle_right": {"X": 0.5, "Y": 0.0}, "co": {"X": 73.0, "Y": 1.0}}, {"handle_left": {"X": 0.5, "Y": 1.0}, "interpolation": 0, "handle_type": 0, "handle_right": {"X": 0.5, "Y": 0.0}, "co": {"X": 475.0, "Y": 1.0}}, {"handle_left": {"X": 0.5, "Y": 1.0}, "interpolation": 0, "handle_type": 0, "handle_right": {"X": 0.5, "Y": 0.0}, "co": {"X": 547.0, "Y": 0.0}}]}, "perspective_c2_y": {"Points": [{"interpolation": 2, "co": {"X": 1.0, "Y": -1.0}}]}, "gravity": 4, "id": "BW2FX9SZ9D", "has_video": {"Points": [{"interpolation": 2, "co": {"X": 1.0, "Y": -1.0}}]}, "perspective_c2_x": {"Points": [{"interpolation": 2, "co": {"X": 1.0, "Y": -1.0}}]}, "perspective_c1_y": {"Points": [{"interpolation": 2, "co": {"X": 1.0, "Y": -1.0}}]}, "image": "C:\\Program Files\\OpenShot Video Editor\\images\\AudioThumbnail.png", "alpha": {"Points": [{"interpolation": 2, "co": {"X": 1.0, "Y": 1.0}}]}, "crop_y": {"Points": [{"interpolation": 2, "co": {"X": 1.0, "Y": 0.0}}]}, "reader": {"height": 480, "width": 720, "video_length": "1868", "audio_bit_rate": 128000, "top_field_first": true, "display_ratio": {"den": 1, "num": 1}, "type": "FFmpegReader", "video_bit_rate": 0, "vcodec": "", "acodec": "mp3", "channel_layout": 3, "duration": 77.87101745605469, "has_audio": true, "pixel_ratio": {"den": 1, "num": 1}, "file_size": "1246189", "fps": {"den": 1, "num": 24}, "path": "C:\\Users\\Henry\\Documents\\Classes\\Fall 2017\\CS 329e Game Dev\\MVPgamedev\\Game\\assets\\sounds\\bossMusic.mp3", "pixel_format": -1, "audio_stream_index": 0, "video_timebase": {"den": 24, "num": 1}, "audio_timebase": {"den": 14112000, "num": 1}, "video_stream_index": -1, "interlaced_frame": false, "channels": 2, "has_single_image": false, "has_video": false, "sample_rate": 44100}, "location_x": {"Points": [{"interpolation": 2, "co": {"X": 1.0, "Y": 0.0}}]}, "shear_y": {"Points": [{"interpolation": 2, "co": {"X": 1.0, "Y": 0.0}}]}, "perspective_c3_x": {"Points": [{"interpolation": 2, "co": {"X": 1.0, "Y": -1.0}}]}}, {"crop_width": {"Points": [{"interpolation": 2, "co": {"X": 1.0, "Y": -1.0}}]}, "display": 0, "waveform": false, "channel_filter": {"Points": [{"interpolation": 2, "co": {"X": 1.0, "Y": -1.0}}]}, "effects": [], "layer": 4, "scale_y": {"Points": [{"interpolation": 2, "co": {"X": 1.0, "Y": 1.0}}]}, "shear_y": {"Points": [{"interpolation": 2, "co": {"X": 1.0, "Y": 0.0}}]}, "rotation": {"Points": [{"interpolation": 2, "co": {"X": 1.0, "Y": 0.0}}]}, "end": 4.470000000000001, "time": {"Points": [{"interpolation": 2, "co": {"X": 1.0, "Y": 1.0}}]}, "crop_height": {"Points": [{"interpolation": 2, "co": {"X": 1.0, "Y": -1.0}}]}, "crop_x": {"Points": [{"interpolation": 2, "co": {"X": 1.0, "Y": 0.0}}]}, "shear_x": {"Points": [{"interpolation": 2, "co": {"X": 1.0, "Y": 0.0}}]}, "duration": 86400.0, "scale_x": {"Points": [{"interpolation": 2, "co": {"X": 1.0, "Y": 1.0}}]}, "title": "gammaprogram_logo.JPG", "has_audio": {"Points": [{"interpolation": 2, "co": {"X": 1.0, "Y": -1.0}}]}, "perspective_c4_y": {"Points": [{"interpolation": 2, "co": {"X": 1.0, "Y": -1.0}}]}, "perspective_c3_y": {"Points": [{"interpolation": 2, "co": {"X": 1.0, "Y": -1.0}}]}, "channel_mapping": {"Points": [{"interpolation": 2, "co": {"X": 1.0, "Y": -1.0}}]}, "perspective_c4_x": {"Points": [{"interpolation": 2, "co": {"X": 1.0, "Y": -1.0}}]}, "position": 0, "scale": 1, "wave_color": {"blue": {"Points": [{"handle_left": {"X": 0.5, "Y": 1.0}, "interpolation": 0, "handle_type": 0, "handle_right": {"X": 0.5, "Y": 0.0}, "co": {"X": 1.0, "Y": 255.0}}]}, "green": {"Points": [{"handle_left": {"X": 0.5, "Y": 1.0}, "interpolation": 0, "handle_type": 0, "handle_right": {"X": 0.5, "Y": 0.0}, "co": {"X": 1.0, "Y": 123.0}}]}, "red": {"Points": [{"handle_left": {"X": 0.5, "Y": 1.0}, "interpolation": 0, "handle_type": 0, "handle_right": {"X": 0.5, "Y": 0.0}, "co": {"X": 1.0, "Y": 0.0}}]}, "alpha": {"Points": [{"handle_left": {"X": 0.5, "Y": 1.0}, "interpolation": 0, "handle_type": 0, "handle_right": {"X": 0.5, "Y": 0.0}, "co": {"X": 1.0, "Y": 255.0}}]}}, "perspective_c1_x": {"Points": [{"interpolation": 2, "co": {"X": 1.0, "Y": -1.0}}]}, "file_id": "LGNIWH4F8R", "location_y": {"Points": [{"interpolation": 2, "co": {"X": 1.0, "Y": 0.0}}]}, "alpha": {"Points": [{"interpolation": 2, "co": {"X": 1.0, "Y": 1.0}}]}, "start": 0, "volume": {"Points": [{"interpolation": 2, "co": {"X": 1.0, "Y": 1.0}}]}, "anchor": 0, "gravity": 4, "perspective_c2_y": {"Points": [{"interpolation": 2, "co": {"X": 1.0, "Y": -1.0}}]}, "id": "APFYA4VY39", "perspective_c2_x": {"Points": [{"interpolation": 2, "co": {"X": 1.0, "Y": -1.0}}]}, "perspective_c1_y": {"Points": [{"interpolation": 2, "co": {"X": 1.0, "Y": -1.0}}]}, "image": "C:\\Users\\Henry\\.openshot_qt\\thumbnail\\LGNIWH4F8R.png", "crop_y": {"Points": [{"interpolation": 2, "co": {"X": 1.0, "Y": 0.0}}]}, "reader": {"height": 747, "width": 1324, "video_length": "2592000", "audio_bit_rate": 0, "top_field_first": true, "display_ratio": {"den": 747, "num": 1324}, "type": "QtImageReader", "video_bit_rate": 0, "channel_layout": 4, "acodec": "", "vcodec": "", "duration": 86400.0, "has_audio": false, "pixel_ratio": {"den": 1, "num": 1}, "file_size": "3956112", "fps": {"den": 1, "num": 30}, "path": "C:\\Users\\Henry\\Documents\\Classes\\Fall 2017\\CS 329e Game Dev\\MVPgamedev\\Trailer Clips\\gammaprogram_logo.JPG", "pixel_format": -1, "audio_stream_index": -1, "video_timebase": {"den": 30, "num": 1}, "audio_timebase": {"den": 1, "num": 1}, "video_stream_index": -1, "interlaced_frame": false, "channels": 0, "has_single_image": true, "has_video": true, "sample_rate": 0}, "location_x": {"Points": [{"interpolation": 2, "co": {"X": 1.0, "Y": 0.0}}]}, "has_video": {"Points": [{"interpolation": 2, "co": {"X": 1.0, "Y": -1.0}}]}, "perspective_c3_x": {"Points": [{"interpolation": 2, "co": {"X": 1.0, "Y": -1.0}}]}}, {"crop_width": {"Points": [{"interpolation": 2, "co": {"X": 1.0, "Y": -1.0}}]}, "display": 0, "waveform": false, "channel_filter": {"Points": [{"interpolation": 2, "co": {"X": 1.0, "Y": -1.0}}]}, "effects": [], "layer": 4, "scale_y": {"Points": [{"interpolation": 2, "co": {"X": 1.0, "Y": 1.0}}]}, "shear_y": {"Points": [{"interpolation": 2, "co": {"X": 1.0, "Y": 0.0}}]}, "rotation": {"Points": [{"interpolation": 2, "co": {"X": 1.0, "Y": 0.0}}]}, "end": 2.720000000000001, "time": {"Points": [{"interpolation": 2, "co": {"X": 1.0, "Y": 1.0}}]}, "crop_height": {"Points": [{"interpolation": 2, "co": {"X": 1.0, "Y": -1.0}}]}, "crop_x": {"Points": [{"interpolation": 2, "co": {"X": 1.0, "Y": 0.0}}]}, "shear_x": {"Points": [{"interpolation": 2, "co": {"X": 1.0, "Y": 0.0}}]}, "duration": 86400.0, "scale_x": {"Points": [{"interpolation": 2, "co": {"X": 1.0, "Y": 1.0}}]}, "title": "title_blue.JPG", "has_audio": {"Points": [{"interpolation": 2, "co": {"X": 1.0, "Y": -1.0}}]}, "perspective_c4_y": {"Points": [{"interpolation": 2, "co": {"X": 1.0, "Y": -1.0}}]}, "perspective_c3_y": {"Points": [{"interpolation": 2, "co": {"X": 1.0, "Y": -1.0}}]}, "channel_mapping": {"Points": [{"interpolation": 2, "co": {"X": 1.0, "Y": -1.0}}]}, "perspective_c4_x": {"Points": [{"interpolation": 2, "co": {"X": 1.0, "Y": -1.0}}]}, "position": 56.059062499999996, "scale": 1, "wave_color": {"blue": {"Points": [{"handle_left": {"X": 0.5, "Y": 1.0}, "interpolation": 0, "handle_type": 0, "handle_right": {"X": 0.5, "Y": 0.0}, "co": {"X": 1.0, "Y": 255.0}}]}, "green": {"Points": [{"handle_left": {"X": 0.5, "Y": 1.0}, "interpolation": 0, "handle_type": 0, "handle_right": {"X": 0.5, "Y": 0.0}, "co": {"X": 1.0, "Y": 123.0}}]}, "red": {"Points": [{"handle_left": {"X": 0.5, "Y": 1.0}, "interpolation": 0, "handle_type": 0, "handle_right": {"X": 0.5, "Y": 0.0}, "co": {"X": 1.0, "Y": 0.0}}]}, "alpha": {"Points": [{"handle_left": {"X": 0.5, "Y": 1.0}, "interpolation": 0, "handle_type": 0, "handle_right": {"X": 0.5, "Y": 0.0}, "co": {"X": 1.0, "Y": 255.0}}]}}, "perspective_c1_x": {"Points": [{"interpolation": 2, "co": {"X": 1.0, "Y": -1.0}}]}, "file_id": "78F44BZZJZ", "location_y": {"Points": [{"interpolation": 2, "co": {"X": 1.0, "Y": 0.0}}]}, "alpha": {"Points": [{"interpolation": 2, "co": {"X": 1.0, "Y": 1.0}}]}, "start": 0, "volume": {"Points": [{"interpolation": 2, "co": {"X": 1.0, "Y": 1.0}}]}, "anchor": 0, "gravity": 4, "perspective_c2_y": {"Points": [{"interpolation": 2, "co": {"X": 1.0, "Y": -1.0}}]}, "id": "9BTV42VL9R", "perspective_c2_x": {"Points": [{"interpolation": 2, "co": {"X": 1.0, "Y": -1.0}}]}, "perspective_c1_y": {"Points": [{"interpolation": 2, "co": {"X": 1.0, "Y": -1.0}}]}, "image": "C:\\Users\\Henry\\.openshot_qt\\thumbnail\\78F44BZZJZ.png", "crop_y": {"Points": [{"interpolation": 2, "co": {"X": 1.0, "Y": 0.0}}]}, "reader": {"height": 743, "width": 1322, "video_length": "2592000", "audio_bit_rate": 0, "top_field_first": true, "display_ratio": {"den": 743, "num": 1322}, "type": "QtImageReader", "video_bit_rate": 0, "channel_layout": 4, "acodec": "", "vcodec": "", "duration": 86400.0, "has_audio": false, "pixel_ratio": {"den": 1, "num": 1}, "file_size": "3928984", "fps": {"den": 1, "num": 30}, "path": "C:\\Users\\Henry\\Documents\\Classes\\Fall 2017\\CS 329e Game Dev\\MVPgamedev\\Trailer Clips\\title_blue.JPG", "pixel_format": -1, "audio_stream_index": -1, "video_timebase": {"den": 30, "num": 1}, "audio_timebase": {"den": 1, "num": 1}, "video_stream_index": -1, "interlaced_frame": false, "channels": 0, "has_single_image": true, "has_video": true, "sample_rate": 0}, "location_x": {"Points": [{"interpolation": 2, "co": {"X": 1.0, "Y": 0.0}}]}, "has_video": {"Points": [{"interpolation": 2, "co": {"X": 1.0, "Y": -1.0}}]}, "perspective_c3_x": {"Points": [{"interpolation": 2, "co": {"X": 1.0, "Y": -1.0}}]}}, {"crop_width": {"Points": [{"interpolation": 2, "co": {"X": 1.0, "Y": -1.0}}]}, "display": 0, "waveform": false, "channel_filter": {"Points": [{"interpolation": 2, "co": {"X": 1.0, "Y": -1.0}}]}, "effects": [], "layer": 4, "scale_y": {"Points": [{"interpolation": 2, "co": {"X": 1.0, "Y": 1.0}}]}, "shear_y": {"Points": [{"interpolation": 2, "co": {"X": 1.0, "Y": 0.0}}]}, "rotation": {"Points": [{"interpolation": 2, "co": {"X": 1.0, "Y": 0.0}}]}, "end": 3.420000000000001, "time": {"Points": [{"interpolation": 2, "co": {"X": 1.0, "Y": 1.0}}]}, "crop_height": {"Points": [{"interpolation": 2, "co": {"X": 1.0, "Y": -1.0}}]}, "crop_x": {"Points": [{"interpolation": 2, "co": {"X": 1.0, "Y": 0.0}}]}, "shear_x": {"Points": [{"interpolation": 2, "co": {"X": 1.0, "Y": 0.0}}]}, "duration": 86400.0, "scale_x": {"Points": [{"interpolation": 2, "co": {"X": 1.0, "Y": 1.0}}]}, "title": "title_green.JPG", "has_audio": {"Points": [{"interpolation": 2, "co": {"X": 1.0, "Y": -1.0}}]}, "perspective_c4_y": {"Points": [{"interpolation": 2, "co": {"X": 1.0, "Y": -1.0}}]}, "perspective_c3_y": {"Points": [{"interpolation": 2, "co": {"X": 1.0, "Y": -1.0}}]}, "channel_mapping": {"Points": [{"interpolation": 2, "co": {"X": 1.0, "Y": -1.0}}]}, "perspective_c4_x": {"Points": [{"interpolation": 2, "co": {"X": 1.0, "Y": -1.0}}]}, "position": 54.04, "scale": 1, "wave_color": {"blue": {"Points": [{"handle_left": {"X": 0.5, "Y": 1.0}, "interpolation": 0, "handle_type": 0, "handle_right": {"X": 0.5, "Y": 0.0}, "co": {"X": 1.0, "Y": 255.0}}]}, "green": {"Points": [{"handle_left": {"X": 0.5, "Y": 1.0}, "interpolation": 0, "handle_type": 0, "handle_right": {"X": 0.5, "Y": 0.0}, "co": {"X": 1.0, "Y": 123.0}}]}, "red": {"Points": [{"handle_left": {"X": 0.5, "Y": 1.0}, "interpolation": 0, "handle_type": 0, "handle_right": {"X": 0.5, "Y": 0.0}, "co": {"X": 1.0, "Y": 0.0}}]}, "alpha": {"Points": [{"handle_left": {"X": 0.5, "Y": 1.0}, "interpolation": 0, "handle_type": 0, "handle_right": {"X": 0.5, "Y": 0.0}, "co": {"X": 1.0, "Y": 255.0}}]}}, "perspective_c1_x": {"Points": [{"interpolation": 2, "co": {"X": 1.0, "Y": -1.0}}]}, "file_id": "71YSREPZ2E", "location_y": {"Points": [{"interpolation": 2, "co": {"X": 1.0, "Y": 0.0}}]}, "alpha": {"Points": [{"interpolation": 2, "co": {"X": 1.0, "Y": 1.0}}]}, "start": 0, "volume": {"Points": [{"interpolation": 2, "co": {"X": 1.0, "Y": 1.0}}]}, "anchor": 0, "gravity": 4, "perspective_c2_y": {"Points": [{"interpolation": 2, "co": {"X": 1.0, "Y": -1.0}}]}, "id": "2DAGRDPHXD", "perspective_c2_x": {"Points": [{"interpolation": 2, "co": {"X": 1.0, "Y": -1.0}}]}, "perspective_c1_y": {"Points": [{"interpolation": 2, "co": {"X": 1.0, "Y": -1.0}}]}, "image": "C:\\Users\\Henry\\.openshot_qt\\thumbnail\\71YSREPZ2E.png", "crop_y": {"Points": [{"interpolation": 2, "co": {"X": 1.0, "Y": 0.0}}]}, "reader": {"height": 744, "width": 1321, "video_length": "2592000", "audio_bit_rate": 0, "top_field_first": true, "display_ratio": {"den": 744, "num": 1321}, "type": "QtImageReader", "video_bit_rate": 0, "channel_layout": 4, "acodec": "", "vcodec": "", "duration": 86400.0, "has_audio": false, "pixel_ratio": {"den": 1, "num": 1}, "file_size": "3931296", "fps": {"den": 1, "num": 30}, "path": "C:\\Users\\Henry\\Documents\\Classes\\Fall 2017\\CS 329e Game Dev\\MVPgamedev\\Trailer Clips\\title_green.JPG", "pixel_format": -1, "audio_stream_index": -1, "video_timebase": {"den": 30, "num": 1}, "audio_timebase": {"den": 1, "num": 1}, "video_stream_index": -1, "interlaced_frame": false, "channels": 0, "has_single_image": true, "has_video": true, "sample_rate": 0}, "location_x": {"Points": [{"interpolation": 2, "co": {"X": 1.0, "Y": 0.0}}]}, "has_video": {"Points": [{"interpolation": 2, "co": {"X": 1.0, "Y": -1.0}}]}, "perspective_c3_x": {"Points": [{"interpolation": 2, "co": {"X": 1.0, "Y": -1.0}}]}}, {"crop_width": {"Points": [{"interpolation": 2, "co": {"X": 1.0, "Y": -1.0}}]}, "display": 0, "waveform": false, "channel_filter": {"Points": [{"interpolation": 2, "co": {"X": 1.0, "Y": -1.0}}]}, "effects": [], "layer": 4, "scale_y": {"Points": [{"interpolation": 2, "co": {"X": 1.0, "Y": 1.0}}]}, "shear_y": {"Points": [{"interpolation": 2, "co": {"X": 1.0, "Y": 0.0}}]}, "rotation": {"Points": [{"interpolation": 2, "co": {"X": 1.0, "Y": 0.0}}]}, "end": 7.829999999999999, "time": {"Points": [{"interpolation": 2, "co": {"X": 1.0, "Y": 1.0}}]}, "crop_height": {"Points": [{"interpolation": 2, "co": {"X": 1.0, "Y": -1.0}}]}, "crop_x": {"Points": [{"interpolation": 2, "co": {"X": 1.0, "Y": 0.0}}]}, "shear_x": {"Points": [{"interpolation": 2, "co": {"X": 1.0, "Y": 0.0}}]}, "duration": 86400.0, "scale_x": {"Points": [{"interpolation": 2, "co": {"X": 1.0, "Y": 1.0}}]}, "title": "title_orange.JPG", "has_audio": {"Points": [{"interpolation": 2, "co": {"X": 1.0, "Y": -1.0}}]}, "perspective_c4_y": {"Points": [{"interpolation": 2, "co": {"X": 1.0, "Y": -1.0}}]}, "perspective_c3_y": {"Points": [{"interpolation": 2, "co": {"X": 1.0, "Y": -1.0}}]}, "channel_mapping": {"Points": [{"interpolation": 2, "co": {"X": 1.0, "Y": -1.0}}]}, "perspective_c4_x": {"Points": [{"interpolation": 2, "co": {"X": 1.0, "Y": -1.0}}]}, "position": 57.459062499999995, "scale": 1, "wave_color": {"blue": {"Points": [{"handle_left": {"X": 0.5, "Y": 1.0}, "interpolation": 0, "handle_type": 0, "handle_right": {"X": 0.5, "Y": 0.0}, "co": {"X": 1.0, "Y": 255.0}}]}, "green": {"Points": [{"handle_left": {"X": 0.5, "Y": 1.0}, "interpolation": 0, "handle_type": 0, "handle_right": {"X": 0.5, "Y": 0.0}, "co": {"X": 1.0, "Y": 123.0}}]}, "red": {"Points": [{"handle_left": {"X": 0.5, "Y": 1.0}, "interpolation": 0, "handle_type": 0, "handle_right": {"X": 0.5, "Y": 0.0}, "co": {"X": 1.0, "Y": 0.0}}]}, "alpha": {"Points": [{"handle_left": {"X": 0.5, "Y": 1.0}, "interpolation": 0, "handle_type": 0, "handle_right": {"X": 0.5, "Y": 0.0}, "co": {"X": 1.0, "Y": 255.0}}]}}, "perspective_c1_x": {"Points": [{"interpolation": 2, "co": {"X": 1.0, "Y": -1.0}}]}, "file_id": "79XQ1JXZOE", "location_y": {"Points": [{"interpolation": 2, "co": {"X": 1.0, "Y": 0.0}}]}, "alpha": {"Points": [{"interpolation": 2, "co": {"X": 1.0, "Y": 1.0}}]}, "start": 5.6, "volume": {"Points": [{"interpolation": 2, "co": {"X": 1.0, "Y": 1.0}}]}, "anchor": 0, "gravity": 4, "perspective_c2_y": {"Points": [{"interpolation": 2, "co": {"X": 1.0, "Y": -1.0}}]}, "id": "R7CLXXFX61", "perspective_c2_x": {"Points": [{"interpolation": 2, "co": {"X": 1.0, "Y": -1.0}}]}, "perspective_c1_y": {"Points": [{"interpolation": 2, "co": {"X": 1.0, "Y": -1.0}}]}, "image": "C:\\Users\\Henry\\.openshot_qt\\thumbnail\\79XQ1JXZOE.png", "crop_y": {"Points": [{"interpolation": 2, "co": {"X": 1.0, "Y": 0.0}}]}, "reader": {"height": 745, "width": 1323, "video_length": "2592000", "audio_bit_rate": 0, "top_field_first": true, "display_ratio": {"den": 745, "num": 1323}, "type": "QtImageReader", "video_bit_rate": 0, "channel_layout": 4, "acodec": "", "vcodec": "", "duration": 86400.0, "has_audio": false, "pixel_ratio": {"den": 1, "num": 1}, "file_size": "3942540", "fps": {"den": 1, "num": 30}, "path": "C:\\Users\\Henry\\Documents\\Classes\\Fall 2017\\CS 329e Game Dev\\MVPgamedev\\Trailer Clips\\title_orange.JPG", "pixel_format": -1, "audio_stream_index": -1, "video_timebase": {"den": 30, "num": 1}, "audio_timebase": {"den": 1, "num": 1}, "video_stream_index": -1, "interlaced_frame": false, "channels": 0, "has_single_image": true, "has_video": true, "sample_rate": 0}, "location_x": {"Points": [{"interpolation": 2, "co": {"X": 1.0, "Y": 0.0}}]}, "has_video": {"Points": [{"interpolation": 2, "co": {"X": 1.0, "Y": -1.0}}]}, "perspective_c3_x": {"Points": [{"interpolation": 2, "co": {"X": 1.0, "Y": -1.0}}]}}, {"crop_width": {"Points": [{"interpolation": 2, "co": {"X": 1.0, "Y": -1.0}}]}, "display": 0, "waveform": false, "channel_filter": {"Points": [{"interpolation": 2, "co": {"X": 1.0, "Y": -1.0}}]}, "effects": [], "layer": 3, "scale_y": {"Points": [{"interpolation": 2, "co": {"X": 1.0, "Y": 1.0}}]}, "perspective_c3_y": {"Points": [{"interpolation": 2, "co": {"X": 1.0, "Y": -1.0}}]}, "rotation": {"Points": [{"interpolation": 2, "co": {"X": 1.0, "Y": 0.0}}]}, "end": 56.699999999999996, "time": {"Points": [{"interpolation": 1, "co": {"X": 1.0, "Y": 1.0}}, {"interpolation": 1, "co": {"X": 2280.0, "Y": 4559.0}}]}, "crop_x": {"Points": [{"interpolation": 2, "co": {"X": 1.0, "Y": 0.0}}]}, "shear_x": {"Points": [{"interpolation": 2, "co": {"X": 1.0, "Y": 0.0}}]}, "duration": 94.0, "scale_x": {"Points": [{"interpolation": 2, "co": {"X": 1.0, "Y": 1.0}}]}, "title": "cute.mp3", "has_audio": {"Points": [{"interpolation": 2, "co": {"X": 1.0, "Y": -1.0}}]}, "perspective_c4_y": {"Points": [{"interpolation": 2, "co": {"X": 1.0, "Y": -1.0}}]}, "channel_mapping": {"Points": [{"interpolation": 2, "co": {"X": 1.0, "Y": -1.0}}]}, "perspective_c4_x": {"Points": [{"interpolation": 2, "co": {"X": 1.0, "Y": -1.0}}]}, "position": 0, "scale": 1, "wave_color": {"blue": {"Points": [{"handle_left": {"X": 0.5, "Y": 1.0}, "interpolation": 0, "handle_type": 0, "handle_right": {"X": 0.5, "Y": 0.0}, "co": {"X": 1.0, "Y": 255.0}}]}, "green": {"Points": [{"handle_left": {"X": 0.5, "Y": 1.0}, "interpolation": 0, "handle_type": 0, "handle_right": {"X": 0.5, "Y": 0.0}, "co": {"X": 1.0, "Y": 123.0}}]}, "red": {"Points": [{"handle_left": {"X": 0.5, "Y": 1.0}, "interpolation": 0, "handle_type": 0, "handle_right": {"X": 0.5, "Y": 0.0}, "co": {"X": 1.0, "Y": 0.0}}]}, "alpha": {"Points": [{"handle_left": {"X": 0.5, "Y": 1.0}, "interpolation": 0, "handle_type": 0, "handle_right": {"X": 0.5, "Y": 0.0}, "co": {"X": 1.0, "Y": 255.0}}]}}, "perspective_c1_x": {"Points": [{"interpolation": 2, "co": {"X": 1.0, "Y": -1.0}}]}, "file_id": "6DFW25DRJZ", "location_y": {"Points": [{"interpolation": 2, "co": {"X": 1.0, "Y": 0.0}}]}, "anchor": 0, "start": 16.380000000000003, "volume": {"Points": [{"interpolation": 2, "co": {"X": 1.0, "Y": 1.0}}]}, "perspective_c2_y": {"Points": [{"interpolation": 2, "co": {"X": 1.0, "Y": -1.0}}]}, "gravity": 4, "id": "P9UCYI6O28", "crop_y": {"Points": [{"interpolation": 2, "co": {"X": 1.0, "Y": 0.0}}]}, "has_video": {"Points": [{"interpolation": 2, "co": {"X": 1.0, "Y": -1.0}}]}, "perspective_c2_x": {"Points": [{"interpolation": 2, "co": {"X": 1.0, "Y": -1.0}}]}, "perspective_c1_y": {"Points": [{"interpolation": 2, "co": {"X": 1.0, "Y": -1.0}}]}, "image": "C:\\Users\\Henry\\.openshot_qt\\thumbnail\\P9UCYI6O28-394.png", "alpha": {"Points": [{"interpolation": 2, "co": {"X": 1.0, "Y": 1.0}}]}, "crop_height": {"Points": [{"interpolation": 2, "co": {"X": 1.0, "Y": -1.0}}]}, "reader": {"height": 480, "width": 720, "video_length": "4559", "audio_bit_rate": 112000, "top_field_first": true, "display_ratio": {"den": 1, "num": 1}, "type": "FFmpegReader", "video_bit_rate": 0, "channel_layout": 3, "acodec": "mp3", "vcodec": "", "duration": 189.9627075195312, "has_audio": true, "pixel_ratio": {"den": 1, "num": 1}, "file_size": "2659839", "fps": {"den": 1, "num": 24}, "path": "C:\\Users\\Henry\\Documents\\Classes\\Fall 2017\\CS 329e Game Dev\\MVPgamedev\\Game\\assets\\sounds\\cute.mp3", "pixel_format": -1, "audio_stream_index": 0, "video_timebase": {"den": 24, "num": 1}, "audio_timebase": {"den": 14112000, "num": 1}, "video_stream_index": -1, "interlaced_frame": false, "channels": 2, "has_single_image": false, "has_video": false, "sample_rate": 44100}, "location_x": {"Points": [{"interpolation": 2, "co": {"X": 1.0, "Y": 0.0}}]}, "shear_y": {"Points": [{"interpolation": 2, "co": {"X": 1.0, "Y": 0.0}}]}, "perspective_c3_x": {"Points": [{"interpolation": 2, "co": {"X": 1.0, "Y": -1.0}}]}}]}, {"value": {"crop_width": {"Points": [{"interpolation": 2, "co": {"X": 1.0, "Y": -1.0}}]}, "display": 0, "waveform": false, "channel_filter": {"Points": [{"interpolation": 2, "co": {"X": 1.0, "Y": -1.0}}]}, "effects": [], "layer": 3, "scale_y": {"Points": [{"interpolation": 2, "co": {"X": 1.0, "Y": 1.0}}]}, "perspective_c3_y": {"Points": [{"interpolation": 2, "co": {"X": 1.0, "Y": -1.0}}]}, "rotation": {"Points": [{"interpolation": 2, "co": {"X": 1.0, "Y": 0.0}}]}, "end": 56.699999999999996, "time": {"Points": [{"interpolation": 1, "co": {"X": 1.0, "Y": 1.0}}, {"interpolation": 1, "co": {"X": 2280.0, "Y": 4559.0}}]}, "crop_x": {"Points": [{"interpolation": 2, "co": {"X": 1.0, "Y": 0.0}}]}, "shear_x": {"Points": [{"interpolation": 2, "co": {"X": 1.0, "Y": 0.0}}]}, "duration": 94.0, "scale_x": {"Points": [{"interpolation": 2, "co": {"X": 1.0, "Y": 1.0}}]}, "title": "cute.mp3", "has_audio": {"Points": [{"interpolation": 2, "co": {"X": 1.0, "Y": -1.0}}]}, "perspective_c4_y": {"Points": [{"interpolation": 2, "co": {"X": 1.0, "Y": -1.0}}]}, "channel_mapping": {"Points": [{"interpolation": 2, "co": {"X": 1.0, "Y": -1.0}}]}, "perspective_c4_x": {"Points": [{"interpolation": 2, "co": {"X": 1.0, "Y": -1.0}}]}, "position": 36.47, "scale": 1, "wave_color": {"blue": {"Points": [{"handle_left": {"X": 0.5, "Y": 1.0}, "interpolation": 0, "handle_type": 0, "handle_right": {"X": 0.5, "Y": 0.0}, "co": {"X": 1.0, "Y": 255.0}}]}, "green": {"Points": [{"handle_left": {"X": 0.5, "Y": 1.0}, "interpolation": 0, "handle_type": 0, "handle_right": {"X": 0.5, "Y": 0.0}, "co": {"X": 1.0, "Y": 123.0}}]}, "red": {"Points": [{"handle_left": {"X": 0.5, "Y": 1.0}, "interpolation": 0, "handle_type": 0, "handle_right": {"X": 0.5, "Y": 0.0}, "co": {"X": 1.0, "Y": 0.0}}]}, "alpha": {"Points": [{"handle_left": {"X": 0.5, "Y": 1.0}, "interpolation": 0, "handle_type": 0, "handle_right": {"X": 0.5, "Y": 0.0}, "co": {"X": 1.0, "Y": 255.0}}]}}, "perspective_c1_x": {"Points": [{"interpolation": 2, "co": {"X": 1.0, "Y": -1.0}}]}, "file_id": "6DFW25DRJZ", "location_y": {"Points": [{"interpolation": 2, "co": {"X": 1.0, "Y": 0.0}}]}, "anchor": 0, "start": 52.85, "volume": {"Points": [{"interpolation": 2, "co": {"X": 1.0, "Y": 1.0}}]}, "perspective_c2_y": {"Points": [{"interpolation": 2, "co": {"X": 1.0, "Y": -1.0}}]}, "gravity": 4, "id": "GV8LG59DLC", "crop_y": {"Points": [{"interpolation": 2, "co": {"X": 1.0, "Y": 0.0}}]}, "has_video": {"Points": [{"interpolation": 2, "co": {"X": 1.0, "Y": -1.0}}]}, "perspective_c2_x": {"Points": [{"interpolation": 2, "co": {"X": 1.0, "Y": -1.0}}]}, "perspective_c1_y": {"Points": [{"interpolation": 2, "co": {"X": 1.0, "Y": -1.0}}]}, "image": "C:\\Users\\Henry\\.openshot_qt\\thumbnail\\GV8LG59DLC-1269.png", "alpha": {"Points": [{"interpolation": 2, "co": {"X": 1.0, "Y": 1.0}}]}, "crop_height": {"Points": [{"interpolation": 2, "co": {"X": 1.0, "Y": -1.0}}]}, "location_x": {"Points": [{"interpolation": 2, "co": {"X": 1.0, "Y": 0.0}}]}, "shear_y": {"Points": [{"interpolation": 2, "co": {"X": 1.0, "Y": 0.0}}]}, "perspective_c3_x": {"Points": [{"interpolation": 2, "co": {"X": 1.0, "Y": -1.0}}]}}, "type": "update", "key": ["clips", {"id": "GV8LG59DLC"}], "partial": false, "old_values": {"crop_width": {"Points": [{"interpolation": 2, "co": {"X": 1.0, "Y": -1.0}}]}, "display": 0, "waveform": false, "channel_filter": {"Points": [{"interpolation": 2, "co": {"X": 1.0, "Y": -1.0}}]}, "effects": [], "layer": 3, "scale_y": {"Points": [{"interpolation": 2, "co": {"X": 1.0, "Y": 1.0}}]}, "perspective_c3_y": {"Points": [{"interpolation": 2, "co": {"X": 1.0, "Y": -1.0}}]}, "rotation": {"Points": [{"interpolation": 2, "co": {"X": 1.0, "Y": 0.0}}]}, "end": 56.699999999999996, "time": {"Points": [{"interpolation": 1, "co": {"X": 1.0, "Y": 1.0}}, {"interpolation": 1, "co": {"X": 2280.0, "Y": 4559.0}}]}, "crop_x": {"Points": [{"interpolation": 2, "co": {"X": 1.0, "Y": 0.0}}]}, "shear_x": {"Points": [{"interpolation": 2, "co": {"X": 1.0, "Y": 0.0}}]}, "duration": 94.0, "scale_x": {"Points": [{"interpolation": 2, "co": {"X": 1.0, "Y": 1.0}}]}, "title": "cute.mp3", "has_audio": {"Points": [{"interpolation": 2, "co": {"X": 1.0, "Y": -1.0}}]}, "perspective_c4_y": {"Points": [{"interpolation": 2, "co": {"X": 1.0, "Y": -1.0}}]}, "channel_mapping": {"Points": [{"interpolation": 2, "co": {"X": 1.0, "Y": -1.0}}]}, "perspective_c4_x": {"Points": [{"interpolation": 2, "co": {"X": 1.0, "Y": -1.0}}]}, "position": 36.47, "scale": 1, "wave_color": {"blue": {"Points": [{"handle_left": {"X": 0.5, "Y": 1.0}, "interpolation": 0, "handle_type": 0, "handle_right": {"X": 0.5, "Y": 0.0}, "co": {"X": 1.0, "Y": 255.0}}]}, "green": {"Points": [{"handle_left": {"X": 0.5, "Y": 1.0}, "interpolation": 0, "handle_type": 0, "handle_right": {"X": 0.5, "Y": 0.0}, "co": {"X": 1.0, "Y": 123.0}}]}, "red": {"Points": [{"handle_left": {"X": 0.5, "Y": 1.0}, "interpolation": 0, "handle_type": 0, "handle_right": {"X": 0.5, "Y": 0.0}, "co": {"X": 1.0, "Y": 0.0}}]}, "alpha": {"Points": [{"handle_left": {"X": 0.5, "Y": 1.0}, "interpolation": 0, "handle_type": 0, "handle_right": {"X": 0.5, "Y": 0.0}, "co": {"X": 1.0, "Y": 255.0}}]}}, "perspective_c1_x": {"Points": [{"interpolation": 2, "co": {"X": 1.0, "Y": -1.0}}]}, "file_id": "6DFW25DRJZ", "location_y": {"Points": [{"interpolation": 2, "co": {"X": 1.0, "Y": 0.0}}]}, "anchor": 0, "start": 52.85, "volume": {"Points": [{"interpolation": 2, "co": {"X": 1.0, "Y": 1.0}}]}, "perspective_c2_y": {"Points": [{"interpolation": 2, "co": {"X": 1.0, "Y": -1.0}}]}, "gravity": 4, "id": "GV8LG59DLC", "crop_y": {"Points": [{"interpolation": 2, "co": {"X": 1.0, "Y": 0.0}}]}, "has_video": {"Points": [{"interpolation": 2, "co": {"X": 1.0, "Y": -1.0}}]}, "perspective_c2_x": {"Points": [{"interpolation": 2, "co": {"X": 1.0, "Y": -1.0}}]}, "perspective_c1_y": {"Points": [{"interpolation": 2, "co": {"X": 1.0, "Y": -1.0}}]}, "image": "C:\\Users\\Henry\\.openshot_qt\\thumbnail\\P9UCYI6O28-394.png", "alpha": {"Points": [{"interpolation": 2, "co": {"X": 1.0, "Y": 1.0}}]}, "crop_height": {"Points": [{"interpolation": 2, "co": {"X": 1.0, "Y": -1.0}}]}, "reader": {"height": 480, "width": 720, "video_length": "4559", "audio_bit_rate": 112000, "top_field_first": true, "display_ratio": {"den": 1, "num": 1}, "type": "FFmpegReader", "video_bit_rate": 0, "channel_layout": 3, "acodec": "mp3", "vcodec": "", "duration": 189.9627075195312, "has_audio": true, "pixel_ratio": {"den": 1, "num": 1}, "file_size": "2659839", "fps": {"den": 1, "num": 24}, "path": "C:\\Users\\Henry\\Documents\\Classes\\Fall 2017\\CS 329e Game Dev\\MVPgamedev\\Game\\assets\\sounds\\cute.mp3", "pixel_format": -1, "audio_stream_index": 0, "video_timebase": {"den": 24, "num": 1}, "audio_timebase": {"den": 14112000, "num": 1}, "video_stream_index": -1, "interlaced_frame": false, "channels": 2, "has_single_image": false, "has_video": false, "sample_rate": 44100}, "location_x": {"Points": [{"interpolation": 2, "co": {"X": 1.0, "Y": 0.0}}]}, "shear_y": {"Points": [{"interpolation": 2, "co": {"X": 1.0, "Y": 0.0}}]}, "perspective_c3_x": {"Points": [{"interpolation": 2, "co": {"X": 1.0, "Y": -1.0}}]}}}, {"value": {"crop_width": {"Points": [{"interpolation": 2, "co": {"X": 1.0, "Y": -1.0}}]}, "display": 0, "waveform": false, "channel_filter": {"Points": [{"interpolation": 2, "co": {"X": 1.0, "Y": -1.0}}]}, "effects": [], "layer": 3, "scale_y": {"Points": [{"interpolation": 2, "co": {"X": 1.0, "Y": 1.0}}]}, "perspective_c3_y": {"Points": [{"interpolation": 2, "co": {"X": 1.0, "Y": -1.0}}]}, "rotation": {"Points": [{"interpolation": 2, "co": {"X": 1.0, "Y": 0.0}}]}, "end": 52.85, "time": {"Points": [{"interpolation": 1, "co": {"X": 1.0, "Y": 1.0}}, {"interpolation": 1, "co": {"X": 2280.0, "Y": 4559.0}}]}, "crop_x": {"Points": [{"interpolation": 2, "co": {"X": 1.0, "Y": 0.0}}]}, "shear_x": {"Points": [{"interpolation": 2, "co": {"X": 1.0, "Y": 0.0}}]}, "duration": 94.0, "scale_x": {"Points": [{"interpolation": 2, "co": {"X": 1.0, "Y": 1.0}}]}, "title": "cute.mp3", "has_audio": {"Points": [{"interpolation": 2, "co": {"X": 1.0, "Y": -1.0}}]}, "perspective_c4_y": {"Points": [{"interpolation": 2, "co": {"X": 1.0, "Y": -1.0}}]}, "channel_mapping": {"Points": [{"interpolation": 2, "co": {"X": 1.0, "Y": -1.0}}]}, "perspective_c4_x": {"Points": [{"interpolation": 2, "co": {"X": 1.0, "Y": -1.0}}]}, "position": 0, "scale": 1, "wave_color": {"blue": {"Points": [{"handle_left": {"X": 0.5, "Y": 1.0}, "interpolation": 0, "handle_type": 0, "handle_right": {"X": 0.5, "Y": 0.0}, "co": {"X": 1.0, "Y": 255.0}}]}, "green": {"Points": [{"handle_left": {"X": 0.5, "Y": 1.0}, "interpolation": 0, "handle_type": 0, "handle_right": {"X": 0.5, "Y": 0.0}, "co": {"X": 1.0, "Y": 123.0}}]}, "red": {"Points": [{"handle_left": {"X": 0.5, "Y": 1.0}, "interpolation": 0, "handle_type": 0, "handle_right": {"X": 0.5, "Y": 0.0}, "co": {"X": 1.0, "Y": 0.0}}]}, "alpha": {"Points": [{"handle_left": {"X": 0.5, "Y": 1.0}, "interpolation": 0, "handle_type": 0, "handle_right": {"X": 0.5, "Y": 0.0}, "co": {"X": 1.0, "Y": 255.0}}]}}, "perspective_c1_x": {"Points": [{"interpolation": 2, "co": {"X": 1.0, "Y": -1.0}}]}, "file_id": "6DFW25DRJZ", "location_y": {"Points": [{"interpolation": 2, "co": {"X": 1.0, "Y": 0.0}}]}, "anchor": 0, "start": 16.380000000000003, "volume": {"Points": [{"interpolation": 2, "co": {"X": 1.0, "Y": 1.0}}]}, "perspective_c2_y": {"Points": [{"interpolation": 2, "co": {"X": 1.0, "Y": -1.0}}]}, "gravity": 4, "id": "P9UCYI6O28", "crop_y": {"Points": [{"interpolation": 2, "co": {"X": 1.0, "Y": 0.0}}]}, "has_video": {"Points": [{"interpolation": 2, "co": {"X": 1.0, "Y": -1.0}}]}, "perspective_c2_x": {"Points": [{"interpolation": 2, "co": {"X": 1.0, "Y": -1.0}}]}, "perspective_c1_y": {"Points": [{"interpolation": 2, "co": {"X": 1.0, "Y": -1.0}}]}, "image": "C:\\Users\\Henry\\.openshot_qt\\thumbnail\\P9UCYI6O28-394.png", "alpha": {"Points": [{"interpolation": 2, "co": {"X": 1.0, "Y": 1.0}}]}, "crop_height": {"Points": [{"interpolation": 2, "co": {"X": 1.0, "Y": -1.0}}]}, "location_x": {"Points": [{"interpolation": 2, "co": {"X": 1.0, "Y": 0.0}}]}, "shear_y": {"Points": [{"interpolation": 2, "co": {"X": 1.0, "Y": 0.0}}]}, "perspective_c3_x": {"Points": [{"interpolation": 2, "co": {"X": 1.0, "Y": -1.0}}]}}, "type": "update", "key": ["clips", {"id": "P9UCYI6O28"}], "partial": false, "old_values": {"crop_width": {"Points": [{"interpolation": 2, "co": {"X": 1.0, "Y": -1.0}}]}, "display": 0, "waveform": false, "channel_filter": {"Points": [{"interpolation": 2, "co": {"X": 1.0, "Y": -1.0}}]}, "effects": [], "layer": 3, "scale_y": {"Points": [{"interpolation": 2, "co": {"X": 1.0, "Y": 1.0}}]}, "perspective_c3_y": {"Points": [{"interpolation": 2, "co": {"X": 1.0, "Y": -1.0}}]}, "rotation": {"Points": [{"interpolation": 2, "co": {"X": 1.0, "Y": 0.0}}]}, "end": 56.699999999999996, "time": {"Points": [{"interpolation": 1, "co": {"X": 1.0, "Y": 1.0}}, {"interpolation": 1, "co": {"X": 2280.0, "Y": 4559.0}}]}, "crop_x": {"Points": [{"interpolation": 2, "co": {"X": 1.0, "Y": 0.0}}]}, "shear_x": {"Points": [{"interpolation": 2, "co": {"X": 1.0, "Y": 0.0}}]}, "duration": 94.0, "scale_x": {"Points": [{"interpolation": 2, "co": {"X": 1.0, "Y": 1.0}}]}, "title": "cute.mp3", "has_audio": {"Points": [{"interpolation": 2, "co": {"X": 1.0, "Y": -1.0}}]}, "perspective_c4_y": {"Points": [{"interpolation": 2, "co": {"X": 1.0, "Y": -1.0}}]}, "channel_mapping": {"Points": [{"interpolation": 2, "co": {"X": 1.0, "Y": -1.0}}]}, "perspective_c4_x": {"Points": [{"interpolation": 2, "co": {"X": 1.0, "Y": -1.0}}]}, "position": 0, "scale": 1, "wave_color": {"blue": {"Points": [{"handle_left": {"X": 0.5, "Y": 1.0}, "interpolation": 0, "handle_type": 0, "handle_right": {"X": 0.5, "Y": 0.0}, "co": {"X": 1.0, "Y": 255.0}}]}, "green": {"Points": [{"handle_left": {"X": 0.5, "Y": 1.0}, "interpolation": 0, "handle_type": 0, "handle_right": {"X": 0.5, "Y": 0.0}, "co": {"X": 1.0, "Y": 123.0}}]}, "red": {"Points": [{"handle_left": {"X": 0.5, "Y": 1.0}, "interpolation": 0, "handle_type": 0, "handle_right": {"X": 0.5, "Y": 0.0}, "co": {"X": 1.0, "Y": 0.0}}]}, "alpha": {"Points": [{"handle_left": {"X": 0.5, "Y": 1.0}, "interpolation": 0, "handle_type": 0, "handle_right": {"X": 0.5, "Y": 0.0}, "co": {"X": 1.0, "Y": 255.0}}]}}, "perspective_c1_x": {"Points": [{"interpolation": 2, "co": {"X": 1.0, "Y": -1.0}}]}, "file_id": "6DFW25DRJZ", "location_y": {"Points": [{"interpolation": 2, "co": {"X": 1.0, "Y": 0.0}}]}, "anchor": 0, "start": 16.380000000000003, "volume": {"Points": [{"interpolation": 2, "co": {"X": 1.0, "Y": 1.0}}]}, "perspective_c2_y": {"Points": [{"interpolation": 2, "co": {"X": 1.0, "Y": -1.0}}]}, "gravity": 4, "id": "P9UCYI6O28", "crop_y": {"Points": [{"interpolation": 2, "co": {"X": 1.0, "Y": 0.0}}]}, "has_video": {"Points": [{"interpolation": 2, "co": {"X": 1.0, "Y": -1.0}}]}, "perspective_c2_x": {"Points": [{"interpolation": 2, "co": {"X": 1.0, "Y": -1.0}}]}, "perspective_c1_y": {"Points": [{"interpolation": 2, "co": {"X": 1.0, "Y": -1.0}}]}, "image": "C:\\Users\\Henry\\.openshot_qt\\thumbnail\\P9UCYI6O28-394.png", "alpha": {"Points": [{"interpolation": 2, "co": {"X": 1.0, "Y": 1.0}}]}, "crop_height": {"Points": [{"interpolation": 2, "co": {"X": 1.0, "Y": -1.0}}]}, "reader": {"height": 480, "width": 720, "video_length": "4559", "audio_bit_rate": 112000, "top_field_first": true, "display_ratio": {"den": 1, "num": 1}, "type": "FFmpegReader", "video_bit_rate": 0, "channel_layout": 3, "acodec": "mp3", "vcodec": "", "duration": 189.9627075195312, "has_audio": true, "pixel_ratio": {"den": 1, "num": 1}, "file_size": "2659839", "fps": {"den": 1, "num": 24}, "path": "C:\\Users\\Henry\\Documents\\Classes\\Fall 2017\\CS 329e Game Dev\\MVPgamedev\\Game\\assets\\sounds\\cute.mp3", "pixel_format": -1, "audio_stream_index": 0, "video_timebase": {"den": 24, "num": 1}, "audio_timebase": {"den": 14112000, "num": 1}, "video_stream_index": -1, "interlaced_frame": false, "channels": 2, "has_single_image": false, "has_video": false, "sample_rate": 44100}, "location_x": {"Points": [{"interpolation": 2, "co": {"X": 1.0, "Y": 0.0}}]}, "shear_y": {"Points": [{"interpolation": 2, "co": {"X": 1.0, "Y": 0.0}}]}, "perspective_c3_x": {"Points": [{"interpolation": 2, "co": {"X": 1.0, "Y": -1.0}}]}}}, {"value": {"id": "BW2FX9SZ9D", "position": 52.919999999999995, "layer": 3, "start": 0, "image": "C:\\Program Files\\OpenShot Video Editor\\images\\AudioThumbnail.png", "end": 22.75}, "type": "update", "key": ["clips", {"id": "BW2FX9SZ9D"}], "partial": false, "old_values": {"crop_width": {"Points": [{"interpolation": 2, "co": {"X": 1.0, "Y": -1.0}}]}, "display": 0, "waveform": false, "channel_filter": {"Points": [{"interpolation": 2, "co": {"X": 1.0, "Y": -1.0}}]}, "effects": [], "layer": 3, "scale_y": {"Points": [{"interpolation": 2, "co": {"X": 1.0, "Y": 1.0}}]}, "perspective_c3_y": {"Points": [{"interpolation": 2, "co": {"X": 1.0, "Y": -1.0}}]}, "rotation": {"Points": [{"interpolation": 2, "co": {"X": 1.0, "Y": 0.0}}]}, "end": 22.75, "time": {"Points": [{"interpolation": 2, "co": {"X": 1.0, "Y": 1.0}}]}, "crop_height": {"Points": [{"interpolation": 2, "co": {"X": 1.0, "Y": -1.0}}]}, "crop_x": {"Points": [{"interpolation": 2, "co": {"X": 1.0, "Y": 0.0}}]}, "shear_x": {"Points": [{"interpolation": 2, "co": {"X": 1.0, "Y": 0.0}}]}, "duration": 77.87101745605469, "scale_x": {"Points": [{"interpolation": 2, "co": {"X": 1.0, "Y": 1.0}}]}, "title": "bossMusic.mp3", "has_audio": {"Points": [{"interpolation": 2, "co": {"X": 1.0, "Y": -1.0}}]}, "perspective_c4_y": {"Points": [{"interpolation": 2, "co": {"X": 1.0, "Y": -1.0}}]}, "channel_mapping": {"Points": [{"interpolation": 2, "co": {"X": 1.0, "Y": -1.0}}]}, "perspective_c4_x": {"Points": [{"interpolation": 2, "co": {"X": 1.0, "Y": -1.0}}]}, "position": 36.82, "scale": 1, "wave_color": {"blue": {"Points": [{"handle_left": {"X": 0.5, "Y": 1.0}, "interpolation": 0, "handle_type": 0, "handle_right": {"X": 0.5, "Y": 0.0}, "co": {"X": 1.0, "Y": 255.0}}]}, "green": {"Points": [{"handle_left": {"X": 0.5, "Y": 1.0}, "interpolation": 0, "handle_type": 0, "handle_right": {"X": 0.5, "Y": 0.0}, "co": {"X": 1.0, "Y": 123.0}}]}, "red": {"Points": [{"handle_left": {"X": 0.5, "Y": 1.0}, "interpolation": 0, "handle_type": 0, "handle_right": {"X": 0.5, "Y": 0.0}, "co": {"X": 1.0, "Y": 0.0}}]}, "alpha": {"Points": [{"handle_left": {"X": 0.5, "Y": 1.0}, "interpolation": 0, "handle_type": 0, "handle_right": {"X": 0.5, "Y": 0.0}, "co": {"X": 1.0, "Y": 255.0}}]}}, "perspective_c1_x": {"Points": [{"interpolation": 2, "co": {"X": 1.0, "Y": -1.0}}]}, "file_id": "U6H5YEYQC1", "location_y": {"Points": [{"interpolation": 2, "co": {"X": 1.0, "Y": 0.0}}]}, "anchor": 0, "start": 0, "volume": {"Points": [{"interpolation": 2, "co": {"X": 1.0, "Y": 1.0}}, {"handle_left": {"X": 0.5, "Y": 1.0}, "interpolation": 0, "handle_type": 0, "handle_right": {"X": 0.5, "Y": 0.0}, "co": {"X": 1.0, "Y": 0.0}}, {"handle_left": {"X": 0.5, "Y": 1.0}, "interpolation": 0, "handle_type": 0, "handle_right": {"X": 0.5, "Y": 0.0}, "co": {"X": 73.0, "Y": 1.0}}, {"handle_left": {"X": 0.5, "Y": 1.0}, "interpolation": 0, "handle_type": 0, "handle_right": {"X": 0.5, "Y": 0.0}, "co": {"X": 1798.0, "Y": 1.0}}, {"handle_left": {"X": 0.5, "Y": 1.0}, "interpolation": 0, "handle_type": 0, "handle_right": {"X": 0.5, "Y": 0.0}, "co": {"X": 1870.0, "Y": 0.0}}, {"handle_left": {"X": 0.5, "Y": 1.0}, "interpolation": 0, "handle_type": 0, "handle_right": {"X": 0.5, "Y": 0.0}, "co": {"X": 1.0, "Y": 0.0}}, {"handle_left": {"X": 0.5, "Y": 1.0}, "interpolation": 0, "handle_type": 0, "handle_right": {"X": 0.5, "Y": 0.0}, "co": {"X": 73.0, "Y": 1.0}}, {"handle_left": {"X": 0.5, "Y": 1.0}, "interpolation": 0, "handle_type": 0, "handle_right": {"X": 0.5, "Y": 0.0}, "co": {"X": 475.0, "Y": 1.0}}, {"handle_left": {"X": 0.5, "Y": 1.0}, "interpolation": 0, "handle_type": 0, "handle_right": {"X": 0.5, "Y": 0.0}, "co": {"X": 547.0, "Y": 0.0}}]}, "perspective_c2_y": {"Points": [{"interpolation": 2, "co": {"X": 1.0, "Y": -1.0}}]}, "gravity": 4, "id": "BW2FX9SZ9D", "has_video": {"Points": [{"interpolation": 2, "co": {"X": 1.0, "Y": -1.0}}]}, "perspective_c2_x": {"Points": [{"interpolation": 2, "co": {"X": 1.0, "Y": -1.0}}]}, "perspective_c1_y": {"Points": [{"interpolation": 2, "co": {"X": 1.0, "Y": -1.0}}]}, "image": "C:\\Program Files\\OpenShot Video Editor\\images\\AudioThumbnail.png", "alpha": {"Points": [{"interpolation": 2, "co": {"X": 1.0, "Y": 1.0}}]}, "crop_y": {"Points": [{"interpolation": 2, "co": {"X": 1.0, "Y": 0.0}}]}, "reader": {"height": 480, "width": 720, "video_length": "1868", "audio_bit_rate": 128000, "top_field_first": true, "display_ratio": {"den": 1, "num": 1}, "type": "FFmpegReader", "video_bit_rate": 0, "vcodec": "", "acodec": "mp3", "channel_layout": 3, "duration": 77.87101745605469, "has_audio": true, "pixel_ratio": {"den": 1, "num": 1}, "file_size": "1246189", "fps": {"den": 1, "num": 24}, "path": "C:\\Users\\Henry\\Documents\\Classes\\Fall 2017\\CS 329e Game Dev\\MVPgamedev\\Game\\assets\\sounds\\bossMusic.mp3", "pixel_format": -1, "audio_stream_index": 0, "video_timebase": {"den": 24, "num": 1}, "audio_timebase": {"den": 14112000, "num": 1}, "video_stream_index": -1, "interlaced_frame": false, "channels": 2, "has_single_image": false, "has_video": false, "sample_rate": 44100}, "location_x": {"Points": [{"interpolation": 2, "co": {"X": 1.0, "Y": 0.0}}]}, "shear_y": {"Points": [{"interpolation": 2, "co": {"X": 1.0, "Y": 0.0}}]}, "perspective_c3_x": {"Points": [{"interpolation": 2, "co": {"X": 1.0, "Y": -1.0}}]}}}]}, "settings": {}, "duration": 1032.3973193359375, "tick_pixels": 100, "version": {"openshot-qt": "2.4.1", "libopenshot": "0.1.9"}, "markers": [], "scale": 7, "export_path": "", "fps": {"den": 1, "num": 24}, "profile": "HDV 720 24p", "files": [{"height": 776, "width": 1376, "video_length": "25729", "audio_bit_rate": 131760, "top_field_first": true, "display_ratio": {"den": 97, "num": 172}, "type": "FFmpegReader", "video_bit_rate": 5473610, "channel_layout": 3, "acodec": "aac", "vcodec": "h264", "duration": 857.8773193359375, "media_type": "video", "has_audio": true, "pixel_ratio": {"den": 1, "num": 1}, "file_size": "586964452", "fps": {"den": 12866759, "num": 385935000}, "path": "..\\..\\..\\..\\..\\Videos\\Captures\\index.html - Google Chrome 11_27_2017 4_25_11 PM.mp4", "pixel_format": 0, "audio_stream_index": 1, "video_timebase": {"den": 30000, "num": 1}, "audio_timebase": {"den": 48000, "num": 1}, "id": "KMO2K20KW3", "video_stream_index": 0, "interlaced_frame": false, "channels": 2, "has_single_image": false, "has_video": true, "sample_rate": 48000}, {"height": 744, "width": 1376, "video_length": "931", "audio_bit_rate": 120508, "top_field_first": true, "display_ratio": {"den": 93, "num": 172}, "type": "FFmpegReader", "video_bit_rate": 4884482, "channel_layout": 3, "acodec": "aac", "vcodec": "h264", "duration": 32.23466491699219, "media_type": "video", "has_audio": true, "pixel_ratio": {"den": 1, "num": 1}, "file_size": "19737442", "fps": {"den": 4253, "num": 122500}, "path": "..\\..\\..\\..\\..\\Videos\\Captures\\index.html - Google Chrome 11_27_2017 5_33_03 PM.mp4", "pixel_format": 0, "audio_stream_index": 1, "video_timebase": {"den": 30000, "num": 1}, "audio_timebase": {"den": 48000, "num": 1}, "id": "8GACR95UFW", "video_stream_index": 0, "interlaced_frame": false, "channels": 2, "has_single_image": false, "has_video": true, "sample_rate": 48000}, {"height": 774, "width": 1375, "video_length": "2592000", "audio_bit_rate": 0, "top_field_first": true, "display_ratio": {"den": 774, "num": 1375}, "type": "QtImageReader", "video_bit_rate": 0, "channel_layout": 4, "acodec": "", "vcodec": "", "duration": 86400.0, "media_type": "image", "has_audio": false, "pixel_ratio": {"den": 1, "num": 1}, "file_size": "4257000", "fps": {"den": 1, "num": 30}, "path": "Trailer Clips\\battle_bosses.JPG", "pixel_format": -1, "audio_stream_index": -1, "video_timebase": {"den": 30, "num": 1}, "audio_timebase": {"den": 1, "num": 1}, "id": "4ZHGHLSG3V", "video_stream_index": -1, "interlaced_frame": false, "channels": 0, "has_single_image": true, "has_video": true, "sample_rate": 0}, {"height": 775, "width": 1374, "video_length": "2592000", "audio_bit_rate": 0, "top_field_first": true, "display_ratio": {"den": 775, "num": 1374}, "type": "QtImageReader", "video_bit_rate": 0, "channel_layout": 4, "acodec": "", "vcodec": "", "duration": 86400.0, "media_type": "image", "has_audio": false, "pixel_ratio": {"den": 1, "num": 1}, "file_size": "4259400", "fps": {"den": 1, "num": 30}, "path": "Trailer Clips\\change_colors.JPG", "pixel_format": -1, "audio_stream_index": -1, "video_timebase": {"den": 30, "num": 1}, "audio_timebase": {"den": 1, "num": 1}, "id": "XB0WY1UP4P", "video_stream_index": -1, "interlaced_frame": false, "channels": 0, "has_single_image": true, "has_video": true, "sample_rate": 0}, {"height": 773, "width": 1375, "video_length": "2592000", "audio_bit_rate": 0, "top_field_first": true, "display_ratio": {"den": 773, "num": 1375}, "type": "QtImageReader", "video_bit_rate": 0, "channel_layout": 4, "acodec": "", "vcodec": "", "duration": 86400.0, "media_type": "image", "has_audio": false, "pixel_ratio": {"den": 1, "num": 1}, "file_size": "4251500", "fps": {"den": 1, "num": 30}, "path": "Trailer Clips\\collect_items.JPG", "pixel_format": -1, "audio_stream_index": -1, "video_timebase": {"den": 30, "num": 1}, "audio_timebase": {"den": 1, "num": 1}, "id": "023CIOM5V8", "video_stream_index": -1, "interlaced_frame": false, "channels": 0, "has_single_image": true, "has_video": true, "sample_rate": 0}, {"height": 774, "width": 1373, "video_length": "2592000", "audio_bit_rate": 0, "top_field_first": true, "display_ratio": {"den": 774, "num": 1373}, "type": "QtImageReader", "video_bit_rate": 0, "channel_layout": 4, "acodec": "", "vcodec": "", "duration": 86400.0, "media_type": "image", "has_audio": false, "pixel_ratio": {"den": 1, "num": 1}, "file_size": "4250808", "fps": {"den": 1, "num": 30}, "path": "Trailer Clips\\title_screen.JPG", "pixel_format": -1, "audio_stream_index": -1, "video_timebase": {"den": 30, "num": 1}, "audio_timebase": {"den": 1, "num": 1}, "id": "FP2BZAL3UU", "video_stream_index": -1, "interlaced_frame": false, "channels": 0, "has_single_image": true, "has_video": true, "sample_rate": 0}, {"height": 480, "width": 720, "video_length": "4559", "audio_bit_rate": 112000, "top_field_first": true, "display_ratio": {"den": 1, "num": 1}, "type": "FFmpegReader", "video_bit_rate": 0, "channel_layout": 3, "acodec": "mp3", "vcodec": "", "duration": 189.9627075195312, "media_type": "audio", "has_audio": true, "pixel_ratio": {"den": 1, "num": 1}, "file_size": "2659839", "fps": {"den": 1, "num": 24}, "path": "Game\\assets\\sounds\\cute.mp3", "pixel_format": -1, "audio_stream_index": 0, "video_timebase": {"den": 24, "num": 1}, "audio_timebase": {"den": 14112000, "num": 1}, "id": "6DFW25DRJZ", "video_stream_index": -1, "interlaced_frame": false, "channels": 2, "has_single_image": false, "has_video": false, "sample_rate": 44100}, {"height": 480, "width": 720, "video_length": "1868", "audio_bit_rate": 128000, "top_field_first": true, "display_ratio": {"den": 1, "num": 1}, "type": "FFmpegReader", "video_bit_rate": 0, "channel_layout": 3, "acodec": "mp3", "vcodec": "", "duration": 77.87101745605469, "media_type": "audio", "has_audio": true, "pixel_ratio": {"den": 1, "num": 1}, "file_size": "1246189", "fps": {"den": 1, "num": 24}, "path": "Game\\assets\\sounds\\bossMusic.mp3", "pixel_format": -1, "audio_stream_index": 0, "video_timebase": {"den": 24, "num": 1}, "audio_timebase": {"den": 14112000, "num": 1}, "id": "U6H5YEYQC1", "video_stream_index": -1, "interlaced_frame": false, "channels": 2, "has_single_image": false, "has_video": false, "sample_rate": 44100}, {"height": 747, "width": 1324, "video_length": "2592000", "audio_bit_rate": 0, "top_field_first": true, "display_ratio": {"den": 747, "num": 1324}, "type": "QtImageReader", "video_bit_rate": 0, "channel_layout": 4, "acodec": "", "vcodec": "", "duration": 86400.0, "media_type": "image", "has_audio": false, "pixel_ratio": {"den": 1, "num": 1}, "file_size": "3956112", "fps": {"den": 1, "num": 30}, "path": "Trailer Clips\\gammaprogram_logo.JPG", "pixel_format": -1, "audio_stream_index": -1, "video_timebase": {"den": 30, "num": 1}, "audio_timebase": {"den": 1, "num": 1}, "id": "LGNIWH4F8R", "video_stream_index": -1, "interlaced_frame": false, "channels": 0, "has_single_image": true, "has_video": true, "sample_rate": 0}, {"height": 743, "width": 1322, "video_length": "2592000", "audio_bit_rate": 0, "top_field_first": true, "display_ratio": {"den": 743, "num": 1322}, "type": "QtImageReader", "video_bit_rate": 0, "channel_layout": 4, "acodec": "", "vcodec": "", "duration": 86400.0, "media_type": "image", "has_audio": false, "pixel_ratio": {"den": 1, "num": 1}, "file_size": "3928984", "fps": {"den": 1, "num": 30}, "path": "Trailer Clips\\title_blue.JPG", "pixel_format": -1, "audio_stream_index": -1, "video_timebase": {"den": 30, "num": 1}, "audio_timebase": {"den": 1, "num": 1}, "id": "78F44BZZJZ", "video_stream_index": -1, "interlaced_frame": false, "channels": 0, "has_single_image": true, "has_video": true, "sample_rate": 0}, {"height": 744, "width": 1321, "video_length": "2592000", "audio_bit_rate": 0, "top_field_first": true, "display_ratio": {"den": 744, "num": 1321}, "type": "QtImageReader", "video_bit_rate": 0, "channel_layout": 4, "acodec": "", "vcodec": "", "duration": 86400.0, "media_type": "image", "has_audio": false, "pixel_ratio": {"den": 1, "num": 1}, "file_size": "3931296", "fps": {"den": 1, "num": 30}, "path": "Trailer Clips\\title_green.JPG", "pixel_format": -1, "audio_stream_index": -1, "video_timebase": {"den": 30, "num": 1}, "audio_timebase": {"den": 1, "num": 1}, "id": "71YSREPZ2E", "video_stream_index": -1, "interlaced_frame": false, "channels": 0, "has_single_image": true, "has_video": true, "sample_rate": 0}, {"height": 745, "width": 1323, "video_length": "2592000", "audio_bit_rate": 0, "top_field_first": true, "display_ratio": {"den": 745, "num": 1323}, "type": "QtImageReader", "video_bit_rate": 0, "channel_layout": 4, "acodec": "", "vcodec": "", "duration": 86400.0, "media_type": "image", "has_audio": false, "pixel_ratio": {"den": 1, "num": 1}, "file_size": "3942540", "fps": {"den": 1, "num": 30}, "path": "Trailer Clips\\title_orange.JPG", "pixel_format": -1, "audio_stream_index": -1, "video_timebase": {"den": 30, "num": 1}, "audio_timebase": {"den": 1, "num": 1}, "id": "79XQ1JXZOE", "video_stream_index": -1, "interlaced_frame": false, "channels": 0, "has_single_image": true, "has_video": true, "sample_rate": 0}], "id": "T0", "sample_rate": 44100, "progress": [], "playhead_position": 0, "channels": 2}